<svg width="38" height="38" viewBox="0 0 38 38" fill="none" xmlns="http://www.w3.org/2000/svg">
<path d="M13.8457 0.166665C16.2388 0.16663 18.168 0.166596 19.6851 0.368633C21.2603 0.578401 22.5867 1.02714 23.64 2.07047C24.5586 2.98035 25.0228 4.09849 25.2665 5.41234C25.5032 6.68904 25.5485 8.25145 25.5591 10.1261C25.5631 10.8441 24.9787 11.4293 24.2539 11.4333C23.529 11.4373 22.9381 10.8585 22.9341 10.1406C22.9234 8.24518 22.8737 6.9017 22.6847 5.88207C22.5025 4.8996 22.2098 4.33093 21.7839 3.90895C21.2995 3.42923 20.6194 3.11645 19.3355 2.94546C18.0135 2.76942 16.2616 2.76666 13.7496 2.76666H11.9996C9.48769 2.76666 7.73577 2.76942 6.41382 2.94546C5.12967 3.11645 4.44979 3.42923 3.96539 3.90895C3.48099 4.38867 3.16529 5.0622 2.99257 6.33407C2.81494 7.64335 2.81214 9.37862 2.81214 11.8667V25.7333C2.81214 28.2214 2.81494 29.9566 2.99257 31.266C3.16529 32.5379 3.48099 33.2113 3.96539 33.6911C4.44979 34.1708 5.12967 34.4835 6.41382 34.6546C7.73577 34.8306 9.48769 34.8333 11.9996 34.8333H13.7496C16.2616 34.8333 18.0135 34.8306 19.3355 34.6546C20.6194 34.4835 21.2995 34.1708 21.7839 33.6911C22.2098 33.269 22.5025 32.7005 22.6847 31.718C22.8737 30.6983 22.9234 29.3548 22.9341 27.4594C22.9381 26.7414 23.529 26.1627 24.2539 26.1667C24.9787 26.1707 25.5631 26.756 25.5591 27.4739C25.5485 29.3485 25.5032 30.911 25.2665 32.1876C25.0228 33.5014 24.5586 34.6196 23.64 35.5296C22.5867 36.5729 21.2603 37.0217 19.6851 37.2314C18.168 37.4333 16.2388 37.4333 13.8457 37.4333H11.9036C9.51027 37.4333 7.58124 37.4333 6.06399 37.2314C4.48882 37.0217 3.16267 36.5729 2.10917 35.5296C1.05584 34.4861 0.602768 33.1726 0.391018 31.6125C0.186968 30.1097 0.187141 28.199 0.187141 25.8285V11.7716C0.187141 9.40107 0.186968 7.49038 0.391018 5.98763C0.602768 4.42744 1.05584 3.1138 2.10917 2.07047C3.16267 1.02714 4.48882 0.578401 6.06399 0.368633C7.58124 0.166596 9.51027 0.16663 11.9036 0.166665H13.8457Z" fill="#F3F4F6"/>
<path d="M13.75 17.5C13.0252 17.5 12.4375 18.0821 12.4375 18.8C12.4375 19.518 13.0252 20.1 13.75 20.1H32.952L29.5208 23.013C28.9705 23.4802 28.9067 24.3009 29.3785 24.846C29.8502 25.3912 30.6788 25.4543 31.2292 24.987L37.3542 19.787C37.6451 19.5401 37.8125 19.1794 37.8125 18.8C37.8125 18.4206 37.6451 18.0599 37.3542 17.813L31.2292 12.613C30.6788 12.1457 29.8502 12.2088 29.3785 12.754C28.9067 13.2991 28.9705 14.1198 29.5208 14.587L32.952 17.5H13.75Z" fill="#F3F4F6"/>
</svg>
