<svg width="40" height="40" viewBox="0 0 40 40" fill="none" xmlns="http://www.w3.org/2000/svg">
<path d="M19.9999 8.72396C22.0568 8.72396 23.9229 9.56235 25.2707 10.9071L25.2724 10.9104L25.2957 10.932C26.6254 12.2783 27.4572 14.1344 27.4572 16.1815C27.4572 18.2385 26.6171 20.1045 25.2724 21.4524H25.2707L25.2724 21.454C24.9802 21.7479 24.6598 22.0201 24.3211 22.2609C26.1506 22.8452 27.8208 23.7882 29.2452 25.0067C31.2822 26.7499 32.8229 29.0608 33.6181 31.6954C36.3158 28.5544 37.951 24.467 37.951 19.9994C37.951 15.0571 35.9521 10.5763 32.7281 7.3391L32.6932 7.30589C29.4476 4.0603 24.9552 2.04823 19.9997 2.04823C15.0407 2.04823 10.5468 4.06035 7.30613 7.30249L7.3028 7.30581C4.0605 10.5464 2.0485 15.0404 2.0485 19.9993C2.0485 24.4669 3.68378 28.5541 6.3814 31.6952C7.17165 29.0606 8.7156 26.7495 10.7543 25.0066C12.1787 23.788 13.8488 22.8451 15.6783 22.2607C15.3397 22.02 15.0192 21.7478 14.7254 21.4539L14.664 21.3875C13.3541 20.0461 12.5423 18.2066 12.5423 16.1813C12.5423 14.1244 13.3823 12.2566 14.7254 10.9104L14.7503 10.8855C16.0967 9.55408 17.9527 8.72396 19.9999 8.72396ZM23.8299 12.3547L23.8265 12.3514C22.8504 11.3802 21.4923 10.7726 19.9999 10.7726C18.5173 10.7726 17.1676 11.372 16.1915 12.3332L16.1699 12.3548C15.1987 13.3309 14.5911 14.6889 14.5911 16.1814C14.5911 17.649 15.1754 18.9854 16.1167 19.9533L16.135 19.9732L16.1732 20.0081C17.1328 20.9676 18.4609 21.5736 19.9301 21.5919H20.0696C21.5388 21.5736 22.8669 20.9676 23.8265 20.0081C24.8011 19.0335 25.4087 17.6772 25.4087 16.1814C25.4087 14.6989 24.8077 13.3492 23.8481 12.373L23.8299 12.3547ZM20.0961 23.6406H19.9036C16.9186 23.6655 14.186 24.7628 12.0827 26.5624C10.0573 28.2956 8.6046 30.6929 8.06506 33.4105C11.231 36.2327 15.418 37.9511 20 37.9511C24.5802 37.9511 28.764 36.2296 31.9349 33.4088C31.3954 30.6894 29.9427 28.2956 27.9173 26.5624C25.8139 24.7628 23.0809 23.6655 20.0961 23.6406ZM19.9998 0C25.5181 0 30.5238 2.24285 34.1397 5.86031L34.1745 5.89684L34.1945 5.91676C37.7821 9.52759 40 14.5081 40 20C40 25.5181 37.7571 30.5238 34.1396 34.1397L33.7528 34.5165L33.7213 34.5464C30.1419 37.9265 25.3092 40 20.0001 40C14.7024 40 9.88628 37.9348 6.3086 34.5715L6.20401 34.4735L5.86036 34.1382V34.1398C2.24287 30.524 0 25.5187 0 20.0001C0 14.4815 2.24287 9.4797 5.86036 5.86211L5.88194 5.84052C9.49612 2.23466 14.4914 0 19.9998 0Z" fill="#323954"/>
</svg>
