<svg width="31" height="32" viewBox="0 0 31 32" fill="none" xmlns="http://www.w3.org/2000/svg">
<path d="M11.4287 3.25488H5.13616C3.74605 3.25488 2.61914 4.39612 2.61914 5.8039V14.7255C2.61914 16.1333 3.74605 17.2745 5.13616 17.2745H11.4287C12.8188 17.2745 13.9457 16.1333 13.9457 14.7255V5.8039C13.9457 4.39612 12.8188 3.25488 11.4287 3.25488Z" />
<path d="M25.2725 3.25488H18.9799C17.5898 3.25488 16.4629 4.39612 16.4629 5.8039V9.62743C16.4629 11.0352 17.5898 12.1765 18.9799 12.1765H25.2725C26.6626 12.1765 27.7895 11.0352 27.7895 9.62743V5.8039C27.7895 4.39612 26.6626 3.25488 25.2725 3.25488Z" />
<path d="M11.4287 19.8235H5.13616C3.74605 19.8235 2.61914 20.9648 2.61914 22.3726V26.1961C2.61914 27.6039 3.74605 28.7451 5.13616 28.7451H11.4287C12.8188 28.7451 13.9457 27.6039 13.9457 26.1961V22.3726C13.9457 20.9648 12.8188 19.8235 11.4287 19.8235Z" />
<path d="M25.2725 14.7255H18.9799C17.5898 14.7255 16.4629 15.8667 16.4629 17.2745V26.1961C16.4629 27.6038 17.5898 28.7451 18.9799 28.7451H25.2725C26.6626 28.7451 27.7895 27.6038 27.7895 26.1961V17.2745C27.7895 15.8667 26.6626 14.7255 25.2725 14.7255Z" />
</svg>
