<svg width="24" height="24" viewBox="0 0 24 24" fill="none" xmlns="http://www.w3.org/2000/svg">
<g clip-path="url(#clip0_560_182)">
<path d="M7.27015 7.31307C7.27015 8.99295 6.11707 10.3548 4.69471 10.3548C3.27247 10.3548 2.11963 8.99295 2.11963 7.31307C2.11963 5.63331 3.27247 4.27155 4.69471 4.27155C6.11707 4.27155 7.27015 5.63331 7.27015 7.31307Z" fill="#F3F4F6"/>
<path d="M7.63036 12.677C7.81636 12.5636 8.02216 12.4896 8.23528 12.4544C7.80256 11.8438 7.49596 11.1888 7.31884 10.405C7.27036 10.1186 6.8782 10.085 6.5866 10.3226C6.04108 10.7673 5.40472 11.0649 4.6948 11.0649C3.9712 11.0649 3.30556 10.777 2.77192 10.2952C2.60164 10.1414 2.35072 10.1181 2.15476 10.2377C1.1416 10.8567 0.374683 11.839 0.0401229 13.0058C-0.0497571 13.3184 0.0133642 13.6562 0.209444 13.9163C0.405764 14.1762 0.712485 14.3295 1.03816 14.3295H5.67832C6.2338 13.6887 6.88936 13.1292 7.63036 12.677Z" fill="#F3F4F6"/>
<path d="M16.73 7.31307C16.73 8.99295 17.8829 10.3548 19.3053 10.3548C20.7278 10.3548 21.8805 8.99295 21.8805 7.31307C21.8805 5.63331 20.7278 4.27155 19.3053 4.27155C17.8829 4.27155 16.73 5.63331 16.73 7.31307Z" fill="#F3F4F6"/>
<path d="M16.3701 12.677C16.1841 12.5636 15.9781 12.4896 15.7651 12.4544C16.1979 11.8438 16.5045 11.1888 16.6816 10.405C16.7302 10.1186 17.1223 10.085 17.4139 10.3226C17.9595 10.7673 18.5957 11.0649 19.3056 11.0649C20.0291 11.0649 20.6948 10.777 21.2286 10.2952C21.3989 10.1414 21.6497 10.1181 21.8457 10.2377C22.8589 10.8567 23.626 11.839 23.9603 13.0058C24.0501 13.3184 23.987 13.6562 23.7911 13.9163C23.5946 14.1762 23.2881 14.3295 22.9625 14.3295H18.3221C17.7666 13.6887 17.1112 13.1292 16.3701 12.677Z" fill="#F3F4F6"/>
<path d="M19.017 17.6942C18.5133 15.9357 17.3707 14.4488 15.8579 13.4951C15.5595 13.3072 15.1721 13.3376 14.9074 13.5708C14.0955 14.2859 13.0908 14.7116 12 14.7116C10.8878 14.7116 9.86513 14.2692 9.04493 13.529C8.78309 13.2924 8.39777 13.2568 8.09669 13.4409C6.53945 14.3918 5.36081 15.9014 4.84685 17.6943C4.70873 18.1752 4.80557 18.6936 5.10677 19.0937C5.40869 19.4933 5.87993 19.7286 6.38057 19.7286H17.4833C17.9841 19.7286 18.4557 19.494 18.7575 19.0937C19.0588 18.6935 19.1552 18.1756 19.017 17.6942Z" fill="#F3F4F6"/>
<path d="M15.9577 8.94566C15.9577 11.5272 14.1858 13.6203 12 13.6203C9.81428 13.6203 8.04248 11.5272 8.04248 8.94566C8.04248 6.36386 9.81428 4.27155 12 4.27155C14.1859 4.27155 15.9577 6.36398 15.9577 8.94566Z" fill="#F3F4F6"/>
</g>
<defs>
<clipPath id="clip0_560_182">
<rect width="24" height="24" fill="white"/>
</clipPath>
</defs>
</svg>
