<?xml version="1.0" encoding="UTF-8"?><svg id="Livello_2" xmlns="http://www.w3.org/2000/svg" viewBox="0 0 500 372.6"><defs><style>.cls-1{opacity:.4;}.cls-1,.cls-2,.cls-3,.cls-4,.cls-5,.cls-6,.cls-7,.cls-8,.cls-9,.cls-10,.cls-11,.cls-12,.cls-13,.cls-14,.cls-15,.cls-16{stroke-width:0px;}.cls-1,.cls-11,.cls-14{fill:#fff;}.cls-2,.cls-16{fill:#407bff;}.cls-3{fill:#ff8b7b;}.cls-4{fill:#e6e6e6;}.cls-5{opacity:.3;}.cls-6{fill:#e0e0e0;}.cls-7{fill:#ff5652;}.cls-8{fill:#f5f5f5;}.cls-9{fill:#f0f0f0;}.cls-10,.cls-16{opacity:.2;}.cls-12{fill:#fafafa;}.cls-13{fill:#263238;}.cls-14{opacity:.7;}.cls-15{fill:#ebebeb;}</style></defs><g id="Background_Complete"><rect class="cls-15" y="327.4" width="500" height=".2"/><rect class="cls-15" x="416.8" y="343.5" width="33.1" height=".2"/><rect class="cls-15" x="292.7" y="343.7" width="8.7" height=".2"/><rect class="cls-15" x="354.3" y="334.3" width="61.4" height=".2"/><rect class="cls-15" x="212.5" y="340.2" width="12.7" height=".2"/><rect class="cls-15" x="166.7" y="340.2" width="36.8" height=".2"/><rect class="cls-15" x="52.5" y="335.9" width="25.4" height=".2"/><rect class="cls-15" x="83.9" y="335.9" width="74.9" height=".2"/><path class="cls-15" d="m237,282.8H43.9c-3.1,0-5.7-2.6-5.7-5.7V5.7c0-3.1,2.6-5.7,5.7-5.7h193.1c3.1,0,5.7,2.6,5.7,5.7v271.4c0,3.1-2.6,5.7-5.7,5.7ZM43.9.2c-3,0-5.5,2.4-5.5,5.5v271.4c0,3,2.4,5.5,5.5,5.5h193.1c3,0,5.5-2.4,5.5-5.5V5.7c0-3-2.4-5.5-5.5-5.5H43.9Z"/><path class="cls-15" d="m453.3,282.8h-193.1c-3.1,0-5.7-2.6-5.7-5.7V5.7c0-3.1,2.6-5.7,5.7-5.7h193.1c3.1,0,5.7,2.6,5.7,5.7v271.4c0,3.1-2.6,5.7-5.7,5.7ZM260.2.2c-3,0-5.5,2.4-5.5,5.5v271.4c0,3,2.4,5.5,5.5,5.5h193.1c3,0,5.5-2.4,5.5-5.5V5.7c0-3-2.4-5.5-5.5-5.5h-193.1Z"/><rect class="cls-4" x="190.8" y="17" width="243" height="177.5" transform="translate(624.6 211.6) rotate(180)"/><rect class="cls-9" x="180" y="17" width="251.3" height="177.5" transform="translate(611.4 211.6) rotate(180)"/><rect class="cls-12" x="232" y="-4.8" width="147.4" height="221.2" transform="translate(411.5 -199.9) rotate(90)"/><polygon class="cls-11" points="362.5 179.5 312.2 32.1 264.1 32.1 314.4 179.5 362.5 179.5"/><polygon class="cls-11" points="304.1 179.5 253.7 32.1 235 32.1 285.3 179.5 304.1 179.5"/><rect class="cls-4" x="122.3" y="104.8" width="147.4" height="1.9" transform="translate(301.8 -90.2) rotate(90)"/><rect class="cls-6" x="64.6" y="24.6" width="85.8" height="121.7" transform="translate(215 170.9) rotate(180)"/><rect class="cls-8" x="58.5" y="24.6" width="88.5" height="121.7" transform="translate(205.5 170.9) rotate(180)"/><rect class="cls-11" x="51.5" y="49.9" width="102.5" height="71" transform="translate(188.2 -17.3) rotate(90)"/><path class="cls-4" d="m97.9,231.4c6.4-15.7,21.5-21.6,26.8-31.5,6.9-13,6.8-32.5,1-39.5-5.1-6.1-21.9,35.2-23.8,39.9-6.5,15.9-8.4,27.7-9.6,39.1.1-9.7.3-18.6.4-25.5.4-22.4.8-29.7,1-31.9.7-1.1,1.5-2.3,2-3,4.1-5.7,13.1-12.6,17.6-20.9,6.6-12.2,5.5-26.7.9-32.2-4.8-5.7-13.4,7.7-17.9,21-4.5,13.3-2.6,26-3.9,37-.3,2.2-.5,10.4-.8,21.8-1.4-12.3-4.1-20.5-9.2-28.1-6.2-9.4-11.6-20.9-16.8-19.4-5.1,1.5-2.4,16.6,1.7,27.3,3.6,9.5,21.5,18.9,24.1,26.6-.3,15.4-.6,35-.8,53.2-1.4-9.4-.4-10.2-6.2-24.6-3.4-8.6-17.5-19.1-19.2-13.2-1.6,5.8.9,17,6.2,24.8,4.3,6.3,13.8,6.3,16,10.2.5.9,2.2,4.4,3.2,6.4-.2,22.2-.3,41.9-.2,48.6h.9c0-1.7,0-13,.2-27.9,2.3-8,17.9-12.6,22.7-20.9,5-8.7,8.6-18.8,6.5-25.6-1.8-5.6-16,2-21.7,11.4-3.8,6.2-6.2,12.9-7.3,21.8.1-10.2.3-21.2.4-31.5,1.2-2.6,3.8-8.5,5.7-13.2Z"/><path class="cls-9" d="m107.1,327.4h-32.7c-1.8,0-3.3-1.3-3.7-3l-2.3-11.4h44.7l-2.3,11.4c-.4,1.7-1.9,3-3.7,3Z"/><path class="cls-9" d="m114,317.4h-46.5c-1.1,0-2.1-.8-2.2-1.9l-1-8.5c-.1-1.3.9-2.4,2.2-2.4h48.4c1.3,0,2.3,1.1,2.2,2.4l-1,8.5c-.1,1.1-1.1,1.9-2.2,1.9Z"/><rect class="cls-9" x="405.6" y="212.7" width="10" height="107.5" transform="translate(821.3 532.8) rotate(180)"/><rect class="cls-9" x="202.1" y="320.2" width="209.7" height="7.2" transform="translate(613.9 647.5) rotate(180)"/><rect class="cls-8" x="198.2" y="212.7" width="207.4" height="107.5"/><rect class="cls-6" x="408" y="205.9" width="10.3" height="6.8" transform="translate(826.3 418.6) rotate(180)"/><rect class="cls-15" x="195.5" y="205.9" width="212.4" height="6.8"/><path class="cls-11" d="m390.8,259.1h-177.6c-4.4,0-8-3.6-8-8v-23c0-4.4,3.6-8,8-8h177.6c4.4,0,8,3.6,8,8v23c0,4.4-3.6,8-8,8Zm-177.6-37.1c-3.3,0-6,2.7-6,6v23c0,3.3,2.7,6,6,6h177.6c3.3,0,6-2.7,6-6v-23c0-3.3-2.7-6-6-6h-177.6Z"/><path class="cls-11" d="m390.8,307.2h-177.6c-4.4,0-8-3.6-8-8v-23c0-4.4,3.6-8,8-8h177.6c4.4,0,8,3.6,8,8v23c0,4.4-3.6,8-8,8Zm-177.6-37.1c-3.3,0-6,2.7-6,6v23c0,3.3,2.7,6,6,6h177.6c3.3,0,6-2.7,6-6v-23c0-3.3-2.7-6-6-6h-177.6Z"/><path class="cls-11" d="m350.4,243.1h-96.9c-1.4,0-2.6-1.2-2.6-2.6v-1.9c0-1.4,1.2-2.6,2.6-2.6h96.9c1.4,0,2.6,1.2,2.6,2.6v1.9c0,1.4-1.2,2.6-2.6,2.6Zm-96.9-5.1c-.3,0-.6.3-.6.6v1.9c0,.3.3.6.6.6h96.9c.3,0,.6-.3.6-.6v-1.9c0-.3-.3-.6-.6-.6h-96.9Z"/><path class="cls-11" d="m350.4,291.2h-96.9c-1.4,0-2.6-1.2-2.6-2.6v-1.9c0-1.4,1.2-2.6,2.6-2.6h96.9c1.4,0,2.6,1.2,2.6,2.6v1.9c0,1.4-1.2,2.6-2.6,2.6Zm-96.9-5.1c-.3,0-.6.3-.6.6v1.9c0,.3.3.6.6.6h96.9c.3,0,.6-.3.6-.6v-1.9c0-.3-.3-.6-.6-.6h-96.9Z"/></g><g id="Shadow"><ellipse id="_Path_" class="cls-8" cx="245" cy="361.3" rx="193.9" ry="11.3"/></g><g id="Smartphone"><rect class="cls-2" x="372.1" y="115.3" width="5.9" height="1" transform="translate(235.4 482.6) rotate(-86.3)"/><rect class="cls-2" x="366.5" y="98.1" width="19.4" height="1" transform="translate(253.6 467.7) rotate(-86.3)"/><path class="cls-2" d="m364.4,60.8h-117.6c-6.2,0-11.5,5-11.9,11.2l-15.2,234.5c-.4,6.2,4.3,11.2,10.5,11.2h117.6c6.2,0,11.5-5,11.9-11.2l15.2-234.5c.4-6.2-4.3-11.2-10.5-11.2Z"/><path class="cls-14" d="m360.7,60.8h-113.8c-6.2,0-11.5,5-11.9,11.2l-15.2,234.5c-.4,6.2,4.3,11.2,10.5,11.2h113.8c6.2,0,11.5-5,11.9-11.2l15.2-234.5c.4-6.2-4.3-11.2-10.5-11.2Z"/><path class="cls-11" d="m351.1,300.3h-125.2c-2,0-3.5-1.7-3.4-3.6l13.7-212.2c.1-1.8,1.6-3.2,3.4-3.2h125.2c2,0,3.5,1.7,3.4,3.6l-13.7,212.2c-.1,1.8-1.6,3.2-3.4,3.2Z"/><path class="cls-11" d="m323.3,74.4h-45.5c-1,0-1.8-.8-1.7-1.8h0c0-1,.9-1.8,1.9-1.8h45.5c1,0,1.8.8,1.7,1.8h0c0,1-.9,1.8-1.9,1.8Z"/><path class="cls-11" d="m287.8,309.3c-.1,2.5-2.2,4.5-4.7,4.5s-4.4-2-4.2-4.5c.1-2.5,2.2-4.5,4.7-4.5s4.4,2,4.2,4.5Z"/><path class="cls-16" d="m337.5,140.1h-106.9l-6.8,104.9h113.7c6.2,0,11.2-5,11.2-11.2v-82.5c0-6.2-5-11.2-11.2-11.2Z"/><rect class="cls-2" x="185.3" y="130.8" width="153.4" height="104.9" rx="11.2" ry="11.2"/><path class="cls-2" d="m181.7,129.6c-.3,0-.5,0-.7-.3l-1.8-1.8c-.4-.4-.4-1,0-1.4.4-.4,1-.4,1.4,0l1.8,1.8c.4.4.4,1,0,1.4-.2.2-.5.3-.7.3Z"/><path class="cls-2" d="m179,135.8h-2.5c-.6,0-1-.4-1-1s.4-1,1-1h2.5c.6,0,1,.4,1,1s-.4,1-1,1Z"/><path class="cls-2" d="m188.1,126.8c-.5,0-1-.4-1-.9l-.2-2.5c0-.6.4-1,.9-1.1.6,0,1,.4,1.1.9l.2,2.5c0,.6-.4,1-.9,1.1,0,0,0,0,0,0Z"/><polygon class="cls-2" points="273.2 224.9 313.4 265.1 313.4 224.9 273.2 224.9"/><path class="cls-11" d="m284.2,207.3l-1.9-8.5c-.5-2.2-.5-4.5,0-6.8l2.7-12.1c2.4-10.8-3.1-21.6-12.5-26.3,0-.2.2-.4.2-.7.7-3.1-1.2-6.1-4.3-6.8-3.1-.7-6.1,1.2-6.8,4.3,0,.2,0,.5,0,.7-10.6.2-20.2,7.7-22.6,18.4l-2.7,12.1c-.5,2.2-1.5,4.3-2.9,6.1l-5.4,6.9c-2.3,2.9-.8,7.2,2.9,8.1l47.5,10.6c3.6.8,6.9-2.4,6-6.1Z"/><path class="cls-11" d="m248.3,209.9c-1.6-.4-3,1-2.7,2.6.5,3.2,3,5.9,6.3,6.6,3.4.8,6.7-.7,8.5-3.3.9-1.3.2-3.1-1.3-3.5l-10.8-2.4Z"/><path class="cls-11" d="m211.9,193c-.5,0-1-.2-1.2-.7-4.8-7.1-6.5-15.7-4.8-24.1s6.5-15.7,13.6-20.4c.7-.5,1.6-.3,2.1.4.5.7.3,1.6-.4,2.1-6.5,4.3-10.9,10.9-12.4,18.5-1.5,7.6,0,15.4,4.3,21.8.5.7.3,1.6-.4,2.1-.3.2-.5.3-.8.3Z"/><path class="cls-11" d="m218.2,188.8c-.5,0-1-.2-1.2-.7-3.6-5.4-4.9-11.9-3.6-18.3,1.3-6.4,5-11.9,10.4-15.5.7-.5,1.6-.3,2.1.4.5.7.3,1.6-.4,2.1-4.8,3.2-8,8-9.1,13.6-1.1,5.6,0,11.3,3.2,16.1.5.7.3,1.6-.4,2.1-.3.2-.5.3-.8.3Z"/><path class="cls-11" d="m224.6,184.5c-.5,0-1-.2-1.2-.7-2.5-3.7-3.4-8.2-2.5-12.6.9-4.4,3.4-8.2,7.1-10.7.7-.5,1.6-.3,2.1.4.5.7.3,1.6-.4,2.1-3.1,2-5.1,5.2-5.9,8.8-.7,3.6,0,7.3,2.1,10.4.5.7.3,1.6-.4,2.1-.3.2-.5.3-.8.3Z"/><path class="cls-11" d="m298.3,214.1c-.5,0-1.1-.3-1.3-.8-.4-.7,0-1.6.6-2,6.9-3.6,12-9.6,14.4-17,2.4-7.4,1.7-15.3-1.9-22.2-.4-.7,0-1.6.6-2,.7-.4,1.6,0,2,.6,3.9,7.6,4.7,16.3,2.1,24.5-2.6,8.2-8.2,14.8-15.8,18.8-.2.1-.5.2-.7.2Z"/><path class="cls-11" d="m294.8,207.3c-.5,0-1.1-.3-1.3-.8-.4-.7,0-1.6.6-2,5.1-2.6,8.8-7.1,10.6-12.5,1.7-5.5,1.3-11.3-1.4-16.3-.4-.7,0-1.6.6-2,.7-.4,1.6,0,2,.6,3,5.8,3.6,12.4,1.6,18.6-2,6.2-6.3,11.3-12.1,14.3-.2.1-.5.2-.7.2Z"/><path class="cls-11" d="m291.3,200.6c-.5,0-1.1-.3-1.3-.8-.4-.7,0-1.6.6-2,3.3-1.7,5.7-4.6,6.8-8.1,1.1-3.5.8-7.2-.9-10.5-.4-.7,0-1.6.6-2,.7-.4,1.6,0,2,.6,4.2,8.2,1,18.4-7.2,22.6-.2.1-.5.2-.7.2Z"/></g><g id="Character"><path class="cls-2" d="m203.4,70.9h-7.6c-.4,0-.8.3-.8.7l-1.6,15.2c0,.4.3.7.7.7h7.6c.4,0,.8-.3.8-.7l1.6-15.2c0-.4-.3-.7-.7-.7Z"/><path class="cls-1" d="m202.7,70.9h-7c-.4,0-.8.3-.8.7l-1.6,15.2c0,.4.3.7.7.7h7c.4,0,.8-.3.8-.7l1.6-15.2c0-.4-.3-.7-.7-.7Z"/><path class="cls-2" d="m165.1,352.7c1,0,2-.1,2.4-.6.1-.2.2-.4,0-.8-.1-.2-.3-.4-.6-.4-1.4-.4-4.1,1.2-4.2,1.3,0,0-.1.1,0,.2,0,0,0,.1.2.2.5.1,1.5.2,2.5.2Zm1.2-1.6c.1,0,.3,0,.4,0,.2,0,.3.1.4.3.1.2.1.4,0,.4-.4.5-2.4.5-3.9.3.7-.4,2.2-1.1,3.1-1.1Z"/><path class="cls-2" d="m162.6,352.5s0,0,0,0c1-.4,2.8-2.2,2.6-3.1,0-.2-.2-.5-.7-.5-.4,0-.7,0-1,.3-1,.8-1.1,3-1.1,3.1,0,0,0,.1,0,.2,0,0,0,0,.1,0Zm1.8-3.3s0,0,.1,0c.3,0,.4.2.4.2.1.5-1.1,1.9-2.1,2.5,0-.6.3-1.9,1-2.5.2-.2.4-.2.7-.2Z"/><rect class="cls-3" x="153.7" y="333.5" width="8.1" height="18.8"/><polygon class="cls-3" points="94.9 343.3 103 344.2 108.3 326 100.2 325.1 94.9 343.3"/><path class="cls-2" d="m106.8,346.1c1,.3,2,.4,2.5,0,.1-.1.3-.4.2-.8,0-.2-.2-.4-.5-.6-1.2-.7-4.3.2-4.5.2,0,0-.1,0-.1.2,0,0,0,.2.1.2.5.2,1.4.6,2.4.8Zm1.6-1.2c.1,0,.3,0,.4.1.2,0,.3.2.3.4,0,.3,0,.4,0,.4-.5.4-2.5,0-3.9-.7.8-.2,2.4-.5,3.3-.3Z"/><path class="cls-2" d="m104.4,345.2s0,0,0,0c1-.2,3.3-1.4,3.3-2.3,0-.2,0-.5-.6-.7-.4-.1-.7-.1-1.1,0-1.2.6-1.8,2.6-1.9,2.7,0,0,0,.1,0,.2,0,0,0,0,.1,0Zm2.6-2.7s0,0,.1,0c.3.1.3.3.3.3,0,.6-1.6,1.6-2.7,1.9.2-.6.8-1.8,1.6-2.2.2-.1.5-.1.7,0Z"/><path class="cls-13" d="m103.5,343.5l-8.8-2.5c-.3,0-.7,0-.8.3l-3.3,6.5c-.3.7,0,1.5.8,1.7,3.1.8,4.6,1.1,8.5,2.2,2.4.7,7.3,2.3,10.6,3.3,3.2.9,4.5-2.2,3.3-2.8-5.7-3.1-7.6-5.5-9.1-7.8-.3-.4-.7-.7-1.2-.8Z"/><path class="cls-13" d="m161.7,351.3h-8.8c-.3,0-.6.2-.7.6l-1.3,7.2c-.1.7.5,1.5,1.2,1.4,3.2,0,7.8-.2,11.8-.2s7.3.3,12.8.3,4.1-3.4,2.7-3.7c-6.4-1.4-10.1-1.5-15.7-4.9-.6-.4-1.3-.6-2-.6Z"/><rect class="cls-10" x="153.7" y="333.5" width="8.1" height="9.7"/><polygon class="cls-10" points="100.2 325.1 108.3 326 105.4 336.1 97.5 334.5 100.2 325.1"/><path class="cls-2" d="m148.5,147.1s-4.5,61.1-8.5,84.3c-4.4,25.4-30.1,103.1-30.1,103.1l-14.7-2.7s18.5-73,20.6-98.1c2.2-27.3,4.9-83.5,4.9-83.5l27.8-3.1Z"/><path class="cls-5" d="m140.9,172.5c.8-3.4,2.6.9,4.8,8.2-1.6,18.1-3.7,39.2-5.7,50.7-.5,2.6-1.1,5.7-2,9.3.7-25.9.8-59.1,2.9-68.2Z"/><path class="cls-2" d="m163.7,145.4s5.9,61.5,6.1,86.2c.2,25.7-5.1,109.8-5.1,109.8h-13.7s-4.1-82.6-5.8-107.8c-1.9-27.5-9.7-85-9.7-85l28.3-3.1Z"/><path class="cls-13" d="m113,329.5c0,0-2.3,5.3-2.3,5.3l-16.5-3,1-4.9,17.8,2.6Z"/><path class="cls-13" d="m167.1,335.9c0,0-.5,5.7-.5,5.7h-16.7l-.7-5.1,17.9-.6Z"/><path class="cls-3" d="m121.1,90.6c-1.1,2.1-2.3,4.4-3.4,6.6l-3.4,6.7c-1.1,2.2-2.2,4.5-3.2,6.7-1,2.2-2,4.5-2.8,6.7v-3.5c.5,1.8,1.2,3.5,2,5.3.4.9.9,1.7,1.3,2.6.5.8,1,1.7,1.5,2.5,1,1.7,2.2,3.3,3.4,4.9.6.8,1.2,1.6,1.9,2.4.6.7,1.4,1.5,2,2.2l.2.2c1.1,1.2,1,3-.2,4.1-.9.8-2.3,1-3.3.4-1.1-.6-2.1-1.2-3-1.9-.9-.7-1.9-1.4-2.8-2.1-1.8-1.5-3.5-3.1-5.1-4.8-1.6-1.7-3.1-3.6-4.3-5.6-1.3-2-2.5-4.1-3.5-6.4-.4-1-.5-2.1-.2-3v-.5c.9-2.6,1.8-5.1,2.7-7.6.9-2.5,1.9-4.9,3-7.3,1.1-2.4,2.2-4.8,3.3-7.1,1.2-2.3,2.4-4.6,3.7-6.9,1.6-2.8,5.2-3.7,7.9-2.1,2.7,1.6,3.6,4.9,2.2,7.7h0Z"/><path class="cls-13" d="m126.9,87.1c.4,7.6-8.3,21.6-8.3,21.6l-17.8-8.9s3-9.7,9.9-17.2c9.4-10.4,15.8-2.6,16.2,4.5Z"/><path class="cls-3" d="m114.8,136.8l3.6,6,7.5-4.8s-2-3.8-5.8-5.2c-1.1-.4-2.4.1-3,1.3l-2.2,2.7Z"/><path class="cls-3" d="m121.4,145.3l3.5-.6c1.2-.2,2-1.4,1.8-2.6l-.8-4-7.5,4.8.5,1.2c.4,1,1.4,1.5,2.5,1.3Z"/><path class="cls-13" d="m142.4,48.7c0,.7.5,1.2.9,1.1.4,0,.7-.6.6-1.2s-.5-1.2-.9-1.1c-.4,0-.7.6-.6,1.2Z"/><path class="cls-7" d="m142.8,49.9s1.9,3.7,3.8,5.4c-1,1.2-3,.8-3,.8l-.7-6.2Z"/><path class="cls-13" d="m139.6,45.3c.1,0,.2,0,.3,0,1.2-1.1,2.6-.7,2.6-.7.2,0,.4,0,.5-.3,0-.2,0-.4-.3-.5,0,0-1.8-.5-3.3.9-.2.1-.2.4,0,.5,0,0,.2.1.3.1Z"/><path class="cls-3" d="m122.3,55.9c1.9,5.8,4.5,16.5.8,20.7,0,0,2.4,5.8,13.3,4.9,12.1-1,5-6.5,5-6.5-6.8-1-7.2-5.9-6.7-10.6l-12.5-8.6Z"/><path class="cls-2" d="m120.5,78.8c-1.1-1.8-2.4-3.9-.3-4.7,2.4-.8,15.5-2.2,20.2-1.1,4.7,1.2,3.7,5,3.7,5l-23.7.7Z"/><path class="cls-3" d="m159.2,81.2c1.7,1.6,3.6,3.3,5.4,4.9,1.8,1.6,3.7,3.2,5.6,4.8,1.9,1.6,3.8,3.1,5.7,4.5,1.9,1.4,3.9,2.8,5.9,4l-4-.4c1.5-.4,3.1-1.1,4.6-2.2,1.6-1.1,3.1-2.4,4.6-3.9,1.5-1.5,2.9-3.1,4.2-4.9.7-.9,1.3-1.7,2-2.7.6-.9,1.3-1.9,1.8-2.7v-.2c1-1.3,2.8-1.7,4.1-.8,1.1.7,1.5,2,1.2,3.2-.4,1.3-.8,2.4-1.2,3.6-.5,1.2-.9,2.3-1.5,3.4-1.1,2.2-2.3,4.4-3.8,6.5-1.5,2.1-3.2,4.1-5.3,6-2.1,1.8-4.6,3.5-7.5,4.5-1.3.4-2.6.3-3.7-.2l-.3-.2c-2.5-1.2-4.9-2.6-7.2-4.1-2.3-1.5-4.5-3-6.6-4.6-2.1-1.6-4.2-3.3-6.2-5-2-1.8-3.9-3.5-5.9-5.5-2.2-2.3-2.2-6,0-8.2,2.2-2.2,5.7-2.2,8-.1h0Z"/><path class="cls-13" d="m153.1,76.1s10.1,9.8,11.2,70.3c-16.1,3.9-31.6,5.3-43.6,3.8-.6-7.6-1.4-33.9-9.1-61.7-1.4-5,1.7-10,6.8-11,1.5-.3,3.1-.6,4.7-.8,5.5-.7,13.4-1.6,18.3-1.5,6.5,0,11.6.9,11.6.9Z"/><path class="cls-13" d="m145.2,86.6c1,7.6,14,22.1,14,22.1l15.4-16s-6.7-7.2-14.8-13.3c-11.3-8.4-15.5.2-14.6,7.2Z"/><path class="cls-3" d="m199.3,87.7l5.2-4.7-6.2-6.4s-3.3,2.7-4,6.7c-.2,1.2.6,2.4,1.9,2.7l3.1,1.6Z"/><path class="cls-3" d="m206.4,79.5l-1.3-3.3c-.5-1.2-1.8-1.7-3-1.2l-3.8,1.6,6.2,6.4,1.1-.7c.9-.6,1.2-1.7.8-2.7Z"/><path class="cls-3" d="m120.7,49c1.4,8,1.9,12.7,6.4,16.6,6.8,5.7,16.1,1.3,17-6.9.8-7.4-1.7-19.2-9.8-21.8-8-2.5-15.1,4.1-13.6,12.1Z"/><path class="cls-13" d="m136.5,51.9c2.8.6,5-2.6,5.3-3.5-1.4.1-3.8-.6-4.3-1.2,1.5.1,3-1.7,3.1-2.4-1.6-.2-3.4-1.6-3.9-2.6,2.4,0,5.4-4.3,2.7-8.2s-13.8-.6-15.4-3.4c-2.3,1.4-.3,3.2-.3,3.2,0,0-15.8,3-8.5,9.1-5.3.5-6.1,6.8-1.6,10s4.7,5.3,2.9,5.1c.7,1.4,3.9,1.5,4.1.2.8,2.8,2.9,6.5,7.9,5.9,5-.6,9.9-7.6,8.1-12.3Z"/><path class="cls-13" d="m116.6,42.1c-3.8.5-5.5-1.6-4.5-3.5-4.7,2.4.4,7.6,4.5,3.5Z"/><path class="cls-3" d="m132.6,50.7c.6,1.7,2,3.2,3.3,4.1,2,1.3,3.8,0,3.5-2-.3-1.8-1.7-4.7-3.8-5.3-2.1-.5-3.7,1.2-3,3.2Z"/></g><g id="Plant"><path class="cls-2" d="m386.8,332.6c-7.4-17.5-10.4-38-1.9-37.1,8.7.8,7.7,31.8,9.1,35.2-2.7,2.3-7.2,1.9-7.2,1.9Z"/><path class="cls-13" d="m389.2,299.4c-1.8,6.7-3.7,16.9-5.2,25.7.8,2.5,1.8,5,2.8,7.5,0,0,4.4.4,7.2-1.9-1.1-2.7-.7-22.5-4.8-31.2Z"/><path class="cls-2" d="m389.2,329.4c-2.3-37.1,4-71.5,20.6-69.9,14.3,1.3-6.5,63.8-6.1,71-6.5,2.5-14.5-1.1-14.5-1.1Z"/><path class="cls-2" d="m400,329.1c2.6-26.7,16.7-57.8,22.7-47.4,7.7,13.2-12,44.6-12.5,49.8-4.9,1.1-10.2-2.4-10.2-2.4Z"/><path class="cls-2" d="m397.4,269.3c-1.7-.3-2.6-1.3-2.5-2.8.1-1.7,1.5-3.3,2.8-3.4.6,0,1.7.3,1.9,2.6h-1c-.1-1-.5-1.6-.9-1.6h0c-.7,0-1.7,1.2-1.8,2.4,0,1,.5,1.6,1.7,1.8l-.2,1Z"/><path class="cls-2" d="m415.3,276.1c-.5,0-1.2-.2-2-.8l.5-.8c.9.6,1.6.8,1.9.4.4-.5.1-2.1-.7-2.9-.7-.7-1.5-.6-2.4.2l-.7-.8c1.3-1.1,2.7-1.2,3.8-.1,1.2,1.2,1.6,3.3.8,4.3-.2.3-.6.6-1.2.6Z"/><path class="cls-2" d="m390.8,291.1c-1.4,0-2.3-.7-2.6-2-.4-1.6.4-3.6,1.6-4.1.6-.2,1.7-.2,2.6,1.9l-.9.4c-.5-1-1-1.5-1.4-1.4-.6.2-1.3,1.7-1,2.9.2.9,1,1.3,2.1,1.2v1c0,0-.3,0-.5,0Z"/><path class="cls-2" d="m380.2,311.9c-1,0-1.8-.5-2.3-1.5-.7-1.5-.3-3.7.8-4.3.5-.3,1.6-.5,2.9,1.4l-.8.6c-.6-.9-1.2-1.3-1.6-1.1-.6.3-.9,1.9-.4,3,.4.9,1.2,1.1,2.3.7l.3.9c-.4.2-.9.2-1.3.2Z"/><path class="cls-11" d="m397.9,281.7c-.1,0-.2,0-.3,0-1.4-1-1.9-2.3-1.3-3.6.6-1.4,2.1-2.3,3.5-2,.6.1,2.1.7,2.2,3.3,0,.3-.2.5-.5.5-.3,0-.5-.2-.5-.5,0-1.4-.5-2.2-1.3-2.4-.9-.2-2,.5-2.4,1.4-.4.9,0,1.7,1,2.4.2.2.3.5.1.7,0,.1-.3.2-.4.2Z"/><path class="cls-11" d="m409.7,308.7c-.2,0-.4-.2-.5-.4,0-.3.1-.5.4-.6,1.4-.3,2.1-.9,2.1-1.7,0-.9-.8-1.9-1.8-2.1-.9-.2-1.7.3-2.2,1.4-.1.2-.4.3-.7.2-.2-.1-.4-.4-.2-.7.7-1.5,2-2.2,3.4-1.9,1.4.3,2.6,1.7,2.6,3.1,0,.6-.3,2.1-2.9,2.7,0,0,0,0-.1,0Z"/><path class="cls-2" d="m423.8,300.2c-.6,0-1.3-.3-2.2-1.6l.8-.6c.6.9,1.2,1.3,1.6,1.1.6-.3.9-1.9.5-3-.4-.9-1.2-1.2-2.3-.8l-.3-.9c1.6-.5,2.9,0,3.5,1.3.7,1.5.2,3.7-.9,4.3-.2,0-.4.2-.7.2Z"/><path class="cls-13" d="m420.8,338.9c0-5.6-2-10.6-5.4-14.5.7-.1,1.2-.7,1.2-1.4s-.7-1.5-1.5-1.5h-33.5c-.8,0-1.5.7-1.5,1.5s.5,1.3,1.2,1.4c-3.4,3.9-5.4,9-5.4,14.5,0,8.6,4.8,16,11.9,19.8-.5.3-.9.8-.9,1.4,0,.9.7,1.6,1.6,1.6h19.4c.9,0,1.6-.7,1.6-1.6s-.4-1.2-.9-1.4c7.1-3.8,11.9-11.2,11.9-19.8Z"/></g></svg>