<svg xmlns="http://www.w3.org/2000/svg" xmlns:xlink="http://www.w3.org/1999/xlink" viewBox="0 0 1876.32 2066.77"><defs><style>.cls-1{fill:url(#linear-gradient);}.cls-2{fill:url(#linear-gradient-2);}.cls-3{fill:url(#linear-gradient-3);}.cls-14,.cls-4,.cls-7{fill:#fff;}.cls-5{fill:url(#linear-gradient-4);}.cls-6{opacity:0.56;fill:url(#linear-gradient-5);}.cls-7,.cls-8{stroke:#2e3191;stroke-width:4.93px;}.cls-14,.cls-7,.cls-8{stroke-miterlimit:10;}.cls-8,.cls-9{fill:none;}.cls-9{stroke:#fdfeff;stroke-linecap:round;stroke-linejoin:round;stroke-width:7.39px;}.cls-10{fill:#fefefe;}.cls-11{fill:url(#linear-gradient-6);}.cls-12{opacity:0.6;fill:url(#linear-gradient-7);}.cls-13{fill:url(#linear-gradient-8);}.cls-14{stroke:#f05a28;stroke-width:4.22px;}.cls-15{fill:url(#linear-gradient-9);}.cls-16{fill:url(#linear-gradient-10);}.cls-17{fill:url(#linear-gradient-11);}.cls-18{fill:url(#linear-gradient-12);}.cls-19{fill:#ffc299;}.cls-20{fill:url(#linear-gradient-13);}.cls-21{fill:url(#linear-gradient-14);}.cls-22{fill:url(#linear-gradient-15);}.cls-23{fill:url(#linear-gradient-16);}.cls-24{fill:url(#linear-gradient-17);}.cls-25{fill:url(#linear-gradient-18);}.cls-26{fill:url(#linear-gradient-19);}.cls-27{fill:url(#linear-gradient-20);}.cls-28{fill:url(#linear-gradient-21);}.cls-29{fill:url(#linear-gradient-22);}.cls-30{fill:url(#linear-gradient-23);}.cls-31{fill:url(#linear-gradient-24);}.cls-32{opacity:0.16;}.cls-33{opacity:0;fill:url(#linear-gradient-25);}.cls-34{opacity:0.04;fill:url(#linear-gradient-26);}.cls-35{opacity:0.07;fill:url(#linear-gradient-27);}.cls-36{opacity:0.11;fill:url(#linear-gradient-28);}.cls-37{opacity:0.14;fill:url(#linear-gradient-29);}.cls-38{opacity:0.18;fill:url(#linear-gradient-30);}.cls-39{opacity:0.21;fill:url(#linear-gradient-31);}.cls-40{opacity:0.25;fill:url(#linear-gradient-32);}.cls-41{opacity:0.29;fill:url(#linear-gradient-33);}.cls-42{opacity:0.32;fill:url(#linear-gradient-34);}.cls-43{opacity:0.36;fill:url(#linear-gradient-35);}.cls-44{opacity:0.39;fill:url(#linear-gradient-36);}.cls-45{opacity:0.43;fill:url(#linear-gradient-37);}.cls-46{opacity:0.46;fill:url(#linear-gradient-38);}.cls-47{opacity:0.5;fill:url(#linear-gradient-39);}.cls-48{opacity:0.54;fill:url(#linear-gradient-40);}.cls-49{opacity:0.57;fill:url(#linear-gradient-41);}.cls-50{opacity:0.61;fill:url(#linear-gradient-42);}.cls-51{opacity:0.64;fill:url(#linear-gradient-43);}.cls-52{opacity:0.68;fill:url(#linear-gradient-44);}.cls-53{opacity:0.71;fill:url(#linear-gradient-45);}.cls-54{opacity:0.75;fill:url(#linear-gradient-46);}.cls-55{opacity:0.79;fill:url(#linear-gradient-47);}.cls-56{opacity:0.82;fill:url(#linear-gradient-48);}.cls-57{opacity:0.86;fill:url(#linear-gradient-49);}.cls-58{opacity:0.89;fill:url(#linear-gradient-50);}.cls-59{opacity:0.93;fill:url(#linear-gradient-51);}.cls-60{opacity:0.96;fill:url(#linear-gradient-52);}.cls-61{fill:url(#linear-gradient-53);}</style><linearGradient id="linear-gradient" x1="117.31" y1="1675.74" x2="1876.32" y2="1675.74" gradientUnits="userSpaceOnUse"><stop offset="0" stop-color="#606060"/><stop offset="1" stop-color="#666"/></linearGradient><linearGradient id="linear-gradient-2" x1="1645.54" y1="1671.13" x2="348.78" y2="1671.13" gradientUnits="userSpaceOnUse"><stop offset="0" stop-color="#efefef"/><stop offset="1" stop-color="#fdfdfd"/></linearGradient><linearGradient id="linear-gradient-3" x1="117.31" y1="1611.11" x2="1876.32" y2="1611.11" xlink:href="#linear-gradient-2"/><linearGradient id="linear-gradient-4" x1="1250.54" y1="1493.22" x2="1580.37" y2="329.57" gradientUnits="userSpaceOnUse"><stop offset="0" stop-color="#094eb2"/><stop offset="1" stop-color="#40b7f0"/></linearGradient><linearGradient id="linear-gradient-5" x1="1210.47" y1="1590.76" x2="1613.61" y2="168.44" xlink:href="#linear-gradient-4"/><linearGradient id="linear-gradient-6" x1="1081.99" y1="2170.51" x2="1152.8" y2="2170.51" gradientTransform="matrix(1, 0.57, 0, 1, 0, -2642.85)" xlink:href="#linear-gradient-4"/><linearGradient id="linear-gradient-7" x1="696.64" y1="1200.38" x2="930.1" y2="376.69" gradientUnits="userSpaceOnUse"><stop offset="0" stop-color="#ff8500"/><stop offset="1" stop-color="#fff200"/></linearGradient><linearGradient id="linear-gradient-8" x1="732.65" y1="1135.73" x2="921.73" y2="468.65" xlink:href="#linear-gradient-7"/><linearGradient id="linear-gradient-9" x1="534.8" y1="1436.77" x2="689.5" y2="1436.77" gradientUnits="userSpaceOnUse"><stop offset="0" stop-color="#0f4084"/><stop offset="1" stop-color="#192838"/></linearGradient><linearGradient id="linear-gradient-10" x1="442.27" y1="1169.46" x2="605.21" y2="1169.46" xlink:href="#linear-gradient-9"/><linearGradient id="linear-gradient-11" x1="632" y1="1617.59" x2="690.51" y2="1411.14" gradientTransform="matrix(0.98, 0.2, -0.2, 0.98, 274.3, -916.83)" xlink:href="#linear-gradient-4"/><linearGradient id="linear-gradient-12" x1="422.07" y1="1810.82" x2="546.92" y2="1370.31" gradientTransform="matrix(0.98, 0.2, -0.2, 0.98, 274.3, -916.83)" xlink:href="#linear-gradient-4"/><linearGradient id="linear-gradient-13" x1="298.16" y1="427.17" x2="493.7" y2="427.17" xlink:href="#linear-gradient-9"/><linearGradient id="linear-gradient-14" x1="341.71" y1="1215.82" x2="512.73" y2="1215.82" xlink:href="#linear-gradient-9"/><linearGradient id="linear-gradient-15" x1="370.31" y1="1532.76" x2="472.32" y2="1532.76" xlink:href="#linear-gradient-9"/><linearGradient id="linear-gradient-16" x1="3315.89" y1="-1204.09" x2="3387.5" y2="-1204.09" gradientTransform="matrix(0.86, 2.14, 2.13, -0.88, 492.45, -7472.41)" gradientUnits="userSpaceOnUse"><stop offset="0" stop-color="#c68147"/><stop offset="1" stop-color="#e2b779"/></linearGradient><linearGradient id="linear-gradient-17" x1="3368.63" y1="-1437.92" x2="3302.66" y2="-1437.92" gradientTransform="matrix(0.01, 2.31, 2.31, -0.03, 3598.43, -6804.69)" xlink:href="#linear-gradient-7"/><linearGradient id="linear-gradient-18" x1="3315.53" y1="-1330.22" x2="3388.31" y2="-1330.22" gradientTransform="matrix(0.86, 2.14, 2.13, -0.88, 492.45, -7472.41)" gradientUnits="userSpaceOnUse"><stop offset="0" stop-color="#2d8462"/><stop offset="1" stop-color="#4bd19d"/></linearGradient><linearGradient id="linear-gradient-19" x1="3368.63" y1="-1464.95" x2="3302.66" y2="-1464.95" gradientTransform="matrix(0.01, 2.31, 2.31, -0.03, 3603.17, -6781.65)" xlink:href="#linear-gradient-2"/><linearGradient id="linear-gradient-20" x1="3316.02" y1="-1442.44" x2="3388.18" y2="-1442.44" gradientTransform="matrix(0.86, 2.14, 2.13, -0.88, 492.45, -7472.41)" xlink:href="#linear-gradient-2"/><linearGradient id="linear-gradient-21" x1="3368.63" y1="-1517.23" x2="3302.66" y2="-1517.23" gradientTransform="matrix(0.01, 2.31, 2.31, -0.03, 3612.33, -6737.08)" xlink:href="#linear-gradient-7"/><linearGradient id="linear-gradient-22" x1="3316.02" y1="-1482.1" x2="3388.18" y2="-1482.1" gradientTransform="matrix(0.86, 2.14, 2.13, -0.88, 492.45, -7472.41)" xlink:href="#linear-gradient-7"/><linearGradient id="linear-gradient-23" x1="250.61" y1="1820.65" x2="346.79" y2="1481.3" gradientTransform="matrix(0.98, 0.2, -0.2, 0.98, 274.3, -916.83)" xlink:href="#linear-gradient-4"/><linearGradient id="linear-gradient-24" x1="812.69" y1="726.24" x2="873.58" y2="726.24" xlink:href="#linear-gradient-9"/><linearGradient id="linear-gradient-25" x1="226.76" y1="1339.9" x2="705.67" y2="1339.9" gradientTransform="matrix(1.55, 0, 0, 1.9, -350.42, -1016.12)" gradientUnits="userSpaceOnUse"><stop offset="0" stop-color="#161616"/><stop offset="1" stop-color="#313031"/></linearGradient><linearGradient id="linear-gradient-26" x1="235.31" y1="1339.6" x2="704.38" y2="1339.6" xlink:href="#linear-gradient-25"/><linearGradient id="linear-gradient-27" x1="243.87" y1="1339.3" x2="703.09" y2="1339.3" xlink:href="#linear-gradient-25"/><linearGradient id="linear-gradient-28" x1="252.42" y1="1339.01" x2="701.8" y2="1339.01" xlink:href="#linear-gradient-25"/><linearGradient id="linear-gradient-29" x1="260.97" y1="1338.71" x2="700.51" y2="1338.71" xlink:href="#linear-gradient-25"/><linearGradient id="linear-gradient-30" x1="269.52" y1="1338.41" x2="699.23" y2="1338.41" xlink:href="#linear-gradient-25"/><linearGradient id="linear-gradient-31" x1="278.07" y1="1338.12" x2="697.94" y2="1338.12" xlink:href="#linear-gradient-25"/><linearGradient id="linear-gradient-32" x1="286.63" y1="1337.82" x2="696.65" y2="1337.82" xlink:href="#linear-gradient-25"/><linearGradient id="linear-gradient-33" x1="295.18" y1="1337.52" x2="695.36" y2="1337.52" xlink:href="#linear-gradient-25"/><linearGradient id="linear-gradient-34" x1="303.73" y1="1337.23" x2="694.07" y2="1337.23" xlink:href="#linear-gradient-25"/><linearGradient id="linear-gradient-35" x1="312.28" y1="1336.93" x2="692.78" y2="1336.93" xlink:href="#linear-gradient-25"/><linearGradient id="linear-gradient-36" x1="320.83" y1="1336.63" x2="691.49" y2="1336.63" xlink:href="#linear-gradient-25"/><linearGradient id="linear-gradient-37" x1="329.39" y1="1336.34" x2="690.2" y2="1336.34" xlink:href="#linear-gradient-25"/><linearGradient id="linear-gradient-38" x1="337.94" y1="1336.04" x2="688.91" y2="1336.04" xlink:href="#linear-gradient-25"/><linearGradient id="linear-gradient-39" x1="346.49" y1="1335.74" x2="687.63" y2="1335.74" xlink:href="#linear-gradient-25"/><linearGradient id="linear-gradient-40" x1="355.04" y1="1335.45" x2="686.34" y2="1335.45" xlink:href="#linear-gradient-25"/><linearGradient id="linear-gradient-41" x1="363.59" y1="1335.15" x2="685.05" y2="1335.15" xlink:href="#linear-gradient-25"/><linearGradient id="linear-gradient-42" x1="372.15" y1="1334.85" x2="683.76" y2="1334.85" xlink:href="#linear-gradient-25"/><linearGradient id="linear-gradient-43" x1="380.7" y1="1334.56" x2="682.47" y2="1334.56" xlink:href="#linear-gradient-25"/><linearGradient id="linear-gradient-44" x1="389.25" y1="1334.26" x2="681.18" y2="1334.26" xlink:href="#linear-gradient-25"/><linearGradient id="linear-gradient-45" x1="397.8" y1="1333.96" x2="679.89" y2="1333.96" xlink:href="#linear-gradient-25"/><linearGradient id="linear-gradient-46" x1="406.35" y1="1333.67" x2="678.6" y2="1333.67" xlink:href="#linear-gradient-25"/><linearGradient id="linear-gradient-47" x1="414.9" y1="1333.37" x2="677.32" y2="1333.37" xlink:href="#linear-gradient-25"/><linearGradient id="linear-gradient-48" x1="423.46" y1="1333.07" x2="676.03" y2="1333.07" xlink:href="#linear-gradient-25"/><linearGradient id="linear-gradient-49" x1="432.01" y1="1332.78" x2="674.74" y2="1332.78" xlink:href="#linear-gradient-25"/><linearGradient id="linear-gradient-50" x1="440.56" y1="1332.48" x2="673.45" y2="1332.48" xlink:href="#linear-gradient-25"/><linearGradient id="linear-gradient-51" x1="449.11" y1="1332.18" x2="672.16" y2="1332.18" xlink:href="#linear-gradient-25"/><linearGradient id="linear-gradient-52" x1="457.66" y1="1331.89" x2="670.87" y2="1331.89" xlink:href="#linear-gradient-25"/><linearGradient id="linear-gradient-53" x1="466.22" y1="1331.59" x2="669.58" y2="1331.59" xlink:href="#linear-gradient-25"/></defs><g id="Livello_2" data-name="Livello 2"><g id="Layer_4" data-name="Layer 4"><ellipse class="cls-1" cx="996.81" cy="1675.74" rx="879.5" ry="391.03"/><ellipse class="cls-2" cx="996.81" cy="1671.13" rx="879.5" ry="391.03"/><ellipse class="cls-3" cx="996.81" cy="1611.11" rx="879.5" ry="391.03"/><path class="cls-4" d="M996.81,1989.94c-481.14,0-872-171.79-879.33-384.93-.07,2-.17,4.06-.17,6.1,0,216,393.77,391,879.5,391s879.51-175.07,879.51-391c0-2-.11-4.07-.18-6.1C1868.8,1818.15,1478,1989.94,996.81,1989.94Z"/><path class="cls-5" d="M1817.7,476V1711.52a38.8,38.8,0,0,1-31.83,38.24A38.31,38.31,0,0,0,1797.5,1722V486.42a99.09,99.09,0,0,0-50.17-86.14L1072.59,16.49a45.13,45.13,0,0,0-32.72-4.83,45.47,45.47,0,0,1,53-5.62l674.74,383.79A99.1,99.1,0,0,1,1817.7,476Z"/><path class="cls-6" d="M1797.5,486.42V1722a38.31,38.31,0,0,1-11.63,27.79,38.24,38.24,0,0,1-26.12-4.53L1073.58,1355a97.44,97.44,0,0,1-49.18-84.57V45.86a44.67,44.67,0,0,1,15.47-34.2,45.13,45.13,0,0,1,32.72,4.83l674.74,383.79A99.09,99.09,0,0,1,1797.5,486.42Z"/><polygon class="cls-7" points="1091.97 273.09 1747.63 650.98 1747.63 736.23 1091.97 358.34 1091.97 273.09"/><polygon class="cls-7" points="1091.97 867.06 1747.63 1244.94 1747.63 1330.19 1091.97 952.31 1091.97 867.06"/><polygon class="cls-7" points="1383.11 588.48 1747.63 798.58 1747.63 883.83 1383.11 673.73 1383.11 588.48"/><line class="cls-8" x1="1440.09" y1="621.33" x2="1440.09" y2="706.58"/><line class="cls-8" x1="1502.35" y1="657.52" x2="1502.35" y2="742.77"/><line class="cls-8" x1="1564.61" y1="693.71" x2="1564.61" y2="778.96"/><line class="cls-8" x1="1626.87" y1="729.9" x2="1626.87" y2="815.15"/><line class="cls-8" x1="1689.13" y1="766.09" x2="1689.13" y2="851.34"/><line class="cls-9" x1="1091.97" y1="450.13" x2="1310.36" y2="576"/><line class="cls-9" x1="1091.97" y1="477.41" x2="1310.36" y2="603.28"/><line class="cls-9" x1="1091.97" y1="504.69" x2="1263.03" y2="603.28"/><line class="cls-9" x1="1230.75" y1="201.64" x2="1449.14" y2="327.51"/><line class="cls-9" x1="1230.75" y1="242.45" x2="1575.39" y2="442.11"/><line class="cls-9" x1="1230.75" y1="283.25" x2="1575.39" y2="482.91"/><polygon class="cls-7" points="1383.11 730.22 1747.63 940.31 1747.63 1025.56 1383.11 815.47 1383.11 730.22"/><line class="cls-8" x1="1440.09" y1="763.06" x2="1440.09" y2="848.31"/><line class="cls-8" x1="1502.35" y1="799.25" x2="1502.35" y2="884.5"/><line class="cls-8" x1="1564.61" y1="835.45" x2="1564.61" y2="920.7"/><line class="cls-8" x1="1626.87" y1="871.64" x2="1626.87" y2="956.89"/><line class="cls-8" x1="1689.13" y1="907.83" x2="1689.13" y2="993.08"/><line class="cls-9" x1="1091.97" y1="591.87" x2="1310.36" y2="717.74"/><line class="cls-9" x1="1091.97" y1="619.15" x2="1310.36" y2="745.02"/><line class="cls-9" x1="1091.97" y1="646.43" x2="1263.03" y2="745.02"/><polygon class="cls-7" points="1383.11 871.96 1747.63 1082.05 1747.63 1167.3 1383.11 957.21 1383.11 871.96"/><line class="cls-8" x1="1440.09" y1="904.8" x2="1440.09" y2="990.05"/><line class="cls-8" x1="1502.35" y1="940.99" x2="1502.35" y2="1026.24"/><line class="cls-8" x1="1564.61" y1="977.18" x2="1564.61" y2="1062.43"/><line class="cls-8" x1="1626.87" y1="1013.37" x2="1626.87" y2="1098.62"/><line class="cls-8" x1="1689.13" y1="1049.56" x2="1689.13" y2="1134.82"/><line class="cls-9" x1="1091.97" y1="733.61" x2="1310.36" y2="859.47"/><line class="cls-9" x1="1091.97" y1="760.89" x2="1310.36" y2="886.75"/><line class="cls-9" x1="1091.97" y1="788.17" x2="1263.03" y2="886.75"/><polygon class="cls-7" points="1383.11 1155.43 1747.63 1365.52 1747.63 1450.77 1383.11 1240.68 1383.11 1155.43"/><line class="cls-8" x1="1440.09" y1="1188.27" x2="1440.09" y2="1273.52"/><line class="cls-8" x1="1502.35" y1="1224.46" x2="1502.35" y2="1309.71"/><line class="cls-8" x1="1564.61" y1="1260.66" x2="1564.61" y2="1345.91"/><line class="cls-8" x1="1626.87" y1="1296.85" x2="1626.87" y2="1382.1"/><line class="cls-8" x1="1689.13" y1="1333.04" x2="1689.13" y2="1418.29"/><line class="cls-9" x1="1091.97" y1="1017.08" x2="1310.36" y2="1142.95"/><line class="cls-9" x1="1091.97" y1="1044.36" x2="1310.36" y2="1170.23"/><line class="cls-9" x1="1091.97" y1="1071.64" x2="1263.03" y2="1170.23"/><polygon class="cls-7" points="1383.11 1297.17 1747.63 1507.26 1747.63 1592.51 1383.11 1382.42 1383.11 1297.17"/><line class="cls-8" x1="1440.09" y1="1330.01" x2="1440.09" y2="1415.26"/><line class="cls-8" x1="1502.35" y1="1366.2" x2="1502.35" y2="1451.45"/><line class="cls-8" x1="1564.61" y1="1402.39" x2="1564.61" y2="1487.64"/><line class="cls-8" x1="1626.87" y1="1438.58" x2="1626.87" y2="1523.83"/><line class="cls-8" x1="1689.13" y1="1474.78" x2="1689.13" y2="1560.03"/><line class="cls-9" x1="1091.97" y1="1158.82" x2="1310.36" y2="1284.69"/><line class="cls-9" x1="1091.97" y1="1186.1" x2="1310.36" y2="1311.96"/><line class="cls-9" x1="1091.97" y1="1213.38" x2="1263.03" y2="1311.96"/><ellipse class="cls-10" cx="1117.39" cy="166.28" rx="41.74" ry="72.91" transform="translate(125.99 707.88) rotate(-37.11)"/><path class="cls-11" d="M1140.84,208.16l12-9.41c-3.77-14.24-13.63-29.21-26-39.46,4.45-.5,7.37-3.94,7.37-9.72,0-9.28-7.51-21-16.79-26.27s-16.78-2-16.78,7.29c0,5.78,2.92,12.53,7.37,18.07-12.36-3.73-22.22.09-26,10.07l12,22.93Z"/><path class="cls-12" d="M1070.82,585V1268.1a28.26,28.26,0,0,1-9.07,21,28.78,28.78,0,0,1-34.3,4.14L584.13,1039.34a58.71,58.71,0,0,1-29.57-51V314.4a33.27,33.27,0,0,1,28.48-33,32.74,32.74,0,0,1,21.39,4l438.3,250.93A56,56,0,0,1,1070.82,585Z"/><path class="cls-13" d="M1088,577.07v683a29,29,0,0,1-26.22,29,28.26,28.26,0,0,0,9.07-21V585a56,56,0,0,0-28.09-48.59L604.43,285.43a32.74,32.74,0,0,0-21.39-4,33.06,33.06,0,0,1,38.44-3.85l438.3,250.94A56.11,56.11,0,0,1,1088,577.07Z"/><polygon class="cls-14" points="780.45 621.73 1024.39 765.78 1024.39 831.9 780.45 687.84 780.45 621.73"/><line class="cls-9" x1="596.71" y1="515.33" x2="698.95" y2="573.87"/><line class="cls-9" x1="596.71" y1="544.6" x2="741.4" y2="626.57"/><line class="cls-9" x1="596.71" y1="573.87" x2="741.4" y2="655.84"/><polygon class="cls-14" points="780.45 764.53 1024.39 908.59 1024.39 974.7 780.45 830.65 780.45 764.53"/><line class="cls-9" x1="596.71" y1="658.14" x2="698.95" y2="716.67"/><line class="cls-9" x1="596.71" y1="687.41" x2="741.4" y2="769.38"/><line class="cls-9" x1="596.71" y1="716.67" x2="741.4" y2="798.65"/><line class="cls-9" x1="647.83" y1="874.73" x2="1015.89" y2="1083.25"/><line class="cls-9" x1="596.71" y1="884.5" x2="1015.89" y2="1121.98"/><line class="cls-9" x1="596.71" y1="923.24" x2="1015.89" y2="1160.72"/><line class="cls-9" x1="596.71" y1="961.98" x2="959.13" y2="1167.3"/><polygon class="cls-14" points="604.43 400.04 1051.67 657.52 1051.67 717.22 604.43 459.74 604.43 400.04"/><path class="cls-15" d="M605.21,1398.52s26.64,32.78,58.6,45.89,32.77,40.14,9.83,48.34-54.08-9-95-13.5-50.53-10.26-39.6-70.9S605.21,1398.52,605.21,1398.52Z"/><path class="cls-16" d="M574.69,920.47s32.79,188.74,29.08,214.55-18.56,78.67-14.39,130.49,14.69,126.15,14.69,126.15,7.22,9.13-14.69,19.56-50.39,6.52-50.39,6.52-29.58-88.68-30.55-163,4.29-106,4.29-106l-70.46-169S523.22,979.47,574.69,920.47Z"/><path class="cls-17" d="M516.79,528S628.65,726.69,638.34,748s98.18,75.23,98.18,75.23-3.1,28.89-35,29.21-138.22-55-173.82-83.81S516.79,528,516.79,528Z"/><path class="cls-18" d="M516.79,528c-21.16-16.9-251.81,51.42-258.5,67.79s58.26,128.28,73.53,208.86S331,925.75,331,925.75s-2.23,37.35,83.11,56,160.58-61.31,160.58-61.31S549.87,554.43,516.79,528Z"/><path class="cls-19" d="M478.67,399.48s15.15,42.52,8.47,47.91l-6.68,5.39s7.78,10.78,8.38,19.77-3,57.65-10.17,64.08-37.17,7.29-37.17,7.29L445.2,572s2.38,7.86-43.79,7.81C346.3,579.79,327,562.38,327,562.38s24.72-48.51,14.21-98.82,9.26-72.47,53-76.06S478.67,399.48,478.67,399.48Z"/><path class="cls-20" d="M481.06,352.17c23.36,12.57,12.58,48.51-18,54.5s-64.08,0-64.08,0,17.37,18.56,3.59,28.74-5.39,48.51-13.77,52.11-10.78-25.75-24.56-25.75-15.57,24-6,37.73-6.81,22.16-31.26,2.39-34.62-61.69-25.64-81.45,14.37-24.55,14.37-24.55,23.36-71.87,82.65-51.51S481.06,352.17,481.06,352.17Z"/><path class="cls-21" d="M346.17,952.4s-10,54.55,0,85.84l10,31.3,26.08,162.87s-31.47,43.35-26.17,111.73,0,115.33,0,115.33,15.74,22.17,43.12,19.57,46.95-22.18,46.95-22.18-5.21-181.75,36.52-248,27.8-241.33,27.8-241.33S428.3,1002.53,346.17,952.4Z"/><path class="cls-22" d="M371.37,1472.76s-2.38,39.65,0,48.67,3.2,75.38,36,83.57,79.48,5.73,60.63-40.15-21.8-108-21.8-108S416.51,1484.72,371.37,1472.76Z"/><polygon class="cls-23" points="710.21 696.22 873.58 708.14 765.56 833.64 710.21 696.22"/><ellipse class="cls-24" cx="307.92" cy="943.68" rx="37.4" ry="74.65" transform="matrix(0.93, -0.37, 0.37, 0.93, -327.81, 181.32)"/><path class="cls-25" d="M335.81,1012.92,759.7,836.07c19.16-7.93,22.1-45.26,6.68-83.55s-43.3-62.87-62.46-54.94L280,874.44c19.16-7.93,47,16.64,62.45,54.93S355,1005,335.81,1012.92Z"/><ellipse class="cls-26" cx="250.35" cy="967.51" rx="37.4" ry="74.65" transform="translate(-340.75 161.68) rotate(-21.75)"/><path class="cls-27" d="M278.24,1036.75l61.32-25.38c19.15-7.93,22.09-45.26,6.67-83.55S302.94,865,283.78,872.89l-61.32,25.38c19.16-7.93,47,16.65,62.45,54.94S297.39,1028.83,278.24,1036.75Z"/><ellipse class="cls-28" cx="138.95" cy="1013.62" rx="37.4" ry="74.65" transform="translate(-365.77 123.68) rotate(-21.75)"/><path class="cls-29" d="M166.84,1082.87,282,1035.2c19.16-7.93,22.1-45.26,6.68-83.55s-43.29-62.86-62.45-54.93L111.07,944.38c19.15-7.93,47,16.65,62.45,54.94S186,1074.94,166.84,1082.87Z"/><path class="cls-30" d="M299.92,597.48c38.78,30.71,29.58,71.26-9.14,111.1S226.92,783,226.92,783l41.13,132.19s.88,12.92-27.36,22.2-46.19,2.3-46.19,2.3-93.58-143.54-74.67-188.11S249.93,557.9,299.92,597.48Z"/><path class="cls-19" d="M261.17,926.74s8.86,20.29,17.92,31,15.1,23.32,10.19,25-25-12-25-12,24.8,42.31,11.78,51.31-34.7,35.15-60.07,14.3-16.89-95.85-16.89-95.85S237.57,940,261.17,926.74Z"/><path class="cls-31" d="M812.69,703.7s19.61,6.67,22.81,20.95a116.13,116.13,0,0,1,3.09,24.14l35-40.65Z"/><g class="cls-32"><ellipse class="cls-33" cx="370.31" cy="1532.76" rx="370.31" ry="68.9"/><ellipse class="cls-34" cx="375.93" cy="1532.2" rx="362.71" ry="67.48"/><ellipse class="cls-35" cx="381.55" cy="1531.63" rx="355.1" ry="66.06"/><ellipse class="cls-36" cx="387.16" cy="1531.07" rx="347.49" ry="64.65"/><ellipse class="cls-37" cx="392.78" cy="1530.51" rx="339.88" ry="63.23"/><ellipse class="cls-38" cx="398.4" cy="1529.94" rx="332.27" ry="61.82"/><ellipse class="cls-39" cx="404.01" cy="1529.38" rx="324.66" ry="60.4"/><ellipse class="cls-40" cx="409.63" cy="1528.81" rx="317.05" ry="58.99"/><ellipse class="cls-41" cx="415.24" cy="1528.25" rx="309.44" ry="57.57"/><ellipse class="cls-42" cx="420.86" cy="1527.68" rx="301.83" ry="56.15"/><ellipse class="cls-43" cx="426.48" cy="1527.12" rx="294.22" ry="54.74"/><ellipse class="cls-44" cx="432.09" cy="1526.56" rx="286.61" ry="53.32"/><ellipse class="cls-45" cx="437.71" cy="1525.99" rx="279" ry="51.91"/><ellipse class="cls-46" cx="443.33" cy="1525.43" rx="271.39" ry="50.49"/><ellipse class="cls-47" cx="448.94" cy="1524.86" rx="263.78" ry="49.08"/><ellipse class="cls-48" cx="454.56" cy="1524.3" rx="256.17" ry="47.66"/><ellipse class="cls-49" cx="460.17" cy="1523.73" rx="248.56" ry="46.24"/><ellipse class="cls-50" cx="465.79" cy="1523.17" rx="240.96" ry="44.83"/><ellipse class="cls-51" cx="471.41" cy="1522.61" rx="233.35" ry="43.41"/><ellipse class="cls-52" cx="477.02" cy="1522.04" rx="225.74" ry="42"/><ellipse class="cls-53" cx="482.64" cy="1521.48" rx="218.13" ry="40.58"/><ellipse class="cls-54" cx="488.26" cy="1520.91" rx="210.52" ry="39.17"/><ellipse class="cls-55" cx="493.87" cy="1520.35" rx="202.91" ry="37.75"/><ellipse class="cls-56" cx="499.49" cy="1519.78" rx="195.3" ry="36.34"/><ellipse class="cls-57" cx="505.1" cy="1519.22" rx="187.69" ry="34.92"/><ellipse class="cls-58" cx="510.72" cy="1518.65" rx="180.08" ry="33.5"/><ellipse class="cls-59" cx="516.34" cy="1518.09" rx="172.47" ry="32.09"/><ellipse class="cls-60" cx="521.95" cy="1517.53" rx="164.86" ry="30.67"/><ellipse class="cls-61" cx="527.57" cy="1516.96" rx="157.25" ry="29.26"/></g></g></g></svg>