<svg xmlns="http://www.w3.org/2000/svg" xmlns:xlink="http://www.w3.org/1999/xlink" viewBox="0 0 2341.27 1961.41"><defs><style>.cls-1{fill:url(#linear-gradient);}.cls-2{fill:url(#linear-gradient-2);}.cls-3{fill:url(#linear-gradient-3);}.cls-4{fill:#fff;}.cls-5{fill:url(#linear-gradient-4);}.cls-6{isolation:isolate;}.cls-7{fill:url(#linear-gradient-5);}.cls-8{fill:#807f80;}.cls-9{fill:url(#linear-gradient-6);}.cls-10{fill:url(#linear-gradient-7);}.cls-11{fill:url(#linear-gradient-8);}.cls-12{fill:url(#linear-gradient-9);}.cls-13{fill:url(#linear-gradient-10);}.cls-14{fill:url(#linear-gradient-11);}.cls-15{fill:url(#linear-gradient-12);}.cls-16{fill:url(#linear-gradient-13);}.cls-17{opacity:0.4;}.cls-18,.cls-19,.cls-20,.cls-21,.cls-22,.cls-23,.cls-24,.cls-25,.cls-26,.cls-27,.cls-28,.cls-29,.cls-30,.cls-31,.cls-32,.cls-33,.cls-34,.cls-35,.cls-36,.cls-37,.cls-38,.cls-39,.cls-40,.cls-41,.cls-42,.cls-43,.cls-44,.cls-45,.cls-46{fill:#2d2d2d;}.cls-18{opacity:0;}.cls-19{opacity:0.04;}.cls-20{opacity:0.07;}.cls-21{opacity:0.11;}.cls-22{opacity:0.14;}.cls-23{opacity:0.18;}.cls-24{opacity:0.21;}.cls-25{opacity:0.25;}.cls-26{opacity:0.29;}.cls-27{opacity:0.32;}.cls-28{opacity:0.36;}.cls-29{opacity:0.39;}.cls-30{opacity:0.43;}.cls-31{opacity:0.46;}.cls-32{opacity:0.5;}.cls-33{opacity:0.54;}.cls-34{opacity:0.57;}.cls-35{opacity:0.61;}.cls-36{opacity:0.64;}.cls-37{opacity:0.68;}.cls-38{opacity:0.71;}.cls-39{opacity:0.75;}.cls-40{opacity:0.79;}.cls-41{opacity:0.82;}.cls-42{opacity:0.86;}.cls-43{opacity:0.89;}.cls-44{opacity:0.93;}.cls-45{opacity:0.96;}.cls-47{fill:url(#linear-gradient-14);}.cls-48{fill:url(#linear-gradient-15);}.cls-49{fill:url(#linear-gradient-16);}.cls-50{fill:url(#linear-gradient-17);}.cls-51{fill:url(#linear-gradient-18);}.cls-52{fill:url(#linear-gradient-19);}.cls-53{fill:url(#linear-gradient-20);}.cls-54{fill:url(#linear-gradient-21);}.cls-55{fill:url(#linear-gradient-22);}.cls-56{fill:url(#linear-gradient-23);}.cls-57{fill:url(#linear-gradient-24);}.cls-58{fill:#8c8b91;}.cls-59{fill:#29174c;}.cls-60{fill:url(#linear-gradient-25);}.cls-61{fill:url(#linear-gradient-26);}.cls-62{fill:url(#linear-gradient-27);}.cls-63{fill:url(#linear-gradient-28);}.cls-64{fill:url(#linear-gradient-29);}.cls-65{opacity:0.65;}.cls-66{fill:url(#linear-gradient-30);}.cls-67{fill:url(#linear-gradient-31);}.cls-68{fill:url(#linear-gradient-32);}.cls-69{fill:url(#linear-gradient-33);}.cls-70{fill:url(#linear-gradient-34);}.cls-71{fill:url(#linear-gradient-35);}.cls-72{fill:url(#linear-gradient-36);}.cls-73{fill:url(#linear-gradient-37);}.cls-74{fill:url(#linear-gradient-38);}.cls-75{fill:url(#linear-gradient-39);}.cls-76{fill:url(#linear-gradient-40);}.cls-77{fill:url(#linear-gradient-41);}</style><linearGradient id="linear-gradient" x1="505.22" y1="1308.93" x2="463.23" y2="1384.72" gradientUnits="userSpaceOnUse"><stop offset="0" stop-color="#053f9b"/><stop offset="1" stop-color="#3084d7"/></linearGradient><linearGradient id="linear-gradient-2" x1="384.02" y1="1218.94" x2="644.69" y2="1218.94" xlink:href="#linear-gradient"/><linearGradient id="linear-gradient-3" x1="374.31" y1="1235.24" x2="609.69" y2="1235.24" xlink:href="#linear-gradient"/><linearGradient id="linear-gradient-4" x1="630.05" y1="1299.8" x2="455.95" y2="1055.03" xlink:href="#linear-gradient"/><linearGradient id="linear-gradient-5" x1="741.52" y1="1406.41" x2="826.54" y2="1406.41" gradientUnits="userSpaceOnUse"><stop offset="0" stop-color="#149648"/><stop offset="1" stop-color="#3da568"/></linearGradient><linearGradient id="linear-gradient-6" x1="881.37" y1="1487.14" x2="966.32" y2="1487.14" xlink:href="#linear-gradient-5"/><linearGradient id="linear-gradient-7" x1="798.17" y1="1284.46" x2="911.32" y2="1284.46" xlink:href="#linear-gradient-5"/><linearGradient id="linear-gradient-8" x1="881.37" y1="1389.87" x2="911.32" y2="1389.87" xlink:href="#linear-gradient-5"/><linearGradient id="linear-gradient-9" x1="816.28" y1="1555.17" x2="868.73" y2="1327.87" gradientUnits="userSpaceOnUse"><stop offset="0" stop-color="#149648"/><stop offset="0.99" stop-color="#5ed91a"/></linearGradient><linearGradient id="linear-gradient-10" x1="1052.54" y1="1556.22" x2="1082.71" y2="1556.22" gradientUnits="userSpaceOnUse"><stop offset="0" stop-color="#f7941f"/><stop offset="0.99" stop-color="#fd0"/></linearGradient><linearGradient id="linear-gradient-11" x1="942.15" y1="1466.95" x2="1137.82" y2="1466.95" xlink:href="#linear-gradient-10"/><linearGradient id="linear-gradient-12" x1="912.68" y1="1476.03" x2="1108.35" y2="1476.03" xlink:href="#linear-gradient-10"/><linearGradient id="linear-gradient-13" x1="1019" y1="1410.76" x2="1137.82" y2="1410.76" xlink:href="#linear-gradient-10"/><linearGradient id="linear-gradient-14" x1="1053.7" y1="871.96" x2="1625.88" y2="871.96" gradientUnits="userSpaceOnUse"><stop offset="0" stop-color="#5a5d60"/><stop offset="0.99" stop-color="#202d38"/></linearGradient><linearGradient id="linear-gradient-15" x1="1258.79" y1="1154.39" x2="1348.27" y2="425.26" xlink:href="#linear-gradient-14"/><linearGradient id="linear-gradient-16" x1="1240.79" y1="1561.42" x2="1306.56" y2="676.09" xlink:href="#linear-gradient"/><linearGradient id="linear-gradient-17" x1="1053.7" y1="302.79" x2="1621.1" y2="302.79" xlink:href="#linear-gradient-14"/><linearGradient id="linear-gradient-18" x1="939.67" y1="877.42" x2="1450.68" y2="877.42" gradientUnits="userSpaceOnUse"><stop offset="0" stop-color="#ba722a"/><stop offset="0.99" stop-color="#f7cd66"/></linearGradient><linearGradient id="linear-gradient-19" x1="898.71" y1="892.99" x2="1409.72" y2="892.99" xlink:href="#linear-gradient-18"/><linearGradient id="linear-gradient-20" x1="896.62" y1="562.09" x2="1160.75" y2="562.09" gradientUnits="userSpaceOnUse"><stop offset="0" stop-color="#eddd98"/><stop offset="0.99" stop-color="#f7cd66"/></linearGradient><linearGradient id="linear-gradient-21" x1="1147.05" y1="839.37" x2="1452.86" y2="839.37" xlink:href="#linear-gradient-18"/><linearGradient id="linear-gradient-22" x1="1322.69" y1="1256.16" x2="1407.63" y2="1256.16" xlink:href="#linear-gradient-18"/><linearGradient id="linear-gradient-23" x1="1156.51" y1="1063.53" x2="1119.22" y2="730.44" xlink:href="#linear-gradient-9"/><linearGradient id="linear-gradient-24" x1="1177.41" y1="703.48" x2="1111.35" y2="866.8" gradientUnits="userSpaceOnUse"><stop offset="0" stop-color="#fff"/><stop offset="1" stop-color="#bababa"/></linearGradient><linearGradient id="linear-gradient-25" x1="813.85" y1="944.98" x2="1324.87" y2="944.98" xlink:href="#linear-gradient-18"/><linearGradient id="linear-gradient-26" x1="770.8" y1="970.31" x2="1281.81" y2="970.31" gradientUnits="userSpaceOnUse"><stop offset="0" stop-color="#d89245"/><stop offset="0.99" stop-color="#f7cd66"/></linearGradient><linearGradient id="linear-gradient-27" x1="770.8" y1="629.66" x2="1034.93" y2="629.66" xlink:href="#linear-gradient-20"/><linearGradient id="linear-gradient-28" x1="1019.06" y1="916.34" x2="1324.87" y2="916.34" xlink:href="#linear-gradient-20"/><linearGradient id="linear-gradient-29" x1="1378.64" y1="1302.58" x2="1356.49" y2="970.27" xlink:href="#linear-gradient-18"/><linearGradient id="linear-gradient-30" x1="1662.49" y1="585.73" x2="1088.33" y2="1080.5" gradientUnits="userSpaceOnUse"><stop offset="0" stop-color="#fff"/><stop offset="0.99" stop-color="#202d38"/></linearGradient><linearGradient id="linear-gradient-31" x1="1055.42" y1="180.07" x2="1042.57" y2="191.14" xlink:href="#linear-gradient-30"/><linearGradient id="linear-gradient-32" x1="1273.63" y1="1380.9" x2="2270.66" y2="1380.9" gradientUnits="userSpaceOnUse"><stop offset="0" stop-color="#149648"/><stop offset="0.99" stop-color="#2f7005"/></linearGradient><linearGradient id="linear-gradient-33" x1="1111.83" y1="1405.44" x2="2201.56" y2="1405.44" xlink:href="#linear-gradient-9"/><linearGradient id="linear-gradient-34" x1="2010.39" y1="1191.48" x2="2270.67" y2="1191.48" xlink:href="#linear-gradient-32"/><linearGradient id="linear-gradient-35" x1="163.67" y1="490.29" x2="1160.7" y2="490.29" gradientUnits="userSpaceOnUse"><stop offset="0" stop-color="#e13d3d"/><stop offset="0.99" stop-color="#b72020"/></linearGradient><linearGradient id="linear-gradient-36" x1="964.93" y1="728.14" x2="733.25" y2="164.75" gradientUnits="userSpaceOnUse"><stop offset="0" stop-color="#e13d3d"/><stop offset="0.99" stop-color="#f06162"/></linearGradient><linearGradient id="linear-gradient-37" x1="163.67" y1="679.7" x2="423.95" y2="679.7" xlink:href="#linear-gradient-35"/><linearGradient id="linear-gradient-38" x1="1487.23" y1="576.82" x2="1735.82" y2="576.82" xlink:href="#linear-gradient-36"/><linearGradient id="linear-gradient-39" x1="1571.37" y1="859.4" x2="1610.43" y2="589.42" xlink:href="#linear-gradient-36"/><linearGradient id="linear-gradient-40" x1="1707.43" y1="742.97" x2="1741.58" y2="742.97" xlink:href="#linear-gradient-36"/><linearGradient id="linear-gradient-41" x1="1574.54" y1="853.68" x2="1612.85" y2="588.86" gradientUnits="userSpaceOnUse"><stop offset="0" stop-color="#fff"/><stop offset="0.99" stop-color="#f06162"/></linearGradient></defs><g id="Livello_2" data-name="Livello 2"><g id="Layer_4" data-name="Layer 4"><path class="cls-1" d="M497.07,1335c-27.33,24.76-63.56,57.13-70.08,60.91l35-20.34c3.66-2.13,16.73-13.3,32.32-27.07,5.2-4.59,10.68-9.48,16.19-14.41l5.5-4.94c5.5-4.93,10.94-9.84,16.06-14.48h0Z"/><path class="cls-2" d="M644.67,1211.36c0-.52,0-1-.07-1.55s-.08-1-.13-1.56-.11-1-.17-1.56-.15-1.07-.23-1.61c0,0,0,0,0-.07v0c-.08-.51-.17-1-.26-1.52s-.22-1.12-.34-1.67-.25-1.12-.39-1.68-.29-1.13-.45-1.7-.26-.9-.39-1.35l0-.1a2.17,2.17,0,0,0-.07-.24c-.17-.55-.35-1.1-.53-1.65s-.37-1.09-.57-1.63-.38-1-.59-1.57-.41-1-.62-1.55-.35-.82-.53-1.23l0-.08a2.14,2.14,0,0,0-.1-.22c-.23-.52-.46-1-.7-1.54s-.54-1.13-.82-1.7l-1-1.9c-.39-.72-.79-1.43-1.2-2.14l-.15-.27-.18-.31q-1.17-2-2.46-3.93c-.65-1-1.33-1.94-2-2.87v0c-.46-.61-.92-1.23-1.4-1.83s-.81-1-1.23-1.52-.82-1-1.24-1.45-.83-.93-1.25-1.39l-.26-.27-.12-.12-.93-1c-.45-.46-.9-.9-1.36-1.34s-.94-.89-1.41-1.32-.95-.84-1.43-1.24c-.24-.21-.49-.4-.74-.6l-.15-.13-.54-.44c-.46-.37-.93-.73-1.41-1.07s-.93-.68-1.39-1-.91-.61-1.37-.9-.9-.56-1.36-.83l-.31-.19-170.91-99.23-1-.57c-.44-.24-.88-.46-1.32-.68s-.87-.42-1.3-.61-.85-.38-1.28-.55l-1.29-.48-.25-.08-.09,0c-.32-.11-.63-.22-.95-.31s-.89-.26-1.32-.37-.88-.21-1.32-.29-.94-.17-1.4-.23l-.94-.1h-.13l-.35,0c-.51,0-1-.05-1.51-.05s-1.11,0-1.66.08a18.53,18.53,0,0,0-1.84.27h0l-.06,0a14.86,14.86,0,0,0-2.13.59A15.61,15.61,0,0,0,419,1056l-35,20.34a15.52,15.52,0,0,1,4.72-1.78l.06,0a19.14,19.14,0,0,1,5.39-.27h.15a25.92,25.92,0,0,1,5.92,1.3l.09,0a36.78,36.78,0,0,1,6.46,3l170.91,99.23a50.63,50.63,0,0,1,6.37,4.43l.17.13a61.31,61.31,0,0,1,5.86,5.48l.12.12a72.08,72.08,0,0,1,5.38,6.47h0a77.36,77.36,0,0,1,4.67,7.13l.15.26a76.37,76.37,0,0,1,3.79,7.5l0,.1a69.71,69.71,0,0,1,2.91,7.86l0,.1a61.79,61.79,0,0,1,1.83,7.91v0a49.53,49.53,0,0,1,.63,7.78l-.37,130.37a36,36,0,0,1-.66,6.89l0,.2a25.91,25.91,0,0,1-1.82,5.64.36.36,0,0,1,0,.09,19,19,0,0,1-2.4,3.72c-.29.37-.57.76-.89,1.1A15.71,15.71,0,0,1,600,1384l35-20.34a15.44,15.44,0,0,0,3.5-2.88c.32-.34.6-.73.89-1.1a16.22,16.22,0,0,0,1.16-1.44,19.77,19.77,0,0,0,1.21-2.18.42.42,0,0,1,0-.1l0-.09c.25-.53.48-1.07.69-1.63s.39-1.11.56-1.68.3-1.08.43-1.64c0-.22.09-.46.14-.69l0-.2c.05-.22.1-.44.14-.67.09-.5.16-1,.23-1.53s.12-1,.16-1.54.07-1,.09-1.51,0-1,0-1.55v-.09l.37-130.37C644.69,1212.32,644.68,1211.84,644.67,1211.36Z"/><path class="cls-3" d="M577.71,1177.82c17.71,10.23,32,35,32,55.32l-.37,130.37c-.06,20.34-14.48,28.5-32.18,18.28L497.07,1335c-29.48,26.69-69.31,62.25-71,61.25,0-2.92.12-61.94.23-102.14l-20-11.56c-17.7-10.22-32-35-31.92-55.29l.37-130.37c.06-20.34,14.43-28.53,32.13-18.31Z"/><path class="cls-4" d="M550.06,1194.53l0,0c-2.38-4.27-5.36-7.79-8.63-9.69l-98.8-57.47c-3.26-1.89-6.22-1.84-8.6-.37a.94.94,0,0,0-.22.12s0,0,0,0c-3.1,2.1-5.11,6.74-5.11,13.31v91a41.71,41.71,0,0,0,5.2,19.42,1.63,1.63,0,0,1,.09.19l0,0c2.39,4.27,5.37,7.8,8.65,9.71l98.8,57.46c3.28,1.91,6.26,1.84,8.65.34h0l.07-.07c3.17-2.06,5.23-6.73,5.23-13.39v-91A41.78,41.78,0,0,0,550.06,1194.53Zm-8.66-4.69a16.71,16.71,0,0,1,4.77,4.58L512.88,1210a1,1,0,0,0-.79-.09,1.16,1.16,0,0,0-.55.71L492,1219.72c-35.25-58.4-48.66-80.32-54.08-88.34a6.86,6.86,0,0,1,4.67,1ZM432,1233.4v-91c0-4.45,1.19-7.79,3.11-9.61,3.52,5.26,18.19,29.22,33.63,54.65l-34.13,58A31.5,31.5,0,0,1,432,1233.4Zm10.64,22.36a17.74,17.74,0,0,1-5.48-5.56l34.31-58.3c6.81,11.24,13.65,22.53,19.61,32.41a3,3,0,0,0,1,1,1,1,0,0,0,.94.1l19.76-9.23L546.87,1314a6.51,6.51,0,0,1-5.47-.81ZM552,1303.24c0,4-1,7.08-2.61,9l-34-97.29,33.59-15.7a31.54,31.54,0,0,1,3,13Z"/><path class="cls-5" d="M644.67,1211.36c0-.52,0-1-.07-1.55s-.08-1-.13-1.56-.11-1-.17-1.56-.15-1.07-.23-1.61c0,0,0,0,0-.07v0c-.08-.51-.17-1-.26-1.52s-.22-1.12-.34-1.67-.25-1.12-.39-1.68-.29-1.13-.45-1.7-.26-.9-.39-1.35l0-.1a2.17,2.17,0,0,0-.07-.24c-.17-.55-.35-1.1-.53-1.65s-.37-1.09-.57-1.63-.38-1-.59-1.57-.41-1-.62-1.55-.35-.82-.53-1.23l0-.08a2.14,2.14,0,0,0-.1-.22c-.23-.52-.46-1-.7-1.54s-.54-1.13-.82-1.7l-1-1.9c-.39-.72-.79-1.43-1.2-2.14l-.15-.27-.18-.31q-1.17-2-2.46-3.93c-.65-1-1.33-1.94-2-2.87v0c-.46-.61-.92-1.23-1.4-1.83s-.81-1-1.23-1.52-.82-1-1.24-1.45-.83-.93-1.25-1.39l-.26-.27-.12-.12-.93-1c-.45-.46-.9-.9-1.36-1.34s-.94-.89-1.41-1.32-.95-.84-1.43-1.24c-.24-.21-.49-.4-.74-.6l-.15-.13-.54-.44c-.46-.37-.93-.73-1.41-1.07s-.93-.68-1.39-1-.91-.61-1.37-.9-.9-.56-1.36-.83l-.31-.19-170.91-99.23-1-.57c-.44-.24-.88-.46-1.32-.68s-.87-.42-1.3-.61-.85-.38-1.28-.55l-1.29-.48-.25-.08-.09,0c-.32-.11-.63-.22-.95-.31s-.89-.26-1.32-.37-.88-.21-1.32-.29-.94-.17-1.4-.23l-.94-.1h-.13l-.35,0c-.51,0-1-.05-1.51-.05s-1.11,0-1.66.08a18.53,18.53,0,0,0-1.84.27h0l-.06,0a14.86,14.86,0,0,0-2.13.59A15.61,15.61,0,0,0,419,1056l-35,20.34a15.52,15.52,0,0,1,4.72-1.78l.06,0a19.14,19.14,0,0,1,5.39-.27h.15a25.92,25.92,0,0,1,5.92,1.3l.09,0a36.78,36.78,0,0,1,6.46,3l170.91,99.23a50.63,50.63,0,0,1,6.37,4.43l.17.13a61.31,61.31,0,0,1,5.86,5.48l.12.12a72.08,72.08,0,0,1,5.38,6.47h0a77.36,77.36,0,0,1,4.67,7.13l.15.26a76.37,76.37,0,0,1,3.79,7.5l0,.1a69.71,69.71,0,0,1,2.91,7.86l0,.1a61.79,61.79,0,0,1,1.83,7.91v0a49.53,49.53,0,0,1,.63,7.78l-.37,130.37a36,36,0,0,1-.66,6.89l0,.2a25.91,25.91,0,0,1-1.82,5.64.36.36,0,0,1,0,.09,19,19,0,0,1-2.4,3.72c-.29.37-.57.76-.89,1.1A15.71,15.71,0,0,1,600,1384l35-20.34a15.44,15.44,0,0,0,3.5-2.88c.32-.34.6-.73.89-1.1a16.22,16.22,0,0,0,1.16-1.44,19.77,19.77,0,0,0,1.21-2.18.42.42,0,0,1,0-.1l0-.09c.25-.53.48-1.07.69-1.63s.39-1.11.56-1.68.3-1.08.43-1.64c0-.22.09-.46.14-.69l0-.2c.05-.22.1-.44.14-.67.09-.5.16-1,.23-1.53s.12-1,.16-1.54.07-1,.09-1.51,0-1,0-1.55v-.09l.37-130.37C644.69,1212.32,644.68,1211.84,644.67,1211.36Z"/><g class="cls-6"><polygon class="cls-7" points="741.52 1398.76 770.67 1381.82 826.53 1414.07 797.38 1431.01 741.52 1398.76"/><polygon class="cls-8" points="937.16 1511.71 966.32 1494.77 868.15 1571.85 839 1588.79 937.16 1511.71"/><polygon class="cls-9" points="881.37 1479.5 910.52 1462.56 966.32 1494.77 937.16 1511.71 881.37 1479.5"/><polygon class="cls-10" points="798.17 1268.69 827.33 1251.74 911.32 1300.23 882.16 1317.18 798.17 1268.69"/><polygon class="cls-11" points="882.16 1317.18 911.32 1300.23 910.52 1462.56 881.37 1479.5 882.16 1317.18"/><polygon class="cls-12" points="881.37 1479.5 937.16 1511.71 839 1588.79 741.52 1398.76 797.38 1431.01 798.17 1268.69 882.16 1317.18 881.37 1479.5"/></g><polygon class="cls-13" points="1082.71 1501.11 1082.01 1610.11 1052.54 1628.28 1053.33 1484.16 1082.71 1501.11"/><polygon class="cls-14" points="1137.82 1497.72 1085.92 1467.73 1082.79 1465.9 1082.71 1501.11 1053.33 1484.16 1052.54 1628.28 998.04 1561.61 998.83 1417.49 942.15 1384.72 1020.29 1326.65 1048.55 1305.62 1137.82 1497.72"/><polygon class="cls-15" points="1108.35 1515.88 1082.71 1501.11 1053.33 1484.16 1052.54 1628.28 968.58 1579.78 969.27 1435.65 912.68 1402.97 1018.99 1323.79 1020.29 1326.65 1085.92 1467.73 1108.35 1515.88"/><polygon class="cls-16" points="1019 1323.8 1048.5 1305.61 1137.82 1497.71 1108.32 1515.9 1019 1323.8"/><g class="cls-17"><ellipse class="cls-18" cx="1885.71" cy="1805.96" rx="455.57" ry="155.45"/><ellipse class="cls-19" cx="1885.71" cy="1805.96" rx="445.04" ry="151.85"/><ellipse class="cls-20" cx="1885.71" cy="1805.96" rx="434.52" ry="148.26"/><ellipse class="cls-21" cx="1885.71" cy="1805.96" rx="424" ry="144.67"/><ellipse class="cls-22" cx="1885.71" cy="1805.96" rx="413.47" ry="141.08"/><ellipse class="cls-23" cx="1885.71" cy="1805.96" rx="402.95" ry="137.49"/><ellipse class="cls-24" cx="1885.71" cy="1805.96" rx="392.42" ry="133.9"/><ellipse class="cls-25" cx="1885.71" cy="1805.96" rx="381.9" ry="130.31"/><ellipse class="cls-26" cx="1885.71" cy="1805.96" rx="371.38" ry="126.72"/><ellipse class="cls-27" cx="1885.71" cy="1805.96" rx="360.85" ry="123.13"/><ellipse class="cls-28" cx="1885.71" cy="1805.96" rx="350.33" ry="119.54"/><ellipse class="cls-29" cx="1885.71" cy="1805.96" rx="339.81" ry="115.95"/><ellipse class="cls-30" cx="1885.71" cy="1805.96" rx="329.28" ry="112.36"/><ellipse class="cls-31" cx="1885.71" cy="1805.96" rx="318.76" ry="108.76"/><ellipse class="cls-32" cx="1885.71" cy="1805.96" rx="308.24" ry="105.17"/><ellipse class="cls-33" cx="1885.71" cy="1805.96" rx="297.71" ry="101.58"/><ellipse class="cls-34" cx="1885.71" cy="1805.96" rx="287.19" ry="97.99"/><ellipse class="cls-35" cx="1885.71" cy="1805.96" rx="276.66" ry="94.4"/><ellipse class="cls-36" cx="1885.71" cy="1805.96" rx="266.14" ry="90.81"/><ellipse class="cls-37" cx="1885.71" cy="1805.96" rx="255.62" ry="87.22"/><ellipse class="cls-38" cx="1885.71" cy="1805.96" rx="245.09" ry="83.63"/><ellipse class="cls-39" cx="1885.71" cy="1805.96" rx="234.57" ry="80.04"/><ellipse class="cls-40" cx="1885.71" cy="1805.96" rx="224.05" ry="76.45"/><ellipse class="cls-41" cx="1885.71" cy="1805.96" rx="213.52" ry="72.86"/><ellipse class="cls-42" cx="1885.71" cy="1805.96" rx="203" ry="69.27"/><ellipse class="cls-43" cx="1885.71" cy="1805.96" rx="192.47" ry="65.68"/><ellipse class="cls-44" cx="1885.71" cy="1805.96" rx="181.95" ry="62.08"/><ellipse class="cls-45" cx="1885.71" cy="1805.96" rx="171.43" ry="58.49"/><ellipse class="cls-46" cx="1885.71" cy="1805.96" rx="160.9" ry="54.9"/></g><g class="cls-17"><ellipse class="cls-18" cx="455.57" cy="902.74" rx="455.57" ry="155.45"/><ellipse class="cls-19" cx="455.57" cy="902.74" rx="445.04" ry="151.85"/><ellipse class="cls-20" cx="455.57" cy="902.74" rx="434.52" ry="148.26"/><ellipse class="cls-21" cx="455.57" cy="902.74" rx="424" ry="144.67"/><ellipse class="cls-22" cx="455.57" cy="902.74" rx="413.47" ry="141.08"/><ellipse class="cls-23" cx="455.57" cy="902.74" rx="402.95" ry="137.49"/><ellipse class="cls-24" cx="455.57" cy="902.74" rx="392.42" ry="133.9"/><ellipse class="cls-25" cx="455.57" cy="902.74" rx="381.9" ry="130.31"/><ellipse class="cls-26" cx="455.57" cy="902.74" rx="371.38" ry="126.72"/><ellipse class="cls-27" cx="455.57" cy="902.74" rx="360.85" ry="123.13"/><ellipse class="cls-28" cx="455.57" cy="902.74" rx="350.33" ry="119.54"/><ellipse class="cls-29" cx="455.57" cy="902.74" rx="339.81" ry="115.95"/><ellipse class="cls-30" cx="455.57" cy="902.74" rx="329.28" ry="112.36"/><ellipse class="cls-31" cx="455.57" cy="902.74" rx="318.76" ry="108.76"/><ellipse class="cls-32" cx="455.57" cy="902.74" rx="308.24" ry="105.17"/><ellipse class="cls-33" cx="455.57" cy="902.74" rx="297.71" ry="101.58"/><ellipse class="cls-34" cx="455.57" cy="902.74" rx="287.19" ry="97.99"/><ellipse class="cls-35" cx="455.57" cy="902.74" rx="276.66" ry="94.4"/><ellipse class="cls-36" cx="455.57" cy="902.74" rx="266.14" ry="90.81"/><ellipse class="cls-37" cx="455.57" cy="902.74" rx="255.62" ry="87.22"/><ellipse class="cls-38" cx="455.57" cy="902.74" rx="245.09" ry="83.63"/><ellipse class="cls-39" cx="455.57" cy="902.74" rx="234.57" ry="80.04"/><ellipse class="cls-40" cx="455.57" cy="902.74" rx="224.05" ry="76.45"/><ellipse class="cls-41" cx="455.57" cy="902.74" rx="213.52" ry="72.86"/><ellipse class="cls-42" cx="455.57" cy="902.74" rx="203" ry="69.27"/><ellipse class="cls-43" cx="455.57" cy="902.74" rx="192.47" ry="65.68"/><ellipse class="cls-44" cx="455.57" cy="902.74" rx="181.95" ry="62.08"/><ellipse class="cls-45" cx="455.57" cy="902.74" rx="171.43" ry="58.49"/><ellipse class="cls-46" cx="455.57" cy="902.74" rx="160.9" ry="54.9"/></g><g class="cls-17"><ellipse class="cls-18" cx="1269.24" cy="1546" rx="455.57" ry="155.45"/><ellipse class="cls-19" cx="1269.24" cy="1546" rx="445.04" ry="151.85"/><ellipse class="cls-20" cx="1269.24" cy="1546" rx="434.52" ry="148.26"/><ellipse class="cls-21" cx="1269.24" cy="1546" rx="424" ry="144.67"/><ellipse class="cls-22" cx="1269.24" cy="1546" rx="413.47" ry="141.08"/><ellipse class="cls-23" cx="1269.24" cy="1546" rx="402.95" ry="137.49"/><ellipse class="cls-24" cx="1269.24" cy="1546" rx="392.42" ry="133.9"/><ellipse class="cls-25" cx="1269.24" cy="1546" rx="381.9" ry="130.31"/><ellipse class="cls-26" cx="1269.24" cy="1546" rx="371.38" ry="126.72"/><ellipse class="cls-27" cx="1269.24" cy="1546" rx="360.85" ry="123.13"/><ellipse class="cls-28" cx="1269.24" cy="1546" rx="350.33" ry="119.54"/><ellipse class="cls-29" cx="1269.24" cy="1546" rx="339.81" ry="115.95"/><ellipse class="cls-30" cx="1269.24" cy="1546" rx="329.28" ry="112.36"/><ellipse class="cls-31" cx="1269.24" cy="1546" rx="318.76" ry="108.76"/><ellipse class="cls-32" cx="1269.24" cy="1546" rx="308.24" ry="105.17"/><ellipse class="cls-33" cx="1269.24" cy="1546" rx="297.71" ry="101.58"/><ellipse class="cls-34" cx="1269.24" cy="1546" rx="287.19" ry="97.99"/><ellipse class="cls-35" cx="1269.24" cy="1546" rx="276.66" ry="94.4"/><ellipse class="cls-36" cx="1269.24" cy="1546" rx="266.14" ry="90.81"/><ellipse class="cls-37" cx="1269.24" cy="1546" rx="255.62" ry="87.22"/><ellipse class="cls-38" cx="1269.24" cy="1546" rx="245.09" ry="83.63"/><ellipse class="cls-39" cx="1269.24" cy="1546" rx="234.57" ry="80.04"/><ellipse class="cls-40" cx="1269.24" cy="1546" rx="224.05" ry="76.45"/><ellipse class="cls-41" cx="1269.24" cy="1546" rx="213.52" ry="72.86"/><ellipse class="cls-42" cx="1269.24" cy="1546" rx="203" ry="69.27"/><ellipse class="cls-43" cx="1269.24" cy="1546" rx="192.47" ry="65.68"/><ellipse class="cls-44" cx="1269.24" cy="1546" rx="181.95" ry="62.08"/><ellipse class="cls-45" cx="1269.24" cy="1546" rx="171.43" ry="58.49"/><ellipse class="cls-46" cx="1269.24" cy="1546" rx="160.9" ry="54.9"/></g><path class="cls-47" d="M1625.88,466.68V1532a43.22,43.22,0,0,1-20.17,36.81l-1.25.83-63.23,43.89a43,43,0,0,0,15.6-33.49V514.52a109.63,109.63,0,0,0-55.32-95.26L1190.35,240.18l-.62-.21-96.1-55.32a9,9,0,0,0-2.08-1,47.43,47.43,0,0,0-37.85-2.5L1109,141.18l5.4-4a47.14,47.14,0,0,1,48.26-.41l407.87,234.4a110.16,110.16,0,0,1,55.32,95.47Z"/><path class="cls-48" d="M1556.83,514.52V1580.06a43,43,0,0,1-15.6,33.49l-.83.83-5.41,3.54-.21.2a43.66,43.66,0,0,1-43.67-.2l-418.28-240.44a100.39,100.39,0,0,1-50.33-87.15V225.83a47.08,47.08,0,0,1,31-44.51l.21-.21a47.43,47.43,0,0,1,37.85,2.5,9,9,0,0,1,2.08,1l96.1,55.32.62.21,311.16,179.08A109.59,109.59,0,0,1,1556.83,514.52Z"/><path class="cls-49" d="M1525.65,514.55V1580a11.33,11.33,0,0,1-4.29,9.4l-3.13,2.14a11.91,11.91,0,0,1-11.71-.82l-418.11-240.31a69.15,69.15,0,0,1-34.64-60V225.91a16.08,16.08,0,0,1,10.56-15.34l1.48-.49a18.81,18.81,0,0,1,4.13-.5,14.45,14.45,0,0,1,7.25,1.81l2.48,1.16,97.14,55.91.5.33,25.42,14.62a32.82,32.82,0,0,1,16.47,28.46v21.91a19.23,19.23,0,0,0,9.55,16.61l112,65.33a12.82,12.82,0,0,0,19.28-11.07V392.24A10.63,10.63,0,0,1,1376,383l109.9,63.23A78.65,78.65,0,0,1,1525.65,514.55Z"/><path class="cls-50" d="M1621.1,434.65l-71.55,40.56a108.83,108.83,0,0,0-48-55.95L1190.35,240.18l-.62-.21-96.1-55.32a9,9,0,0,0-2.08-1,47.43,47.43,0,0,0-37.85-2.5L1109,141.18l5.4-4a47.14,47.14,0,0,1,48.26-.41l407.87,234.4A110,110,0,0,1,1621.1,434.65Z"/><path class="cls-4" d="M1351.44,533.85,1151,422.29c-3.71-2.07-6.74-6.79-6.74-10.5v-.27c0-3.71,3-5,6.74-3l200.46,111.56c3.71,2.07,6.75,6.79,6.75,10.5v.26C1358.19,534.57,1355.15,535.91,1351.44,533.85Z"/><path class="cls-4" d="M1351.31,573.07,1096.93,431.5c-3.78-2.1-6.87-6.92-6.87-10.7h0c0-3.78,3.09-5.16,6.87-3.05l254.38,141.57c3.78,2.1,6.88,6.92,6.88,10.7h0C1358.19,573.8,1355.09,575.18,1351.31,573.07Z"/><path class="cls-4" d="M1351.31,612.37,1096.93,470.8c-3.78-2.1-6.87-6.92-6.87-10.7h0c0-3.79,3.09-5.16,6.87-3.05l254.38,141.56c3.78,2.11,6.88,6.93,6.88,10.71h0C1358.19,613.1,1355.09,614.47,1351.31,612.37Z"/><path class="cls-4" d="M1296.29,621l-199.5-111c-3.71-2.06-6.73-6.78-6.73-10.48v-.29c0-3.7,3-5.05,6.73-3l199.5,111c3.7,2.06,6.73,6.77,6.73,10.47v.3C1303,621.76,1300,623.1,1296.29,621Z"/><g class="cls-17"><ellipse class="cls-18" cx="1273.9" cy="1307.12" rx="274.82" ry="155.45"/><ellipse class="cls-19" cx="1273.9" cy="1307.12" rx="268.48" ry="151.85"/><ellipse class="cls-20" cx="1273.9" cy="1307.12" rx="262.13" ry="148.26"/><ellipse class="cls-21" cx="1273.9" cy="1307.12" rx="255.78" ry="144.67"/><ellipse class="cls-22" cx="1273.9" cy="1307.12" rx="249.43" ry="141.08"/><ellipse class="cls-23" cx="1273.9" cy="1307.12" rx="243.08" ry="137.49"/><ellipse class="cls-24" cx="1273.9" cy="1307.12" rx="236.73" ry="133.9"/><ellipse class="cls-25" cx="1273.9" cy="1307.12" rx="230.39" ry="130.31"/><ellipse class="cls-26" cx="1273.9" cy="1307.12" rx="224.04" ry="126.72"/><ellipse class="cls-27" cx="1273.9" cy="1307.12" rx="217.69" ry="123.13"/><ellipse class="cls-28" cx="1273.9" cy="1307.12" rx="211.34" ry="119.54"/><ellipse class="cls-29" cx="1273.9" cy="1307.12" rx="204.99" ry="115.95"/><ellipse class="cls-30" cx="1273.9" cy="1307.12" rx="198.64" ry="112.36"/><ellipse class="cls-31" cx="1273.9" cy="1307.12" rx="192.29" ry="108.76"/><ellipse class="cls-32" cx="1273.9" cy="1307.12" rx="185.95" ry="105.17"/><ellipse class="cls-33" cx="1273.9" cy="1307.12" rx="179.6" ry="101.58"/><ellipse class="cls-34" cx="1273.9" cy="1307.12" rx="173.25" ry="97.99"/><ellipse class="cls-35" cx="1273.9" cy="1307.12" rx="166.9" ry="94.4"/><ellipse class="cls-36" cx="1273.9" cy="1307.12" rx="160.55" ry="90.81"/><ellipse class="cls-37" cx="1273.9" cy="1307.12" rx="154.2" ry="87.22"/><ellipse class="cls-38" cx="1273.9" cy="1307.12" rx="147.85" ry="83.63"/><ellipse class="cls-39" cx="1273.9" cy="1307.12" rx="141.51" ry="80.04"/><ellipse class="cls-40" cx="1273.9" cy="1307.12" rx="135.16" ry="76.45"/><ellipse class="cls-41" cx="1273.9" cy="1307.12" rx="128.81" ry="72.86"/><ellipse class="cls-42" cx="1273.9" cy="1307.12" rx="122.46" ry="69.27"/><ellipse class="cls-43" cx="1273.9" cy="1307.12" rx="116.11" ry="65.68"/><ellipse class="cls-44" cx="1273.9" cy="1307.12" rx="109.76" ry="62.08"/><ellipse class="cls-45" cx="1273.9" cy="1307.12" rx="103.42" ry="58.49"/><ellipse class="cls-46" cx="1273.9" cy="1307.12" rx="97.07" ry="54.9"/></g><polygon class="cls-51" points="939.67 485.1 1160.75 613.76 1187.93 759.48 1450.68 912.75 1450.68 1269.74 939.67 976.18 939.67 485.1"/><polygon class="cls-52" points="898.71 500.67 1119.78 629.33 1146.97 775.05 1409.72 928.33 1409.72 1285.31 898.71 991.75 898.71 500.67"/><polygon class="cls-53" points="939.67 485.1 896.62 510.42 1117.69 639.08 1160.75 613.76 939.67 485.1"/><polygon class="cls-54" points="1190.11 750.07 1147.05 775.4 1409.81 928.67 1452.86 903.35 1190.11 750.07"/><polygon class="cls-55" points="1407.63 1257.12 1322.69 1204.39 1322.69 1307.93 1407.63 1257.12"/><polygon class="cls-56" points="880.39 976.93 1391.41 1270.49 1391.41 782.01 880.39 488.45 880.39 976.93"/><polygon class="cls-57" points="838.93 1006.07 1349.94 1299.63 1349.94 811.14 838.93 517.58 838.93 1006.07"/><path class="cls-58" d="M1272.2,842.36,1071.74,730.8c-3.71-2.07-6.75-6.79-6.75-10.5V720c0-3.71,3-5.06,6.75-3L1272.2,828.6c3.71,2.07,6.74,6.79,6.74,10.5v.27C1278.94,843.08,1275.91,844.42,1272.2,842.36Z"/><path class="cls-58" d="M1272.07,881.58,1017.69,740c-3.79-2.11-6.88-6.93-6.88-10.71h0c0-3.78,3.09-5.15,6.88-3l254.38,141.57c3.78,2.1,6.87,6.92,6.87,10.7h0C1278.94,882.31,1275.85,883.69,1272.07,881.58Z"/><path class="cls-58" d="M1272.07,920.88,1017.69,779.31c-3.79-2.1-6.88-6.92-6.88-10.7h0c0-3.78,3.09-5.16,6.88-3.05l254.38,141.56c3.78,2.11,6.87,6.93,6.87,10.71h0C1278.94,921.61,1275.85,923,1272.07,920.88Z"/><path class="cls-59" d="M1217,929.56l-199.5-111c-3.7-2.06-6.73-6.78-6.73-10.48v-.29c0-3.7,3-5,6.73-3l199.5,111c3.7,2.06,6.73,6.77,6.73,10.48v.29C1223.77,930.27,1220.74,931.62,1217,929.56Z"/><polygon class="cls-60" points="813.85 552.66 1034.93 681.32 1062.11 827.04 1324.87 980.32 1324.87 1337.3 813.85 1043.74 813.85 552.66"/><polygon class="cls-61" points="770.8 577.99 991.88 706.65 1019.06 852.37 1281.81 1005.64 1281.81 1362.63 770.8 1069.07 770.8 577.99"/><polygon class="cls-62" points="813.85 552.66 770.8 577.99 991.88 706.65 1034.93 681.32 813.85 552.66"/><polygon class="cls-63" points="1062.11 827.04 1019.06 852.37 1281.81 1005.64 1324.87 980.32 1062.11 827.04"/><polygon class="cls-64" points="1409.81 928.65 1409.81 1247.69 1324.87 1298.5 1324.87 980.32 1281.81 1005.64 1281.81 1324.26 1281.81 1362.63 1324.87 1337.3 1324.87 1336.88 1452.86 1260.31 1452.86 1221.94 1452.86 903.33 1409.81 928.65"/><polygon class="cls-4" points="984.51 877.42 1099.08 1096.41 1038.39 1061.37 1038.07 1173.52 929.58 1110.88 929.89 998.73 869.21 963.69 984.51 877.42"/><path class="cls-59" d="M1334.23,375.34l-88.68-51.72c-3.06-1.78-5.57-5.74-5.57-8.8h0c0-3.06,2.51-4.1,5.57-2.32l88.68,51.72c3.06,1.79,5.56,5.75,5.56,8.81h0C1339.79,376.09,1337.29,377.13,1334.23,375.34Z"/><g class="cls-65"><path class="cls-66" d="M1501.51,419.26,1190.35,240.18l-.62-.21-96.1-55.32a9,9,0,0,0-2.08-1,46.94,46.94,0,0,0-28.47-4.8,46.87,46.87,0,0,1,24.41,5.2,9.86,9.86,0,0,1,2.08,1l96.09,55.33.63.21,311.15,179.08a109.57,109.57,0,0,1,55.33,95.26V1580.47a43.74,43.74,0,0,1-4.64,19.77,42.58,42.58,0,0,1-12.51,17.17l-.29.29,5.07-3.32.83-.83a43,43,0,0,0,15.6-33.49V514.52A109.59,109.59,0,0,0,1501.51,419.26Z"/><path class="cls-67" d="M1046.44,184.6a49.31,49.31,0,0,0-6.23,4.21,48,48,0,0,1,7.67-3.63l.2-.21a50.2,50.2,0,0,1,9.38-2.3A49.32,49.32,0,0,0,1046.44,184.6Z"/></g><path class="cls-68" d="M2270.66,1443.24l-96.48-51.13-24.08-12.7s-3.3,20.62-14.52,53.44c-31,91.54-123.2,277.09-374.73,367.64-12.87,4.62-25.4,8.74-37.94,12.54a1,1,0,0,1-.66.16c-164.93,50.47-305.78,35.63-403.76,9.24-16.16-4.45-31.17-9.07-44.86-13.69,58.22-6.43,133.43-23.59,229.26-60,1.82-.66,3.63-1.48,5.44-2.14,20.13-6.43,41.4-14,63.67-22.43.16,0,.16-.17.33-.17,302.32-115.45,363.85-482.76,363.85-482.76l-164-73.89L2019.3,964.44l60.2-49.32Z"/><path class="cls-69" d="M2201.56,1467.82l-66-35L2081,1404s-44.86,279.89-358.08,409a1,1,0,0,1-.66.16c-9.89,4.29-20.12,8.08-30.51,11.88-236.18,84.94-427.84,34-523.67-5.61a505.07,505.07,0,0,1-56.24-27c19.46,9.57,68.94,26.56,161.8,16.33,58.22-6.43,133.43-23.59,229.26-60,1.82-.66,3.63-1.48,5.44-2.14a464.74,464.74,0,0,0,63.17-30.35c243.61-139.7,295.57-450.44,295.57-450.44l-164-73.89L2010.4,939.7l8.9,24.74,154.88,427.67Z"/><polygon class="cls-70" points="2010.39 939.75 2079.49 915.17 2270.67 1443.22 2201.57 1467.8 2010.39 939.75"/><path class="cls-71" d="M163.67,428l96.49,51.13,24.08,12.7s3.3-20.62,14.51-53.44C329.76,346.8,422,161.25,673.49,70.7c12.86-4.62,25.4-8.74,37.93-12.54a1,1,0,0,1,.66-.16C877,7.53,1017.87,22.37,1115.84,48.76c16.17,4.45,31.18,9.07,44.86,13.69-58.22,6.43-133.43,23.59-229.25,60-1.82.66-3.63,1.48-5.45,2.14-20.12,6.43-41.4,14-63.66,22.43-.17,0-.17.17-.33.17C559.68,262.68,498.16,630,498.16,630l164,73.89L415,906.75l-60.2,49.32Z"/><path class="cls-72" d="M232.78,403.37l66,35,54.6,28.86s44.86-279.89,358.07-409a1,1,0,0,1,.66-.16c9.9-4.29,20.12-8.09,30.51-11.88,236.19-84.94,427.85-34,523.67,5.61a504.53,504.53,0,0,1,56.25,27.05c-19.47-9.57-69-26.56-161.81-16.33-58.22,6.43-133.43,23.59-229.25,60-1.82.66-3.63,1.48-5.45,2.14A465.31,465.31,0,0,0,862.83,155C619.22,294.68,567.27,605.42,567.27,605.42l163.94,73.89L423.94,931.49,415,906.75,260.16,479.08Z"/><polygon class="cls-73" points="423.94 931.44 354.85 956.02 163.67 427.97 232.77 403.39 423.94 931.44"/><path class="cls-74" d="M1735.82,628.9l-28.39,15A42,42,0,0,0,1693,630L1513.63,529.53a28,28,0,0,0-8.7-3.14,26,26,0,0,0-17.7,3.77c11.63-20.43,40-24.62,54.16-16.55L1720.73,614A42.91,42.91,0,0,1,1735.82,628.9Z"/><path class="cls-75" d="M1713.82,665.88V847a18.6,18.6,0,0,1-3.14,9.95v.1A18.55,18.55,0,0,1,1686,862.8L1506.4,762.38a62.08,62.08,0,0,1-31-53.74v-157a24.92,24.92,0,0,1,11.74-21.37l.1-.11a26,26,0,0,1,17.7-3.77,28,28,0,0,1,8.7,3.14L1693,630A41.61,41.61,0,0,1,1713.82,665.88Z"/><path class="cls-76" d="M1741.58,650V830.74c0,14.25-11.53,20.43-30.91,26.29v-.1a18.6,18.6,0,0,0,3.14-9.95V665.88a41.19,41.19,0,0,0-6.39-22l28.39-15A41.89,41.89,0,0,1,1741.58,650Z"/><path class="cls-77" d="M1693,630,1513.63,529.53a28,28,0,0,0-8.7-3.14,26,26,0,0,0-17.7,3.77l-.1.11a24.74,24.74,0,0,0-4.82,3.9,26,26,0,0,1,2.59-1.85l.11-.11a26,26,0,0,1,17.7-3.77,28.26,28.26,0,0,1,8.7,3.14L1690.74,632a41.57,41.57,0,0,1,20.85,35.93V849a18.68,18.68,0,0,1-3.14,10v.11a19.09,19.09,0,0,1-1.75,2.15,19.16,19.16,0,0,0,4-4.21v-.1a18.6,18.6,0,0,0,3.14-9.95V665.88A41.61,41.61,0,0,0,1693,630Z"/><polygon class="cls-4" points="1523.63 643.89 1548.84 739.68 1675.91 710.51 1668.58 666.14 1570.16 702.06 1560.94 622.78 1523.63 643.89"/></g></g></svg>