<svg xmlns="http://www.w3.org/2000/svg" xmlns:xlink="http://www.w3.org/1999/xlink" viewBox="0 0 1869.7 1229.65"><defs><style>.cls-1{mask:url(#mask);}.cls-11,.cls-13,.cls-15,.cls-17,.cls-19,.cls-2,.cls-21,.cls-22,.cls-24,.cls-26,.cls-4,.cls-5,.cls-7,.cls-9{mix-blend-mode:multiply;}.cls-2{fill:url(#linear-gradient);}.cls-3{mask:url(#mask-2);}.cls-4{fill:url(#linear-gradient-2);}.cls-5{fill:url(#linear-gradient-3);}.cls-6{mask:url(#mask-4);}.cls-7{fill:url(#linear-gradient-4);}.cls-8{mask:url(#mask-5);}.cls-9{fill:url(#linear-gradient-5);}.cls-10{mask:url(#mask-6);}.cls-11{fill:url(#linear-gradient-6);}.cls-12{mask:url(#mask-7);}.cls-13{fill:url(#linear-gradient-7);}.cls-14{mask:url(#mask-8);}.cls-15{fill:url(#linear-gradient-8);}.cls-16{mask:url(#mask-9);}.cls-17{fill:url(#linear-gradient-9);}.cls-18{mask:url(#mask-10);}.cls-19{fill:url(#linear-gradient-10);}.cls-20{mask:url(#mask-11);}.cls-21{fill:url(#linear-gradient-11);}.cls-22{fill:url(#linear-gradient-12);}.cls-23{mask:url(#mask-13);}.cls-24{fill:url(#linear-gradient-13);}.cls-25{mask:url(#mask-14);}.cls-26{fill:url(#linear-gradient-14);}.cls-27{fill:url(#linear-gradient-15);}.cls-28{isolation:isolate;}.cls-29{clip-path:url(#clip-path);}.cls-30{fill:url(#linear-gradient-17);}.cls-31{fill:url(#linear-gradient-18);}.cls-32{fill:url(#linear-gradient-19);}.cls-33{fill:url(#linear-gradient-20);}.cls-34{fill:url(#linear-gradient-21);}.cls-35{fill:url(#linear-gradient-22);}.cls-36{fill:url(#linear-gradient-23);}.cls-37{fill:url(#linear-gradient-24);}.cls-38{fill:url(#linear-gradient-25);}.cls-39{fill:url(#linear-gradient-26);}.cls-40{fill:url(#linear-gradient-27);}.cls-41{fill:url(#linear-gradient-28);}.cls-42{fill:url(#linear-gradient-29);}.cls-43{fill:url(#linear-gradient-30);}.cls-44{fill:url(#linear-gradient-31);}.cls-45{fill:url(#linear-gradient-32);}.cls-46{fill:url(#linear-gradient-33);}.cls-47{fill:url(#linear-gradient-34);}.cls-48{fill:url(#linear-gradient-35);}.cls-49{fill:url(#linear-gradient-36);}.cls-50{fill:url(#linear-gradient-37);}.cls-51{fill:url(#linear-gradient-38);}.cls-52{fill:url(#linear-gradient-39);}.cls-53{fill:url(#linear-gradient-40);}.cls-54{fill:url(#linear-gradient-41);}.cls-55{fill:url(#linear-gradient-42);}.cls-56{mask:url(#mask-15);}.cls-100,.cls-116,.cls-118,.cls-128,.cls-132,.cls-57,.cls-67,.cls-70,.cls-72,.cls-75,.cls-84,.cls-86,.cls-88,.cls-92,.cls-95,.cls-98{mix-blend-mode:soft-light;}.cls-57{fill:url(#linear-gradient-43);}.cls-58{fill:url(#linear-gradient-44);}.cls-59{fill:url(#linear-gradient-45);}.cls-60{fill:url(#linear-gradient-46);}.cls-61{fill:url(#linear-gradient-47);}.cls-62{fill:url(#linear-gradient-48);}.cls-63{fill:url(#linear-gradient-49);}.cls-64{fill:url(#linear-gradient-50);}.cls-65{fill:url(#linear-gradient-51);}.cls-66{mask:url(#mask-16);}.cls-67{fill:url(#linear-gradient-52);}.cls-68{fill:url(#linear-gradient-53);}.cls-69{mask:url(#mask-17);}.cls-70{fill:url(#linear-gradient-54);}.cls-71{mask:url(#mask-18);}.cls-72{fill:url(#linear-gradient-55);}.cls-73{fill:url(#linear-gradient-56);}.cls-74{mask:url(#mask-19);}.cls-75{fill:url(#linear-gradient-57);}.cls-76{fill:url(#linear-gradient-58);}.cls-77{fill:url(#linear-gradient-59);}.cls-78{fill:url(#linear-gradient-60);}.cls-79{fill:url(#linear-gradient-61);}.cls-80{fill:url(#linear-gradient-62);}.cls-81{fill:url(#linear-gradient-63);}.cls-82{fill:url(#linear-gradient-64);}.cls-83{mask:url(#mask-20);}.cls-84{fill:url(#linear-gradient-65);}.cls-85{mask:url(#mask-21);}.cls-86{fill:url(#linear-gradient-66);}.cls-87{mask:url(#mask-22);}.cls-88{fill:url(#linear-gradient-67);}.cls-89{fill:url(#linear-gradient-68);}.cls-90{fill:url(#linear-gradient-69);}.cls-91{mask:url(#mask-23);}.cls-92{fill:url(#linear-gradient-70);}.cls-93{fill:url(#linear-gradient-71);}.cls-94{mask:url(#mask-24);}.cls-95{fill:url(#linear-gradient-72);}.cls-132,.cls-96{fill:#fff;}.cls-97{mask:url(#mask-25);}.cls-98{fill:url(#linear-gradient-73);}.cls-99{fill:url(#linear-gradient-74);}.cls-100{fill:none;stroke:#fff;stroke-miterlimit:10;stroke-width:2px;}.cls-101{fill:url(#linear-gradient-75);}.cls-102{fill:url(#linear-gradient-76);}.cls-103{fill:url(#linear-gradient-77);}.cls-104{fill:url(#linear-gradient-78);}.cls-105{fill:url(#linear-gradient-79);}.cls-106{fill:url(#linear-gradient-80);}.cls-107{fill:url(#linear-gradient-81);}.cls-108{fill:url(#linear-gradient-82);}.cls-109{fill:url(#linear-gradient-83);}.cls-110{fill:url(#linear-gradient-84);}.cls-111{fill:url(#linear-gradient-85);}.cls-112{fill:url(#linear-gradient-86);}.cls-113{fill:url(#linear-gradient-87);}.cls-114{fill:url(#linear-gradient-88);}.cls-115{mask:url(#mask-26);}.cls-116{fill:url(#linear-gradient-89);}.cls-117{mask:url(#mask-27);}.cls-118{fill:url(#linear-gradient-90);}.cls-119{fill:url(#linear-gradient-91);}.cls-120{fill:#ff997d;}.cls-121{fill:url(#linear-gradient-92);}.cls-122{fill:url(#linear-gradient-93);}.cls-123{fill:url(#linear-gradient-94);}.cls-124{fill:#d88894;}.cls-125{fill:#2b2e33;}.cls-126{fill:url(#linear-gradient-95);}.cls-127{mask:url(#mask-28);}.cls-128{fill:url(#linear-gradient-96);}.cls-129{fill:url(#linear-gradient-97);}.cls-130{fill:url(#linear-gradient-98);}.cls-131{fill:url(#linear-gradient-99);}.cls-133{fill:url(#linear-gradient-100);}.cls-134{filter:url(#luminosity-noclip-28);}.cls-135{filter:url(#luminosity-noclip-27);}.cls-136{filter:url(#luminosity-noclip-26);}.cls-137{filter:url(#luminosity-noclip-25);}.cls-138{filter:url(#luminosity-noclip-24);}.cls-139{filter:url(#luminosity-noclip-23);}.cls-140{filter:url(#luminosity-noclip-22);}.cls-141{filter:url(#luminosity-noclip-21);}.cls-142{filter:url(#luminosity-noclip-20);}.cls-143{filter:url(#luminosity-noclip-19);}.cls-144{filter:url(#luminosity-noclip-18);}.cls-145{filter:url(#luminosity-noclip-17);}.cls-146{filter:url(#luminosity-noclip-16);}.cls-147{filter:url(#luminosity-noclip-15);}.cls-148{filter:url(#luminosity-noclip-14);}.cls-149{filter:url(#luminosity-noclip-13);}.cls-150{filter:url(#luminosity-noclip-11);}.cls-151{filter:url(#luminosity-noclip-10);}.cls-152{filter:url(#luminosity-noclip-9);}.cls-153{filter:url(#luminosity-noclip-8);}.cls-154{filter:url(#luminosity-noclip-7);}.cls-155{filter:url(#luminosity-noclip-6);}.cls-156{filter:url(#luminosity-noclip-5);}.cls-157{filter:url(#luminosity-noclip-4);}.cls-158{filter:url(#luminosity-noclip-2);}.cls-159{filter:url(#luminosity-noclip);}</style><filter id="luminosity-noclip" x="232.35" y="-8806.83" width="598.59" height="32766" filterUnits="userSpaceOnUse" color-interpolation-filters="sRGB"><feFlood flood-color="#fff" result="bg"/><feBlend in="SourceGraphic" in2="bg"/></filter><mask id="mask" x="232.35" y="-8806.83" width="598.59" height="32766" maskUnits="userSpaceOnUse"><g class="cls-159"/></mask><linearGradient id="linear-gradient" x1="531.64" y1="1154.5" x2="531.64" y2="1250.79" gradientUnits="userSpaceOnUse"><stop offset="0" stop-color="#fff"/><stop offset="1"/></linearGradient><filter id="luminosity-noclip-2" x="378.81" y="-8806.83" width="37.26" height="32766" filterUnits="userSpaceOnUse" color-interpolation-filters="sRGB"><feFlood flood-color="#fff" result="bg"/><feBlend in="SourceGraphic" in2="bg"/></filter><mask id="mask-2" x="378.81" y="-8806.83" width="37.26" height="32766" maskUnits="userSpaceOnUse"><g class="cls-158"/></mask><linearGradient id="linear-gradient-2" x1="384.09" y1="470.64" x2="374.34" y2="519.4" xlink:href="#linear-gradient"/><linearGradient id="linear-gradient-3" x1="397.44" y1="399.85" x2="397.44" y2="664.05" xlink:href="#linear-gradient"/><filter id="luminosity-noclip-4" x="566.61" y="-8806.83" width="37.26" height="32766" filterUnits="userSpaceOnUse" color-interpolation-filters="sRGB"><feFlood flood-color="#fff" result="bg"/><feBlend in="SourceGraphic" in2="bg"/></filter><mask id="mask-4" x="566.61" y="-8806.83" width="37.26" height="32766" maskUnits="userSpaceOnUse"><g class="cls-157"/></mask><linearGradient id="linear-gradient-4" x1="585.24" y1="399.85" x2="585.24" y2="664.05" xlink:href="#linear-gradient"/><filter id="luminosity-noclip-5" x="570.19" y="-8806.83" width="37.26" height="32766" filterUnits="userSpaceOnUse" color-interpolation-filters="sRGB"><feFlood flood-color="#fff" result="bg"/><feBlend in="SourceGraphic" in2="bg"/></filter><mask id="mask-5" x="570.19" y="-8806.83" width="37.26" height="32766" maskUnits="userSpaceOnUse"><g class="cls-156"/></mask><linearGradient id="linear-gradient-5" x1="597.09" y1="473.34" x2="601.15" y2="507.47" xlink:href="#linear-gradient"/><filter id="luminosity-noclip-6" x="451.26" y="-8806.83" width="71.39" height="32766" filterUnits="userSpaceOnUse" color-interpolation-filters="sRGB"><feFlood flood-color="#fff" result="bg"/><feBlend in="SourceGraphic" in2="bg"/></filter><mask id="mask-6" x="451.26" y="-8806.83" width="71.39" height="32766" maskUnits="userSpaceOnUse"><g class="cls-155"/></mask><linearGradient id="linear-gradient-6" x1="451.26" y1="190.56" x2="522.65" y2="190.56" xlink:href="#linear-gradient"/><filter id="luminosity-noclip-7" x="341.47" y="-8806.83" width="48.98" height="32766" filterUnits="userSpaceOnUse" color-interpolation-filters="sRGB"><feFlood flood-color="#fff" result="bg"/><feBlend in="SourceGraphic" in2="bg"/></filter><mask id="mask-7" x="341.47" y="-8806.83" width="48.98" height="32766" maskUnits="userSpaceOnUse"><g class="cls-154"/></mask><linearGradient id="linear-gradient-7" x1="348.41" y1="753.3" x2="335.59" y2="817.4" xlink:href="#linear-gradient"/><filter id="luminosity-noclip-8" x="249.16" y="-8806.83" width="528.42" height="32766" filterUnits="userSpaceOnUse" color-interpolation-filters="sRGB"><feFlood flood-color="#fff" result="bg"/><feBlend in="SourceGraphic" in2="bg"/></filter><mask id="mask-8" x="249.16" y="-8806.83" width="528.42" height="32766" maskUnits="userSpaceOnUse"><g class="cls-153"/></mask><linearGradient id="linear-gradient-8" x1="86.56" y1="1189.29" x2="1035.64" y2="1189.29" xlink:href="#linear-gradient"/><filter id="luminosity-noclip-9" x="919.85" y="-8806.83" width="90.1" height="32766" filterUnits="userSpaceOnUse" color-interpolation-filters="sRGB"><feFlood flood-color="#fff" result="bg"/><feBlend in="SourceGraphic" in2="bg"/></filter><mask id="mask-9" x="919.85" y="-8806.83" width="90.1" height="32766" maskUnits="userSpaceOnUse"><g class="cls-152"/></mask><linearGradient id="linear-gradient-9" x1="1068.49" y1="332.32" x2="928.06" y2="228.74" xlink:href="#linear-gradient"/><filter id="luminosity-noclip-10" x="1189.29" y="-8806.83" width="83.79" height="32766" filterUnits="userSpaceOnUse" color-interpolation-filters="sRGB"><feFlood flood-color="#fff" result="bg"/><feBlend in="SourceGraphic" in2="bg"/></filter><mask id="mask-10" x="1189.29" y="-8806.83" width="83.79" height="32766" maskUnits="userSpaceOnUse"><g class="cls-151"/></mask><linearGradient id="linear-gradient-10" x1="1127.57" y1="355.99" x2="1256.41" y2="222.51" xlink:href="#linear-gradient"/><filter id="luminosity-noclip-11" x="1107.88" y="-8806.83" width="16.68" height="32766" filterUnits="userSpaceOnUse" color-interpolation-filters="sRGB"><feFlood flood-color="#fff" result="bg"/><feBlend in="SourceGraphic" in2="bg"/></filter><mask id="mask-11" x="1107.88" y="-8806.83" width="16.68" height="32766" maskUnits="userSpaceOnUse"><g class="cls-150"/></mask><linearGradient id="linear-gradient-11" x1="1116.08" y1="672.21" x2="1114.69" y2="798.74" xlink:href="#linear-gradient"/><linearGradient id="linear-gradient-12" x1="365.96" y1="660.25" x2="365.96" y2="1007.55" xlink:href="#linear-gradient"/><filter id="luminosity-noclip-13" x="588.34" y="-8806.83" width="48.98" height="32766" filterUnits="userSpaceOnUse" color-interpolation-filters="sRGB"><feFlood flood-color="#fff" result="bg"/><feBlend in="SourceGraphic" in2="bg"/></filter><mask id="mask-13" x="588.34" y="-8806.83" width="48.98" height="32766" maskUnits="userSpaceOnUse"><g class="cls-149"/></mask><linearGradient id="linear-gradient-13" x1="612.84" y1="660.25" x2="612.84" y2="1007.55" xlink:href="#linear-gradient"/><filter id="luminosity-noclip-14" x="593.06" y="-8806.83" width="48.98" height="32766" filterUnits="userSpaceOnUse" color-interpolation-filters="sRGB"><feFlood flood-color="#fff" result="bg"/><feBlend in="SourceGraphic" in2="bg"/></filter><mask id="mask-14" x="593.06" y="-8806.83" width="48.98" height="32766" maskUnits="userSpaceOnUse"><g class="cls-148"/></mask><linearGradient id="linear-gradient-14" x1="628.41" y1="756.85" x2="633.75" y2="801.72" xlink:href="#linear-gradient"/><linearGradient id="linear-gradient-15" x1="875.05" y1="657.43" x2="875.05" y2="1432.69" gradientUnits="userSpaceOnUse"><stop offset="0" stop-color="#d9f7ff"/><stop offset="1" stop-color="#a6dbff"/></linearGradient><clipPath id="clip-path" transform="translate(53.41)"><path class="cls-27" d="M0,1045.34C0,660.21,34.83,381.58,254.33,310.52,499,231.31,612,198.43,837.37,105.75,1097.88-1.36,1377.77,88.45,1489,195s261.11,345.65,261.11,850.37Z"/></clipPath><linearGradient id="linear-gradient-17" x1="75.95" y1="-815.15" x2="75.95" y2="7628.63" gradientUnits="userSpaceOnUse"><stop offset="0" stop-color="#caf8ff"/><stop offset="1" stop-color="#1f7aff"/></linearGradient><linearGradient id="linear-gradient-18" x1="228.25" y1="-815.15" x2="228.25" y2="7628.63" xlink:href="#linear-gradient-17"/><linearGradient id="linear-gradient-19" x1="380.55" y1="-815.15" x2="380.55" y2="7628.63" xlink:href="#linear-gradient-17"/><linearGradient id="linear-gradient-20" x1="532.84" y1="-815.15" x2="532.84" y2="7628.63" xlink:href="#linear-gradient-17"/><linearGradient id="linear-gradient-21" x1="685.14" y1="-815.15" x2="685.14" y2="7628.63" xlink:href="#linear-gradient-17"/><linearGradient id="linear-gradient-22" x1="837.44" y1="-815.15" x2="837.44" y2="7628.63" xlink:href="#linear-gradient-17"/><linearGradient id="linear-gradient-23" x1="989.73" y1="-815.15" x2="989.73" y2="7628.63" xlink:href="#linear-gradient-17"/><linearGradient id="linear-gradient-24" x1="1142.03" y1="-815.15" x2="1142.03" y2="7628.63" xlink:href="#linear-gradient-17"/><linearGradient id="linear-gradient-25" x1="1294.33" y1="-815.15" x2="1294.33" y2="7628.63" xlink:href="#linear-gradient-17"/><linearGradient id="linear-gradient-26" x1="1446.62" y1="-815.15" x2="1446.62" y2="7628.63" xlink:href="#linear-gradient-17"/><linearGradient id="linear-gradient-27" x1="1598.92" y1="-815.15" x2="1598.92" y2="7628.63" xlink:href="#linear-gradient-17"/><linearGradient id="linear-gradient-28" x1="1750.94" y1="-815.15" x2="1750.94" y2="7628.63" xlink:href="#linear-gradient-17"/><linearGradient id="linear-gradient-29" x1="81.17" y1="-533.74" x2="81.17" y2="7910.05" xlink:href="#linear-gradient-17"/><linearGradient id="linear-gradient-30" x1="233.46" y1="-533.74" x2="233.46" y2="7910.05" xlink:href="#linear-gradient-17"/><linearGradient id="linear-gradient-31" x1="385.76" y1="-533.74" x2="385.76" y2="7910.05" xlink:href="#linear-gradient-17"/><linearGradient id="linear-gradient-32" x1="538.06" y1="-533.74" x2="538.06" y2="7910.05" xlink:href="#linear-gradient-17"/><linearGradient id="linear-gradient-33" x1="690.35" y1="-533.74" x2="690.35" y2="7910.05" xlink:href="#linear-gradient-17"/><linearGradient id="linear-gradient-34" x1="842.65" y1="-533.74" x2="842.65" y2="7910.05" xlink:href="#linear-gradient-17"/><linearGradient id="linear-gradient-35" x1="994.95" y1="-533.74" x2="994.95" y2="7910.05" xlink:href="#linear-gradient-17"/><linearGradient id="linear-gradient-36" x1="1147.25" y1="-533.74" x2="1147.25" y2="7910.05" xlink:href="#linear-gradient-17"/><linearGradient id="linear-gradient-37" x1="1299.54" y1="-533.74" x2="1299.54" y2="7910.05" xlink:href="#linear-gradient-17"/><linearGradient id="linear-gradient-38" x1="1451.84" y1="-533.74" x2="1451.84" y2="7910.05" xlink:href="#linear-gradient-17"/><linearGradient id="linear-gradient-39" x1="1604.14" y1="-533.74" x2="1604.14" y2="7910.05" xlink:href="#linear-gradient-17"/><linearGradient id="linear-gradient-40" x1="1756.15" y1="-533.74" x2="1756.15" y2="7910.05" xlink:href="#linear-gradient-17"/><linearGradient id="linear-gradient-41" x1="930.8" y1="134.61" x2="930.8" y2="1811.44" xlink:href="#linear-gradient-17"/><linearGradient id="linear-gradient-42" x1="930.8" y1="624.06" x2="930.8" y2="1192.17" xlink:href="#linear-gradient-17"/><filter id="luminosity-noclip-15" x="232.35" y="1175.07" width="598.59" height="28.45" filterUnits="userSpaceOnUse" color-interpolation-filters="sRGB"><feFlood flood-color="#fff" result="bg"/><feBlend in="SourceGraphic" in2="bg"/></filter><mask id="mask-15" x="285.76" y="1175.07" width="598.59" height="28.45" maskUnits="userSpaceOnUse"><g class="cls-147"><g transform="translate(53.41)"><g class="cls-1"><path class="cls-2" d="M830.94,1189.29c0,7.85-134,14.22-299.3,14.22s-299.29-6.37-299.29-14.22,134-14.22,299.29-14.22S830.94,1181.43,830.94,1189.29Z"/></g></g></g></mask><linearGradient id="linear-gradient-43" x1="531.64" y1="1154.5" x2="531.64" y2="1250.79" gradientUnits="userSpaceOnUse"><stop offset="0" stop-color="#231f20"/><stop offset="1" stop-color="#231f20"/></linearGradient><linearGradient id="linear-gradient-44" x1="928.47" y1="1363.75" x2="928.47" y2="899.13" xlink:href="#linear-gradient-17"/><linearGradient id="linear-gradient-45" x1="657.93" y1="573.32" x2="556.44" y2="647.56" gradientUnits="userSpaceOnUse"><stop offset="0" stop-color="#008c71"/><stop offset="1" stop-color="#ffda71"/></linearGradient><linearGradient id="linear-gradient-46" x1="538.63" y1="642.67" x2="640.66" y2="549.19" gradientUnits="userSpaceOnUse"><stop offset="0" stop-color="#11aa8d"/><stop offset="1" stop-color="#ffda71"/></linearGradient><linearGradient id="linear-gradient-47" x1="389.19" y1="580.75" x2="500.76" y2="652.28" xlink:href="#linear-gradient-45"/><linearGradient id="linear-gradient-48" x1="470.44" y1="638.2" x2="417.02" y2="561.81" xlink:href="#linear-gradient-46"/><linearGradient id="linear-gradient-49" x1="532.93" y1="974.33" x2="532.93" y2="505.34" xlink:href="#linear-gradient-45"/><linearGradient id="linear-gradient-50" x1="666.59" y1="986.76" x2="665.79" y2="592.6" gradientUnits="userSpaceOnUse"><stop offset="0" stop-color="#1ec4a4"/><stop offset="1" stop-color="#ffda71"/></linearGradient><linearGradient id="linear-gradient-51" x1="428.16" y1="689.12" x2="430.3" y2="593.98" xlink:href="#linear-gradient-46"/><filter id="luminosity-noclip-16" x="341.47" y="626.86" width="48.98" height="77.42" filterUnits="userSpaceOnUse" color-interpolation-filters="sRGB"><feFlood flood-color="#fff" result="bg"/><feBlend in="SourceGraphic" in2="bg"/></filter><mask id="mask-16" x="394.88" y="626.86" width="48.98" height="77.42" maskUnits="userSpaceOnUse"><g class="cls-146"><g transform="translate(53.41)"><g class="cls-12"><rect class="cls-13" x="341.47" y="626.86" width="48.98" height="77.42"/></g></g></g></mask><linearGradient id="linear-gradient-52" x1="401.83" y1="753.3" x2="389.01" y2="817.4" gradientUnits="userSpaceOnUse"><stop offset="0" stop-color="#fff"/><stop offset="1" stop-color="#fff"/></linearGradient><linearGradient id="linear-gradient-53" x1="666.48" y1="706.9" x2="661.18" y2="580.19" xlink:href="#linear-gradient-50"/><filter id="luminosity-noclip-17" x="341.47" y="704.29" width="48.98" height="255.8" filterUnits="userSpaceOnUse" color-interpolation-filters="sRGB"><feFlood flood-color="#fff" result="bg"/><feBlend in="SourceGraphic" in2="bg"/></filter><mask id="mask-17" x="394.88" y="704.29" width="48.98" height="255.8" maskUnits="userSpaceOnUse"><g class="cls-145"><g transform="translate(53.41)"><g class="cls-12"><rect class="cls-22" x="341.47" y="704.29" width="48.98" height="255.8"/></g></g></g></mask><linearGradient id="linear-gradient-54" x1="419.37" y1="660.25" x2="419.37" y2="1007.55" xlink:href="#linear-gradient-52"/><filter id="luminosity-noclip-18" x="588.34" y="704.29" width="48.98" height="255.8" filterUnits="userSpaceOnUse" color-interpolation-filters="sRGB"><feFlood flood-color="#fff" result="bg"/><feBlend in="SourceGraphic" in2="bg"/></filter><mask id="mask-18" x="641.76" y="704.29" width="48.98" height="255.8" maskUnits="userSpaceOnUse"><g class="cls-144"><g transform="translate(53.41)"><g class="cls-23"><rect class="cls-24" x="588.34" y="704.29" width="48.98" height="255.8"/></g></g></g></mask><linearGradient id="linear-gradient-55" x1="666.25" y1="660.25" x2="666.25" y2="1007.55" xlink:href="#linear-gradient-52"/><linearGradient id="linear-gradient-56" x1="572.86" y1="627.75" x2="573.66" y2="594.35" xlink:href="#linear-gradient-50"/><filter id="luminosity-noclip-19" x="593.06" y="626.86" width="48.98" height="77.42" filterUnits="userSpaceOnUse" color-interpolation-filters="sRGB"><feFlood flood-color="#fff" result="bg"/><feBlend in="SourceGraphic" in2="bg"/></filter><mask id="mask-19" x="646.47" y="626.86" width="48.98" height="77.42" maskUnits="userSpaceOnUse"><g class="cls-143"><g transform="translate(53.41)"><g class="cls-25"><rect class="cls-26" x="593.06" y="626.86" width="48.98" height="77.42"/></g></g></g></mask><linearGradient id="linear-gradient-57" x1="681.83" y1="756.85" x2="687.17" y2="801.72" xlink:href="#linear-gradient-52"/><linearGradient id="linear-gradient-58" x1="619.54" y1="333.72" x2="542.34" y2="390.2" xlink:href="#linear-gradient-45"/><linearGradient id="linear-gradient-59" x1="528.79" y1="386.48" x2="606.4" y2="315.37" xlink:href="#linear-gradient-46"/><linearGradient id="linear-gradient-60" x1="415.11" y1="339.38" x2="499.98" y2="393.79" xlink:href="#linear-gradient-45"/><linearGradient id="linear-gradient-61" x1="476.92" y1="383.08" x2="436.28" y2="324.97" xlink:href="#linear-gradient-46"/><linearGradient id="linear-gradient-62" x1="537.24" y1="638.78" x2="537.24" y2="282.01" xlink:href="#linear-gradient-45"/><linearGradient id="linear-gradient-63" x1="638.92" y1="648.23" x2="638.31" y2="348.4" xlink:href="#linear-gradient-50"/><linearGradient id="linear-gradient-64" x1="455.55" y1="421.76" x2="457.17" y2="349.62" xlink:href="#linear-gradient-46"/><filter id="luminosity-noclip-20" x="378.81" y="374.46" width="37.26" height="58.9" filterUnits="userSpaceOnUse" color-interpolation-filters="sRGB"><feFlood flood-color="#fff" result="bg"/><feBlend in="SourceGraphic" in2="bg"/></filter><mask id="mask-20" x="432.22" y="374.46" width="37.26" height="58.9" maskUnits="userSpaceOnUse"><g class="cls-142"><g transform="translate(53.41)"><g class="cls-3"><rect class="cls-4" x="378.81" y="374.46" width="37.26" height="58.9"/></g></g></g></mask><linearGradient id="linear-gradient-65" x1="437.51" y1="470.64" x2="427.75" y2="519.4" xlink:href="#linear-gradient-52"/><filter id="luminosity-noclip-21" x="378.81" y="433.35" width="37.26" height="194.59" filterUnits="userSpaceOnUse" color-interpolation-filters="sRGB"><feFlood flood-color="#fff" result="bg"/><feBlend in="SourceGraphic" in2="bg"/></filter><mask id="mask-21" x="432.22" y="433.35" width="37.26" height="194.59" maskUnits="userSpaceOnUse"><g class="cls-141"><g transform="translate(53.41)"><g class="cls-3"><rect class="cls-5" x="378.81" y="433.35" width="37.26" height="194.59"/></g></g></g></mask><linearGradient id="linear-gradient-66" x1="450.85" y1="399.85" x2="450.85" y2="664.05" xlink:href="#linear-gradient-52"/><filter id="luminosity-noclip-22" x="566.61" y="433.35" width="37.26" height="194.59" filterUnits="userSpaceOnUse" color-interpolation-filters="sRGB"><feFlood flood-color="#fff" result="bg"/><feBlend in="SourceGraphic" in2="bg"/></filter><mask id="mask-22" x="620.03" y="433.35" width="37.26" height="194.59" maskUnits="userSpaceOnUse"><g class="cls-140"><g transform="translate(53.41)"><g class="cls-6"><rect class="cls-7" x="566.61" y="433.35" width="37.26" height="194.59"/></g></g></g></mask><linearGradient id="linear-gradient-67" x1="638.66" y1="399.85" x2="638.66" y2="664.05" xlink:href="#linear-gradient-52"/><linearGradient id="linear-gradient-68" x1="567.66" y1="375.13" x2="568.26" y2="349.83" xlink:href="#linear-gradient-50"/><linearGradient id="linear-gradient-69" x1="638.83" y1="435.28" x2="634.8" y2="339.08" xlink:href="#linear-gradient-50"/><filter id="luminosity-noclip-23" x="570.19" y="374.46" width="37.26" height="58.9" filterUnits="userSpaceOnUse" color-interpolation-filters="sRGB"><feFlood flood-color="#fff" result="bg"/><feBlend in="SourceGraphic" in2="bg"/></filter><mask id="mask-23" x="623.61" y="374.46" width="37.26" height="58.9" maskUnits="userSpaceOnUse"><g class="cls-139"><g transform="translate(53.41)"><g class="cls-8"><rect class="cls-9" x="570.19" y="374.46" width="37.26" height="58.9"/></g></g></g></mask><linearGradient id="linear-gradient-70" x1="650.51" y1="473.34" x2="654.57" y2="507.47" xlink:href="#linear-gradient-52"/><linearGradient id="linear-gradient-71" x1="548.62" y1="322.91" x2="398.46" y2="17.02" gradientUnits="userSpaceOnUse"><stop offset="0" stop-color="#ff64ae"/><stop offset="1" stop-color="#ffd55f"/></linearGradient><filter id="luminosity-noclip-24" x="451.26" y="149.98" width="71.39" height="81.17" filterUnits="userSpaceOnUse" color-interpolation-filters="sRGB"><feFlood flood-color="#fff" result="bg"/><feBlend in="SourceGraphic" in2="bg"/></filter><mask id="mask-24" x="504.68" y="149.98" width="71.39" height="81.17" maskUnits="userSpaceOnUse"><g class="cls-138"><g transform="translate(53.41)"><g class="cls-10"><path class="cls-11" d="M456.41,153.83a17.15,17.15,0,0,1,23,1.21q4.25,4.68,3.86,12.11t-5.12,11.75a17.13,17.13,0,0,1-23-1.21q-4.26-4.66-3.86-12.22C451.55,160.5,453.26,156.63,456.41,153.83Zm5.41,4.57c-1.52,1.64-2.36,4.14-2.54,7.49s.4,6,1.73,7.77a7.14,7.14,0,0,0,5.72,2.94,7.25,7.25,0,0,0,6-2.37q2.33-2.56,2.59-7.49T473.58,159a7.38,7.38,0,0,0-5.78-2.89A7.2,7.2,0,0,0,461.82,158.4ZM512,159.94l-43,65.78a4.25,4.25,0,0,1-3.79,1.93h0a4.26,4.26,0,0,1-3.35-6.59l42.95-65.78a4.26,4.26,0,0,1,3.8-1.93h0A4.27,4.27,0,0,1,512,159.94Zm-16.06,42.17a15.69,15.69,0,0,1,11.72-3.82,15.47,15.47,0,0,1,11.2,5q4.2,4.67,3.8,12.22t-5.06,11.69a15.39,15.39,0,0,1-11.67,3.88,15.68,15.68,0,0,1-11.26-5q-4.25-4.68-3.85-12.22T495.89,202.11Zm5.24,4.67q-2.33,2.44-2.59,7.49c-.17,3.28.42,5.82,1.79,7.61a8.09,8.09,0,0,0,11.82.62c1.55-1.64,2.41-4.09,2.58-7.38s-.42-5.93-1.78-7.72a7.4,7.4,0,0,0-5.78-2.88A7.32,7.32,0,0,0,501.13,206.78Z"/></g></g></g></mask><linearGradient id="linear-gradient-72" x1="451.26" y1="190.56" x2="522.65" y2="190.56" xlink:href="#linear-gradient-43"/><filter id="luminosity-noclip-25" x="249.16" y="1175.07" width="528.42" height="28.45" filterUnits="userSpaceOnUse" color-interpolation-filters="sRGB"><feFlood flood-color="#fff" result="bg"/><feBlend in="SourceGraphic" in2="bg"/></filter><mask id="mask-25" x="302.57" y="1175.07" width="528.42" height="28.45" maskUnits="userSpaceOnUse"><g class="cls-137"><g transform="translate(53.41)"><g class="cls-14"><path class="cls-15" d="M777.58,1189.29c0,7.85-118.3,14.22-264.21,14.22s-264.21-6.37-264.21-14.22,118.29-14.22,264.21-14.22S777.58,1181.43,777.58,1189.29Z"/></g></g></g></mask><linearGradient id="linear-gradient-73" x1="86.56" y1="1189.29" x2="1035.64" y2="1189.29" xlink:href="#linear-gradient-43"/><linearGradient id="linear-gradient-74" x1="315.71" y1="1196.74" x2="378.67" y2="1115.55" gradientTransform="translate(458.61 -46.05) rotate(22.02)" gradientUnits="userSpaceOnUse"><stop offset="0" stop-color="#763eff"/><stop offset="1" stop-color="#04288c"/></linearGradient><linearGradient id="linear-gradient-75" x1="630.6" y1="1196.74" x2="693.56" y2="1115.55" gradientTransform="translate(481.58 -164.11) rotate(22.02)" xlink:href="#linear-gradient-74"/><linearGradient id="linear-gradient-76" x1="328.32" y1="1109.09" x2="335.27" y2="1157.41" gradientUnits="userSpaceOnUse"><stop offset="0" stop-color="#bbdcff"/><stop offset="1" stop-color="#fff"/></linearGradient><linearGradient id="linear-gradient-77" x1="643.59" y1="1099.11" x2="643.59" y2="1159.5" xlink:href="#linear-gradient-76"/><linearGradient id="linear-gradient-78" x1="1028.28" y1="169.72" x2="1288.14" y2="169.72" gradientUnits="userSpaceOnUse"><stop offset="0" stop-color="#2d3b72"/><stop offset="1" stop-color="#2c394c"/></linearGradient><linearGradient id="linear-gradient-79" x1="518.69" y1="421.11" x2="431.92" y2="559.78" gradientTransform="matrix(0.86, 0.57, -0.51, 1.1, 539.96, -701.38)" xlink:href="#linear-gradient-78"/><linearGradient id="linear-gradient-80" x1="463.21" y1="398.17" x2="447.33" y2="357.96" gradientTransform="matrix(0.87, 0.49, -0.49, 0.87, 526.85, -556.25)" xlink:href="#linear-gradient-78"/><linearGradient id="linear-gradient-81" x1="1079.99" y1="1112.54" x2="1073.74" y2="1191.97" gradientUnits="userSpaceOnUse"><stop offset="0" stop-color="#ff997d"/><stop offset="1" stop-color="#ffded2"/></linearGradient><linearGradient id="linear-gradient-82" x1="962.82" y1="1162.88" x2="1118.85" y2="1237.63" gradientTransform="matrix(1, 0, 0, 1, 0, 0)" xlink:href="#linear-gradient-74"/><linearGradient id="linear-gradient-83" x1="-155.44" y1="1356.85" x2="-161.7" y2="1436.29" gradientTransform="translate(-23.23 942.05) rotate(-101.29)" xlink:href="#linear-gradient-81"/><linearGradient id="linear-gradient-84" x1="-272.62" y1="1407.19" x2="-116.59" y2="1481.94" gradientTransform="translate(-23.23 942.05) rotate(-101.29)" xlink:href="#linear-gradient-74"/><linearGradient id="linear-gradient-85" x1="1134.71" y1="1105.63" x2="1121.61" y2="1188.12" xlink:href="#linear-gradient-81"/><linearGradient id="linear-gradient-86" x1="1494.37" y1="1190.03" x2="948.4" y2="663.76" gradientUnits="userSpaceOnUse"><stop offset="0" stop-color="#caf8ff"/><stop offset="1" stop-color="#7822ff"/></linearGradient><linearGradient id="linear-gradient-87" x1="1060.07" y1="280.69" x2="764.88" y2="58.11" gradientTransform="translate(12.71 -12.16) rotate(2.89)" xlink:href="#linear-gradient-81"/><linearGradient id="linear-gradient-88" x1="1103.43" y1="201.25" x2="1005.31" y2="590.84" xlink:href="#linear-gradient-71"/><filter id="luminosity-noclip-26" x="919.85" y="224" width="90.1" height="66.3" filterUnits="userSpaceOnUse" color-interpolation-filters="sRGB"><feFlood flood-color="#fff" result="bg"/><feBlend in="SourceGraphic" in2="bg"/></filter><mask id="mask-26" x="973.26" y="224" width="90.1" height="66.3" maskUnits="userSpaceOnUse"><g class="cls-136"><g transform="translate(53.41)"><g class="cls-16"><path class="cls-17" d="M1006.79,290.3l-83.21-53.65a7.11,7.11,0,0,1-3.17-9l1.46-3.62c17.16,10.37,75,45.44,83.29,50.38C1014.89,280.18,1006.79,290.3,1006.79,290.3Z"/></g></g></g></mask><linearGradient id="linear-gradient-89" x1="1068.49" y1="332.32" x2="928.06" y2="228.74" xlink:href="#linear-gradient-43"/><filter id="luminosity-noclip-27" x="1189.29" y="208.86" width="83.79" height="80.62" filterUnits="userSpaceOnUse" color-interpolation-filters="sRGB"><feFlood flood-color="#fff" result="bg"/><feBlend in="SourceGraphic" in2="bg"/></filter><mask id="mask-27" x="1242.7" y="208.86" width="83.79" height="80.62" maskUnits="userSpaceOnUse"><g class="cls-135"><g transform="translate(53.41)"><g class="cls-18"><path class="cls-19" d="M1270.51,222.12l-81.15,67.33a.11.11,0,0,1-.07,0c1.63-21.61,29.1-41.36,80.12-80.63l2.56,4A7,7,0,0,1,1270.51,222.12Z"/></g></g></g></mask><linearGradient id="linear-gradient-90" x1="1127.57" y1="355.99" x2="1256.41" y2="222.51" xlink:href="#linear-gradient-43"/><linearGradient id="linear-gradient-91" x1="1094.13" y1="144.33" x2="1095.52" y2="230.88" xlink:href="#linear-gradient-81"/><linearGradient id="linear-gradient-92" x1="1106.83" y1="35.2" x2="1075.31" y2="149.22" xlink:href="#linear-gradient-81"/><linearGradient id="linear-gradient-93" x1="1424.88" y1="234.92" x2="1443.65" y2="25.67" xlink:href="#linear-gradient-50"/><linearGradient id="linear-gradient-94" x1="1306.57" y1="320.13" x2="1364.01" y2="55.14" xlink:href="#linear-gradient-81"/><linearGradient id="linear-gradient-95" x1="1024.46" y1="96.16" x2="1414.69" y2="164.75" xlink:href="#linear-gradient-78"/><filter id="luminosity-noclip-28" x="1107.88" y="629.34" width="16.68" height="177.33" filterUnits="userSpaceOnUse" color-interpolation-filters="sRGB"><feFlood flood-color="#fff" result="bg"/><feBlend in="SourceGraphic" in2="bg"/></filter><mask id="mask-28" x="1161.29" y="629.34" width="16.68" height="177.33" maskUnits="userSpaceOnUse"><g class="cls-134"><g transform="translate(53.41)"><g class="cls-20"><polygon class="cls-21" points="1124.57 689.82 1107.88 629.34 1111.16 806.67 1124.57 689.82"/></g></g></g></mask><linearGradient id="linear-gradient-96" x1="1169.5" y1="672.21" x2="1168.11" y2="798.74" xlink:href="#linear-gradient-43"/><linearGradient id="linear-gradient-97" x1="1421.26" y1="443.1" x2="1428.21" y2="266.52" gradientUnits="userSpaceOnUse"><stop offset="0" stop-color="#ffdd50"/><stop offset="1" stop-color="#ffbd52"/></linearGradient><linearGradient id="linear-gradient-98" x1="1426.28" y1="257" x2="1426.28" y2="229.83" gradientUnits="userSpaceOnUse"><stop offset="0" stop-color="#ff9d4d"/><stop offset="1" stop-color="#d3784a"/></linearGradient><linearGradient id="linear-gradient-99" x1="1418.83" y1="251.18" x2="1423" y2="1.61" xlink:href="#linear-gradient-50"/><linearGradient id="linear-gradient-100" x1="747.3" y1="35.13" x2="713.58" y2="116.12" xlink:href="#linear-gradient-17"/></defs><g class="cls-28"><g id="Livello_2" data-name="Livello 2"><g id="Layer_1" data-name="Layer 1"><path class="cls-27" d="M0,1045.34C0,660.21,34.83,381.58,254.33,310.52,499,231.31,612,198.43,837.37,105.75,1097.88-1.36,1377.77,88.45,1489,195s261.11,345.65,261.11,850.37Z" transform="translate(53.41)"/><g class="cls-29"><path class="cls-30" d="M133.38,488.63H18.52a7.92,7.92,0,0,0-7.92,7.92V675.17H141.3V496.55A7.91,7.91,0,0,0,133.38,488.63Z" transform="translate(53.41)"/><path class="cls-31" d="M285.68,488.63H170.82a7.92,7.92,0,0,0-7.92,7.92V675.17H293.6V496.55A7.92,7.92,0,0,0,285.68,488.63Z" transform="translate(53.41)"/><path class="cls-32" d="M438,488.63H323.12a7.91,7.91,0,0,0-7.92,7.92V675.17H445.89V496.55A7.91,7.91,0,0,0,438,488.63Z" transform="translate(53.41)"/><path class="cls-33" d="M590.27,488.63H475.41a7.92,7.92,0,0,0-7.92,7.92V675.17h130.7V496.55A7.91,7.91,0,0,0,590.27,488.63Z" transform="translate(53.41)"/><path class="cls-34" d="M742.57,488.63H627.71a7.92,7.92,0,0,0-7.92,7.92V675.17h130.7V496.55A7.92,7.92,0,0,0,742.57,488.63Z" transform="translate(53.41)"/><path class="cls-35" d="M894.87,488.63H780a7.91,7.91,0,0,0-7.92,7.92V675.17h130.7V496.55A7.92,7.92,0,0,0,894.87,488.63Z" transform="translate(53.41)"/><path class="cls-36" d="M1047.17,488.63H932.3a7.92,7.92,0,0,0-7.92,7.92V675.17h130.7V496.55A7.91,7.91,0,0,0,1047.17,488.63Z" transform="translate(53.41)"/><path class="cls-37" d="M1199.46,488.63H1084.6a7.92,7.92,0,0,0-7.92,7.92V675.17h130.7V496.55A7.92,7.92,0,0,0,1199.46,488.63Z" transform="translate(53.41)"/><path class="cls-38" d="M1351.76,488.63H1236.9a7.91,7.91,0,0,0-7.92,7.92V675.17h130.7V496.55A7.92,7.92,0,0,0,1351.76,488.63Z" transform="translate(53.41)"/><path class="cls-39" d="M1504.06,488.63H1389.19a7.91,7.91,0,0,0-7.91,7.92V675.17H1512V496.55A7.91,7.91,0,0,0,1504.06,488.63Z" transform="translate(53.41)"/><path class="cls-40" d="M1656.35,488.63H1541.49a7.92,7.92,0,0,0-7.92,7.92V675.17h130.7V496.55A7.91,7.91,0,0,0,1656.35,488.63Z" transform="translate(53.41)"/><path class="cls-41" d="M1808.37,488.63H1693.51a7.91,7.91,0,0,0-7.92,7.92V675.17h130.7V496.55A7.92,7.92,0,0,0,1808.37,488.63Z" transform="translate(53.41)"/><path class="cls-42" d="M24.8,770H137.54a9,9,0,0,1,9,9V956.59a0,0,0,0,1,0,0H15.82a0,0,0,0,1,0,0V779A9,9,0,0,1,24.8,770Z"/><path class="cls-43" d="M177.09,770H289.83a9,9,0,0,1,9,9V956.59a0,0,0,0,1,0,0H168.12a0,0,0,0,1,0,0V779A9,9,0,0,1,177.09,770Z"/><path class="cls-44" d="M329.39,770H442.13a9,9,0,0,1,9,9V956.59a0,0,0,0,1,0,0H320.41a0,0,0,0,1,0,0V779A9,9,0,0,1,329.39,770Z"/><path class="cls-45" d="M481.69,770H594.43a9,9,0,0,1,9,9V956.59a0,0,0,0,1,0,0H472.71a0,0,0,0,1,0,0V779A9,9,0,0,1,481.69,770Z"/><path class="cls-46" d="M634,770H746.72a9,9,0,0,1,9,9V956.59a0,0,0,0,1,0,0H625a0,0,0,0,1,0,0V779A9,9,0,0,1,634,770Z"/><path class="cls-47" d="M786.28,770H899a9,9,0,0,1,9,9V956.59a0,0,0,0,1,0,0H777.3a0,0,0,0,1,0,0V779A9,9,0,0,1,786.28,770Z"/><path class="cls-48" d="M938.58,770h112.74a9,9,0,0,1,9,9V956.59a0,0,0,0,1,0,0H929.6a0,0,0,0,1,0,0V779A9,9,0,0,1,938.58,770Z"/><path class="cls-49" d="M1090.88,770h112.74a9,9,0,0,1,9,9V956.59a0,0,0,0,1,0,0H1081.9a0,0,0,0,1,0,0V779A9,9,0,0,1,1090.88,770Z"/><path class="cls-50" d="M1243.17,770h112.74a9,9,0,0,1,9,9V956.59a0,0,0,0,1,0,0h-130.7a0,0,0,0,1,0,0V779A9,9,0,0,1,1243.17,770Z"/><path class="cls-51" d="M1395.47,770h112.74a9,9,0,0,1,9,9V956.59a0,0,0,0,1,0,0h-130.7a0,0,0,0,1,0,0V779A9,9,0,0,1,1395.47,770Z"/><path class="cls-52" d="M1547.77,770h112.74a9,9,0,0,1,9,9V956.59a0,0,0,0,1,0,0h-130.7a0,0,0,0,1,0,0V779A9,9,0,0,1,1547.77,770Z"/><path class="cls-53" d="M1699.78,770h112.74a9,9,0,0,1,9,9V956.59a0,0,0,0,1,0,0H1690.8a0,0,0,0,1,0,0V779A9,9,0,0,1,1699.78,770Z"/><rect class="cls-54" y="675.06" width="1861.6" height="37.05"/><rect class="cls-55" y="956.59" width="1861.6" height="37.05"/><g class="cls-56"><path class="cls-57" d="M830.94,1189.29c0,7.85-134,14.22-299.3,14.22s-299.29-6.37-299.29-14.22,134-14.22,299.29-14.22S830.94,1181.43,830.94,1189.29Z" transform="translate(53.41)"/></g></g><path class="cls-58" d="M53.41,1045.34H1803.52a0,0,0,0,1,0,0v19.25a165.06,165.06,0,0,1-165.06,165.06h-1420A165.06,165.06,0,0,1,53.41,1064.59v-19.25a0,0,0,0,1,0,0Z"/><path class="cls-59" d="M613.75,569.71s26.84-5.61,22.43,20.83S563.06,616,563.06,616l-8,10.84s49,.86,82.46,0c44.07-1.13,36.12-58.49,22.16-66-9.54-5.1-51.05,1.33-51.05,1.33Z" transform="translate(53.41)"/><path class="cls-60" d="M555.1,626.86s71.74-94.28,110.64-59c0,0-11.93-23.17-43.58-25-28.84-1.64-67.3,43.27-80.12,66.11Z" transform="translate(53.41)"/><path class="cls-61" d="M425.41,569.71S398.57,564.1,403,590.54,476.1,616,476.1,616l8,10.84s-49,.86-82.46,0c-44.07-1.13-36.71-57.55-22.54-65.13,9.54-5.11,51.43.5,51.43.5Z" transform="translate(53.41)"/><path class="cls-62" d="M484.06,626.86s-71.73-94.28-110.64-59c0,0,11.93-23.17,43.58-25,28.84-1.64,67.3,43.27,80.12,66.11Z" transform="translate(53.41)"/><rect class="cls-63" x="345.21" y="677.14" width="375.45" height="282.94" rx="8.32"/><rect class="cls-64" x="518.73" y="677.14" width="295.05" height="282.94" rx="8.32"/><rect class="cls-65" x="333.42" y="626.86" width="190.53" height="77.42" rx="8.32"/><g class="cls-66"><rect class="cls-67" x="394.88" y="626.86" width="48.98" height="77.42"/></g><rect class="cls-68" x="505.32" y="626.86" width="318.85" height="77.42" rx="8.32"/><g class="cls-69"><rect class="cls-70" x="394.88" y="704.29" width="48.98" height="255.8"/></g><g class="cls-71"><rect class="cls-72" x="641.76" y="704.29" width="48.98" height="255.8"/></g><path class="cls-73" d="M556.39,598.82h33.2a18.92,18.92,0,0,1,18.92,18.92v9.12a0,0,0,0,1,0,0h-71a0,0,0,0,1,0,0v-9.12A18.92,18.92,0,0,1,556.39,598.82Z"/><g class="cls-74"><rect class="cls-75" x="646.47" y="626.86" width="48.98" height="77.42"/></g><path class="cls-76" d="M585.94,331s20.41-4.27,17.06,15.84-55.63,19.39-55.63,19.39l-6,8.25s37.29.65,62.73,0c33.52-.87,27.48-44.5,16.86-50.18-7.26-3.88-38.83,1-38.83,1Z" transform="translate(53.41)"/><path class="cls-77" d="M541.32,374.46s54.57-71.72,84.16-44.9c0,0-9.07-17.63-33.15-19-21.94-1.25-51.19,32.91-61,50.28Z" transform="translate(53.41)"/><path class="cls-78" d="M442.67,331s-20.42-4.27-17.07,15.84,55.63,19.39,55.63,19.39l6,8.25s-37.29.65-62.73,0c-33.52-.87-27.93-43.78-17.14-49.55,7.25-3.89,39.12.38,39.12.38Z" transform="translate(53.41)"/><path class="cls-79" d="M487.28,374.46s-54.57-71.72-84.16-44.9c0,0,9.07-17.63,33.14-19,21.95-1.25,51.2,32.91,61,50.28Z" transform="translate(53.41)"/><rect class="cls-80" x="394.43" y="412.7" width="285.61" height="215.24" rx="7.89"/><rect class="cls-81" x="526.43" y="412.7" width="224.45" height="215.24" rx="7.89"/><rect class="cls-82" x="385.47" y="374.46" width="140.96" height="58.9" rx="8.77"/><g class="cls-83"><rect class="cls-84" x="432.22" y="374.46" width="37.26" height="58.9"/></g><g class="cls-85"><rect class="cls-86" x="432.22" y="433.35" width="37.26" height="194.59"/></g><g class="cls-87"><rect class="cls-88" x="620.03" y="433.35" width="37.26" height="194.59"/></g><path class="cls-89" d="M559.18,353.12h17.06a18.49,18.49,0,0,1,18.49,18.49v2.84a0,0,0,0,1,0,0h-54a0,0,0,0,1,0,0v-2.84A18.49,18.49,0,0,1,559.18,353.12Z"/><rect class="cls-90" x="516.24" y="374.46" width="242.55" height="58.9" rx="7.94"/><g class="cls-91"><rect class="cls-92" x="623.61" y="374.46" width="37.26" height="58.9"/></g><path class="cls-93" d="M487,288.16l30.14,38.77,17.56-50.82S630.41,233.77,595,148C552.13,44.42,367.19,73.22,364.84,193.07,363.16,279.15,455.92,296.34,487,288.16Z" transform="translate(53.41)"/><g class="cls-94"><path class="cls-95" d="M456.41,153.83a17.15,17.15,0,0,1,23,1.21q4.25,4.68,3.86,12.11t-5.12,11.75a17.13,17.13,0,0,1-23-1.21q-4.26-4.66-3.86-12.22C451.55,160.5,453.26,156.63,456.41,153.83Zm5.41,4.57c-1.52,1.64-2.36,4.14-2.54,7.49s.4,6,1.73,7.77a7.14,7.14,0,0,0,5.72,2.94,7.25,7.25,0,0,0,6-2.37q2.33-2.56,2.59-7.49T473.58,159a7.38,7.38,0,0,0-5.78-2.89A7.2,7.2,0,0,0,461.82,158.4ZM512,159.94l-43,65.78a4.25,4.25,0,0,1-3.79,1.93h0a4.26,4.26,0,0,1-3.35-6.59l42.95-65.78a4.26,4.26,0,0,1,3.8-1.93h0A4.27,4.27,0,0,1,512,159.94Zm-16.06,42.17a15.69,15.69,0,0,1,11.72-3.82,15.47,15.47,0,0,1,11.2,5q4.2,4.67,3.8,12.22t-5.06,11.69a15.39,15.39,0,0,1-11.67,3.88,15.68,15.68,0,0,1-11.26-5q-4.25-4.68-3.85-12.22T495.89,202.11Zm5.24,4.67q-2.33,2.44-2.59,7.49c-.17,3.28.42,5.82,1.79,7.61a8.09,8.09,0,0,0,11.82.62c1.55-1.64,2.41-4.09,2.58-7.38s-.42-5.93-1.78-7.72a7.4,7.4,0,0,0-5.78-2.88A7.32,7.32,0,0,0,501.13,206.78Z" transform="translate(53.41)"/></g><path class="cls-96" d="M453.22,151.35a17.12,17.12,0,0,1,23,1.21q4.26,4.66,3.86,12.11t-5.12,11.75a17.14,17.14,0,0,1-23-1.21q-4.26-4.67-3.86-12.22C448.37,158,450.08,154.15,453.22,151.35Zm5.41,4.57q-2.26,2.45-2.53,7.49t1.73,7.77a7.14,7.14,0,0,0,5.71,2.94,7.26,7.26,0,0,0,6.06-2.37c1.55-1.72,2.41-4.21,2.59-7.5s-.43-5.93-1.79-7.71a7.38,7.38,0,0,0-5.78-2.89A7.22,7.22,0,0,0,458.63,155.92Zm50.13,1.54-42.95,65.78a4.26,4.26,0,0,1-3.8,1.93h0a4.26,4.26,0,0,1-3.34-6.59l42.95-65.79a4.27,4.27,0,0,1,3.8-1.92h0A4.26,4.26,0,0,1,508.76,157.46Zm-16.05,42.17a15.68,15.68,0,0,1,11.72-3.83,15.51,15.51,0,0,1,11.2,5q4.2,4.66,3.8,12.21t-5.06,11.7a15.39,15.39,0,0,1-11.67,3.88,15.72,15.72,0,0,1-11.26-5q-4.24-4.67-3.85-12.22T492.71,199.63ZM498,204.3c-1.55,1.63-2.42,4.13-2.59,7.48s.42,5.83,1.79,7.61A8.08,8.08,0,0,0,509,220q2.32-2.46,2.58-7.38t-1.79-7.72A8.06,8.06,0,0,0,498,204.3Z" transform="translate(53.41)"/><g class="cls-97"><path class="cls-98" d="M777.58,1189.29c0,7.85-118.3,14.22-264.21,14.22s-264.21-6.37-264.21-14.22,118.29-14.22,264.21-14.22S777.58,1181.43,777.58,1189.29Z" transform="translate(53.41)"/></g><circle class="cls-99" cx="347.65" cy="1155.56" r="33.73" transform="translate(-354.48 214.64) rotate(-22.02)"/><path class="cls-100" d="M366.59,1155.56a18.94,18.94,0,1,1-18.94-18.94A18.94,18.94,0,0,1,366.59,1155.56Z" transform="translate(53.41)"/><circle class="cls-101" cx="662.53" cy="1155.56" r="33.73" transform="translate(-331.51 332.7) rotate(-22.02)"/><path class="cls-100" d="M681.47,1155.56a18.94,18.94,0,1,1-18.94-18.94A18.93,18.93,0,0,1,681.47,1155.56Z" transform="translate(53.41)"/><path class="cls-102" d="M354,1102.69l2.57,45.81c.58,10.38-12.75,15.09-18.82,6.65L301.62,1105a3.69,3.69,0,0,1,2.95-5.91h45.69A3.69,3.69,0,0,1,354,1102.69Z" transform="translate(53.41)"/><path class="cls-103" d="M668.84,1102.69l2.57,45.81c.58,10.38-12.75,15.09-18.83,6.65L616.5,1105a3.7,3.7,0,0,1,3-5.91h45.69A3.7,3.7,0,0,1,668.84,1102.69Z" transform="translate(53.41)"/><path class="cls-96" d="M921.8,540.77l-70.44-.56H851a38.85,38.85,0,0,0-38.69,34.6L808,613.88,237.47,623.4A21.89,21.89,0,0,0,216,647.21L242.81,949A21.76,21.76,0,0,0,264.6,968.9H768.14l-7.86,70a53.12,53.12,0,0,1-52.83,47.24H254.33a10.66,10.66,0,0,0,0,21.32H707.45a74.42,74.42,0,0,0,74-66.18l52.07-464.09a17.55,17.55,0,0,1,17.65-15.66l70.45.56h.08a10.66,10.66,0,0,0,.08-21.32ZM527.46,639.88l164.71-2.75-5.35,59.66-159.36,2.68ZM684.9,718.15l-5.79,64.59-151.65,2.7V720.8ZM780,863.41,693.14,865l5.49-61.29,88.21-1.57Zm-108.27,2L527.46,868V806.76l149.74-2.67ZM357,809.8l149.14-2.66v61.28l-143.65,2.63Zm-15.88,61.64L257.47,873,252,811.67l83.6-1.49Zm8.17-147.64,156.85-2.65v64.67l-151,2.69Zm156.85-83.56v59.59l-158.76,2.68L342,643ZM333.72,788.89l-83.57,1.5-5.75-64.83,83.52-1.41Zm-91.21-84.62-5.23-58.94a.52.52,0,0,1,.14-.43.56.56,0,0,1,.41-.19l82.84-1.38L326,702.87ZM264.6,947.58a.56.56,0,0,1-.56-.51l-4.68-52.81L343,892.73,348,947.58Zm104.75,0-5-55.25,141.74-2.59v57.84Zm158.11,0V889.35l142.33-2.6-5.46,60.83Zm158.27,0,5.49-61.23,86.36-1.58-7.05,62.81ZM789.24,780.77l-88.69,1.58,5.79-64.57,90.14-1.51Zm9.63-85.87-90.62,1.53,5.35-59.66,92-1.53Z" transform="translate(53.41)"/><path class="cls-104" d="M1273.37,137.42c-16.68,15.45-211.46,206.39-221.06,161.83-5.35-24.84-20.58-185.13-23.78-202.64s24.28-53,24.28-53c40.1-21.45,122-14.36,112.43,74.9-4.86,45.06,44.36-21,65.63.86,7.25,8,18.6-.67,32.74-14.6C1275.15,93.41,1306.52,106.69,1273.37,137.42Z" transform="translate(53.41)"/><path class="cls-105" d="M742.34,179l-61.64-7.3a12.93,12.93,0,0,1-11.29-14.82L690.64,11.78A13.81,13.81,0,0,1,705.81.09l61.64,7.3A12.92,12.92,0,0,1,778.74,22.2L757.51,167.33A13.81,13.81,0,0,1,742.34,179Z" transform="translate(53.41)"/><path class="cls-96" d="M739.75,169.36,686,163a11.44,11.44,0,0,1-9.79-13.26l19-130.37A12.23,12.23,0,0,1,708.52,8.84l53.72,6.34A11.43,11.43,0,0,1,772,28.44L753,158.81A12.23,12.23,0,0,1,739.75,169.36Z" transform="translate(53.41)"/><path class="cls-106" d="M722.05,16.83a7.13,7.13,0,0,1-6.18-8h0l35.87,4.5h0a7.14,7.14,0,0,1-8,6.19" transform="translate(53.41)"/><path class="cls-107" d="M1127,1188.17a12.33,12.33,0,0,1-11.65,12.68c-30.31,1.67-100.56,5.12-95.09,1.14l35.85-25.9a3.07,3.07,0,0,0,1.28-2.77L1055,1148a3.11,3.11,0,0,1,2.63-3.38l58-8.31a3.07,3.07,0,0,1,3.48,2.59l2.49,15.56Z" transform="translate(53.41)"/><path class="cls-108" d="M1133,1226.05a3.13,3.13,0,0,1-3.09,3.59H991.55a3.11,3.11,0,0,1-1.81-5.62l30.48-22c-5.47,4,64.78.53,95.09-1.14a12.33,12.33,0,0,0,11.65-12.68Z" transform="translate(53.41)"/><path class="cls-109" d="M1402.7,767.94a12.34,12.34,0,0,1,14.72,8.94c7.58,29.4,24.71,97.61,19.74,93l-32.43-30.09a3.06,3.06,0,0,0-3-.71l-24.42,7.27a3.13,3.13,0,0,1-3.83-1.92L1354,789.22a3.08,3.08,0,0,1,1.86-3.92l14.78-5.49Z" transform="translate(53.41)"/><path class="cls-110" d="M1438.67,754.63a3.12,3.12,0,0,1,4.12,2.33l27.09,135.65a3.11,3.11,0,0,1-5.15,2.88l-27.57-25.58c5,4.58-12.16-63.63-19.74-93a12.34,12.34,0,0,0-14.72-8.94Z" transform="translate(53.41)"/><path class="cls-111" d="M1127,1188.17l-5.36-33.76.35.07,4.87,32.2A10.58,10.58,0,0,1,1127,1188.17Z" transform="translate(53.41)"/><path class="cls-112" d="M1014.72,511.85l-23,318.6a166.55,166.55,0,0,0,1.26,35.63l47.74,284.21a11.22,11.22,0,0,0,11.25,9.34l70.21-1.19a11.22,11.22,0,0,0,11-12.15l-26-304.91,17.38-151.56,49.92,188.57a46,46,0,0,0,59.41,31.69l153.73-52.18a3.52,3.52,0,0,0,2.25-4.42l-25.08-77.94a3.52,3.52,0,0,0-4.26-2.32l-99.71,28.07s-48-265.1-69.17-302.65S1014.72,511.85,1014.72,511.85Z" transform="translate(53.41)"/><path class="cls-113" d="M958.87,168.66l-29.16,54.56L760.85,144.55,767,102.63l-4.8-3.58a12.8,12.8,0,0,1-4.58-12.19,2.9,2.9,0,0,1,4.23-2L774.62,91Z" transform="translate(53.41)"/><path class="cls-114" d="M1069.54,196.38,947.81,159.93,920.4,227.64a7.12,7.12,0,0,0,3.16,9l83.24,53.67s-19.74,43.53,4.75,81.26c14.51,22.35-5.43,91.31-12,124-2.86,14.19-3.54,20-2.42,22.32,2.78,5.61,4.41,3.71,22.94,4.23,21.94.63,36.15,4.36,87.25.87,32.36-2.2,70.1-13.71,83.35-12.83,10.42.7,18.89-6.45,9.46-20.54-11.18-16.72-10.67-62.61-12.28-94.32-1.64-32.28-3.22-70.65,1.46-105.86l81.24-67.35a7,7,0,0,0,1.46-9.21l-41.43-65.33-111,46.36Z" transform="translate(53.41)"/><g class="cls-115"><path class="cls-116" d="M1006.79,290.3l-83.21-53.65a7.11,7.11,0,0,1-3.17-9l1.46-3.62c17.16,10.37,75,45.44,83.29,50.38C1014.89,280.18,1006.79,290.3,1006.79,290.3Z" transform="translate(53.41)"/></g><g class="cls-117"><path class="cls-118" d="M1270.51,222.12l-81.15,67.33a.11.11,0,0,1-.07,0c1.63-21.61,29.1-41.36,80.12-80.63l2.56,4A7,7,0,0,1,1270.51,222.12Z" transform="translate(53.41)"/></g><path class="cls-119" d="M1075,163.11l.48,31.86-29.59-5.66s-1.17,55,44.18,57.07c55.52,2.58,53.64-62.53,53.64-62.53l-19.1,8-4.43-48.36Z" transform="translate(53.41)"/><path class="cls-120" d="M1075.37,186.36s21.57-2.55,31.71-20.16c0,0-16.67,11.46-31.83,12.27Z" transform="translate(53.41)"/><path class="cls-121" d="M1034,105.72s1.52,53.66,25.17,68,48.74-6.49,60.09-18.3,20-44.54,20-44.54l-6-24.59s-48.31-14.09-54.41-13.64l-32.38,2.4Z" transform="translate(53.41)"/><path class="cls-122" d="M1433,240.49c1.2-4.6,25.91-112.19.78-186.37l-5.27-3.07c23.26,87.76-2.1,186.53-2.39,187.63Z" transform="translate(53.41)"/><path class="cls-123" d="M1462.23,64.91c-7.07,3.37-18.42,8.72-18.81,8.65s15-9.28,23.67-14.44a6.71,6.71,0,0,0,3.05-8,6.47,6.47,0,0,0-9.3-3.35c-8,4.63-21.87,12.61-22.35,12.85s11-8.15,17.29-12.78a5.38,5.38,0,0,0,1.15-7.52A5.69,5.69,0,0,0,1449.5,39l-27.44,16,.86-8.61a5,5,0,0,0-3.85-5.36h0a6.3,6.3,0,0,0-6.92,3.12l-9,16.36-170.94,89.72,33.13,52.26L1312.84,176l153-85.63a4.94,4.94,0,0,0-3.31-9.16l-14.35,2.67,19.17-8.6a5.75,5.75,0,0,0,2.4-8.5A6,6,0,0,0,1462.23,64.91Z" transform="translate(53.41)"/><path class="cls-124" d="M1065.36,143.64a3.45,3.45,0,0,1-2.45-.69,1.73,1.73,0,0,1-.34-1.84c3-8.9,6.21-22.11,6.24-22.24a.89.89,0,1,1,1.72.42c0,.14-3.28,13.42-6.27,22.38.5.52,4.21,0,7.7-1.12a.88.88,0,1,1,.52,1.69A27.38,27.38,0,0,1,1065.36,143.64Z" transform="translate(53.41)"/><path class="cls-96" d="M1073,152.16l12.89-5.23a2.66,2.66,0,0,1,3.7,2.16c.94,6.33,1.17,13-5.43,14.9-4.55,1.27-10-5-12.2-7.88A2.62,2.62,0,0,1,1073,152.16Z" transform="translate(53.41)"/><path class="cls-125" d="M1079.09,123.18a.85.85,0,0,1-.23,0,.88.88,0,0,1-.63-1.09c.06-.21,1.45-5.26,5.72-6.7,3-1,6.66.06,10.75,3.22a.9.9,0,0,1,.15,1.25.89.89,0,0,1-1.24.15c-3.59-2.77-6.63-3.77-9.08-3-3.37,1.14-4.57,5.45-4.58,5.49A.89.89,0,0,1,1079.09,123.18Z" transform="translate(53.41)"/><path class="cls-125" d="M1044.73,126.39a.91.91,0,0,1-.23,0,.87.87,0,0,1-.63-1.08c.06-.22,1.45-5.27,5.72-6.71,3-1,6.66.06,10.75,3.22a.9.9,0,0,1,.15,1.25.89.89,0,0,1-1.24.16c-3.59-2.78-6.63-3.78-9.08-3-3.37,1.13-4.57,5.44-4.58,5.49A.9.9,0,0,1,1044.73,126.39Z" transform="translate(53.41)"/><path class="cls-124" d="M1114.64,117l-1.76-.21.87.16-.87-.14c.47-3.68,2.73-7.44,7.74-7.09a.88.88,0,0,1,.82.94.89.89,0,0,1-1,.83C1115.87,111.18,1114.87,115.24,1114.64,117Z" transform="translate(53.41)"/><path class="cls-126" d="M1285.68,122.22l-53.41,28-1.7-2.67c-18,7.51-89.6,37.38-106,44.25,0,0-3.63-22.48-4.68-41.9-.7-13-4-23.62-4.07-23.1,19-10.08,7.78-35.69-8.1-16-3.38-4.86-2.17-18.19-2.17-18.19-10.5,16.32-34.49,12-39.8-5-54.89,64.06-70.37-48.84,15-55.68,55.26-6.08,92.67,32.48,84.45,86.52-4.83,45.05,44.38-21,65.67.85,7.25,8,18.58-.67,32.72-14.6C1273,95.5,1295.63,102.64,1285.68,122.22Z" transform="translate(53.41)"/><g class="cls-127"><polygon class="cls-128" points="1177.98 689.82 1161.3 629.34 1164.58 806.67 1177.98 689.82"/></g><path class="cls-129" d="M1462.18,388.39h-71.8a8.25,8.25,0,0,1-8.25-8.24V251a8.25,8.25,0,0,1,3.87-7l35.9-22.52a8.24,8.24,0,0,1,8.76,0l35.9,22.52a8.25,8.25,0,0,1,3.87,7V380.15A8.25,8.25,0,0,1,1462.18,388.39Z" transform="translate(53.41)"/><path class="cls-130" d="M1436.19,240.49a9.91,9.91,0,1,1-9.91-9.91A9.91,9.91,0,0,1,1436.19,240.49Z" transform="translate(53.41)"/><path class="cls-131" d="M1422,237.8c-4.39-20-22.83-115.22,0-182.77l6.63-3.87c-22.09,65.22-3.88,165.78.29,185.12a3.55,3.55,0,0,1-2.59,4.18h0A3.55,3.55,0,0,1,1422,237.8Z" transform="translate(53.41)"/><path class="cls-132" d="M1093.74,405.43c43.24,3.76,76.33-33.71,92.58-61.85-.13-5-.07-9.5,0-15.06-13.69,27.21-47.13,73.7-92,69.84-31.47-2.74-55.84-4.8-77.64-.71.17,2.29-.3,4.77-.27,7.19C1035.78,401.16,1059.31,402.44,1093.74,405.43Z" transform="translate(53.41)"/><path class="cls-132" d="M1194.24,474.6a3,3,0,0,0-.23-.52c-38.77,3.86-67-4.1-97.23-11.77-27.1-6.87-64.83.43-92.73,12.84-.62,3-1.41,6-2,8.7,26.13-12.81,64.6-21.85,93-14.65,31.38,8,60.51,16.28,101,11.83A44.67,44.67,0,0,1,1194.24,474.6Z" transform="translate(53.41)"/><path class="cls-132" d="M1100.26,439c45.48,16.37,68,19.64,90.3,10.18-.43-2.6-.51-5.37-.67-7.45-21.44,9.47-43.56,6.3-87.22-9.41-32-11.51-64.05-5.83-89.88,1.31-.33,2.57-1,5.22-1.44,7.78C1036.68,434.14,1069,427.71,1100.26,439Z" transform="translate(53.41)"/><path class="cls-132" d="M1147.5,415.91c.13,4.77,3.52,11.16,18.88,14.61,6.94,1.55,14.22.67,22.79-1.84-.08-1.85-.21-5-.31-7.34-7.71,2.32-15.19,3.53-20.92,2.24-8.27-1.85-13.25-4.79-13.34-7.87-.11-3.72,9.74-12.78,33.1-22.37-.07-1.93-.18-4.13-.28-6.17,0-.44-.05-.86-.07-1.3C1168.14,393.45,1147.17,404.45,1147.5,415.91Z" transform="translate(53.41)"/><path class="cls-133" d="M710.15,71.44A8.24,8.24,0,0,1,721.2,72a7.67,7.67,0,0,1,1.85,5.82,7.68,7.68,0,0,1-2.46,5.65,8.24,8.24,0,0,1-11.05-.58,8.72,8.72,0,0,1,.61-11.47Zm2.6,2.19a5.65,5.65,0,0,0-1.22,3.61,5.73,5.73,0,0,0,.83,3.73,3.46,3.46,0,0,0,2.75,1.42A3.51,3.51,0,0,0,718,81.25a5.71,5.71,0,0,0,1.25-3.61,5.59,5.59,0,0,0-.86-3.71,3.59,3.59,0,0,0-2.78-1.39A3.51,3.51,0,0,0,712.75,73.63Zm24.11.75L716.2,106a2.07,2.07,0,0,1-1.83.93h0a2.05,2.05,0,0,1-1.6-3.17l20.65-31.64a2.06,2.06,0,0,1,1.83-.92h0A2.05,2.05,0,0,1,736.86,74.38Zm-7.73,20.27a7.62,7.62,0,0,1,5.64-1.84,7.46,7.46,0,0,1,5.39,2.43,8.84,8.84,0,0,1-.61,11.49,7.38,7.38,0,0,1-5.61,1.87,7.55,7.55,0,0,1-5.41-2.42,8.78,8.78,0,0,1,.6-11.53Zm2.52,2.25a5.53,5.53,0,0,0-1.24,3.6,5.43,5.43,0,0,0,.86,3.66,3.57,3.57,0,0,0,2.78,1.39,3.53,3.53,0,0,0,2.9-1.09,5.45,5.45,0,0,0,1.25-3.55,5.59,5.59,0,0,0-.86-3.71,3.89,3.89,0,0,0-5.69-.3Z" transform="translate(53.41)"/><path class="cls-96" d="M1409,295.38a9.63,9.63,0,0,1,12.91.68,10.18,10.18,0,0,1-.71,13.41,9.63,9.63,0,0,1-12.91-.68,10.17,10.17,0,0,1,.71-13.41Zm3,2.57a6.56,6.56,0,0,0-1.43,4.21,6.75,6.75,0,0,0,1,4.37,4.42,4.42,0,0,0,6.62.32,6.68,6.68,0,0,0,1.45-4.22,6.42,6.42,0,0,0-1-4.33,4.12,4.12,0,0,0-3.25-1.62A4,4,0,0,0,1412,298Zm28.17.87-24.14,37a2.38,2.38,0,0,1-2.13,1.08h0a2.4,2.4,0,0,1-1.89-3.7l24.14-37a2.42,2.42,0,0,1,2.14-1.08h0A2.4,2.4,0,0,1,1440.17,298.82Zm-9,23.69a8.81,8.81,0,0,1,6.59-2.15,8.7,8.7,0,0,1,6.29,2.83,10.32,10.32,0,0,1-.7,13.44,8.67,8.67,0,0,1-6.56,2.18,8.83,8.83,0,0,1-6.33-2.83,10.29,10.29,0,0,1,.71-13.47Zm2.95,2.63a7.91,7.91,0,0,0-.45,8.48,4.54,4.54,0,0,0,6.64.35,6.31,6.31,0,0,0,1.45-4.15,6.42,6.42,0,0,0-1-4.33,4.52,4.52,0,0,0-6.64-.35Z" transform="translate(53.41)"/><path class="cls-132" d="M1027.85,579a1.78,1.78,0,0,1-.15-3.55c23.06-1.92,22.73-31.24,22.71-32.49a1.78,1.78,0,0,1,1.74-1.81h0a1.78,1.78,0,0,1,1.78,1.74c0,.34.43,33.9-26,36.1Z" transform="translate(53.41)"/><path class="cls-132" d="M1184.64,568.16c-24.27,0-30.55-30.56-30.61-30.89a1.77,1.77,0,0,1,3.48-.68c.25,1.26,6.27,30.95,30.71,27.78a1.8,1.8,0,0,1,2,1.53,1.78,1.78,0,0,1-1.53,2A31.74,31.74,0,0,1,1184.64,568.16Z" transform="translate(53.41)"/></g></g></g></svg>