<svg xmlns="http://www.w3.org/2000/svg" xmlns:xlink="http://www.w3.org/1999/xlink" viewBox="0 0 1981.84 2020.28"><defs><style>.cls-1{fill:url(#linear-gradient);}.cls-2{fill:url(#linear-gradient-2);}.cls-3{fill:url(#linear-gradient-3);}.cls-4{fill:url(#linear-gradient-4);}.cls-5{fill:url(#linear-gradient-5);}.cls-149,.cls-6,.cls-60,.cls-66,.cls-71{fill:#fff;}.cls-22,.cls-6{opacity:0.3;}.cls-7{fill:url(#linear-gradient-6);}.cls-8{fill:url(#linear-gradient-7);}.cls-9{fill:url(#linear-gradient-8);}.cls-10{fill:url(#linear-gradient-9);}.cls-11{fill:url(#linear-gradient-10);}.cls-12{fill:url(#linear-gradient-11);}.cls-13{fill:url(#linear-gradient-12);}.cls-14{fill:url(#linear-gradient-13);}.cls-15{fill:url(#linear-gradient-14);}.cls-16{fill:url(#linear-gradient-15);}.cls-17{fill:url(#linear-gradient-16);}.cls-18{fill:url(#linear-gradient-17);}.cls-19{fill:url(#linear-gradient-18);}.cls-20{fill:url(#linear-gradient-19);}.cls-21{fill:url(#linear-gradient-20);}.cls-23{fill:#4c0000;opacity:0;}.cls-24{fill:#4a0101;opacity:0.04;}.cls-25{fill:#480202;opacity:0.08;}.cls-26{fill:#460303;opacity:0.12;}.cls-27{fill:#440404;opacity:0.15;}.cls-28{fill:#420505;opacity:0.19;}.cls-29{fill:#400606;opacity:0.23;}.cls-30{fill:#3e0606;opacity:0.27;}.cls-31{fill:#3c0707;opacity:0.31;}.cls-32{fill:#3a0808;opacity:0.35;}.cls-33{fill:#380909;opacity:0.38;}.cls-34{fill:#360a0a;opacity:0.42;}.cls-35{fill:#340b0b;opacity:0.46;}.cls-36{fill:#330c0c;opacity:0.5;}.cls-37{fill:#310d0d;opacity:0.54;}.cls-38{fill:#2f0e0e;opacity:0.58;}.cls-39{fill:#2d0f0f;opacity:0.62;}.cls-40{fill:#2b1010;opacity:0.65;}.cls-41{fill:#291111;opacity:0.69;}.cls-42{fill:#271212;opacity:0.73;}.cls-43{fill:#251212;opacity:0.77;}.cls-44{fill:#231313;opacity:0.81;}.cls-45{fill:#211414;opacity:0.85;}.cls-46{fill:#1f1515;opacity:0.88;}.cls-47{fill:#1d1616;opacity:0.92;}.cls-48{fill:#1b1717;opacity:0.96;}.cls-49{fill:#191818;}.cls-50{opacity:0.35;}.cls-51{fill:url(#linear-gradient-21);}.cls-52{fill:url(#linear-gradient-22);}.cls-53{fill:url(#linear-gradient-23);}.cls-54{fill:#e8e2e2;}.cls-55{opacity:0.71;}.cls-56{fill:url(#linear-gradient-24);}.cls-57{fill:url(#linear-gradient-25);}.cls-58{fill:url(#linear-gradient-26);}.cls-59{opacity:0.7;}.cls-61{fill:url(#linear-gradient-27);}.cls-62{fill:url(#linear-gradient-28);}.cls-63{fill:url(#linear-gradient-29);}.cls-64{fill:url(#linear-gradient-30);}.cls-65{fill:url(#linear-gradient-31);}.cls-66,.cls-67{opacity:0.25;}.cls-68{fill:url(#linear-gradient-32);}.cls-69{fill:url(#linear-gradient-33);}.cls-70{fill:url(#linear-gradient-34);}.cls-71{opacity:0.4;}.cls-72{fill:url(#linear-gradient-35);}.cls-73{fill:url(#linear-gradient-36);}.cls-74{fill:url(#linear-gradient-37);}.cls-75{fill:url(#linear-gradient-38);}.cls-76{fill:url(#linear-gradient-39);}.cls-77{fill:url(#linear-gradient-40);}.cls-78{opacity:0.16;}.cls-79{opacity:0.23;}.cls-80{fill:url(#linear-gradient-41);}.cls-81{fill:url(#linear-gradient-42);}.cls-82{fill:url(#linear-gradient-43);}.cls-83{fill:url(#linear-gradient-44);}.cls-84{fill:url(#linear-gradient-45);}.cls-85{fill:url(#linear-gradient-46);}.cls-86{fill:url(#linear-gradient-47);}.cls-87{fill:url(#linear-gradient-48);}.cls-88{fill:url(#linear-gradient-49);}.cls-89{fill:url(#linear-gradient-50);}.cls-90{fill:url(#linear-gradient-51);}.cls-91{fill:url(#linear-gradient-52);}.cls-92{fill:url(#linear-gradient-53);}.cls-93{fill:url(#linear-gradient-54);}.cls-94{fill:url(#linear-gradient-55);}.cls-95{fill:url(#linear-gradient-56);}.cls-96{fill:url(#linear-gradient-57);}.cls-97{fill:url(#linear-gradient-58);}.cls-98{fill:url(#linear-gradient-59);}.cls-99{fill:url(#linear-gradient-60);}.cls-100{fill:url(#linear-gradient-61);}.cls-101{fill:url(#linear-gradient-62);}.cls-102{fill:url(#linear-gradient-63);}.cls-103{fill:url(#linear-gradient-64);}.cls-104{fill:url(#linear-gradient-65);}.cls-105{fill:url(#linear-gradient-66);}.cls-106{fill:url(#linear-gradient-67);}.cls-107{fill:url(#linear-gradient-68);}.cls-108{fill:url(#linear-gradient-69);}.cls-109{fill:url(#linear-gradient-70);}.cls-110{fill:url(#linear-gradient-71);}.cls-111{fill:url(#linear-gradient-72);}.cls-112{fill:#fffeff;}.cls-113{fill:url(#linear-gradient-73);}.cls-114{fill:url(#linear-gradient-74);}.cls-115{fill:url(#linear-gradient-75);}.cls-116{fill:url(#linear-gradient-76);}.cls-117{fill:url(#linear-gradient-77);}.cls-118{fill:url(#linear-gradient-78);}.cls-119{fill:url(#linear-gradient-79);}.cls-120{fill:url(#linear-gradient-80);}.cls-121{fill:url(#linear-gradient-81);}.cls-122{fill:url(#linear-gradient-82);}.cls-123{fill:url(#linear-gradient-83);}.cls-124{fill:url(#linear-gradient-84);}.cls-125{fill:url(#linear-gradient-85);}.cls-126{fill:url(#linear-gradient-86);}.cls-127{fill:url(#linear-gradient-87);}.cls-128{fill:url(#linear-gradient-88);}.cls-129{fill:url(#linear-gradient-89);}.cls-130{fill:url(#linear-gradient-90);}.cls-131{fill:url(#linear-gradient-91);}.cls-132{fill:url(#linear-gradient-92);}.cls-133{fill:url(#linear-gradient-93);}.cls-134{fill:url(#linear-gradient-94);}.cls-135{fill:url(#linear-gradient-95);}.cls-136{fill:url(#linear-gradient-96);}.cls-137{fill:#7f7b79;}.cls-138{fill:#aaa8a7;}.cls-139{fill:#c9c9c9;}.cls-140{fill:#a67c52;}.cls-141{fill:none;stroke:#aaa8a7;stroke-miterlimit:10;stroke-width:6px;}.cls-142{fill:url(#linear-gradient-97);}.cls-143{fill:url(#linear-gradient-98);}.cls-144{fill:url(#linear-gradient-99);}.cls-145{fill:url(#linear-gradient-100);}.cls-146{fill:url(#linear-gradient-101);}.cls-147{fill:url(#linear-gradient-102);}.cls-148{fill:url(#linear-gradient-103);}.cls-149{stroke:#e2e2e2;stroke-linecap:round;stroke-linejoin:round;stroke-width:7px;}.cls-150{fill:url(#linear-gradient-104);}.cls-151{fill:url(#linear-gradient-105);}.cls-152{fill:url(#linear-gradient-106);}.cls-153{fill:url(#linear-gradient-107);}.cls-154{fill:url(#linear-gradient-108);}.cls-155{fill:url(#linear-gradient-109);}.cls-156{fill:url(#linear-gradient-110);}.cls-157{fill:#f35449;}.cls-158{fill:url(#linear-gradient-111);}.cls-159{fill:url(#linear-gradient-112);}.cls-160{fill:url(#linear-gradient-113);}.cls-161,.cls-167,.cls-168,.cls-169,.cls-170{opacity:0.58;}.cls-161{fill:url(#linear-gradient-114);}.cls-162{fill:url(#linear-gradient-115);}.cls-163{fill:url(#linear-gradient-116);}.cls-164{fill:url(#linear-gradient-117);}.cls-165{fill:url(#linear-gradient-118);}.cls-166{fill:url(#linear-gradient-119);}.cls-167{fill:url(#linear-gradient-120);}.cls-168{fill:url(#linear-gradient-121);}.cls-169{fill:url(#linear-gradient-122);}.cls-170{fill:url(#linear-gradient-123);}</style><linearGradient id="linear-gradient" x1="831.49" y1="892.94" x2="378.05" y2="1230.18" gradientTransform="matrix(1, 0, 0.02, 1.01, 64.33, 21.43)" gradientUnits="userSpaceOnUse"><stop offset="0" stop-color="#303030"/><stop offset="1" stop-color="#727272"/></linearGradient><linearGradient id="linear-gradient-2" x1="1117.74" y1="141.43" x2="1034.82" y2="688.23" gradientUnits="userSpaceOnUse"><stop offset="0" stop-color="#787878"/><stop offset="0.24" stop-color="#fcfcfc"/><stop offset="0.7" stop-color="#4e4e4e"/><stop offset="1" stop-color="#727272"/></linearGradient><linearGradient id="linear-gradient-3" x1="451.54" y1="773.18" x2="1402.51" y2="773.18" xlink:href="#linear-gradient"/><linearGradient id="linear-gradient-4" x1="1133.31" y1="1513.31" x2="1025.7" y2="1107.39" gradientTransform="matrix(1, 0, 0.02, 1.01, 64.33, 21.43)" gradientUnits="userSpaceOnUse"><stop offset="0" stop-color="#fff"/><stop offset="1" stop-color="#727272"/></linearGradient><linearGradient id="linear-gradient-5" x1="1029.74" y1="168.62" x2="831.37" y2="1285.18" gradientTransform="matrix(1, 0, 0.02, 1.01, 64.33, 21.43)" gradientUnits="userSpaceOnUse"><stop offset="0" stop-color="#82fb7c"/><stop offset="1" stop-color="#0ba2b3"/></linearGradient><linearGradient id="linear-gradient-6" x1="1136.08" y1="16.01" x2="871.06" y2="285.38" gradientTransform="matrix(0.96, 0.18, 0, 1.05, 30.93, 35.84)" gradientUnits="userSpaceOnUse"><stop offset="0" stop-color="#f6f6f6"/><stop offset="1" stop-color="#ababab"/></linearGradient><linearGradient id="linear-gradient-7" x1="770.79" y1="197.38" x2="766.05" y2="46.74" gradientTransform="matrix(0.96, 0.18, 0, 1.05, 30.93, 35.84)" gradientUnits="userSpaceOnUse"><stop offset="0" stop-color="#dd2f2f"/><stop offset="1" stop-color="#ff6757"/></linearGradient><linearGradient id="linear-gradient-8" x1="853.74" y1="135.73" x2="940.1" y2="-82.73" xlink:href="#linear-gradient-6"/><linearGradient id="linear-gradient-9" x1="959.83" y1="194.96" x2="955.01" y2="41.91" xlink:href="#linear-gradient-7"/><linearGradient id="linear-gradient-10" x1="1023.88" y1="185.79" x2="1110.41" y2="-33.08" xlink:href="#linear-gradient-6"/><linearGradient id="linear-gradient-11" x1="1148.86" y1="192.28" x2="1143.97" y2="36.99" xlink:href="#linear-gradient-7"/><linearGradient id="linear-gradient-12" x1="1193.95" y1="236.02" x2="1280.64" y2="16.75" xlink:href="#linear-gradient-6"/><linearGradient id="linear-gradient-13" x1="1337.88" y1="189.36" x2="1332.93" y2="32" xlink:href="#linear-gradient-7"/><linearGradient id="linear-gradient-14" x1="654.89" y1="308.59" x2="659.91" y2="89.86" gradientTransform="matrix(0.95, 0.2, 0, 1.05, 31.19, 35.54)" xlink:href="#linear-gradient-7"/><linearGradient id="linear-gradient-15" x1="753.08" y1="308.59" x2="758.1" y2="89.86" gradientTransform="matrix(0.95, 0.2, 0, 1.05, 31.19, 35.54)" xlink:href="#linear-gradient-6"/><linearGradient id="linear-gradient-16" x1="851.26" y1="308.59" x2="856.28" y2="89.86" gradientTransform="matrix(0.95, 0.2, 0, 1.05, 31.19, 35.54)" xlink:href="#linear-gradient-7"/><linearGradient id="linear-gradient-17" x1="949.44" y1="308.59" x2="954.46" y2="89.86" gradientTransform="matrix(0.95, 0.2, 0, 1.05, 31.19, 35.54)" xlink:href="#linear-gradient-6"/><linearGradient id="linear-gradient-18" x1="1047.62" y1="308.59" x2="1052.64" y2="89.86" gradientTransform="matrix(0.95, 0.2, 0, 1.05, 31.19, 35.54)" xlink:href="#linear-gradient-7"/><linearGradient id="linear-gradient-19" x1="1145.81" y1="308.59" x2="1150.83" y2="89.86" gradientTransform="matrix(0.95, 0.2, 0, 1.05, 31.19, 35.54)" xlink:href="#linear-gradient-6"/><linearGradient id="linear-gradient-20" x1="1243.99" y1="308.58" x2="1249.01" y2="89.85" gradientTransform="matrix(0.95, 0.2, 0, 1.05, 31.19, 35.54)" xlink:href="#linear-gradient-7"/><linearGradient id="linear-gradient-21" x1="1124.52" y1="789.82" x2="1719.11" y2="789.82" gradientUnits="userSpaceOnUse"><stop offset="0" stop-color="#dd2f2f"/><stop offset="1" stop-color="#7f2121"/></linearGradient><linearGradient id="linear-gradient-22" x1="1423.84" y1="952.83" x2="1415.97" y2="723.22" gradientUnits="userSpaceOnUse"><stop offset="0" stop-color="#fe7f0a"/><stop offset="1" stop-color="#ffb538"/></linearGradient><linearGradient id="linear-gradient-23" x1="1164.82" y1="723.68" x2="1699.13" y2="723.68" xlink:href="#linear-gradient-21"/><linearGradient id="linear-gradient-24" x1="2588.91" y1="566.77" x2="2535.36" y2="541.72" gradientTransform="matrix(1.01, 0.23, -0.27, 0.96, -848.68, -247.56)" xlink:href="#linear-gradient"/><linearGradient id="linear-gradient-25" x1="2582.14" y1="-6970.1" x2="2541.44" y2="-6951.05" gradientTransform="matrix(1.01, 0.23, 0.27, -0.96, 842.32, -6387.59)" xlink:href="#linear-gradient"/><linearGradient id="linear-gradient-26" x1="2529.74" y1="582.4" x2="2482.59" y2="560.35" gradientTransform="matrix(1.01, 0.23, -0.27, 0.96, -848.68, -247.56)" xlink:href="#linear-gradient"/><linearGradient id="linear-gradient-27" x1="950.62" y1="1228.62" x2="1417.23" y2="1228.62" gradientTransform="matrix(1, 0.03, 0, 1, 6.1, -124.05)" xlink:href="#linear-gradient-21"/><linearGradient id="linear-gradient-28" x1="947.67" y1="1223.69" x2="1414.28" y2="1223.69" gradientTransform="matrix(1, 0.03, 0, 1, 6.1, -124.05)" xlink:href="#linear-gradient-7"/><linearGradient id="linear-gradient-29" x1="192.92" y1="543.95" x2="369.14" y2="528.76" gradientTransform="matrix(1.02, -0.09, 0.11, 1.03, 129.54, -297.72)" gradientUnits="userSpaceOnUse"><stop offset="0" stop-color="#f7f7f7"/><stop offset="1" stop-color="#cbcbcb"/></linearGradient><linearGradient id="linear-gradient-30" x1="716.37" y1="-769.37" x2="609.72" y2="-467.86" gradientTransform="matrix(1.05, -0.27, 0.11, 1.03, -138.21, 1016.22)" xlink:href="#linear-gradient-29"/><linearGradient id="linear-gradient-31" x1="-221.03" y1="120.6" x2="136.25" y2="120.6" gradientTransform="matrix(1.01, -0.15, 0.17, 1.02, 521.98, 77.79)" xlink:href="#linear-gradient-22"/><linearGradient id="linear-gradient-32" x1="1305.15" y1="1601.47" x2="1642.58" y2="1601.47" gradientUnits="userSpaceOnUse"><stop offset="0" stop-color="#cc965c"/><stop offset="1" stop-color="#d88d35"/></linearGradient><linearGradient id="linear-gradient-33" x1="1642.58" y1="1599.36" x2="1851.89" y2="1599.36" gradientUnits="userSpaceOnUse"><stop offset="0" stop-color="#9e6120"/><stop offset="1" stop-color="#cf8632"/></linearGradient><linearGradient id="linear-gradient-34" x1="1305.15" y1="1452.09" x2="1851.89" y2="1452.09" gradientUnits="userSpaceOnUse"><stop offset="0" stop-color="#efcc9e"/><stop offset="1" stop-color="#e2a956"/></linearGradient><linearGradient id="linear-gradient-35" x1="1090.13" y1="1693.55" x2="1427.56" y2="1693.55" xlink:href="#linear-gradient-32"/><linearGradient id="linear-gradient-36" x1="1427.56" y1="1691.44" x2="1636.87" y2="1691.44" xlink:href="#linear-gradient-33"/><linearGradient id="linear-gradient-37" x1="1090.13" y1="1544.18" x2="1636.87" y2="1544.18" xlink:href="#linear-gradient-34"/><linearGradient id="linear-gradient-38" x1="1182.25" y1="1437.86" x2="1508.23" y2="1437.86" xlink:href="#linear-gradient-32"/><linearGradient id="linear-gradient-39" x1="1508.23" y1="1435.82" x2="1710.42" y2="1435.82" xlink:href="#linear-gradient-33"/><linearGradient id="linear-gradient-40" x1="1182.25" y1="1293.56" x2="1710.42" y2="1293.56" xlink:href="#linear-gradient-34"/><linearGradient id="linear-gradient-41" x1="877.93" y1="1660.49" x2="1237.67" y2="965.37" gradientUnits="userSpaceOnUse"><stop offset="0" stop-color="#f6f6f6"/><stop offset="1" stop-color="#dedede"/></linearGradient><linearGradient id="linear-gradient-42" x1="1131.61" y1="1221.91" x2="1258.67" y2="1221.91" gradientUnits="userSpaceOnUse"><stop offset="0" stop-color="#8b8b8b"/><stop offset="1" stop-color="#cbcbcb"/></linearGradient><linearGradient id="linear-gradient-43" x1="1131.29" y1="1220.08" x2="1132.29" y2="1220.08" gradientUnits="userSpaceOnUse"><stop offset="0" stop-color="#f6f6f6"/><stop offset="1" stop-color="#cbcbcb"/></linearGradient><linearGradient id="linear-gradient-44" x1="892.54" y1="1210.63" x2="1108.82" y2="1210.63" gradientUnits="userSpaceOnUse"><stop offset="0" stop-color="#c3c3c3"/><stop offset="1" stop-color="#cbcbcb"/></linearGradient><linearGradient id="linear-gradient-45" x1="944.14" y1="913.32" x2="1053.78" y2="913.32" gradientTransform="matrix(0.97, 0.25, 0, 1, -12.25, 110.52)" xlink:href="#linear-gradient-7"/><linearGradient id="linear-gradient-46" x1="1071.37" y1="913.44" x2="1121.17" y2="913.44" gradientTransform="matrix(0.97, 0.25, 0, 1, -12.25, 110.52)" xlink:href="#linear-gradient-44"/><linearGradient id="linear-gradient-47" x1="949.16" y1="944.1" x2="1058.81" y2="944.1" gradientTransform="matrix(0.97, 0.25, 0, 1, -12.25, 110.52)" xlink:href="#linear-gradient-44"/><linearGradient id="linear-gradient-48" x1="1076.39" y1="944.21" x2="1126.19" y2="944.21" gradientTransform="matrix(0.97, 0.25, 0, 1, -12.25, 110.52)" xlink:href="#linear-gradient-44"/><linearGradient id="linear-gradient-49" x1="957.17" y1="974" x2="1066.82" y2="974" gradientTransform="matrix(0.97, 0.25, 0, 1, -12.25, 110.52)" xlink:href="#linear-gradient-44"/><linearGradient id="linear-gradient-50" x1="1084.4" y1="974.12" x2="1134.2" y2="974.12" gradientTransform="matrix(0.97, 0.25, 0, 1, -12.25, 110.52)" xlink:href="#linear-gradient-44"/><linearGradient id="linear-gradient-51" x1="965.27" y1="1001.34" x2="1074.92" y2="1001.34" gradientTransform="matrix(0.97, 0.25, 0, 1, -12.25, 110.52)" xlink:href="#linear-gradient-44"/><linearGradient id="linear-gradient-52" x1="1092.5" y1="1001.45" x2="1142.3" y2="1001.45" gradientTransform="matrix(0.97, 0.25, 0, 1, -12.25, 110.52)" xlink:href="#linear-gradient-44"/><linearGradient id="linear-gradient-53" x1="983.76" y1="1067.57" x2="1093.41" y2="1067.57" gradientTransform="matrix(0.97, 0.25, 0, 1, -12.25, 110.52)" xlink:href="#linear-gradient-44"/><linearGradient id="linear-gradient-54" x1="1110.99" y1="1067.68" x2="1160.79" y2="1067.68" gradientTransform="matrix(0.97, 0.25, 0, 1, -12.25, 110.52)" xlink:href="#linear-gradient-44"/><linearGradient id="linear-gradient-55" x1="991.77" y1="1097.47" x2="1101.42" y2="1097.47" gradientTransform="matrix(0.97, 0.25, 0, 1, -12.25, 110.52)" xlink:href="#linear-gradient-44"/><linearGradient id="linear-gradient-56" x1="1119" y1="1097.59" x2="1168.8" y2="1097.59" gradientTransform="matrix(0.97, 0.25, 0, 1, -12.25, 110.52)" xlink:href="#linear-gradient-44"/><linearGradient id="linear-gradient-57" x1="989.6" y1="1124.14" x2="1099.24" y2="1124.14" gradientTransform="matrix(0.97, 0.25, 0, 1, -12.25, 110.52)" xlink:href="#linear-gradient-44"/><linearGradient id="linear-gradient-58" x1="1116.83" y1="1124.25" x2="1166.63" y2="1124.25" gradientTransform="matrix(0.97, 0.25, 0, 1, -12.25, 110.52)" xlink:href="#linear-gradient-44"/><linearGradient id="linear-gradient-59" x1="955.91" y1="1233.35" x2="1065.55" y2="1233.35" gradientTransform="matrix(0.97, 0.25, 0, 1, -12.25, 110.52)" xlink:href="#linear-gradient-7"/><linearGradient id="linear-gradient-60" x1="1083.14" y1="1233.47" x2="1132.94" y2="1233.47" gradientTransform="matrix(0.97, 0.25, 0, 1, -12.25, 110.52)" xlink:href="#linear-gradient-44"/><linearGradient id="linear-gradient-61" x1="937.14" y1="1259.57" x2="1046.79" y2="1259.57" gradientTransform="matrix(0.97, 0.25, 0, 1, -12.25, 110.52)" xlink:href="#linear-gradient-44"/><linearGradient id="linear-gradient-62" x1="1064.37" y1="1259.69" x2="1114.17" y2="1259.69" gradientTransform="matrix(0.97, 0.25, 0, 1, -12.25, 110.52)" xlink:href="#linear-gradient-44"/><linearGradient id="linear-gradient-63" x1="906.11" y1="1288.01" x2="1015.75" y2="1288.01" gradientTransform="matrix(0.97, 0.25, 0, 1, -12.25, 110.52)" xlink:href="#linear-gradient-44"/><linearGradient id="linear-gradient-64" x1="1033.34" y1="1288.13" x2="1083.14" y2="1288.13" gradientTransform="matrix(0.97, 0.25, 0, 1, -12.25, 110.52)" xlink:href="#linear-gradient-44"/><linearGradient id="linear-gradient-65" x1="760.11" y1="1410.04" x2="869.76" y2="1410.04" gradientTransform="matrix(0.97, 0.25, 0, 1, -12.25, 110.52)" xlink:href="#linear-gradient-7"/><linearGradient id="linear-gradient-66" x1="887.34" y1="1410.16" x2="937.14" y2="1410.16" gradientTransform="matrix(0.97, 0.25, 0, 1, -12.25, 110.52)" xlink:href="#linear-gradient-44"/><linearGradient id="linear-gradient-67" x1="741.81" y1="1453.29" x2="851.46" y2="1453.29" gradientTransform="matrix(0.97, 0.25, 0, 1, -12.25, 110.52)" xlink:href="#linear-gradient-44"/><linearGradient id="linear-gradient-68" x1="869.04" y1="1453.41" x2="918.84" y2="1453.41" gradientTransform="matrix(0.97, 0.25, 0, 1, -12.25, 110.52)" xlink:href="#linear-gradient-44"/><linearGradient id="linear-gradient-69" x1="730.29" y1="1497.5" x2="839.94" y2="1497.5" gradientTransform="matrix(0.97, 0.25, 0, 1, -12.25, 110.52)" xlink:href="#linear-gradient-44"/><linearGradient id="linear-gradient-70" x1="857.52" y1="1497.62" x2="907.32" y2="1497.62" gradientTransform="matrix(0.97, 0.25, 0, 1, -12.25, 110.52)" xlink:href="#linear-gradient-44"/><linearGradient id="linear-gradient-71" x1="926.48" y1="1566.21" x2="1132.29" y2="1566.21" xlink:href="#linear-gradient-44"/><linearGradient id="linear-gradient-72" x1="776.88" y1="1872.02" x2="802.6" y2="1822.32" xlink:href="#linear-gradient-44"/><linearGradient id="linear-gradient-73" x1="1004.37" y1="2116.68" x2="989.62" y2="2172.27" gradientTransform="matrix(1.01, -0.16, -0.05, 0.93, -251.51, -145.63)" xlink:href="#linear-gradient"/><linearGradient id="linear-gradient-74" x1="953.7" y1="2164.96" x2="1063.19" y2="2164.96" gradientTransform="matrix(1.01, -0.16, -0.05, 0.93, -251.51, -145.63)" xlink:href="#linear-gradient"/><linearGradient id="linear-gradient-75" x1="981.89" y1="2164.96" x2="1015.02" y2="2164.96" gradientTransform="matrix(0.6, 0.83, -0.85, 0.37, 1894.48, 66.92)" xlink:href="#linear-gradient"/><linearGradient id="linear-gradient-76" x1="976.87" y1="2175.89" x2="992.33" y2="2175.89" gradientTransform="matrix(1.01, -0.16, -0.05, 0.93, -251.51, -145.63)" xlink:href="#linear-gradient"/><linearGradient id="linear-gradient-77" x1="978.2" y1="2180.84" x2="995.93" y2="2180.84" gradientTransform="matrix(1.01, -0.16, -0.05, 0.93, -251.51, -145.63)" xlink:href="#linear-gradient"/><linearGradient id="linear-gradient-78" x1="1015.69" y1="2171.74" x2="1025.3" y2="2194.66" gradientTransform="matrix(1.01, -0.16, -0.05, 0.93, -251.51, -145.63)" xlink:href="#linear-gradient"/><linearGradient id="linear-gradient-79" x1="1011.31" y1="2178.48" x2="1016.24" y2="2202.39" gradientTransform="matrix(1.01, -0.16, -0.05, 0.93, -251.51, -145.63)" xlink:href="#linear-gradient"/><linearGradient id="linear-gradient-80" x1="991.25" y1="2124.93" x2="999.43" y2="2144.44" gradientTransform="matrix(1.01, -0.16, -0.05, 0.93, -251.51, -145.63)" xlink:href="#linear-gradient"/><linearGradient id="linear-gradient-81" x1="992.37" y1="2150.21" x2="986.24" y2="2129.88" gradientTransform="matrix(1.01, -0.16, -0.05, 0.93, -251.51, -145.63)" xlink:href="#linear-gradient"/><linearGradient id="linear-gradient-82" x1="1029.82" y1="2163.62" x2="1024.81" y2="2147.01" gradientTransform="matrix(1.01, -0.16, -0.05, 0.93, -251.51, -145.63)" xlink:href="#linear-gradient"/><linearGradient id="linear-gradient-83" x1="1027.08" y1="2147.06" x2="1021.4" y2="2154.98" gradientTransform="matrix(1.01, -0.16, -0.05, 0.93, -251.51, -145.63)" xlink:href="#linear-gradient"/><linearGradient id="linear-gradient-84" x1="991.88" y1="2164.96" x2="1025.01" y2="2164.96" gradientTransform="matrix(1.01, -0.16, -0.05, 0.93, -251.51, -145.63)" xlink:href="#linear-gradient"/><linearGradient id="linear-gradient-85" x1="692.81" y1="1955.98" x2="678.06" y2="2011.57" gradientTransform="matrix(1.01, -0.16, -0.05, 0.93, -251.51, -145.63)" xlink:href="#linear-gradient"/><linearGradient id="linear-gradient-86" x1="642.14" y1="2004.26" x2="751.63" y2="2004.26" gradientTransform="matrix(1.01, -0.16, -0.05, 0.93, -251.51, -145.63)" xlink:href="#linear-gradient"/><linearGradient id="linear-gradient-87" x1="670.33" y1="2004.26" x2="703.46" y2="2004.26" gradientTransform="matrix(1.01, -0.16, -0.05, 0.93, -251.51, -145.63)" xlink:href="#linear-gradient"/><linearGradient id="linear-gradient-88" x1="665.31" y1="2015.19" x2="680.77" y2="2015.19" gradientTransform="matrix(1.01, -0.16, -0.05, 0.93, -251.51, -145.63)" xlink:href="#linear-gradient"/><linearGradient id="linear-gradient-89" x1="666.64" y1="2020.14" x2="684.37" y2="2020.14" gradientTransform="matrix(1.01, -0.16, -0.05, 0.93, -251.51, -145.63)" xlink:href="#linear-gradient"/><linearGradient id="linear-gradient-90" x1="704.13" y1="2011.04" x2="713.74" y2="2033.96" gradientTransform="matrix(1.01, -0.16, -0.05, 0.93, -251.51, -145.63)" xlink:href="#linear-gradient"/><linearGradient id="linear-gradient-91" x1="699.75" y1="2017.78" x2="704.68" y2="2041.69" gradientTransform="matrix(1.01, -0.16, -0.05, 0.93, -251.51, -145.63)" xlink:href="#linear-gradient"/><linearGradient id="linear-gradient-92" x1="679.69" y1="1964.23" x2="687.88" y2="1983.74" gradientTransform="matrix(1.01, -0.16, -0.05, 0.93, -251.51, -145.63)" xlink:href="#linear-gradient"/><linearGradient id="linear-gradient-93" x1="680.81" y1="1989.51" x2="674.69" y2="1969.18" gradientTransform="matrix(1.01, -0.16, -0.05, 0.93, -251.51, -145.63)" xlink:href="#linear-gradient"/><linearGradient id="linear-gradient-94" x1="718.26" y1="2002.92" x2="713.25" y2="1986.31" gradientTransform="matrix(1.01, -0.16, -0.05, 0.93, -251.51, -145.63)" xlink:href="#linear-gradient"/><linearGradient id="linear-gradient-95" x1="715.52" y1="1986.36" x2="709.84" y2="1994.28" gradientTransform="matrix(1.01, -0.16, -0.05, 0.93, -251.51, -145.63)" xlink:href="#linear-gradient"/><linearGradient id="linear-gradient-96" x1="680.32" y1="2004.26" x2="713.45" y2="2004.26" gradientTransform="matrix(1.01, -0.16, -0.05, 0.93, -251.51, -145.63)" xlink:href="#linear-gradient"/><linearGradient id="linear-gradient-97" x1="476.6" y1="1102.85" x2="384.52" y2="1525.71" gradientTransform="matrix(0.94, 0.16, 0, 1, 74.63, -190.83)" xlink:href="#linear-gradient-5"/><linearGradient id="linear-gradient-98" x1="547.93" y1="1532.8" x2="688.33" y2="1133.85" gradientTransform="matrix(0.94, 0.16, 0, 1, 74.63, -190.83)" gradientUnits="userSpaceOnUse"><stop offset="0" stop-color="#206751"/><stop offset="1" stop-color="#0ba2b3"/></linearGradient><linearGradient id="linear-gradient-99" x1="471.79" y1="1048.98" x2="454.13" y2="1157.31" gradientTransform="matrix(0.94, 0.16, 0, 1, 74.63, -190.83)" xlink:href="#linear-gradient-5"/><linearGradient id="linear-gradient-100" x1="579.13" y1="1464.43" x2="695.67" y2="1133.28" xlink:href="#linear-gradient-98"/><linearGradient id="linear-gradient-101" x1="307.54" y1="1105.32" x2="323.18" y2="1060.87" xlink:href="#linear-gradient-98"/><linearGradient id="linear-gradient-102" x1="337.24" y1="1155.54" x2="372.09" y2="1155.54" gradientTransform="matrix(0.71, 0.63, -0.53, 0.85, 765.55, -183.04)" xlink:href="#linear-gradient-98"/><linearGradient id="linear-gradient-103" x1="503.49" y1="1185.16" x2="538.34" y2="1185.16" gradientTransform="matrix(0.71, 0.63, -0.53, 0.85, 819.06, -256.59)" xlink:href="#linear-gradient-98"/><linearGradient id="linear-gradient-104" x1="385.95" y1="1497.5" x2="370.72" y2="1293.21" gradientTransform="matrix(1, 0, 0, 1, 0, 0)" xlink:href="#linear-gradient-7"/><linearGradient id="linear-gradient-105" x1="520.07" y1="1186.16" x2="515.42" y2="1516.74" gradientUnits="userSpaceOnUse"><stop offset="0" stop-color="#dd2f2f"/><stop offset="1" stop-color="#911616"/></linearGradient><linearGradient id="linear-gradient-106" x1="357.15" y1="1237.84" x2="342.29" y2="1328.99" gradientTransform="matrix(0.94, 0.16, 0, 1, 74.63, -190.83)" xlink:href="#linear-gradient-7"/><linearGradient id="linear-gradient-107" x1="528.49" y1="1151.64" x2="528.49" y2="1404" xlink:href="#linear-gradient-105"/><linearGradient id="linear-gradient-108" x1="259.06" y1="1116.93" x2="302.84" y2="1116.93" xlink:href="#linear-gradient-105"/><linearGradient id="linear-gradient-109" x1="243.94" y1="1327.5" x2="273.26" y2="1327.5" gradientTransform="matrix(0.71, 0.63, -0.53, 0.85, 834.47, -112.04)" xlink:href="#linear-gradient-105"/><linearGradient id="linear-gradient-110" x1="383.82" y1="1352.42" x2="413.14" y2="1352.42" gradientTransform="matrix(0.71, 0.63, -0.53, 0.85, 879.48, -173.92)" xlink:href="#linear-gradient-105"/><linearGradient id="linear-gradient-111" x1="33.33" y1="157.74" x2="89.84" y2="320.62" gradientTransform="matrix(0.99, -0.17, 0.17, 0.99, 600.13, 508.28)" gradientUnits="userSpaceOnUse"><stop offset="0" stop-color="#e9e9e9"/><stop offset="1" stop-color="#bbb"/></linearGradient><linearGradient id="linear-gradient-112" x1="545.52" y1="765.22" x2="573.48" y2="843.52" gradientUnits="userSpaceOnUse"><stop offset="0" stop-color="#ffd0b0"/><stop offset="1" stop-color="#e59b68"/></linearGradient><linearGradient id="linear-gradient-113" x1="513.84" y1="668.07" x2="557.18" y2="791.42" xlink:href="#linear-gradient-112"/><linearGradient id="linear-gradient-114" x1="7325.07" y1="-6242.52" x2="7342.96" y2="-6228.93" gradientTransform="matrix(-0.94, 0.33, -0.32, -0.96, 5254.24, -7592.84)" gradientUnits="userSpaceOnUse"><stop offset="0" stop-color="#ffd0b0"/><stop offset="1" stop-color="#fff"/></linearGradient><linearGradient id="linear-gradient-115" x1="144.12" y1="387.28" x2="161.58" y2="131.69" gradientTransform="matrix(0.99, -0.17, 0.17, 0.99, 600.13, 508.28)" xlink:href="#linear-gradient"/><linearGradient id="linear-gradient-116" x1="593.23" y1="886.75" x2="563.67" y2="863.02" xlink:href="#linear-gradient-112"/><linearGradient id="linear-gradient-117" x1="554.75" y1="854.39" x2="520.27" y2="825.73" xlink:href="#linear-gradient-112"/><linearGradient id="linear-gradient-118" x1="516.36" y1="827.79" x2="483.22" y2="794.21" xlink:href="#linear-gradient-112"/><linearGradient id="linear-gradient-119" x1="476.36" y1="793.97" x2="445.91" y2="760.38" xlink:href="#linear-gradient-112"/><linearGradient id="linear-gradient-120" x1="490.55" y1="727.57" x2="508.45" y2="741.16" gradientTransform="matrix(1, 0, 0, 1, 0, 0)" xlink:href="#linear-gradient-114"/><linearGradient id="linear-gradient-121" x1="528.83" y1="759.21" x2="546.72" y2="772.8" gradientTransform="matrix(1, 0, 0, 1, 0, 0)" xlink:href="#linear-gradient-114"/><linearGradient id="linear-gradient-122" x1="570.82" y1="788.72" x2="588.72" y2="802.31" gradientTransform="matrix(1, 0, 0, 1, 0, 0)" xlink:href="#linear-gradient-114"/><linearGradient id="linear-gradient-123" x1="602.17" y1="831.54" x2="620.07" y2="845.13" gradientTransform="matrix(1, 0, 0, 1, 0, 0)" xlink:href="#linear-gradient-114"/></defs><g id="Livello_2" data-name="Livello 2"><g id="Layer_4" data-name="Layer 4"><path class="cls-1" d="M565.78,1293.12,850,207.58A79.59,79.59,0,0,1,940.1,149l489.26,79.21c43.88,7.1,72.68,50.89,61.74,93.87L1199.48,1467.72a70.64,70.64,0,0,1-87.27,50.82L620.26,1386.43C579.73,1375.54,555.2,1333.54,565.78,1293.12Z"/><path class="cls-2" d="M545.13,1280.4,849.24,206.35a79.6,79.6,0,0,1,90.16-58.56l481.75,53.12c43.88,7.1,80.18,77,69.24,120L1198.78,1466.49a70.63,70.63,0,0,1-87.27,50.82L619.56,1385.2C579,1374.32,534.55,1320.82,545.13,1280.4Z"/><path class="cls-3" d="M544.29,1258.56,828.46,173a79.61,79.61,0,0,1,90.16-58.57l489.26,79.21c43.87,7.11,72.67,50.9,61.73,93.87L1178,1433.16a70.64,70.64,0,0,1-87.27,50.83L598.78,1351.88C558.24,1341,533.71,1299,544.29,1258.56Z"/><path class="cls-4" d="M1453.55,219.6a75.8,75.8,0,0,1,13.54,64.8L1175.47,1430a70.64,70.64,0,0,1-87.27,50.82L596.26,1348.73a76.36,76.36,0,0,1-37.69-23.49,76.42,76.42,0,0,0,40.21,26.64L1090.72,1484a70.64,70.64,0,0,0,87.27-50.83L1469.61,287.54A75.93,75.93,0,0,0,1453.55,219.6Z"/><path class="cls-5" d="M1436.64,278.42,1145.05,1424a37.38,37.38,0,0,1-36.21,28.25,39.74,39.74,0,0,1-10-1.31L608.27,1319.16c-10.15-2.74-19.45-8.74-25.3-17.58a41.24,41.24,0,0,1-5.74-33.67l95.66-365.6L861.34,182.37a46.48,46.48,0,0,1,44.91-34.7,49.47,49.47,0,0,1,7.66.57l126.94,20.6a6.75,6.75,0,0,1,5.39,8.68l-5.16,16.32a19.3,19.3,0,0,0,15,24.71l162.3,28.54a20.17,20.17,0,0,0,22.3-12.39l8.36-21,.1-.23a13.7,13.7,0,0,1,15-8.5l137.68,22.31A43,43,0,0,1,1430,244.06,40.9,40.9,0,0,1,1436.64,278.42Z"/><path class="cls-6" d="M1323.86,462.93c5.45,263.72-202.46,477.45-464.33,477.45a475.84,475.84,0,0,1-186.64-38.07L861.34,182.37a46.48,46.48,0,0,1,44.91-34.7,49.47,49.47,0,0,1,7.66.57l126.94,20.6a6.75,6.75,0,0,1,5.39,8.68l-5.16,16.32a19.3,19.3,0,0,0,15,24.71l162.3,28.54a20.17,20.17,0,0,0,22.3-12.39l8.36-21A485.28,485.28,0,0,1,1323.86,462.93Z"/><polygon class="cls-7" points="816.93 237.18 629.84 332.75 1285.87 477.88 1422.59 347.34 816.93 237.18"/><polygon class="cls-8" points="816.93 237.18 629.84 332.75 731.52 355.24 899.57 252.92 816.93 237.18"/><polygon class="cls-9" points="986.74 268.66 823.91 375.68 723.38 353.44 903.31 252.89 986.74 268.66"/><polygon class="cls-10" points="1073.91 284.39 916.3 396.12 816.93 374.14 989.68 268.6 1073.91 284.39"/><polygon class="cls-11" points="1161.08 300.13 1008.7 416.56 910.48 394.83 1076.05 284.31 1161.08 300.13"/><polygon class="cls-12" points="1248.25 315.87 1101.09 437 1004.03 415.53 1162.43 300.02 1248.25 315.87"/><polygon class="cls-13" points="1335.42 331.6 1193.48 457.44 1097.58 436.22 1248.8 315.73 1335.42 331.6"/><polygon class="cls-14" points="1422.59 347.34 1285.87 477.88 1191.13 456.92 1335.17 331.44 1422.59 347.34"/><path class="cls-15" d="M622,470.08l4,.88c25.9,5.73,49.39-6,59.67-29.93l37.7-87.59-93.54-20.69-36.08,83.78C585,437,599.81,465.16,622,470.08Z"/><path class="cls-16" d="M715.56,490.12l4,.89c25.9,5.73,49.39-6.06,59.66-29.93l37.71-87.59-93.55-20.7-36.07,83.79C678.5,457.05,693.35,485.21,715.56,490.12Z"/><path class="cls-17" d="M809.11,510.17l4,.88c25.89,5.73,49.38-6.05,59.66-29.93l37.71-87.58-93.55-20.7-36.07,83.79C772.05,477.1,786.9,505.26,809.11,510.17Z"/><path class="cls-18" d="M902.66,530.22l4,.88c25.89,5.73,49.38-6.05,59.66-29.93L1004,413.58l-93.55-20.69-36.07,83.78C865.6,497.15,880.45,525.3,902.66,530.22Z"/><path class="cls-19" d="M996.21,550.26l4,.89c25.9,5.73,49.39-6.06,59.67-29.93l37.71-87.59L1004,412.94,968,496.72C959.15,517.19,974,545.35,996.21,550.26Z"/><path class="cls-20" d="M1089.75,570.31l4,.89c25.9,5.72,49.39-6.06,59.67-29.93l37.71-87.59L1097.58,433l-36.07,83.79C1052.69,537.24,1067.55,565.4,1089.75,570.31Z"/><path class="cls-21" d="M1183.3,590.36l4,.88c25.9,5.73,49.39-6,59.67-29.93l37.7-87.59L1191.13,453l-36.07,83.78C1146.24,557.29,1161.1,585.45,1183.3,590.36Z"/><g class="cls-22"><ellipse class="cls-23" cx="1592.27" cy="968.86" rx="327.58" ry="103.67" transform="translate(-1.4 2.31) rotate(-0.08)"/><ellipse class="cls-24" cx="1592.27" cy="968.86" rx="319.15" ry="101" transform="translate(-1.4 2.31) rotate(-0.08)"/><ellipse class="cls-25" cx="1592.27" cy="968.86" rx="310.71" ry="98.33" transform="translate(-1.4 2.31) rotate(-0.08)"/><ellipse class="cls-26" cx="1592.27" cy="968.86" rx="302.27" ry="95.66" transform="translate(-1.4 2.31) rotate(-0.08)"/><ellipse class="cls-27" cx="1592.26" cy="968.86" rx="293.83" ry="92.99" transform="translate(-1.4 2.31) rotate(-0.08)"/><ellipse class="cls-28" cx="1592.26" cy="968.86" rx="285.39" ry="90.32" transform="translate(-1.4 2.31) rotate(-0.08)"/><ellipse class="cls-29" cx="1592.26" cy="968.86" rx="276.95" ry="87.65" transform="translate(-1.4 2.31) rotate(-0.08)"/><ellipse class="cls-30" cx="1592.26" cy="968.86" rx="268.52" ry="84.98" transform="translate(-1.4 2.31) rotate(-0.08)"/><ellipse class="cls-31" cx="1592.26" cy="968.86" rx="260.08" ry="82.31" transform="translate(-1.4 2.31) rotate(-0.08)"/><ellipse class="cls-32" cx="1592.26" cy="968.86" rx="251.64" ry="79.64" transform="translate(-1.4 2.31) rotate(-0.08)"/><ellipse class="cls-33" cx="1592.26" cy="968.86" rx="243.2" ry="76.97" transform="translate(-1.4 2.31) rotate(-0.08)"/><ellipse class="cls-34" cx="1592.26" cy="968.86" rx="234.76" ry="74.3" transform="translate(-1.4 2.31) rotate(-0.08)"/><ellipse class="cls-35" cx="1592.26" cy="968.86" rx="226.33" ry="71.63" transform="translate(-1.4 2.31) rotate(-0.08)"/><ellipse class="cls-36" cx="1592.26" cy="968.86" rx="217.89" ry="68.96" transform="translate(-1.4 2.31) rotate(-0.08)"/><ellipse class="cls-37" cx="1592.26" cy="968.86" rx="209.45" ry="66.29" transform="translate(-1.4 2.31) rotate(-0.08)"/><ellipse class="cls-38" cx="1592.26" cy="968.86" rx="201.01" ry="63.62" transform="translate(-1.4 2.31) rotate(-0.08)"/><ellipse class="cls-39" cx="1592.26" cy="968.86" rx="192.57" ry="60.95" transform="translate(-1.4 2.31) rotate(-0.08)"/><ellipse class="cls-40" cx="1592.26" cy="968.86" rx="184.13" ry="58.28" transform="translate(-1.41 2.31) rotate(-0.08)"/><ellipse class="cls-41" cx="1592.26" cy="968.86" rx="175.7" ry="55.6" transform="translate(-1.41 2.31) rotate(-0.08)"/><ellipse class="cls-42" cx="1592.26" cy="968.86" rx="167.26" ry="52.93" transform="translate(-1.41 2.31) rotate(-0.08)"/><ellipse class="cls-43" cx="1592.26" cy="968.86" rx="158.82" ry="50.26" transform="translate(-1.41 2.31) rotate(-0.08)"/><ellipse class="cls-44" cx="1592.26" cy="968.86" rx="150.38" ry="47.59" transform="translate(-1.41 2.32) rotate(-0.08)"/><ellipse class="cls-45" cx="1592.26" cy="968.86" rx="141.94" ry="44.92" transform="translate(-1.41 2.32) rotate(-0.08)"/><ellipse class="cls-46" cx="1592.26" cy="968.86" rx="133.5" ry="42.25" transform="translate(-1.41 2.32) rotate(-0.08)"/><ellipse class="cls-47" cx="1592.26" cy="968.86" rx="125.07" ry="39.58" transform="translate(-1.41 2.32) rotate(-0.08)"/><ellipse class="cls-48" cx="1592.26" cy="968.86" rx="116.63" ry="36.91" transform="translate(-1.41 2.32) rotate(-0.08)"/><ellipse class="cls-49" cx="1592.26" cy="968.86" rx="108.19" ry="34.24" transform="translate(-1.41 2.32) rotate(-0.08)"/></g><g class="cls-50"><ellipse class="cls-23" cx="1252.92" cy="901.19" rx="327.58" ry="103.67" transform="translate(-1.3 1.82) rotate(-0.08)"/><ellipse class="cls-24" cx="1252.92" cy="901.19" rx="319.15" ry="101" transform="translate(-1.3 1.82) rotate(-0.08)"/><ellipse class="cls-25" cx="1252.92" cy="901.19" rx="310.71" ry="98.33" transform="translate(-1.3 1.82) rotate(-0.08)"/><ellipse class="cls-26" cx="1252.92" cy="901.19" rx="302.27" ry="95.66" transform="translate(-1.3 1.82) rotate(-0.08)"/><ellipse class="cls-27" cx="1252.92" cy="901.19" rx="293.83" ry="92.99" transform="translate(-1.3 1.82) rotate(-0.08)"/><ellipse class="cls-28" cx="1252.92" cy="901.19" rx="285.39" ry="90.32" transform="translate(-1.3 1.82) rotate(-0.08)"/><ellipse class="cls-29" cx="1252.92" cy="901.19" rx="276.95" ry="87.65" transform="translate(-1.3 1.82) rotate(-0.08)"/><ellipse class="cls-30" cx="1252.92" cy="901.19" rx="268.52" ry="84.98" transform="translate(-1.3 1.82) rotate(-0.08)"/><ellipse class="cls-31" cx="1252.92" cy="901.19" rx="260.08" ry="82.31" transform="translate(-1.31 1.82) rotate(-0.08)"/><ellipse class="cls-32" cx="1252.92" cy="901.19" rx="251.64" ry="79.64" transform="translate(-1.31 1.82) rotate(-0.08)"/><ellipse class="cls-33" cx="1252.92" cy="901.19" rx="243.2" ry="76.97" transform="translate(-1.31 1.82) rotate(-0.08)"/><ellipse class="cls-34" cx="1252.92" cy="901.19" rx="234.76" ry="74.3" transform="translate(-1.31 1.82) rotate(-0.08)"/><ellipse class="cls-35" cx="1252.92" cy="901.19" rx="226.33" ry="71.63" transform="translate(-1.31 1.82) rotate(-0.08)"/><ellipse class="cls-36" cx="1252.92" cy="901.19" rx="217.89" ry="68.96" transform="translate(-1.31 1.82) rotate(-0.08)"/><ellipse class="cls-37" cx="1252.92" cy="901.19" rx="209.45" ry="66.29" transform="translate(-1.31 1.82) rotate(-0.08)"/><ellipse class="cls-38" cx="1252.92" cy="901.19" rx="201.01" ry="63.62" transform="translate(-1.31 1.82) rotate(-0.08)"/><ellipse class="cls-39" cx="1252.92" cy="901.19" rx="192.57" ry="60.95" transform="translate(-1.31 1.82) rotate(-0.08)"/><ellipse class="cls-40" cx="1252.92" cy="901.19" rx="184.13" ry="58.28" transform="matrix(1, 0, 0, 1, -1.31, 1.82)"/><ellipse class="cls-41" cx="1252.92" cy="901.19" rx="175.7" ry="55.6" transform="translate(-1.31 1.82) rotate(-0.08)"/><ellipse class="cls-42" cx="1252.92" cy="901.19" rx="167.26" ry="52.93" transform="translate(-1.31 1.82) rotate(-0.08)"/><ellipse class="cls-43" cx="1252.92" cy="901.19" rx="158.82" ry="50.26" transform="translate(-1.31 1.82) rotate(-0.08)"/><ellipse class="cls-44" cx="1252.92" cy="901.19" rx="150.38" ry="47.59" transform="translate(-1.31 1.82) rotate(-0.08)"/><ellipse class="cls-45" cx="1252.92" cy="901.19" rx="141.94" ry="44.92" transform="translate(-1.31 1.82) rotate(-0.08)"/><ellipse class="cls-46" cx="1252.92" cy="901.19" rx="133.5" ry="42.25" transform="translate(-1.31 1.82) rotate(-0.08)"/><ellipse class="cls-47" cx="1252.92" cy="901.19" rx="125.07" ry="39.58" transform="translate(-1.31 1.82) rotate(-0.08)"/><ellipse class="cls-48" cx="1252.92" cy="901.19" rx="116.63" ry="36.91" transform="translate(-1.31 1.82) rotate(-0.08)"/><ellipse class="cls-49" cx="1252.92" cy="901.19" rx="108.19" ry="34.24" transform="translate(-1.31 1.82) rotate(-0.08)"/></g><path class="cls-51" d="M1241.42,558.25l448.87,95.23a36,36,0,0,1,27.65,44.33l-79,303.78a27.35,27.35,0,0,1-32.5,19.8L1154.05,914.54a37.86,37.86,0,0,1-28.26-46.63l76.74-285.52A33.35,33.35,0,0,1,1241.42,558.25Z"/><path class="cls-52" d="M1237.4,551.56l448.88,95.22a36,36,0,0,1,27.64,44.33l-79,303.78a27.37,27.37,0,0,1-32.51,19.8L1150,907.85a37.88,37.88,0,0,1-28.27-46.64l76.74-285.52A33.34,33.34,0,0,1,1237.4,551.56Z"/><polygon class="cls-53" points="1183.49 631.56 1699.13 747.98 1681.48 815.79 1164.82 701.05 1183.49 631.56"/><path class="cls-54" d="M1585.53,923.51l-79-17.78a11.27,11.27,0,0,1-8.7-14l14.41-52.32a12.63,12.63,0,0,1,14.93-8.66l79.05,17.79a11.27,11.27,0,0,1,8.7,14l-14.4,52.31A12.64,12.64,0,0,1,1585.53,923.51Z"/><g class="cls-55"><path class="cls-56" d="M1609.93,880.48l-43-9.67a8,8,0,0,1-6.17-9.92l5.85-21.24,3.4.77-5.85,21.23a4.75,4.75,0,0,0,3.67,5.9l43,9.68Z"/><path class="cls-57" d="M1549.36,915.37l-3.4-.76,5.85-21.23a9,9,0,0,1,10.59-6.15l43,9.68-.9,3.25-43-9.67a5.34,5.34,0,0,0-6.3,3.65Z"/><path class="cls-58" d="M1527.21,896.58l-29-6.52.89-3.26,29,6.52a5.74,5.74,0,0,0,6.78-3.93l8.5-30.89a5.12,5.12,0,0,0-3.94-6.34l-29-6.52.89-3.25,29,6.51a8.37,8.37,0,0,1,6.45,10.37l-8.5,30.88A9.4,9.4,0,0,1,1527.21,896.58Z"/></g><g class="cls-59"><path class="cls-60" d="M1357.38,807.63l-143.64-34a6.16,6.16,0,0,1-4.56-7.65h0a6.72,6.72,0,0,1,8-4.7l143.64,34a6.16,6.16,0,0,1,4.56,7.65h0A6.72,6.72,0,0,1,1357.38,807.63Z"/><path class="cls-60" d="M1393.83,641.37l-143.63-34a6.17,6.17,0,0,1-4.57-7.65h0a6.74,6.74,0,0,1,8-4.7l143.63,34a6.16,6.16,0,0,1,4.57,7.65h0A6.73,6.73,0,0,1,1393.83,641.37Z"/><path class="cls-60" d="M1350.26,833.57l-143.64-34a6.16,6.16,0,0,1-4.56-7.65h0a6.72,6.72,0,0,1,8-4.7l143.64,34a6.15,6.15,0,0,1,4.56,7.65h0A6.72,6.72,0,0,1,1350.26,833.57Z"/><path class="cls-60" d="M1343.14,859.51l-143.63-34a6.16,6.16,0,0,1-4.57-7.65h0a6.73,6.73,0,0,1,8-4.7l143.63,34a6.15,6.15,0,0,1,4.56,7.65h0A6.72,6.72,0,0,1,1343.14,859.51Z"/><path class="cls-60" d="M1295,875.75l-102.65-24.28a6.17,6.17,0,0,1-4.57-7.66h0a6.72,6.72,0,0,1,8-4.69l102.65,24.28a6.17,6.17,0,0,1,4.57,7.66h0A6.72,6.72,0,0,1,1295,875.75Z"/><path class="cls-60" d="M1672.91,703.83l-102.66-24.28a6.17,6.17,0,0,1-4.56-7.66h0a6.7,6.7,0,0,1,8-4.69l102.66,24.28a6.15,6.15,0,0,1,4.56,7.65h0A6.72,6.72,0,0,1,1672.91,703.83Z"/></g><g class="cls-50"><ellipse class="cls-23" cx="1202.38" cy="1225.48" rx="241.16" ry="76.32" transform="translate(-1.78 1.75) rotate(-0.08)"/><ellipse class="cls-24" cx="1202.38" cy="1225.48" rx="234.95" ry="74.36" transform="translate(-1.78 1.75) rotate(-0.08)"/><ellipse class="cls-25" cx="1202.38" cy="1225.48" rx="228.74" ry="72.39" transform="translate(-1.78 1.75) rotate(-0.08)"/><ellipse class="cls-26" cx="1202.38" cy="1225.48" rx="222.52" ry="70.42" transform="translate(-1.78 1.75) rotate(-0.08)"/><ellipse class="cls-27" cx="1202.38" cy="1225.48" rx="216.31" ry="68.46" transform="translate(-1.78 1.75) rotate(-0.08)"/><ellipse class="cls-28" cx="1202.38" cy="1225.48" rx="210.1" ry="66.49" transform="translate(-1.78 1.75) rotate(-0.08)"/><ellipse class="cls-29" cx="1202.38" cy="1225.48" rx="203.89" ry="64.53" transform="translate(-1.78 1.75) rotate(-0.08)"/><ellipse class="cls-30" cx="1202.38" cy="1225.48" rx="197.68" ry="62.56" transform="translate(-1.78 1.75) rotate(-0.08)"/><ellipse class="cls-31" cx="1202.38" cy="1225.48" rx="191.46" ry="60.6" transform="translate(-1.78 1.75) rotate(-0.08)"/><ellipse class="cls-32" cx="1202.38" cy="1225.48" rx="185.25" ry="58.63" transform="translate(-1.78 1.75) rotate(-0.08)"/><ellipse class="cls-33" cx="1202.38" cy="1225.48" rx="179.04" ry="56.66" transform="translate(-1.78 1.75) rotate(-0.08)"/><ellipse class="cls-34" cx="1202.38" cy="1225.48" rx="172.83" ry="54.7" transform="translate(-1.78 1.75) rotate(-0.08)"/><ellipse class="cls-35" cx="1202.38" cy="1225.48" rx="166.62" ry="52.73" transform="matrix(1, 0, 0, 1, -1.78, 1.75)"/><ellipse class="cls-36" cx="1202.38" cy="1225.48" rx="160.4" ry="50.76" transform="translate(-1.78 1.75) rotate(-0.08)"/><ellipse class="cls-37" cx="1202.38" cy="1225.48" rx="154.19" ry="48.8" transform="translate(-1.78 1.75) rotate(-0.08)"/><ellipse class="cls-38" cx="1202.38" cy="1225.48" rx="147.98" ry="46.83" transform="translate(-1.78 1.75) rotate(-0.08)"/><ellipse class="cls-39" cx="1202.38" cy="1225.48" rx="141.77" ry="44.87" transform="translate(-1.78 1.75) rotate(-0.08)"/><ellipse class="cls-40" cx="1202.38" cy="1225.48" rx="135.55" ry="42.9" transform="translate(-1.78 1.75) rotate(-0.08)"/><ellipse class="cls-41" cx="1202.38" cy="1225.48" rx="129.34" ry="40.93" transform="translate(-1.78 1.75) rotate(-0.08)"/><ellipse class="cls-42" cx="1202.38" cy="1225.48" rx="123.13" ry="38.97" transform="translate(-1.78 1.75) rotate(-0.08)"/><ellipse class="cls-43" cx="1202.38" cy="1225.48" rx="116.92" ry="37" transform="translate(-1.78 1.75) rotate(-0.08)"/><ellipse class="cls-44" cx="1202.38" cy="1225.48" rx="110.71" ry="35.04" transform="translate(-1.78 1.75) rotate(-0.08)"/><ellipse class="cls-45" cx="1202.38" cy="1225.48" rx="104.49" ry="33.07" transform="translate(-1.78 1.75) rotate(-0.08)"/><ellipse class="cls-46" cx="1202.38" cy="1225.48" rx="98.28" ry="31.1" transform="translate(-1.78 1.75) rotate(-0.08)"/><ellipse class="cls-47" cx="1202.38" cy="1225.48" rx="92.07" ry="29.14" transform="translate(-1.78 1.75) rotate(-0.08)"/><ellipse class="cls-48" cx="1202.38" cy="1225.48" rx="85.86" ry="27.17" transform="translate(-1.78 1.75) rotate(-0.08)"/><ellipse class="cls-49" cx="1202.38" cy="1225.48" rx="79.65" ry="25.21" transform="translate(-1.78 1.75) rotate(-0.08)"/></g><path class="cls-61" d="M1016.1,1001.79l383.84,96c14.83,3.51,24.08,18.7,20.27,33.28l-33.15,137.82a19.39,19.39,0,0,1-23.83,13.82L976.86,1181.05c-15.35-4-24.75-19.84-20.72-35l31.45-127.41A23.62,23.62,0,0,1,1016.1,1001.79Z"/><path class="cls-62" d="M1013.16,996.77l383.84,96a27.42,27.42,0,0,1,20.27,33.28l-33.15,137.82a19.4,19.4,0,0,1-23.84,13.82L973.91,1176c-15.34-4-24.75-19.85-20.72-35l31.46-127.41A23.62,23.62,0,0,1,1013.16,996.77Z"/><path class="cls-63" d="M646.19,322.43a190.14,190.14,0,0,1-20.11,25.77c-74.09,80-204.9,91-204.9,91-54.54-40.64-109.68-101.1-123.36-157.07-22.63-92.62,25.85-179.2,25.85-179.2l17.07-4.2,32.46-8a293,293,0,0,0,85.36-36.44l49.82-31.21,3-1.86,9.7,10.65L545.78,59a258.56,258.56,0,0,0,83.45,61l56.32,25.77S713.26,219,646.19,322.43Z"/><path class="cls-64" d="M651,301.19A190.67,190.67,0,0,1,630.86,327C556.77,406.94,426,418,426,418,371.42,377.31,316.28,316.84,302.6,260.88,280,168.25,328.45,81.68,328.45,81.68l17.07-4.2,32.46-8a293,293,0,0,0,85.36-36.44L513.16,1.86l3-1.86,9.7,10.65,24.71,27.12a258.39,258.39,0,0,0,83.45,61l56.32,25.77S718,197.72,651,301.19Z"/><path class="cls-65" d="M633.36,289.33a169.85,169.85,0,0,1-17.93,23c-14.94,16.13-32.45,29.24-50.74,39.88-52.93,30.84-112.17,41-133.12,43.72-56-43.39-98.3-97.64-108.61-139.77-16.73-68.42,9.67-134.18,20-156.1l40.35-9.89A311.3,311.3,0,0,0,471,53.34c1.2-.69,2.39-1.42,3.57-2.17l38.13-23.88L535.27,52a279.06,279.06,0,0,0,90.38,66.06l47.12,21.57C676.86,159.6,681.53,215,633.36,289.33Z"/><path class="cls-60" d="M478.27,136.7C433,145.42,400,188.27,404.72,232.42s45.22,72.87,90.53,64.16S573.49,245,568.8,200.86,523.58,128,478.27,136.7Zm15.6,146.93c-38,7.31-71.94-16.76-75.86-53.76s23.66-72.92,61.63-80.23,71.94,16.77,75.87,53.77S531.85,276.33,493.87,283.63Z"/><polygon class="cls-60" points="453.19 201.58 477.7 250.29 536.2 203.9 528.75 192.98 484.27 226.8 466.83 193.1 453.19 201.58"/><path class="cls-66" d="M633.36,289.33a169.85,169.85,0,0,1-17.93,23c-14.94,16.13-32.45,29.24-50.74,39.88-45.79-45.07-80.2-111-92.59-187.47A361.63,361.63,0,0,1,471,53.34c1.2-.69,2.39-1.42,3.57-2.17l38.13-23.88L535.27,52a279.06,279.06,0,0,0,90.38,66.06l47.12,21.57C676.86,159.6,681.53,215,633.36,289.33Z"/><g class="cls-67"><ellipse class="cls-23" cx="1452.92" cy="1782.63" rx="528.92" ry="155.55"/><ellipse class="cls-24" cx="1452.92" cy="1782.63" rx="518.22" ry="152.4"/><ellipse class="cls-25" cx="1452.92" cy="1782.63" rx="507.51" ry="149.26"/><ellipse class="cls-26" cx="1452.92" cy="1782.63" rx="496.8" ry="146.11"/><ellipse class="cls-27" cx="1452.92" cy="1782.63" rx="486.09" ry="142.96"/><ellipse class="cls-28" cx="1452.92" cy="1782.63" rx="475.39" ry="139.81"/><ellipse class="cls-29" cx="1452.92" cy="1782.63" rx="464.68" ry="136.66"/><ellipse class="cls-30" cx="1452.92" cy="1782.63" rx="453.97" ry="133.51"/><ellipse class="cls-31" cx="1452.92" cy="1782.63" rx="443.27" ry="130.36"/><ellipse class="cls-32" cx="1452.92" cy="1782.63" rx="432.56" ry="127.21"/><ellipse class="cls-33" cx="1452.92" cy="1782.63" rx="421.85" ry="124.06"/><ellipse class="cls-34" cx="1452.92" cy="1782.63" rx="411.14" ry="120.92"/><ellipse class="cls-35" cx="1452.92" cy="1782.63" rx="400.44" ry="117.77"/><ellipse class="cls-36" cx="1452.92" cy="1782.63" rx="389.73" ry="114.62"/><ellipse class="cls-37" cx="1452.92" cy="1782.63" rx="379.02" ry="111.47"/><ellipse class="cls-38" cx="1452.92" cy="1782.63" rx="368.32" ry="108.32"/><ellipse class="cls-39" cx="1452.92" cy="1782.63" rx="357.61" ry="105.17"/><ellipse class="cls-40" cx="1452.92" cy="1782.63" rx="346.9" ry="102.02"/><ellipse class="cls-41" cx="1452.92" cy="1782.63" rx="336.19" ry="98.87"/><ellipse class="cls-42" cx="1452.92" cy="1782.63" rx="325.49" ry="95.72"/><ellipse class="cls-43" cx="1452.92" cy="1782.63" rx="314.78" ry="92.58"/><ellipse class="cls-44" cx="1452.92" cy="1782.63" rx="304.07" ry="89.43"/><ellipse class="cls-45" cx="1452.92" cy="1782.63" rx="293.36" ry="86.28"/><ellipse class="cls-46" cx="1452.92" cy="1782.63" rx="282.66" ry="83.13"/><ellipse class="cls-47" cx="1452.92" cy="1782.63" rx="271.95" ry="79.98"/><ellipse class="cls-48" cx="1452.92" cy="1782.63" rx="261.24" ry="76.83"/><ellipse class="cls-49" cx="1452.92" cy="1782.63" rx="250.54" ry="73.68"/></g><polygon class="cls-68" points="1305.15 1451.11 1642.58 1523.84 1642.58 1751.83 1305.15 1668.93 1305.15 1451.11"/><polygon class="cls-69" points="1642.58 1523.84 1851.89 1446.89 1851.89 1658.9 1642.58 1751.83 1642.58 1523.84"/><polygon class="cls-70" points="1642.58 1523.84 1851.89 1446.89 1497.4 1380.35 1305.15 1451.03 1642.58 1523.84"/><polygon class="cls-71" points="1392.54 1418.9 1732.22 1490.88 1778.13 1474.01 1431.69 1404.5 1392.54 1418.9"/><polygon class="cls-71" points="1732.22 1490.88 1778.13 1474.01 1778.13 1515.4 1732.22 1532.28 1732.22 1490.88"/><polygon class="cls-72" points="1090.13 1543.19 1427.56 1615.92 1427.56 1843.91 1090.13 1761.01 1090.13 1543.19"/><polygon class="cls-73" points="1427.56 1615.92 1636.87 1538.97 1636.87 1750.98 1427.56 1843.91 1427.56 1615.92"/><polygon class="cls-74" points="1427.56 1615.92 1636.87 1538.97 1282.38 1472.43 1090.13 1543.11 1427.56 1615.92"/><polygon class="cls-71" points="1177.52 1510.98 1517.2 1582.97 1563.11 1566.09 1216.67 1496.59 1177.52 1510.98"/><polygon class="cls-71" points="1517.2 1582.97 1563.11 1566.09 1563.11 1607.48 1517.2 1624.36 1517.2 1582.97"/><polygon class="cls-75" points="1182.25 1292.61 1508.22 1362.87 1508.22 1583.12 1182.25 1503.04 1182.25 1292.61"/><polygon class="cls-76" points="1508.22 1362.87 1710.42 1288.53 1710.42 1493.35 1508.22 1583.12 1508.22 1362.87"/><polygon class="cls-77" points="1508.22 1362.87 1710.42 1288.53 1367.97 1224.25 1182.25 1292.53 1508.22 1362.87"/><polygon class="cls-71" points="1266.67 1261.49 1594.82 1331.03 1639.17 1314.73 1304.49 1247.59 1266.67 1261.49"/><polygon class="cls-71" points="1594.82 1331.03 1639.17 1314.73 1639.17 1354.72 1594.82 1371.03 1594.82 1331.03"/><g class="cls-78"><ellipse class="cls-23" cx="999.53" cy="1707.46" rx="290.51" ry="122.35" transform="translate(-2.47 1.45) rotate(-0.08)"/><ellipse class="cls-24" cx="999.53" cy="1707.46" rx="283.03" ry="119.2" transform="translate(-2.47 1.45) rotate(-0.08)"/><ellipse class="cls-25" cx="999.53" cy="1707.46" rx="275.54" ry="116.05" transform="translate(-2.47 1.45) rotate(-0.08)"/><ellipse class="cls-26" cx="999.53" cy="1707.46" rx="268.06" ry="112.9" transform="translate(-2.47 1.45) rotate(-0.08)"/><ellipse class="cls-27" cx="999.53" cy="1707.46" rx="260.58" ry="109.75" transform="translate(-2.47 1.45) rotate(-0.08)"/><ellipse class="cls-28" cx="999.53" cy="1707.46" rx="253.09" ry="106.59" transform="translate(-2.47 1.45) rotate(-0.08)"/><ellipse class="cls-29" cx="999.53" cy="1707.46" rx="245.61" ry="103.44" transform="translate(-2.48 1.45) rotate(-0.08)"/><ellipse class="cls-30" cx="999.53" cy="1707.46" rx="238.13" ry="100.29" transform="translate(-2.48 1.45) rotate(-0.08)"/><ellipse class="cls-31" cx="999.53" cy="1707.46" rx="230.64" ry="97.14" transform="translate(-2.48 1.45) rotate(-0.08)"/><ellipse class="cls-32" cx="999.53" cy="1707.46" rx="223.16" ry="93.99" transform="translate(-2.48 1.45) rotate(-0.08)"/><ellipse class="cls-33" cx="999.53" cy="1707.46" rx="215.68" ry="90.84" transform="translate(-2.48 1.45) rotate(-0.08)"/><ellipse class="cls-34" cx="999.53" cy="1707.46" rx="208.2" ry="87.68" transform="translate(-2.48 1.45) rotate(-0.08)"/><ellipse class="cls-35" cx="999.53" cy="1707.46" rx="200.71" ry="84.53" transform="translate(-2.48 1.45) rotate(-0.08)"/><ellipse class="cls-36" cx="999.53" cy="1707.46" rx="193.23" ry="81.38" transform="translate(-2.48 1.45) rotate(-0.08)"/><ellipse class="cls-37" cx="999.53" cy="1707.46" rx="185.75" ry="78.23" transform="translate(-2.48 1.45) rotate(-0.08)"/><ellipse class="cls-38" cx="999.53" cy="1707.46" rx="178.26" ry="75.08" transform="translate(-2.48 1.45) rotate(-0.08)"/><ellipse class="cls-39" cx="999.53" cy="1707.46" rx="170.78" ry="71.93" transform="translate(-2.48 1.45) rotate(-0.08)"/><ellipse class="cls-40" cx="999.53" cy="1707.46" rx="163.3" ry="68.77" transform="translate(-2.48 1.45) rotate(-0.08)"/><ellipse class="cls-41" cx="999.53" cy="1707.46" rx="155.81" ry="65.62" transform="translate(-2.48 1.45) rotate(-0.08)"/><ellipse class="cls-42" cx="999.53" cy="1707.46" rx="148.33" ry="62.47" transform="translate(-2.48 1.45) rotate(-0.08)"/><ellipse class="cls-43" cx="999.53" cy="1707.46" rx="140.85" ry="59.32" transform="translate(-2.48 1.45) rotate(-0.08)"/><ellipse class="cls-44" cx="999.53" cy="1707.46" rx="133.36" ry="56.17" transform="translate(-2.48 1.46) rotate(-0.08)"/><ellipse class="cls-45" cx="999.53" cy="1707.46" rx="125.88" ry="53.02" transform="translate(-2.48 1.46) rotate(-0.08)"/><ellipse class="cls-46" cx="999.53" cy="1707.46" rx="118.4" ry="49.86" transform="translate(-2.48 1.46) rotate(-0.08)"/><ellipse class="cls-47" cx="999.53" cy="1707.46" rx="110.91" ry="46.71" transform="translate(-2.49 1.46) rotate(-0.08)"/><ellipse class="cls-48" cx="999.53" cy="1707.46" rx="103.43" ry="43.56" transform="translate(-2.49 1.46) rotate(-0.08)"/><ellipse class="cls-49" cx="999.53" cy="1707.46" rx="95.95" ry="40.41" transform="translate(-2.49 1.46) rotate(-0.08)"/></g><g class="cls-79"><ellipse class="cls-23" cx="1100.2" cy="1308.32" rx="290.51" ry="91.94" transform="translate(-1.9 1.6) rotate(-0.08)"/><ellipse class="cls-24" cx="1100.2" cy="1308.32" rx="283.03" ry="89.57" transform="translate(-1.9 1.6) rotate(-0.08)"/><ellipse class="cls-25" cx="1100.2" cy="1308.32" rx="275.54" ry="87.21" transform="translate(-1.9 1.6) rotate(-0.08)"/><ellipse class="cls-26" cx="1100.2" cy="1308.32" rx="268.06" ry="84.84" transform="translate(-1.9 1.6) rotate(-0.08)"/><ellipse class="cls-27" cx="1100.2" cy="1308.32" rx="260.58" ry="82.47" transform="translate(-1.9 1.6) rotate(-0.08)"/><ellipse class="cls-28" cx="1100.2" cy="1308.32" rx="253.09" ry="80.1" transform="translate(-1.9 1.6) rotate(-0.08)"/><ellipse class="cls-29" cx="1100.2" cy="1308.32" rx="245.61" ry="77.73" transform="translate(-1.9 1.6) rotate(-0.08)"/><ellipse class="cls-30" cx="1100.2" cy="1308.32" rx="238.13" ry="75.36" transform="translate(-1.9 1.6) rotate(-0.08)"/><ellipse class="cls-31" cx="1100.2" cy="1308.32" rx="230.64" ry="73" transform="translate(-1.9 1.6) rotate(-0.08)"/><ellipse class="cls-32" cx="1100.2" cy="1308.32" rx="223.16" ry="70.63" transform="translate(-1.9 1.6) rotate(-0.08)"/><ellipse class="cls-33" cx="1100.19" cy="1308.32" rx="215.68" ry="68.26" transform="translate(-1.9 1.6) rotate(-0.08)"/><ellipse class="cls-34" cx="1100.19" cy="1308.32" rx="208.19" ry="65.89" transform="translate(-1.9 1.6) rotate(-0.08)"/><ellipse class="cls-35" cx="1100.19" cy="1308.32" rx="200.71" ry="63.52" transform="translate(-1.9 1.6) rotate(-0.08)"/><ellipse class="cls-36" cx="1100.19" cy="1308.32" rx="193.23" ry="61.15" transform="translate(-1.9 1.6) rotate(-0.08)"/><ellipse class="cls-37" cx="1100.19" cy="1308.32" rx="185.75" ry="58.79" transform="translate(-1.9 1.6) rotate(-0.08)"/><ellipse class="cls-38" cx="1100.19" cy="1308.32" rx="178.26" ry="56.42" transform="translate(-1.9 1.6) rotate(-0.08)"/><ellipse class="cls-39" cx="1100.19" cy="1308.32" rx="170.78" ry="54.05" transform="translate(-1.9 1.6) rotate(-0.08)"/><ellipse class="cls-40" cx="1100.19" cy="1308.32" rx="163.3" ry="51.68" transform="translate(-1.9 1.6) rotate(-0.08)"/><ellipse class="cls-41" cx="1100.19" cy="1308.32" rx="155.81" ry="49.31" transform="matrix(1, 0, 0, 1, -1.9, 1.6)"/><ellipse class="cls-42" cx="1100.19" cy="1308.32" rx="148.33" ry="46.94" transform="translate(-1.9 1.6) rotate(-0.08)"/><ellipse class="cls-43" cx="1100.19" cy="1308.32" rx="140.85" ry="44.58" transform="translate(-1.9 1.6) rotate(-0.08)"/><ellipse class="cls-44" cx="1100.19" cy="1308.32" rx="133.36" ry="42.21" transform="translate(-1.9 1.6) rotate(-0.08)"/><ellipse class="cls-45" cx="1100.19" cy="1308.32" rx="125.88" ry="39.84" transform="translate(-1.9 1.6) rotate(-0.08)"/><ellipse class="cls-46" cx="1100.19" cy="1308.32" rx="118.4" ry="37.47" transform="translate(-1.9 1.6) rotate(-0.08)"/><ellipse class="cls-47" cx="1100.19" cy="1308.32" rx="110.91" ry="35.1" transform="translate(-1.9 1.6) rotate(-0.08)"/><ellipse class="cls-48" cx="1100.19" cy="1308.32" rx="103.43" ry="32.73" transform="translate(-1.9 1.6) rotate(-0.08)"/><ellipse class="cls-49" cx="1100.19" cy="1308.32" rx="95.95" ry="30.37" transform="translate(-1.9 1.6) rotate(-0.08)"/></g><g class="cls-78"><ellipse class="cls-23" cx="828.47" cy="1885.11" rx="290.51" ry="135.17" transform="translate(-2.75 1.21) rotate(-0.08)"/><ellipse class="cls-24" cx="828.47" cy="1885.11" rx="283.03" ry="131.68" transform="translate(-2.75 1.21) rotate(-0.08)"/><ellipse class="cls-25" cx="828.47" cy="1885.11" rx="275.54" ry="128.2" transform="translate(-2.75 1.21) rotate(-0.08)"/><ellipse class="cls-26" cx="828.47" cy="1885.11" rx="268.06" ry="124.72" transform="matrix(1, 0, 0, 1, -2.75, 1.21)"/><ellipse class="cls-27" cx="828.47" cy="1885.11" rx="260.58" ry="121.24" transform="translate(-2.75 1.21) rotate(-0.08)"/><ellipse class="cls-28" cx="828.47" cy="1885.11" rx="253.09" ry="117.76" transform="translate(-2.75 1.21) rotate(-0.08)"/><ellipse class="cls-29" cx="828.47" cy="1885.11" rx="245.61" ry="114.28" transform="matrix(1, 0, 0, 1, -2.75, 1.21)"/><ellipse class="cls-30" cx="828.47" cy="1885.11" rx="238.13" ry="110.79" transform="translate(-2.75 1.21) rotate(-0.08)"/><ellipse class="cls-31" cx="828.47" cy="1885.11" rx="230.64" ry="107.31" transform="translate(-2.75 1.21) rotate(-0.08)"/><ellipse class="cls-32" cx="828.47" cy="1885.11" rx="223.16" ry="103.83" transform="translate(-2.75 1.21) rotate(-0.08)"/><ellipse class="cls-33" cx="828.47" cy="1885.11" rx="215.68" ry="100.35" transform="translate(-2.75 1.21) rotate(-0.08)"/><ellipse class="cls-34" cx="828.47" cy="1885.11" rx="208.19" ry="96.87" transform="translate(-2.75 1.21) rotate(-0.08)"/><ellipse class="cls-35" cx="828.47" cy="1885.11" rx="200.71" ry="93.38" transform="translate(-2.75 1.21) rotate(-0.08)"/><ellipse class="cls-36" cx="828.47" cy="1885.11" rx="193.23" ry="89.9" transform="translate(-2.75 1.21) rotate(-0.08)"/><ellipse class="cls-37" cx="828.47" cy="1885.11" rx="185.75" ry="86.42" transform="translate(-2.75 1.21) rotate(-0.08)"/><ellipse class="cls-38" cx="828.47" cy="1885.11" rx="178.26" ry="82.94" transform="translate(-2.75 1.21) rotate(-0.08)"/><ellipse class="cls-39" cx="828.47" cy="1885.11" rx="170.78" ry="79.46" transform="translate(-2.75 1.21) rotate(-0.08)"/><ellipse class="cls-40" cx="828.47" cy="1885.11" rx="163.3" ry="75.98" transform="translate(-2.75 1.21) rotate(-0.08)"/><ellipse class="cls-41" cx="828.47" cy="1885.11" rx="155.81" ry="72.49" transform="translate(-2.75 1.21) rotate(-0.08)"/><ellipse class="cls-42" cx="828.47" cy="1885.11" rx="148.33" ry="69.01" transform="translate(-2.76 1.21) rotate(-0.08)"/><ellipse class="cls-43" cx="828.47" cy="1885.11" rx="140.85" ry="65.53" transform="translate(-2.76 1.21) rotate(-0.08)"/><ellipse class="cls-44" cx="828.47" cy="1885.11" rx="133.36" ry="62.05" transform="translate(-2.76 1.21) rotate(-0.08)"/><ellipse class="cls-45" cx="828.47" cy="1885.11" rx="125.88" ry="58.57" transform="translate(-2.76 1.21) rotate(-0.08)"/><ellipse class="cls-46" cx="828.47" cy="1885.11" rx="118.4" ry="55.09" transform="translate(-2.76 1.21) rotate(-0.08)"/><ellipse class="cls-47" cx="828.47" cy="1885.11" rx="110.91" ry="51.6" transform="translate(-2.76 1.22) rotate(-0.08)"/><ellipse class="cls-48" cx="828.47" cy="1885.11" rx="103.43" ry="48.12" transform="matrix(1, 0, 0, 1, -2.76, 1.22)"/><ellipse class="cls-49" cx="828.47" cy="1885.11" rx="95.95" ry="44.64" transform="translate(-2.77 1.22) rotate(-0.08)"/></g><path class="cls-80" d="M1131.29,1220.38c-22.36,41.37-20.6,119.31,12.82,194.74,48.32,109.14,16.53,284.24-127,305.76s-122.91,249.65-122.91,249.65l-233.69-70S641.37,1663.9,780.85,1643s170.35-191,123.39-297-29.51-217.23,30-218.38a78,78,0,0,1,17.69,1.63l.44.12,5.55,1.44.4.12,233.92,60.94a79.75,79.75,0,0,0-17.29-1.52c-18.69.4-33.35,11.34-43.33,29.47A4.37,4.37,0,0,0,1131.29,1220.38Z"/><path class="cls-81" d="M1258.67,1253.52l-126.38-33.58-.68-.16c10-18.13,24.64-29.07,43.33-29.47a79.75,79.75,0,0,1,17.29,1.52l.28,0C1240.5,1201.61,1258.67,1253.52,1258.67,1253.52Z"/><path class="cls-82" d="M1132.29,1219.94l-1,.44a4.37,4.37,0,0,1,.32-.6Z"/><polygon class="cls-83" points="900.72 1169.11 1108.82 1221.91 1098.59 1252.15 892.54 1197.8 900.72 1169.11"/><path class="cls-84" d="M1008.16,1293.51l-97.84-25.43a6.19,6.19,0,0,1-4.39-5.66h0a3.33,3.33,0,0,1,4.39-3.38l97.84,25.43a6.2,6.2,0,0,1,4.4,5.66h0A3.34,3.34,0,0,1,1008.16,1293.51Z"/><path class="cls-85" d="M1073.69,1311l-39.64-11a6.19,6.19,0,0,1-4.39-5.66h0a3.33,3.33,0,0,1,4.39-3.38l39.64,11a6.2,6.2,0,0,1,4.4,5.66h0A3.34,3.34,0,0,1,1073.69,1311Z"/><path class="cls-86" d="M1013.05,1325.55l-97.84-25.42a6.2,6.2,0,0,1-4.4-5.67h0a3.34,3.34,0,0,1,4.4-3.37l97.84,25.43a6.18,6.18,0,0,1,4.39,5.66h0A3.33,3.33,0,0,1,1013.05,1325.55Z"/><path class="cls-87" d="M1078.58,1343l-39.64-11a6.18,6.18,0,0,1-4.4-5.66h0a3.34,3.34,0,0,1,4.4-3.37l39.64,11a6.19,6.19,0,0,1,4.39,5.66h0A3.34,3.34,0,0,1,1078.58,1343Z"/><path class="cls-88" d="M1020.84,1357.48,923,1332.05a6.18,6.18,0,0,1-4.39-5.66h0A3.33,3.33,0,0,1,923,1323l97.85,25.43a6.18,6.18,0,0,1,4.39,5.66h0A3.33,3.33,0,0,1,1020.84,1357.48Z"/><path class="cls-89" d="M1086.37,1375l-39.65-11a6.18,6.18,0,0,1-4.39-5.66h0a3.33,3.33,0,0,1,4.39-3.37l39.65,11a6.19,6.19,0,0,1,4.39,5.66h0A3.33,3.33,0,0,1,1086.37,1375Z"/><path class="cls-90" d="M1028.72,1386.87l-97.85-25.43a6.19,6.19,0,0,1-4.39-5.66h0a3.33,3.33,0,0,1,4.39-3.38l97.85,25.43a6.2,6.2,0,0,1,4.39,5.66h0A3.34,3.34,0,0,1,1028.72,1386.87Z"/><path class="cls-91" d="M1094.24,1404.35l-39.64-11a6.2,6.2,0,0,1-4.39-5.66h0a3.33,3.33,0,0,1,4.39-3.38l39.64,11a6.2,6.2,0,0,1,4.4,5.66h0A3.34,3.34,0,0,1,1094.24,1404.35Z"/><path class="cls-92" d="M1046.7,1457.77l-97.84-25.43a6.2,6.2,0,0,1-4.4-5.66h0a3.34,3.34,0,0,1,4.4-3.38l97.84,25.43a6.2,6.2,0,0,1,4.4,5.66h0A3.34,3.34,0,0,1,1046.7,1457.77Z"/><path class="cls-93" d="M1112.23,1475.25l-39.64-11a6.2,6.2,0,0,1-4.4-5.66h0a3.34,3.34,0,0,1,4.4-3.38l39.64,11a6.19,6.19,0,0,1,4.39,5.66h0A3.33,3.33,0,0,1,1112.23,1475.25Z"/><path class="cls-94" d="M1054.49,1489.7l-97.84-25.43a6.2,6.2,0,0,1-4.4-5.66h0a3.34,3.34,0,0,1,4.4-3.38l97.84,25.43a6.19,6.19,0,0,1,4.39,5.66h0A3.33,3.33,0,0,1,1054.49,1489.7Z"/><path class="cls-95" d="M1120,1507.18l-39.64-11a6.2,6.2,0,0,1-4.4-5.66h0a3.34,3.34,0,0,1,4.4-3.38l39.64,11a6.2,6.2,0,0,1,4.39,5.66h0A3.33,3.33,0,0,1,1120,1507.18Z"/><path class="cls-96" d="M1052.37,1515.81l-97.84-25.43a6.17,6.17,0,0,1-4.39-5.66h0a3.33,3.33,0,0,1,4.39-3.37l97.84,25.43a6.18,6.18,0,0,1,4.4,5.66h0A3.34,3.34,0,0,1,1052.37,1515.81Z"/><path class="cls-97" d="M1117.9,1533.29l-39.64-11a6.17,6.17,0,0,1-4.39-5.66h0a3.33,3.33,0,0,1,4.39-3.37l39.64,11a6.19,6.19,0,0,1,4.4,5.66h0A3.34,3.34,0,0,1,1117.9,1533.29Z"/><path class="cls-98" d="M1019.61,1616.51l-97.84-25.43a6.19,6.19,0,0,1-4.4-5.66h0a3.34,3.34,0,0,1,4.4-3.37l97.84,25.42a6.19,6.19,0,0,1,4.39,5.66h0A3.33,3.33,0,0,1,1019.61,1616.51Z"/><path class="cls-99" d="M1085.14,1634l-39.64-11a6.19,6.19,0,0,1-4.4-5.66h0a3.34,3.34,0,0,1,4.4-3.37l39.64,11a6.18,6.18,0,0,1,4.39,5.66h0A3.33,3.33,0,0,1,1085.14,1634Z"/><path class="cls-100" d="M1001.36,1638l-97.84-25.42a6.2,6.2,0,0,1-4.4-5.66h0a3.34,3.34,0,0,1,4.4-3.38l97.84,25.43a6.18,6.18,0,0,1,4.39,5.66h0A3.33,3.33,0,0,1,1001.36,1638Z"/><path class="cls-101" d="M1066.89,1655.48l-39.64-11a6.2,6.2,0,0,1-4.4-5.66h0a3.34,3.34,0,0,1,4.4-3.38l39.64,11a6.2,6.2,0,0,1,4.39,5.66h0A3.34,3.34,0,0,1,1066.89,1655.48Z"/><path class="cls-102" d="M971.18,1658.59l-97.84-25.43a6.19,6.19,0,0,1-4.4-5.66h0a3.34,3.34,0,0,1,4.4-3.37l97.84,25.42a6.19,6.19,0,0,1,4.39,5.66h0A3.33,3.33,0,0,1,971.18,1658.59Z"/><path class="cls-103" d="M1036.71,1676.07l-39.64-11a6.19,6.19,0,0,1-4.4-5.66h0a3.34,3.34,0,0,1,4.4-3.37l39.64,11a6.18,6.18,0,0,1,4.39,5.66h0A3.33,3.33,0,0,1,1036.71,1676.07Z"/><path class="cls-104" d="M829.2,1743.72l-97.84-25.42a6.2,6.2,0,0,1-4.4-5.66h0a3.34,3.34,0,0,1,4.4-3.38l97.84,25.43a6.18,6.18,0,0,1,4.39,5.66h0A3.33,3.33,0,0,1,829.2,1743.72Z"/><path class="cls-105" d="M894.73,1761.21l-39.64-11a6.2,6.2,0,0,1-4.4-5.66h0a3.34,3.34,0,0,1,4.4-3.38l39.64,11a6.19,6.19,0,0,1,4.39,5.66h0A3.34,3.34,0,0,1,894.73,1761.21Z"/><path class="cls-106" d="M811.4,1782.35l-97.84-25.42a6.19,6.19,0,0,1-4.39-5.67h0a3.33,3.33,0,0,1,4.39-3.37l97.84,25.43a6.19,6.19,0,0,1,4.4,5.66h0A3.34,3.34,0,0,1,811.4,1782.35Z"/><path class="cls-107" d="M876.93,1799.84l-39.64-11a6.17,6.17,0,0,1-4.39-5.66h0a3.33,3.33,0,0,1,4.39-3.37l39.64,11a6.19,6.19,0,0,1,4.4,5.66h0A3.35,3.35,0,0,1,876.93,1799.84Z"/><path class="cls-108" d="M800.2,1823.65l-97.84-25.43a6.18,6.18,0,0,1-4.4-5.66h0a3.34,3.34,0,0,1,4.4-3.37l97.84,25.43a6.17,6.17,0,0,1,4.39,5.66h0A3.33,3.33,0,0,1,800.2,1823.65Z"/><path class="cls-109" d="M865.73,1841.13l-39.64-11a6.18,6.18,0,0,1-4.4-5.66h0a3.34,3.34,0,0,1,4.4-3.37l39.64,11a6.19,6.19,0,0,1,4.39,5.66h0A3.33,3.33,0,0,1,865.73,1841.13Z"/><polygon class="cls-110" points="939.74 1533.44 1132.29 1575.04 1122.3 1598.99 926.48 1552.47 939.74 1533.44"/><polygon class="cls-111" points="694.26 1825.12 868.94 1874.52 867.07 1904.31 691.47 1853.03 694.26 1825.12"/><path class="cls-112" d="M1087.82,1106.22c-5,18.79-20.44,26.87-38.8,22-18.64-4.94-26.16-20.66-21.86-37,4.53-17.17,19.93-26.82,38.47-21.91C1084.92,1074.45,1092,1090.41,1087.82,1106.22ZM1042.23,1095c-3,11.22.74,20.65,10.25,23.17s17.29-4.33,20.22-15.47c2.71-10.28-.36-20.55-10.15-23.15C1053,1077,1045.17,1083.83,1042.23,1095Z"/><path class="cls-112" d="M1109,1082.64a140.91,140.91,0,0,1,19.23,3.82c9.32,2.47,15.51,5.47,19.13,9.89,3,3.7,4,8.24,2.62,13.51-1.92,7.31-8.93,10.82-14.81,11.18l-.06.25c4,2.78,5.37,7.24,5.56,12.93.26,7,.24,15,.87,17.51l-14.53-3.85c-.6-1.89-.86-7-.87-14.51.21-7.58-2-10.25-7.73-11.87l-4.29-1.13-5.94,22.52-14.07-3.73Zm7.58,28.38,5.59,1.48c7.08,1.87,12.13-.24,13.45-5.26,1.39-5.27-1.83-8.94-8.33-10.76a40,40,0,0,0-6.54-1.27Z"/><path class="cls-112" d="M1168.89,1098.51a142.8,142.8,0,0,1,19.51,3.9c11.92,3.16,19.14,7.16,24.1,12.93,5.36,6.15,7.6,14.29,4.94,24.4-2.89,11-9.26,17.37-16.55,20.44-7.94,3.27-18.63,3-30.93-.28a140.29,140.29,0,0,1-15.9-5.12Zm1.94,50.53a30.17,30.17,0,0,0,4.87,1.56c12.84,3.49,22.92-.75,26.53-14.43,3.23-11.88-2.75-20.19-15-23.42a33.88,33.88,0,0,0-6.57-1.2Z"/><path class="cls-112" d="M1267.25,1159.12l-23.11-6.12-3.58,13.6,25.81,6.84-2.8,10.62-40.07-10.61,15.1-57.29,38.76,10.27-2.8,10.62-24.51-6.49-3.13,11.9,23.11,6.12Z"/><path class="cls-112" d="M1292.81,1131.34a141.5,141.5,0,0,1,19.23,3.82c9.32,2.47,15.51,5.47,19.13,9.89,3,3.7,4,8.24,2.62,13.51-1.93,7.31-8.93,10.82-14.81,11.18l-.07.25c4,2.78,5.37,7.24,5.57,12.93.25,7,.24,15,.87,17.51l-14.54-3.85c-.6-1.89-.86-7-.86-14.51.2-7.58-2-10.25-7.74-11.87l-4.29-1.13-5.93,22.52-14.07-3.72Zm7.58,28.38,5.59,1.48c7.08,1.87,12.13-.24,13.45-5.26,1.39-5.27-1.83-8.94-8.33-10.75a39.36,39.36,0,0,0-6.55-1.28Z"/><path class="cls-113" d="M649.5,1625.12c-30.57,4.79-57.65,37.73-60.48,73.58s19.66,61,50.23,56.25c60.18-9.41,57.65-37.72,60.48-73.57S680.08,1620.34,649.5,1625.12Zm27.6,59.8c-1.67,21.19-17.68,40.67-35.75,43.49s-31.37-12.06-29.7-33.25,17.68-40.67,35.76-43.5S678.77,1663.72,677.1,1684.92Z"/><path class="cls-114" d="M664,1638c-30.58,4.78-57.66,37.72-60.49,73.57s19.66,61,50.23,56.26,57.65-37.73,60.49-73.58S694.57,1633.25,664,1638Zm27.59,59.79c-1.67,21.2-17.68,40.67-35.75,43.5s-31.37-12.07-29.69-33.26,17.68-40.67,35.75-43.49S693.27,1676.64,691.59,1697.83Z"/><ellipse class="cls-115" cx="648.76" cy="1704.53" rx="20.74" ry="15.66" transform="translate(-1165.21 1515.3) rotate(-63.21)"/><polygon class="cls-116" points="626.32 1719.15 635.91 1712.54 642.29 1710.55 627.44 1722.96 626.32 1719.15"/><polygon class="cls-117" points="645.49 1718.16 631.39 1731.45 627.44 1722.96 642.29 1710.55 645.49 1718.16"/><path class="cls-118" d="M664.59,1718.85l4.78,14.35s7.36-5,9.81-11.37l-10.3-11.19Z"/><polygon class="cls-119" points="657.32 1722.59 660.68 1734.56 669.37 1733.2 663.93 1717.25 657.32 1722.59"/><path class="cls-120" d="M639.32,1677.42l7.72,12.2,9-5-4.76-16.7S643.85,1671.86,639.32,1677.42Z"/><polygon class="cls-121" points="636.11 1681.7 641.87 1689.9 647.04 1689.62 639.32 1677.42 636.11 1681.7"/><path class="cls-122" d="M674.34,1691.3l9.09-7.37s3.12,6,2.05,11.79l-11.64,4.89Z"/><polygon class="cls-123" points="683.43 1683.93 674.71 1684.62 667.1 1691.86 673.37 1693.09 683.43 1683.93"/><path class="cls-124" d="M675.62,1700.33c-.86,10.85-9,20.81-18.3,22.26s-16.06-6.17-15.2-17,9-20.81,18.3-22.26S676.47,1689.48,675.62,1700.33Z"/><path class="cls-125" d="M342.48,1525.38c-30.57,4.78-57.65,37.72-60.48,73.57s19.65,61,50.22,56.26c60.18-9.42,57.66-37.73,60.49-73.58S373.05,1520.59,342.48,1525.38Zm27.6,59.79c-1.68,21.2-17.69,40.67-35.76,43.5s-31.37-12.06-29.69-33.26,17.68-40.67,35.75-43.49S371.75,1564,370.08,1585.17Z"/><path class="cls-126" d="M357,1538.29c-30.57,4.78-57.65,37.72-60.48,73.58s19.65,61,50.23,56.25,57.65-37.72,60.48-73.58S387.54,1533.51,357,1538.29Zm27.6,59.8c-1.68,21.19-17.68,40.66-35.76,43.49s-31.36-12.06-29.69-33.26,17.68-40.66,35.76-43.49S386.24,1576.89,384.57,1598.09Z"/><path class="cls-127" d="M358.49,1602.17c-.86,10.84-9.05,20.81-18.3,22.26s-16.06-6.18-15.2-17,9.05-20.82,18.3-22.26S359.34,1591.32,358.49,1602.17Z"/><polygon class="cls-128" points="319.29 1619.4 328.88 1612.8 335.26 1610.81 320.42 1623.21 319.29 1619.4"/><polygon class="cls-129" points="338.46 1618.42 324.37 1631.7 320.42 1623.21 335.26 1610.81 338.46 1618.42"/><path class="cls-130" d="M357.57,1619.11l4.78,14.34s7.35-5,9.8-11.36l-10.29-11.2Z"/><polygon class="cls-131" points="350.29 1622.85 353.66 1634.81 362.35 1633.45 356.9 1617.51 350.29 1622.85"/><path class="cls-132" d="M332.29,1577.67l7.73,12.2,9-5-4.77-16.7S336.82,1572.11,332.29,1577.67Z"/><polygon class="cls-133" points="329.09 1581.96 334.85 1590.16 340.02 1589.87 332.29 1577.67 329.09 1581.96"/><path class="cls-134" d="M367.32,1591.56l9.09-7.38s3.12,6,2,11.79l-11.65,4.89Z"/><polygon class="cls-135" points="376.4 1584.18 367.68 1584.88 360.08 1592.11 366.35 1593.35 376.4 1584.18"/><path class="cls-136" d="M368.59,1600.58c-.85,10.85-9,20.82-18.3,22.27s-16.05-6.18-15.19-17,9-20.82,18.3-22.27S369.45,1589.74,368.59,1600.58Z"/><rect class="cls-137" x="538.41" y="1191.67" width="303.78" height="7.39" transform="translate(-510.34 1876.44) rotate(-89.56)"/><path class="cls-138" d="M500.15,1739.72a46.52,46.52,0,0,1-23.77-6.62,46,46,0,0,1-22.85-41.89l4.29-114.14,16.62.62-4.29,114.14a30,30,0,0,0,45.09,27.08L704,1580.57a24.87,24.87,0,0,0-4.45-44.78L518,1475.73a90.42,90.42,0,0,0-77,7.58l-231.2,138.34A46.49,46.49,0,0,1,139.42,1580l4.3-114.42,16.62.62L156,1580.63a29.87,29.87,0,0,0,45.18,26.75L432.41,1469a106.9,106.9,0,0,1,90.94-9L705,1520.06a41.5,41.5,0,0,1,7.95,74.57L524.43,1732.79l-.34.2A46.42,46.42,0,0,1,500.15,1739.72Z"/><rect class="cls-138" x="229.35" y="1054.89" width="7.39" height="74.15"/><rect class="cls-138" x="323.67" y="1036.12" width="7.39" height="117.55"/><path class="cls-139" d="M149.77,1080l-3.05-14.46,331.14-69.79A72.18,72.18,0,0,1,509,996l243.15,55.45-3.29,14.42L505.74,1010.4a57.6,57.6,0,0,0-24.83-.2Z"/><rect class="cls-137" x="612.8" y="1192.21" width="7.39" height="278.02" transform="translate(-816.28 1646.43) rotate(-77.56)"/><rect class="cls-140" x="410.3" y="1015.36" width="7.39" height="159.21"/><rect class="cls-140" x="637.13" y="1036.12" width="7.39" height="77.23"/><rect class="cls-140" x="551.8" y="1015.36" width="7.39" height="302.4"/><rect class="cls-137" x="622.6" y="974.12" width="7.39" height="276.45" transform="translate(-593.26 1489.5) rotate(-77.8)"/><rect class="cls-137" x="623.78" y="1050.91" width="7.39" height="273.87" transform="translate(-665.16 1553.61) rotate(-77.95)"/><rect class="cls-137" x="618.49" y="1126.43" width="7.39" height="273.87" transform="translate(-743.2 1608.2) rotate(-77.95)"/><rect class="cls-138" x="213.76" y="1404.06" width="361.01" height="7.39" transform="translate(-590.96 327.69) rotate(-26.72)"/><rect class="cls-138" x="482.05" y="1437.56" width="7.39" height="119.7" transform="translate(-1088.4 1513.52) rotate(-72.61)"/><rect class="cls-138" x="540.52" y="1303.17" width="7.39" height="227.58" transform="translate(-965.16 1577.36) rotate(-75.06)"/><path class="cls-141" d="M485.9,1001.57l-.37,277.87a52.58,52.58,0,0,1-34.72,49.4L141,1440.82"/><rect class="cls-138" x="135.01" y="1125.16" width="356.84" height="7.39" transform="translate(-278.88 118.05) rotate(-14.85)"/><rect class="cls-138" x="134.22" y="1222.67" width="358.21" height="7.39" transform="matrix(0.96, -0.27, 0.27, 0.96, -321.73, 131.45)"/><polygon class="cls-138" points="333.98 1536.55 330.23 1530.18 415.25 1480.19 124.91 1369.74 412.85 1275.93 415.14 1282.96 147.11 1370.28 432.27 1478.76 333.98 1536.55"/><polygon class="cls-142" points="338.1 955.38 638.27 1041.26 607.5 1477.04 307.18 1360.47 338.1 955.38"/><polygon class="cls-143" points="638.27 1041.26 678.38 1015.32 678.39 1415.93 638.26 1408.89 607.5 1477.04 638.27 1041.26"/><polygon class="cls-144" points="338.1 955.38 390.13 928.29 678.38 1015.32 638.27 1041.26 338.1 955.38"/><polygon class="cls-145" points="638.26 1408.89 656.59 1029.41 678.38 1015.32 678.39 1415.93 638.26 1408.89"/><polygon class="cls-146" points="390.13 928.29 388.32 969.75 338.1 955.38 390.13 928.29"/><ellipse class="cls-147" cx="406.45" cy="1022.95" rx="15.39" ry="18.46" transform="translate(-478.86 368.84) rotate(-31.87)"/><ellipse class="cls-148" cx="561.99" cy="1079.86" rx="15.39" ry="18.46" transform="translate(-485.46 459.56) rotate(-31.87)"/><line class="cls-149" x1="561.99" y1="1079.86" x2="578.88" y2="907.98"/><line class="cls-149" x1="402.21" y1="1022.95" x2="390.13" y2="814.63"/><polygon class="cls-150" points="259.06 1122.28 511.62 1194.53 485.73 1533.13 233.05 1435.05 259.06 1122.28"/><polygon class="cls-151" points="511.62 1194.53 545.37 1172.71 545.37 1481.71 511.61 1475.79 485.73 1533.13 511.62 1194.53"/><polygon class="cls-152" points="259.06 1122.28 302.84 1099.49 545.37 1172.71 511.62 1194.53 259.06 1122.28"/><polygon class="cls-153" points="511.61 1475.79 527.03 1184.57 545.37 1172.71 545.37 1481.71 511.61 1475.79"/><polygon class="cls-154" points="302.84 1099.49 301.31 1134.37 259.06 1122.28 302.84 1099.49"/><ellipse class="cls-155" cx="316.57" cy="1179.13" rx="12.95" ry="15.53" transform="translate(-574.87 344.93) rotate(-31.87)"/><ellipse class="cls-156" cx="447.44" cy="1227.02" rx="12.95" ry="15.53" transform="translate(-580.42 421.25) rotate(-31.87)"/><path class="cls-60" d="M379.31,1376.37a68.13,68.13,0,0,1-12.84-3.6l-13.65-5.3c-31.12-12.08-52.49-46.3-49.73-79.59l9.08-109.12a3.85,3.85,0,0,1,5-3.59,5.94,5.94,0,0,1,4.17,6l-9.07,109.12c-2.36,28.37,15.85,57.52,42.36,67.81l13.66,5.3c15.87,6.16,32.37,5,45.27-3.17s21-22.63,22.3-39.65l7.1-95.52a3.86,3.86,0,0,1,4.94-3.64,5.94,5.94,0,0,1,4.22,6L445,1323c-1.47,19.78-10.92,36.57-25.91,46.07C407.56,1376.39,393.55,1378.87,379.31,1376.37Z"/><path class="cls-139" d="M414.86,1185H414a164,164,0,0,1-47.47-7.27l-221.76-68.12a22.8,22.8,0,0,1,2-44.11l3,14.47a8,8,0,0,0-.7,15.51l221.76,68.12a150,150,0,0,0,86.23.58l292.24-85.64a6.18,6.18,0,0,0,4.43-4.24,7.15,7.15,0,0,0-.64-5.53,6.22,6.22,0,0,0-4.2-3l3.31-14.4a21,21,0,0,1,13.67,9.92,21.86,21.86,0,0,1,2,17.22,20.89,20.89,0,0,1-14.42,14.17L461.2,1178.4A165,165,0,0,1,414.86,1185Z"/><path class="cls-139" d="M464.28,1584.89a46,46,0,0,1-20.09-4.69,45.11,45.11,0,0,1-25.85-39.71L406.6,1177.88a7.39,7.39,0,0,1,2.1-5.39,7.6,7.6,0,0,1,5.33-2.24,149.46,149.46,0,0,0,43-6l292.24-85.64a6.18,6.18,0,0,0,4.43-4.24,7.62,7.62,0,0,1,15.07,1.39v245.93a97.8,97.8,0,0,1-39.5,78.32L491.37,1575.81A45.41,45.41,0,0,1,464.28,1584.89Zm-42.66-400,11.5,355.1a31,31,0,0,0,49.46,23.92L720.5,1388.08a82.93,82.93,0,0,0,33.5-66.43V1092.59l-.55.17L461.2,1178.4A165,165,0,0,1,421.62,1184.9Zm333.06-112.26h0Zm1.09-1.59Z"/><path class="cls-139" d="M441.66,1578.69,182.52,1490a79.73,79.73,0,0,1-53.9-75.43V1095.76H143.4v318.76A65,65,0,0,0,187.31,1476l259.14,88.74Z"/><rect class="cls-139" x="229.35" y="1129.04" width="7.39" height="374.54"/><rect class="cls-139" x="323.67" y="1158.02" width="7.39" height="369.94"/><polygon class="cls-139" points="420.77 1385.06 134.77 1283.07 137.25 1276.11 420.38 1377.08 759.83 1218.13 762.96 1224.82 420.77 1385.06"/><rect class="cls-139" x="271.3" y="1075.74" width="7.39" height="291.48" transform="translate(-972.63 1116.37) rotate(-72.5)"/><rect class="cls-139" x="411.26" y="1204.5" width="359.45" height="7.39" transform="translate(-353.4 250.52) rotate(-18.53)"/><rect class="cls-139" x="400.44" y="1379.98" width="384.27" height="7.39" transform="translate(-588.8 450.91) rotate(-28.52)"/><rect class="cls-139" x="538.12" y="1145" width="7.39" height="382.96" transform="translate(-13.01 5.35) rotate(-0.56)"/><rect class="cls-139" x="657.88" y="1111.98" width="7.39" height="328.85"/><path class="cls-139" d="M421.36,1178.21l-14.74-1.14,6.51-84.3a16.81,16.81,0,0,0-20-12.69l-103.85,22.59a57.87,57.87,0,0,1-29.21-1.21l-121.47-35.07,4.33,24.77-14.56,2.55-5.58-31.88-105-30.32a19.76,19.76,0,0,1,1.47-38.23L98.83,976A22.67,22.67,0,0,1,126,994.2l9.8,56,128.52,37.1a43.28,43.28,0,0,0,21.86.94L390,1065.63a31.61,31.61,0,0,1,37.84,25.42l.16.92Zm-317.68-188a8.11,8.11,0,0,0-1.7.18L22.4,1007.72a5,5,0,0,0-.4,9.62l98,28.29-8.55-48.88a7.88,7.88,0,0,0-7.75-6.53Z"/><path class="cls-157" d="M313,1078.61l-27.6,6a39.57,39.57,0,0,1-20-.88L23.08,1013.8c-.44-.13-.94-.29-.9-1.27s.55-1.1,1-1.2l24.19-5.26a11.09,11.09,0,1,0-4.71-21.67l-24.19,5.26a23.46,23.46,0,0,0-1.71,45.4l116.31,33.57a26.26,26.26,0,0,0-8.12,18,27.19,27.19,0,0,0,.92,8.36,11.22,11.22,0,0,0-1,4.49v64.78a11.09,11.09,0,0,0,22.18,0v-50l23.09,7.09a11.21,11.21,0,0,0,3.26.49,11.08,11.08,0,0,0,3.25-21.68L150.14,1092a4.05,4.05,0,0,1-3-4.34,4,4,0,0,1,3.42-4,11.07,11.07,0,0,0,8.3-7.54L259,1105a61.36,61.36,0,0,0,31.08,1.29l27.6-6a11.09,11.09,0,0,0-4.72-21.67Z"/><path class="cls-157" d="M464.16,1588.49a49.4,49.4,0,0,0,29.4-9.71l28.58-21.12A11.09,11.09,0,0,0,509,1539.83L480.39,1561a27.35,27.35,0,0,1-43.58-21.07l-1-30.78a11.09,11.09,0,0,0-22.16.71l1,30.81a50,50,0,0,0,1.3,9.74l-34.87-11.95a11.09,11.09,0,0,0-7.19,21l54.32,18.6a11,11,0,0,0,3.59.6,11.12,11.12,0,0,0,2.3-.27,49.93,49.93,0,0,0,8.48,5.21A49.4,49.4,0,0,0,464.16,1588.49Z"/><path class="cls-157" d="M136,1366.23a11.09,11.09,0,0,0-11.09,11.08v37.21a83.43,83.43,0,0,0,56.4,78.93l17.44,6a11.09,11.09,0,1,0,7.18-21l-17.44-6a61.26,61.26,0,0,1-41.4-58v-37.21A11.09,11.09,0,0,0,136,1366.23Z"/><path class="cls-157" d="M405,1242.24A11.08,11.08,0,0,0,416.06,1253h.37a11.08,11.08,0,0,0,10.72-11.44l-1.72-53.12a168,168,0,0,0,36.81-6.46L489,1174.1a11.09,11.09,0,0,0-6.24-21.28L456,1160.66a146.44,146.44,0,0,1-42,5.89h0a145.5,145.5,0,0,1-42.14-6.45,11.09,11.09,0,0,0-6.52,21.2,168.51,168.51,0,0,0,37.85,7Z"/><path class="cls-157" d="M763.75,1064.89a12.35,12.35,0,0,0-13.57,8.37,2.52,2.52,0,0,1-1.93,1.77L705,1087.71A11.09,11.09,0,1,0,711.2,1109l39.11-11.46v31.33a11.09,11.09,0,1,0,22.17,0v-53.14A11.08,11.08,0,0,0,763.75,1064.89Z"/><path class="cls-157" d="M761.4,1277.9A11.09,11.09,0,0,0,750.31,1289v32.66a79.26,79.26,0,0,1-32,63.46l-8.8,6.5a11.09,11.09,0,0,0,13.18,17.83l8.8-6.5a101.5,101.5,0,0,0,41-81.29V1289A11.09,11.09,0,0,0,761.4,1277.9Z"/><path class="cls-157" d="M227.91,1588.17,199.78,1605a27.09,27.09,0,0,1-41-24.27l.83-22.11a11.08,11.08,0,1,0-22.15-.83l-.83,22.11a48.55,48.55,0,0,0,24.12,44.24,48.59,48.59,0,0,0,50.4-.11l28.13-16.83a11.09,11.09,0,0,0-11.39-19Z"/><path class="cls-157" d="M537.66,1699l-23.94,17.55a27.24,27.24,0,0,1-40.8-24.65l1-27.34a11.09,11.09,0,1,0-22.16-.83l-1,27.34a48.73,48.73,0,0,0,24.2,44.38,48.73,48.73,0,0,0,50.56-.12l25.25-18.45A11.09,11.09,0,1,0,537.66,1699Z"/><g class="cls-78"><ellipse class="cls-23" cx="490.4" cy="1663.19" rx="290.51" ry="91.94" transform="translate(-2.41 0.71) rotate(-0.08)"/><ellipse class="cls-24" cx="490.4" cy="1663.19" rx="283.03" ry="89.57" transform="translate(-2.41 0.71) rotate(-0.08)"/><ellipse class="cls-25" cx="490.4" cy="1663.19" rx="275.54" ry="87.21" transform="translate(-2.41 0.71) rotate(-0.08)"/><ellipse class="cls-26" cx="490.4" cy="1663.19" rx="268.06" ry="84.84" transform="translate(-2.41 0.71) rotate(-0.08)"/><ellipse class="cls-27" cx="490.4" cy="1663.19" rx="260.58" ry="82.47" transform="translate(-2.41 0.71) rotate(-0.08)"/><ellipse class="cls-28" cx="490.4" cy="1663.19" rx="253.09" ry="80.1" transform="translate(-2.41 0.71) rotate(-0.08)"/><ellipse class="cls-29" cx="490.4" cy="1663.19" rx="245.61" ry="77.73" transform="translate(-2.41 0.71) rotate(-0.08)"/><ellipse class="cls-30" cx="490.4" cy="1663.19" rx="238.13" ry="75.36" transform="translate(-2.41 0.71) rotate(-0.08)"/><ellipse class="cls-31" cx="490.4" cy="1663.19" rx="230.64" ry="73" transform="translate(-2.41 0.71) rotate(-0.08)"/><ellipse class="cls-32" cx="490.4" cy="1663.19" rx="223.16" ry="70.63" transform="translate(-2.41 0.71) rotate(-0.08)"/><ellipse class="cls-33" cx="490.4" cy="1663.19" rx="215.68" ry="68.26" transform="translate(-2.41 0.71) rotate(-0.08)"/><ellipse class="cls-34" cx="490.4" cy="1663.19" rx="208.19" ry="65.89" transform="translate(-2.41 0.71) rotate(-0.08)"/><ellipse class="cls-35" cx="490.4" cy="1663.19" rx="200.71" ry="63.52" transform="translate(-2.41 0.71) rotate(-0.08)"/><ellipse class="cls-36" cx="490.4" cy="1663.19" rx="193.23" ry="61.15" transform="translate(-2.41 0.71) rotate(-0.08)"/><ellipse class="cls-37" cx="490.4" cy="1663.19" rx="185.75" ry="58.79" transform="translate(-2.41 0.71) rotate(-0.08)"/><ellipse class="cls-38" cx="490.4" cy="1663.19" rx="178.26" ry="56.42" transform="translate(-2.41 0.71) rotate(-0.08)"/><ellipse class="cls-39" cx="490.4" cy="1663.19" rx="170.78" ry="54.05" transform="translate(-2.41 0.71) rotate(-0.08)"/><ellipse class="cls-40" cx="490.4" cy="1663.19" rx="163.3" ry="51.68" transform="translate(-2.41 0.71) rotate(-0.08)"/><ellipse class="cls-41" cx="490.4" cy="1663.19" rx="155.81" ry="49.31" transform="translate(-2.41 0.71) rotate(-0.08)"/><ellipse class="cls-42" cx="490.4" cy="1663.19" rx="148.33" ry="46.94" transform="translate(-2.41 0.71) rotate(-0.08)"/><ellipse class="cls-43" cx="490.4" cy="1663.19" rx="140.85" ry="44.58" transform="translate(-2.42 0.71) rotate(-0.08)"/><ellipse class="cls-44" cx="490.4" cy="1663.19" rx="133.36" ry="42.21" transform="translate(-2.42 0.71) rotate(-0.08)"/><ellipse class="cls-45" cx="490.4" cy="1663.19" rx="125.88" ry="39.84" transform="translate(-2.42 0.71) rotate(-0.08)"/><ellipse class="cls-46" cx="490.4" cy="1663.19" rx="118.4" ry="37.47" transform="translate(-2.42 0.71) rotate(-0.08)"/><ellipse class="cls-47" cx="490.4" cy="1663.19" rx="110.91" ry="35.1" transform="translate(-2.42 0.71) rotate(-0.08)"/><ellipse class="cls-48" cx="490.4" cy="1663.19" rx="103.43" ry="32.73" transform="translate(-2.42 0.72) rotate(-0.08)"/><ellipse class="cls-49" cx="490.4" cy="1663.19" rx="95.95" ry="30.37" transform="matrix(1, 0, 0, 1, -2.42, 0.72)"/></g><path class="cls-158" d="M779.05,740.36c11.14,66.35-9.59,125.31-46.47,133.24l-1.75.34c-37.93,6.37-77.9-43.07-89.22-110.47s10.28-127.16,48.22-133.54S767.73,673,779.05,740.36Z"/><path class="cls-159" d="M702.73,673.14s-182.29-26.67-216.74-20-100,65.58-103.37,68.92-38.9,76.69-38.9,76.69,37.79,28.9,64.47,0,28.89-41.13,28.89-41.13L496,738.72s-7.78,14.45,44.46,52.24,18.95,139,18.95,139,68-39.34,119.85-67.59c28.86-15.71,61.27-50.26,61.27-50.26S776.08,712,702.73,673.14Z"/><path class="cls-160" d="M382.62,722.05l-33.21,65.47a16.31,16.31,0,0,0,5.08,20.7c12.76,9,34.67,17.59,53.7-9.48,28.89-41.13,40.45-48.45,40.45-48.45s42.73-35.68,57-37.42,9.16,38.56,71.79,62.34,169,13.12,169,13.12,13.75-37.78-6.13-75.52-37.55-39.67-37.55-39.67-176.32-28.43-216.74-20S386.51,717.2,382.62,722.05Z"/><path class="cls-161" d="M388.08,770.09s-3.9-2.74-13.64-5.89l-9.74-3.15s-15.79,28.23-12.87,32.09,14.83,11,21.66,2.24S388.08,770.09,388.08,770.09Z"/><path class="cls-162" d="M884.84,720.47C896.17,787.88,874.6,847.66,836.63,854l-104,19.56c36.88-7.93,57.61-66.89,46.47-133.24C767.73,673,727.8,623.55,689.83,629.93L795.62,610C833.59,603.65,873.52,653.1,884.84,720.47Z"/><path class="cls-163" d="M593.4,827.39s-68.5,65.32-74,78.88,24.47,38.82,42.82,24,64.35-69.81,71.56-79.49C641.66,840.21,630.1,801.51,593.4,827.39Z"/><path class="cls-164" d="M562.46,785.22s-87.65,81.33-94,96.83,28.2,44.41,49.34,27.49S600.67,823.09,609,812C618.07,799.89,604.75,755.62,562.46,785.22Z"/><path class="cls-165" d="M520.26,752.12s-87.66,81.32-94,96.82,28.19,44.41,49.34,27.49S558.47,790,566.78,778.9C575.87,766.78,562.55,722.51,520.26,752.12Z"/><path class="cls-166" d="M479.26,722s-82.14,74.23-88.09,88.39,26.43,40.53,46.24,25.09,77.66-78.92,85.44-89C531.37,735.39,518.89,695,479.26,722Z"/><path class="cls-167" d="M476.49,738.53s2.85,3.83,11.13,9.94l8.28,6.11s24.07-21.25,22.52-25.8-10.63-15.09-19.94-9.14S476.49,738.53,476.49,738.53Z"/><path class="cls-168" d="M514.77,770.17s2.84,3.83,11.12,9.93l8.29,6.11s24.06-21.24,22.51-25.79-10.63-15.1-19.94-9.14S514.77,770.17,514.77,770.17Z"/><path class="cls-169" d="M556.76,799.68s2.85,3.83,11.13,9.94l8.28,6.11s24.07-21.25,22.52-25.8-10.64-15.09-19.94-9.14S556.76,799.68,556.76,799.68Z"/><path class="cls-170" d="M588.11,842.5s2.85,3.83,11.13,9.94l8.28,6.1S631.59,837.3,630,832.75s-10.63-15.09-19.94-9.14S588.11,842.5,588.11,842.5Z"/></g></g></svg>