<svg xmlns="http://www.w3.org/2000/svg" xmlns:xlink="http://www.w3.org/1999/xlink" viewBox="0 0 2005.44 2251.69"><defs><style>.cls-1{opacity:0.23;}.cls-2{fill:#4c0000;opacity:0;}.cls-3{fill:#4a0101;opacity:0.04;}.cls-4{fill:#480202;opacity:0.08;}.cls-5{fill:#460303;opacity:0.12;}.cls-6{fill:#440404;opacity:0.15;}.cls-7{fill:#420505;opacity:0.19;}.cls-8{fill:#400606;opacity:0.23;}.cls-9{fill:#3e0606;opacity:0.27;}.cls-10{fill:#3c0707;opacity:0.31;}.cls-11{fill:#3a0808;opacity:0.35;}.cls-12{fill:#380909;opacity:0.38;}.cls-13{fill:#360a0a;opacity:0.42;}.cls-14{fill:#340b0b;opacity:0.46;}.cls-15{fill:#330c0c;opacity:0.5;}.cls-16{fill:#310d0d;opacity:0.54;}.cls-17{fill:#2f0e0e;opacity:0.58;}.cls-18{fill:#2d0f0f;opacity:0.62;}.cls-19{fill:#2b1010;opacity:0.65;}.cls-20{fill:#291111;opacity:0.69;}.cls-21{fill:#271212;opacity:0.73;}.cls-22{fill:#251212;opacity:0.77;}.cls-23{fill:#231313;opacity:0.81;}.cls-24{fill:#211414;opacity:0.85;}.cls-25{fill:#1f1515;opacity:0.88;}.cls-26{fill:#1d1616;opacity:0.92;}.cls-27{fill:#1b1717;opacity:0.96;}.cls-28{fill:#191818;}.cls-29{fill:url(#linear-gradient);}.cls-30{fill:url(#linear-gradient-2);}.cls-31{fill:url(#linear-gradient-3);}.cls-32{fill:url(#linear-gradient-4);}.cls-33{fill:url(#linear-gradient-5);}.cls-34{fill:#3f3d3d;}.cls-35{fill:url(#linear-gradient-6);}.cls-36{fill:url(#linear-gradient-7);}.cls-37{fill:url(#linear-gradient-8);}.cls-38{fill:url(#linear-gradient-9);}.cls-39{fill:url(#linear-gradient-10);}.cls-40{fill:url(#linear-gradient-11);}.cls-41{fill:url(#linear-gradient-12);}.cls-42{fill:url(#linear-gradient-13);}.cls-43{fill:url(#linear-gradient-14);}.cls-44{fill:url(#linear-gradient-15);}.cls-45{fill:url(#linear-gradient-16);}.cls-46{fill:url(#linear-gradient-17);}.cls-47{fill:url(#linear-gradient-18);}.cls-48{fill:url(#linear-gradient-19);}.cls-49{fill:url(#linear-gradient-20);}.cls-50{fill:url(#linear-gradient-21);}.cls-51{fill:url(#linear-gradient-22);}.cls-52{fill:#8b8b8b;}.cls-53{fill:url(#linear-gradient-23);}.cls-54{fill:url(#linear-gradient-24);}.cls-55{fill:url(#linear-gradient-25);}.cls-56{fill:url(#linear-gradient-26);}.cls-57{fill:url(#linear-gradient-27);}.cls-58{fill:url(#linear-gradient-28);}.cls-59{fill:url(#linear-gradient-29);}.cls-60{fill:url(#linear-gradient-30);}.cls-61{fill:url(#linear-gradient-31);}.cls-62{fill:url(#linear-gradient-32);}.cls-63{fill:url(#linear-gradient-33);}.cls-64{fill:url(#linear-gradient-34);}.cls-65{fill:url(#linear-gradient-35);}.cls-66{fill:url(#linear-gradient-36);}.cls-67{fill:url(#linear-gradient-37);}.cls-68{fill:url(#linear-gradient-38);}.cls-69{fill:url(#linear-gradient-39);}.cls-70{fill:#fff;}.cls-71{fill:url(#linear-gradient-40);}.cls-72{fill:url(#linear-gradient-41);}.cls-73{fill:url(#linear-gradient-42);}.cls-74{fill:url(#linear-gradient-43);}.cls-75{fill:url(#linear-gradient-44);}.cls-76{fill:url(#linear-gradient-45);}.cls-77{fill:url(#linear-gradient-46);}.cls-78{fill:url(#linear-gradient-47);}.cls-79{fill:url(#linear-gradient-48);}.cls-80{fill:url(#linear-gradient-49);}.cls-81{fill:url(#linear-gradient-50);}.cls-82{fill:url(#linear-gradient-51);}.cls-83{fill:url(#linear-gradient-52);}.cls-84{fill:url(#linear-gradient-53);}.cls-85{fill:url(#linear-gradient-54);}.cls-86{fill:url(#linear-gradient-55);}.cls-87{fill:url(#linear-gradient-56);}.cls-88{fill:url(#linear-gradient-57);}.cls-89{fill:url(#linear-gradient-58);}.cls-90{fill:url(#linear-gradient-59);}.cls-91{isolation:isolate;}.cls-92{fill:url(#linear-gradient-60);}.cls-93{fill:url(#linear-gradient-61);}.cls-94{fill:url(#linear-gradient-62);}.cls-95{fill:url(#linear-gradient-63);}.cls-96{fill:url(#linear-gradient-64);}.cls-97{fill:url(#linear-gradient-65);}.cls-98{fill:#ddd;}.cls-99{fill:url(#linear-gradient-66);}.cls-100{fill:url(#linear-gradient-67);}.cls-101{fill:url(#linear-gradient-68);}.cls-102{fill:url(#linear-gradient-69);}.cls-103{fill:url(#linear-gradient-70);}.cls-104{fill:url(#linear-gradient-71);}.cls-105{fill:url(#linear-gradient-72);}.cls-106{fill:url(#linear-gradient-73);}.cls-107{fill:url(#linear-gradient-74);}.cls-108{fill:url(#linear-gradient-75);}.cls-109{fill:url(#linear-gradient-76);}</style><linearGradient id="linear-gradient" x1="1065.75" y1="-675.8" x2="861.25" y2="-554.44" gradientTransform="matrix(0.96, 0.28, -0.28, 0.96, -41.65, 1555.62)" gradientUnits="userSpaceOnUse"><stop offset="0" stop-color="#434343"/><stop offset="1" stop-color="#727272"/></linearGradient><linearGradient id="linear-gradient-2" x1="1065.27" y1="-677.92" x2="860.77" y2="-556.56" gradientTransform="matrix(0.96, 0.28, -0.28, 0.96, -41.65, 1555.62)" gradientUnits="userSpaceOnUse"><stop offset="0" stop-color="#303030"/><stop offset="0.51" stop-color="#676767"/><stop offset="0.82" stop-color="#fff"/><stop offset="1" stop-color="#727272"/></linearGradient><linearGradient id="linear-gradient-3" x1="728.68" y1="-753.07" x2="1547.64" y2="-753.07" xlink:href="#linear-gradient"/><linearGradient id="linear-gradient-4" x1="1391.24" y1="804.48" x2="1044.12" y2="1695.44" gradientUnits="userSpaceOnUse"><stop offset="0" stop-color="#82fb7c"/><stop offset="1" stop-color="#0ba2b3"/></linearGradient><linearGradient id="linear-gradient-5" x1="1179.2" y1="-672.7" x2="1313.68" y2="-308.63" gradientTransform="matrix(0.96, 0.28, -0.28, 0.96, -41.65, 1555.62)" gradientUnits="userSpaceOnUse"><stop offset="0" stop-color="#434343"/><stop offset="1" stop-color="#fefefe"/></linearGradient><linearGradient id="linear-gradient-6" x1="1132.81" y1="1383.54" x2="1418.48" y2="1064.11" gradientUnits="userSpaceOnUse"><stop offset="0" stop-color="#303030"/><stop offset="1" stop-color="#727272"/></linearGradient><linearGradient id="linear-gradient-7" x1="1879.07" y1="1936.82" x2="2068.72" y2="1724.76" gradientTransform="matrix(0.16, -0.99, -0.99, -0.16, 2761.71, 3336.61)" xlink:href="#linear-gradient-6"/><linearGradient id="linear-gradient-8" x1="1336.81" y1="1045.84" x2="1158.53" y2="1113.47" gradientUnits="userSpaceOnUse"><stop offset="0" stop-color="#c8c8c8"/><stop offset="1" stop-color="#f0f0f0"/></linearGradient><linearGradient id="linear-gradient-9" x1="1975.15" y1="1975.82" x2="2131.02" y2="1801.52" gradientTransform="matrix(0.16, -0.99, -0.99, -0.16, 2761.71, 3336.61)" gradientUnits="userSpaceOnUse"><stop offset="0" stop-color="#c8c8c8"/><stop offset="1" stop-color="#757575"/></linearGradient><linearGradient id="linear-gradient-10" x1="1085.11" y1="937.6" x2="1233.06" y2="802.95" gradientUnits="userSpaceOnUse"><stop offset="0" stop-color="#e08282"/><stop offset="1" stop-color="#ffc0c0"/></linearGradient><linearGradient id="linear-gradient-11" x1="1198.73" y1="632.54" x2="1208.11" y2="604.69" gradientUnits="userSpaceOnUse"><stop offset="0" stop-color="#e08282"/><stop offset="1" stop-color="#f7b0b0"/></linearGradient><linearGradient id="linear-gradient-12" x1="2640.3" y1="1237.14" x2="2776.94" y2="1069.31" gradientTransform="matrix(-0.65, -0.76, -0.76, 0.65, 3963.76, 1881.79)" gradientUnits="userSpaceOnUse"><stop offset="0" stop-color="#c8c8c8"/><stop offset="0.71" stop-color="#efefef"/><stop offset="1" stop-color="#fff"/></linearGradient><linearGradient id="linear-gradient-13" x1="2704.26" y1="1260.66" x2="2862.04" y2="1084.25" gradientTransform="matrix(-0.65, -0.76, -0.76, 0.65, 3963.76, 1881.79)" xlink:href="#linear-gradient-9"/><linearGradient id="linear-gradient-14" x1="2692.45" y1="1279.18" x2="2883" y2="1066.11" gradientTransform="matrix(-0.65, -0.76, -0.76, 0.65, 3963.76, 1881.79)" xlink:href="#linear-gradient-8"/><linearGradient id="linear-gradient-15" x1="2763.61" y1="1313" x2="2941.35" y2="1114.26" gradientTransform="matrix(-0.65, -0.76, -0.76, 0.65, 3963.76, 1881.79)" xlink:href="#linear-gradient-9"/><linearGradient id="linear-gradient-16" x1="2898.39" y1="1364.07" x2="3017.2" y2="1203.67" xlink:href="#linear-gradient-12"/><linearGradient id="linear-gradient-17" x1="3069.26" y1="1680.55" x2="3291.68" y2="1342.81" gradientTransform="matrix(0.59, -0.81, -0.81, -0.59, 62.68, 3834.92)" xlink:href="#linear-gradient-8"/><linearGradient id="linear-gradient-18" x1="3236.56" y1="6856.86" x2="3236.56" y2="7112.85" gradientTransform="matrix(1.12, -0.42, -0.81, -0.59, 2835.55, 5868.81)" xlink:href="#linear-gradient-8"/><linearGradient id="linear-gradient-19" x1="3059.49" y1="1661.04" x2="3383.64" y2="1298.58" gradientTransform="matrix(-0.65, -0.76, -0.76, 0.65, 3963.76, 1881.79)" xlink:href="#linear-gradient-9"/><linearGradient id="linear-gradient-20" x1="3156.15" y1="1552.95" x2="3315.13" y2="1375.19" gradientTransform="matrix(-0.65, -0.76, -0.76, 0.65, 3963.76, 1881.79)" xlink:href="#linear-gradient-8"/><linearGradient id="linear-gradient-21" x1="3240.56" y1="1311.21" x2="3075.53" y2="1518.97" gradientTransform="matrix(-0.65, -0.76, -0.76, 0.65, 3963.76, 1881.79)" xlink:href="#linear-gradient-9"/><linearGradient id="linear-gradient-22" x1="1114.29" y1="964.48" x2="1081.64" y2="630.3" gradientTransform="matrix(1, 0, 0, 1, 0, 0)" xlink:href="#linear-gradient-9"/><linearGradient id="linear-gradient-23" x1="1117.56" y1="996.69" x2="1172.63" y2="838.97" gradientUnits="userSpaceOnUse"><stop offset="0" stop-color="#c8c8c8"/><stop offset="1" stop-color="#8d8d8d"/></linearGradient><linearGradient id="linear-gradient-24" x1="1118.22" y1="692.17" x2="1138.82" y2="631.06" xlink:href="#linear-gradient-10"/><linearGradient id="linear-gradient-25" x1="1085.46" y1="776.3" x2="1111.15" y2="700.07" xlink:href="#linear-gradient-10"/><linearGradient id="linear-gradient-26" x1="1065.6" y1="855.15" x2="1090.33" y2="781.79" xlink:href="#linear-gradient-10"/><linearGradient id="linear-gradient-27" x1="1056.78" y1="922.24" x2="1079.66" y2="854.35" xlink:href="#linear-gradient-10"/><linearGradient id="linear-gradient-28" x1="1231.15" y1="741.6" x2="1254.4" y2="672.63" xlink:href="#linear-gradient-11"/><linearGradient id="linear-gradient-29" x1="1208.88" y1="805.01" x2="1231.57" y2="737.71" xlink:href="#linear-gradient-11"/><linearGradient id="linear-gradient-30" x1="1188.74" y1="871.77" x2="1207.66" y2="815.63" xlink:href="#linear-gradient-11"/><linearGradient id="linear-gradient-31" x1="1168.93" y1="939.03" x2="1186.91" y2="885.69" xlink:href="#linear-gradient-11"/><linearGradient id="linear-gradient-32" x1="1482.09" y1="1193.61" x2="1820.06" y2="1193.61" gradientUnits="userSpaceOnUse"><stop offset="0" stop-color="#115b4d"/><stop offset="1" stop-color="#0ba2b3"/></linearGradient><linearGradient id="linear-gradient-33" x1="1526.64" y1="1320.08" x2="1726.43" y2="1320.08" gradientUnits="userSpaceOnUse"><stop offset="0" stop-color="#ff9a21"/><stop offset="1" stop-color="#9e510b"/></linearGradient><linearGradient id="linear-gradient-34" x1="1725.31" y1="1302.04" x2="1808.89" y2="1230.73" xlink:href="#linear-gradient-6"/><linearGradient id="linear-gradient-35" x1="123.13" y1="-3858.81" x2="-85.19" y2="-3586.03" gradientTransform="matrix(0.72, 0.68, -0.67, 0.74, -857.51, 3931.36)" xlink:href="#linear-gradient-4"/><linearGradient id="linear-gradient-36" x1="142.58" y1="-3689.35" x2="30.23" y2="-3542.23" gradientTransform="matrix(0.72, 0.68, -0.67, 0.74, -857.51, 3931.36)" gradientUnits="userSpaceOnUse"><stop offset="0" stop-color="#ff9a21"/><stop offset="1" stop-color="#ffc81a"/></linearGradient><linearGradient id="linear-gradient-37" x1="196.41" y1="-3778.27" x2="122.57" y2="-3681.58" gradientTransform="matrix(0.72, 0.68, -0.67, 0.74, -857.51, 3931.36)" xlink:href="#linear-gradient-6"/><linearGradient id="linear-gradient-38" x1="1961.39" y1="-146.93" x2="1617.78" y2="-86.4" gradientTransform="translate(71.33 643.46) rotate(6.93)" gradientUnits="userSpaceOnUse"><stop offset="0" stop-color="#b92222"/><stop offset="1" stop-color="#dd2f2f"/></linearGradient><linearGradient id="linear-gradient-39" x1="1581.86" y1="-28.96" x2="1814.34" y2="-221.35" gradientTransform="translate(71.33 643.46) rotate(6.93)" gradientUnits="userSpaceOnUse"><stop offset="0" stop-color="#b92222"/><stop offset="0.25" stop-color="#dd2f2f"/><stop offset="0.85" stop-color="#ff6757"/></linearGradient><linearGradient id="linear-gradient-40" x1="299.07" y1="1342.54" x2="428.53" y2="1243.44" gradientUnits="userSpaceOnUse"><stop offset="0" stop-color="#ffd2a1"/><stop offset="1" stop-color="#d8952a"/></linearGradient><linearGradient id="linear-gradient-41" x1="490.74" y1="1252.44" x2="270.24" y2="1291.28" xlink:href="#linear-gradient-40"/><linearGradient id="linear-gradient-42" x1="364.86" y1="813.3" x2="370.36" y2="741.85" gradientUnits="userSpaceOnUse"><stop offset="0" stop-color="#e89191"/><stop offset="1" stop-color="#ffc0c0"/></linearGradient><linearGradient id="linear-gradient-43" x1="325.1" y1="842.67" x2="220.89" y2="803.88" xlink:href="#linear-gradient-42"/><linearGradient id="linear-gradient-44" x1="362.64" y1="904.92" x2="370.51" y2="878.21" xlink:href="#linear-gradient-42"/><linearGradient id="linear-gradient-45" x1="373.46" y1="927.92" x2="375" y2="908.17" xlink:href="#linear-gradient-42"/><linearGradient id="linear-gradient-46" x1="419.69" y1="891.36" x2="414.81" y2="873.05" xlink:href="#linear-gradient-42"/><linearGradient id="linear-gradient-47" x1="421.96" y1="920.68" x2="412.2" y2="897.15" xlink:href="#linear-gradient-42"/><linearGradient id="linear-gradient-48" x1="374.07" y1="812.67" x2="357.78" y2="758.82" gradientUnits="userSpaceOnUse"><stop offset="0" stop-color="#ed9a9a"/><stop offset="1" stop-color="#ffc0c0"/></linearGradient><linearGradient id="linear-gradient-49" x1="286.54" y1="686.52" x2="268.05" y2="679.64" gradientUnits="userSpaceOnUse"><stop offset="0" stop-color="#ebebeb"/><stop offset="1" stop-color="#fbfbfb"/></linearGradient><linearGradient id="linear-gradient-50" x1="359.61" y1="838.12" x2="367.59" y2="818.28" xlink:href="#linear-gradient-42"/><linearGradient id="linear-gradient-51" x1="360.57" y1="870.77" x2="367.8" y2="842.11" xlink:href="#linear-gradient-42"/><linearGradient id="linear-gradient-52" x1="415.43" y1="863.06" x2="410.32" y2="835.41" xlink:href="#linear-gradient-42"/><linearGradient id="linear-gradient-53" x1="409.83" y1="830.95" x2="402.5" y2="805.4" xlink:href="#linear-gradient-42"/><linearGradient id="linear-gradient-54" x1="-4495.25" y1="-13985.79" x2="-4633.99" y2="-13985.79" gradientTransform="matrix(-0.46, -0.9, 0.86, -0.5, 10161.15, -10163.88)" xlink:href="#linear-gradient-49"/><linearGradient id="linear-gradient-55" x1="-5298.86" y1="-14455.6" x2="-5147.38" y2="-14455.6" gradientTransform="matrix(-0.25, -0.99, 0.94, -0.28, 12498.32, -8292.32)" xlink:href="#linear-gradient-49"/><linearGradient id="linear-gradient-56" x1="-4480.68" y1="-14048.45" x2="-4652.2" y2="-14048.45" gradientTransform="matrix(-0.46, -0.9, 0.86, -0.5, 10161.15, -10163.88)" xlink:href="#linear-gradient-39"/><linearGradient id="linear-gradient-57" x1="7546.35" y1="-663.16" x2="7660.94" y2="-663.16" gradientTransform="matrix(-0.58, 0.84, -0.79, -0.6, 3977.82, -5801.33)" gradientUnits="userSpaceOnUse"><stop offset="0" stop-color="#ffafa9"/><stop offset="0.85" stop-color="#ff6757"/></linearGradient><linearGradient id="linear-gradient-58" x1="16554.62" y1="2141.78" x2="16493.36" y2="2374.56" gradientTransform="matrix(-1, 0.08, 0.1, 1.26, 16876.66, -2571.31)" gradientUnits="userSpaceOnUse"><stop offset="0" stop-color="#e1e1e1"/><stop offset="1" stop-color="#9a9a9a"/></linearGradient><linearGradient id="linear-gradient-59" x1="16550.83" y1="2140.78" x2="16497.15" y2="2344.78" gradientTransform="matrix(-1, 0.08, 0.1, 1.26, 16876.66, -2571.31)" xlink:href="#linear-gradient-6"/><linearGradient id="linear-gradient-60" x1="1989.85" y1="-14063.48" x2="1972.11" y2="-14059.49" gradientTransform="matrix(1.39, -1.72, -1.72, -1.4, -26113.56, -14514.53)" gradientUnits="userSpaceOnUse"><stop offset="0" stop-color="#f6f6f6"/><stop offset="1" stop-color="#cbcbcb"/></linearGradient><linearGradient id="linear-gradient-61" x1="10191.78" y1="19879.79" x2="10224.62" y2="19879.79" gradientTransform="matrix(0.18, 1.3, 1.3, -0.18, -26843.16, -8028.4)" xlink:href="#linear-gradient-60"/><linearGradient id="linear-gradient-62" x1="-6179.62" y1="10377.98" x2="-6220.85" y2="10389.65" gradientTransform="matrix(-1.2, 1.85, 1.85, 1.2, -25886.66, 791.1)" xlink:href="#linear-gradient-6"/><linearGradient id="linear-gradient-63" x1="5456.23" y1="9498.11" x2="5489.06" y2="9498.11" gradientTransform="matrix(0.3, 2.19, 2.19, -0.3, -21538.18, -7309.6)" xlink:href="#linear-gradient-6"/><linearGradient id="linear-gradient-64" x1="943.82" y1="-3149.98" x2="917.58" y2="-2899.44" gradientTransform="matrix(0.73, 0.66, -0.55, 0.83, -916.46, 3647.82)" xlink:href="#linear-gradient-40"/><linearGradient id="linear-gradient-65" x1="943.5" y1="-2975.2" x2="955.5" y2="-3246.7" gradientTransform="matrix(0.73, 0.66, -0.55, 0.83, -916.46, 3647.82)" gradientUnits="userSpaceOnUse"><stop offset="0" stop-color="#e6e6e6"/><stop offset="1" stop-color="#fafafa"/></linearGradient><linearGradient id="linear-gradient-66" x1="928.05" y1="-3085.28" x2="905.68" y2="-2871.62" gradientTransform="matrix(0.73, 0.66, -0.55, 0.83, -916.46, 3647.82)" xlink:href="#linear-gradient-40"/><linearGradient id="linear-gradient-67" x1="918.5" y1="-3007.11" x2="895.09" y2="-2783.57" gradientTransform="matrix(0.73, 0.66, -0.55, 0.83, -916.46, 3647.82)" xlink:href="#linear-gradient-40"/><linearGradient id="linear-gradient-68" x1="711.31" y1="1212.2" x2="807.44" y2="999.99" gradientTransform="translate(1114.67 -171.33) rotate(49)" xlink:href="#linear-gradient-39"/><linearGradient id="linear-gradient-69" x1="1048.41" y1="1074.07" x2="543.38" y2="1139.38" gradientTransform="matrix(0.66, 0.75, -0.79, 0.62, 1078.47, -173.37)" xlink:href="#linear-gradient-39"/><linearGradient id="linear-gradient-70" x1="999.54" y1="1080.39" x2="592.25" y2="1133.06" gradientTransform="matrix(0.66, 0.75, -0.79, 0.62, 1078.46, -173.37)" xlink:href="#linear-gradient-65"/><linearGradient id="linear-gradient-71" x1="953.7" y1="1086.32" x2="638.09" y2="1127.13" gradientTransform="matrix(0.66, 0.75, -0.79, 0.62, 1078.46, -173.37)" xlink:href="#linear-gradient-39"/><linearGradient id="linear-gradient-72" x1="899.76" y1="1093.29" x2="692.02" y2="1120.16" gradientTransform="matrix(0.66, 0.75, -0.79, 0.62, 1078.46, -173.37)" xlink:href="#linear-gradient-65"/><linearGradient id="linear-gradient-73" x1="857.6" y1="1098.75" x2="734.19" y2="1114.7" gradientTransform="matrix(0.66, 0.75, -0.79, 0.62, 1078.46, -173.37)" xlink:href="#linear-gradient-39"/><linearGradient id="linear-gradient-74" x1="-3685.1" y1="-6076.21" x2="-3686.5" y2="-6042.1" gradientTransform="matrix(0.37, 0.93, -0.93, 0.37, -3576.35, 6691.24)" xlink:href="#linear-gradient-6"/><linearGradient id="linear-gradient-75" x1="-7985.2" y1="-2767.72" x2="-8005.53" y2="-2810.3" gradientTransform="matrix(-0.18, 0.98, -0.98, -0.18, -3542.5, 8177.26)" xlink:href="#linear-gradient-6"/><linearGradient id="linear-gradient-76" x1="-7954.03" y1="-2699.45" x2="-7974.68" y2="-2742.69" gradientTransform="matrix(-0.18, 0.98, -0.98, -0.18, -3542.5, 8177.26)" xlink:href="#linear-gradient-6"/></defs><g id="Livello_2" data-name="Livello 2"><g id="Layer_4" data-name="Layer 4"><g class="cls-1"><ellipse class="cls-2" cx="1418.6" cy="2139.43" rx="267.48" ry="111.51" transform="translate(-110.25 77.34) rotate(-3.01)"/><ellipse class="cls-3" cx="1418.6" cy="2139.43" rx="260.59" ry="108.64" transform="translate(-110.25 77.34) rotate(-3.01)"/><ellipse class="cls-4" cx="1418.6" cy="2139.43" rx="253.7" ry="105.77" transform="translate(-110.25 77.34) rotate(-3.01)"/><ellipse class="cls-5" cx="1418.6" cy="2139.43" rx="246.81" ry="102.89" transform="translate(-110.25 77.34) rotate(-3.01)"/><ellipse class="cls-6" cx="1418.6" cy="2139.43" rx="239.92" ry="100.02" transform="translate(-110.25 77.34) rotate(-3.01)"/><ellipse class="cls-7" cx="1418.6" cy="2139.43" rx="233.03" ry="97.15" transform="translate(-110.25 77.34) rotate(-3.01)"/><ellipse class="cls-8" cx="1418.6" cy="2139.43" rx="226.14" ry="94.28" transform="translate(-110.25 77.34) rotate(-3.01)"/><ellipse class="cls-9" cx="1418.6" cy="2139.43" rx="219.25" ry="91.4" transform="translate(-110.24 77.34) rotate(-3.01)"/><ellipse class="cls-10" cx="1418.6" cy="2139.43" rx="212.36" ry="88.53" transform="translate(-110.25 77.34) rotate(-3.01)"/><ellipse class="cls-11" cx="1418.6" cy="2139.43" rx="205.47" ry="85.66" transform="translate(-110.24 77.34) rotate(-3.01)"/><ellipse class="cls-12" cx="1418.6" cy="2139.43" rx="198.58" ry="82.79" transform="translate(-110.24 77.34) rotate(-3.01)"/><ellipse class="cls-13" cx="1418.6" cy="2139.43" rx="191.69" ry="79.91" transform="translate(-110.24 77.34) rotate(-3.01)"/><ellipse class="cls-14" cx="1418.6" cy="2139.43" rx="184.8" ry="77.04" transform="matrix(1, -0.05, 0.05, 1, -110.24, 77.34)"/><ellipse class="cls-15" cx="1418.6" cy="2139.43" rx="177.91" ry="74.17" transform="translate(-110.24 77.34) rotate(-3.01)"/><ellipse class="cls-16" cx="1418.6" cy="2139.43" rx="171.02" ry="71.3" transform="translate(-110.24 77.34) rotate(-3.01)"/><ellipse class="cls-17" cx="1418.6" cy="2139.43" rx="164.13" ry="68.42" transform="translate(-110.24 77.34) rotate(-3.01)"/><ellipse class="cls-18" cx="1418.6" cy="2139.43" rx="157.24" ry="65.55" transform="translate(-110.24 77.34) rotate(-3.01)"/><ellipse class="cls-19" cx="1418.6" cy="2139.43" rx="150.35" ry="62.68" transform="translate(-110.24 77.34) rotate(-3.01)"/><ellipse class="cls-20" cx="1418.6" cy="2139.43" rx="143.46" ry="59.81" transform="translate(-110.24 77.34) rotate(-3.01)"/><ellipse class="cls-21" cx="1418.6" cy="2139.43" rx="136.57" ry="56.93" transform="translate(-110.24 77.33) rotate(-3.01)"/><ellipse class="cls-22" cx="1418.6" cy="2139.43" rx="129.68" ry="54.06" transform="translate(-110.24 77.33) rotate(-3.01)"/><ellipse class="cls-23" cx="1418.6" cy="2139.43" rx="122.79" ry="51.19" transform="translate(-110.24 77.33) rotate(-3.01)"/><ellipse class="cls-24" cx="1418.6" cy="2139.43" rx="115.9" ry="48.32" transform="translate(-110.24 77.33) rotate(-3.01)"/><ellipse class="cls-25" cx="1418.6" cy="2139.43" rx="109.01" ry="45.45" transform="translate(-110.24 77.33) rotate(-3.01)"/><ellipse class="cls-26" cx="1418.6" cy="2139.43" rx="102.12" ry="42.57" transform="translate(-110.23 77.33) rotate(-3.01)"/><ellipse class="cls-27" cx="1418.6" cy="2139.43" rx="95.23" ry="39.7" transform="translate(-110.23 77.33) rotate(-3.01)"/><ellipse class="cls-28" cx="1418.6" cy="2139.43" rx="88.34" ry="36.83" transform="translate(-110.23 77.33) rotate(-3.01)"/></g><g class="cls-1"><ellipse class="cls-2" cx="756.24" cy="1839.21" rx="247.5" ry="103.18" transform="translate(-95.41 42.19) rotate(-3.01)"/><ellipse class="cls-3" cx="756.24" cy="1839.21" rx="241.13" ry="100.52" transform="translate(-95.41 42.19) rotate(-3.01)"/><ellipse class="cls-4" cx="756.24" cy="1839.21" rx="234.75" ry="97.87" transform="translate(-95.41 42.19) rotate(-3.01)"/><ellipse class="cls-5" cx="756.24" cy="1839.21" rx="228.38" ry="95.21" transform="translate(-95.41 42.19) rotate(-3.01)"/><ellipse class="cls-6" cx="756.24" cy="1839.21" rx="222" ry="92.55" transform="translate(-95.41 42.19) rotate(-3.01)"/><ellipse class="cls-7" cx="756.24" cy="1839.21" rx="215.63" ry="89.89" transform="translate(-95.41 42.19) rotate(-3.01)"/><ellipse class="cls-8" cx="756.24" cy="1839.21" rx="209.25" ry="87.23" transform="translate(-95.41 42.19) rotate(-3.01)"/><ellipse class="cls-9" cx="756.24" cy="1839.21" rx="202.88" ry="84.58" transform="translate(-95.41 42.19) rotate(-3.01)"/><ellipse class="cls-10" cx="756.24" cy="1839.21" rx="196.5" ry="81.92" transform="translate(-95.41 42.19) rotate(-3.01)"/><ellipse class="cls-11" cx="756.24" cy="1839.21" rx="190.13" ry="79.26" transform="translate(-95.41 42.19) rotate(-3.01)"/><ellipse class="cls-12" cx="756.24" cy="1839.21" rx="183.75" ry="76.6" transform="translate(-95.41 42.19) rotate(-3.01)"/><ellipse class="cls-13" cx="756.24" cy="1839.21" rx="177.37" ry="73.95" transform="translate(-95.41 42.19) rotate(-3.01)"/><ellipse class="cls-14" cx="756.24" cy="1839.21" rx="171" ry="71.29" transform="translate(-95.41 42.19) rotate(-3.01)"/><ellipse class="cls-15" cx="756.24" cy="1839.21" rx="164.62" ry="68.63" transform="translate(-95.41 42.19) rotate(-3.01)"/><ellipse class="cls-16" cx="756.24" cy="1839.21" rx="158.25" ry="65.97" transform="translate(-95.41 42.19) rotate(-3.01)"/><ellipse class="cls-17" cx="756.24" cy="1839.21" rx="151.87" ry="63.31" transform="translate(-95.41 42.19) rotate(-3.01)"/><ellipse class="cls-18" cx="756.24" cy="1839.21" rx="145.5" ry="60.66" transform="translate(-95.41 42.19) rotate(-3.01)"/><ellipse class="cls-19" cx="756.24" cy="1839.21" rx="139.12" ry="58" transform="translate(-95.41 42.19) rotate(-3.01)"/><ellipse class="cls-20" cx="756.24" cy="1839.21" rx="132.75" ry="55.34" transform="translate(-95.41 42.19) rotate(-3.01)"/><ellipse class="cls-21" cx="756.24" cy="1839.21" rx="126.37" ry="52.68" transform="translate(-95.41 42.19) rotate(-3.01)"/><ellipse class="cls-22" cx="756.24" cy="1839.21" rx="120" ry="50.02" transform="translate(-95.41 42.19) rotate(-3.01)"/><ellipse class="cls-23" cx="756.24" cy="1839.21" rx="113.62" ry="47.37" transform="translate(-95.4 42.19) rotate(-3.01)"/><ellipse class="cls-24" cx="756.24" cy="1839.21" rx="107.24" ry="44.71" transform="translate(-95.4 42.19) rotate(-3.01)"/><ellipse class="cls-25" cx="756.24" cy="1839.21" rx="100.87" ry="42.05" transform="translate(-95.4 42.19) rotate(-3.01)"/><ellipse class="cls-26" cx="756.24" cy="1839.21" rx="94.49" ry="39.39" transform="translate(-95.4 42.19) rotate(-3.01)"/><ellipse class="cls-27" cx="756.24" cy="1839.21" rx="88.12" ry="36.74" transform="translate(-95.4 42.18) rotate(-3.01)"/><ellipse class="cls-28" cx="756.24" cy="1839.21" rx="81.74" ry="34.08" transform="matrix(1, -0.05, 0.05, 1, -95.4, 42.18)"/></g><g class="cls-1"><ellipse class="cls-2" cx="347.1" cy="1421.26" rx="247.5" ry="103.18" transform="translate(-74.06 20.16) rotate(-3.01)"/><ellipse class="cls-3" cx="347.1" cy="1421.26" rx="241.13" ry="100.52" transform="translate(-74.06 20.16) rotate(-3.01)"/><ellipse class="cls-4" cx="347.1" cy="1421.26" rx="234.75" ry="97.87" transform="translate(-74.06 20.16) rotate(-3.01)"/><ellipse class="cls-5" cx="347.1" cy="1421.26" rx="228.38" ry="95.21" transform="translate(-74.06 20.16) rotate(-3.01)"/><ellipse class="cls-6" cx="347.1" cy="1421.26" rx="222" ry="92.55" transform="translate(-74.06 20.16) rotate(-3.01)"/><ellipse class="cls-7" cx="347.1" cy="1421.26" rx="215.63" ry="89.89" transform="translate(-74.06 20.16) rotate(-3.01)"/><ellipse class="cls-8" cx="347.1" cy="1421.26" rx="209.25" ry="87.23" transform="translate(-74.06 20.16) rotate(-3.01)"/><ellipse class="cls-9" cx="347.1" cy="1421.26" rx="202.88" ry="84.58" transform="translate(-74.06 20.16) rotate(-3.01)"/><ellipse class="cls-10" cx="347.1" cy="1421.26" rx="196.5" ry="81.92" transform="translate(-74.06 20.16) rotate(-3.01)"/><ellipse class="cls-11" cx="347.1" cy="1421.26" rx="190.13" ry="79.26" transform="translate(-74.06 20.16) rotate(-3.01)"/><ellipse class="cls-12" cx="347.1" cy="1421.26" rx="183.75" ry="76.6" transform="translate(-74.06 20.16) rotate(-3.01)"/><ellipse class="cls-13" cx="347.1" cy="1421.26" rx="177.37" ry="73.95" transform="translate(-74.06 20.16) rotate(-3.01)"/><ellipse class="cls-14" cx="347.1" cy="1421.26" rx="171" ry="71.29" transform="translate(-74.06 20.16) rotate(-3.01)"/><ellipse class="cls-15" cx="347.1" cy="1421.26" rx="164.62" ry="68.63" transform="translate(-74.06 20.16) rotate(-3.01)"/><ellipse class="cls-16" cx="347.1" cy="1421.26" rx="158.25" ry="65.97" transform="translate(-74.06 20.16) rotate(-3.01)"/><ellipse class="cls-17" cx="347.1" cy="1421.26" rx="151.87" ry="63.31" transform="translate(-74.06 20.16) rotate(-3.01)"/><ellipse class="cls-18" cx="347.1" cy="1421.26" rx="145.5" ry="60.66" transform="translate(-74.05 20.16) rotate(-3.01)"/><ellipse class="cls-19" cx="347.1" cy="1421.26" rx="139.12" ry="58" transform="translate(-74.05 20.16) rotate(-3.01)"/><ellipse class="cls-20" cx="347.1" cy="1421.26" rx="132.75" ry="55.34" transform="translate(-74.05 20.16) rotate(-3.01)"/><ellipse class="cls-21" cx="347.1" cy="1421.26" rx="126.37" ry="52.68" transform="translate(-74.05 20.16) rotate(-3.01)"/><ellipse class="cls-22" cx="347.1" cy="1421.26" rx="120" ry="50.02" transform="translate(-74.05 20.16) rotate(-3.01)"/><ellipse class="cls-23" cx="347.1" cy="1421.26" rx="113.62" ry="47.37" transform="translate(-74.05 20.16) rotate(-3.01)"/><ellipse class="cls-24" cx="347.1" cy="1421.26" rx="107.24" ry="44.71" transform="translate(-74.05 20.16) rotate(-3.01)"/><ellipse class="cls-25" cx="347.1" cy="1421.26" rx="100.87" ry="42.05" transform="translate(-74.05 20.16) rotate(-3.01)"/><ellipse class="cls-26" cx="347.1" cy="1421.26" rx="94.49" ry="39.39" transform="translate(-74.05 20.16) rotate(-3.01)"/><ellipse class="cls-27" cx="347.1" cy="1421.26" rx="88.12" ry="36.74" transform="translate(-74.05 20.16) rotate(-3.01)"/><ellipse class="cls-28" cx="347.1" cy="1421.26" rx="81.74" ry="34.08" transform="translate(-74.05 20.16) rotate(-3.01)"/></g><g class="cls-1"><ellipse class="cls-2" cx="247.24" cy="1076.68" rx="247.5" ry="103.18" transform="translate(-56.12 14.45) rotate(-3.01)"/><ellipse class="cls-3" cx="247.24" cy="1076.68" rx="241.13" ry="100.52" transform="translate(-56.12 14.45) rotate(-3.01)"/><ellipse class="cls-4" cx="247.24" cy="1076.68" rx="234.75" ry="97.87" transform="translate(-56.12 14.45) rotate(-3.01)"/><ellipse class="cls-5" cx="247.24" cy="1076.68" rx="228.38" ry="95.21" transform="translate(-56.12 14.45) rotate(-3.01)"/><ellipse class="cls-6" cx="247.24" cy="1076.68" rx="222" ry="92.55" transform="translate(-56.12 14.45) rotate(-3.01)"/><ellipse class="cls-7" cx="247.24" cy="1076.68" rx="215.63" ry="89.89" transform="translate(-56.12 14.45) rotate(-3.01)"/><ellipse class="cls-8" cx="247.24" cy="1076.68" rx="209.25" ry="87.23" transform="translate(-56.12 14.45) rotate(-3.01)"/><ellipse class="cls-9" cx="247.24" cy="1076.68" rx="202.88" ry="84.58" transform="translate(-56.12 14.45) rotate(-3.01)"/><ellipse class="cls-10" cx="247.25" cy="1076.68" rx="196.5" ry="81.92" transform="translate(-56.12 14.45) rotate(-3.01)"/><ellipse class="cls-11" cx="247.25" cy="1076.68" rx="190.13" ry="79.26" transform="translate(-56.12 14.45) rotate(-3.01)"/><ellipse class="cls-12" cx="247.25" cy="1076.68" rx="183.75" ry="76.6" transform="translate(-56.12 14.45) rotate(-3.01)"/><ellipse class="cls-13" cx="247.25" cy="1076.68" rx="177.37" ry="73.95" transform="translate(-56.12 14.45) rotate(-3.01)"/><ellipse class="cls-14" cx="247.25" cy="1076.68" rx="171" ry="71.29" transform="translate(-56.12 14.45) rotate(-3.01)"/><ellipse class="cls-15" cx="247.25" cy="1076.68" rx="164.62" ry="68.63" transform="translate(-56.12 14.45) rotate(-3.01)"/><ellipse class="cls-16" cx="247.25" cy="1076.68" rx="158.25" ry="65.97" transform="translate(-56.12 14.45) rotate(-3.01)"/><ellipse class="cls-17" cx="247.25" cy="1076.68" rx="151.87" ry="63.31" transform="translate(-56.12 14.45) rotate(-3.01)"/><ellipse class="cls-18" cx="247.25" cy="1076.68" rx="145.5" ry="60.66" transform="translate(-56.12 14.45) rotate(-3.01)"/><ellipse class="cls-19" cx="247.25" cy="1076.68" rx="139.12" ry="58" transform="translate(-56.12 14.45) rotate(-3.01)"/><ellipse class="cls-20" cx="247.25" cy="1076.68" rx="132.75" ry="55.34" transform="translate(-56.12 14.45) rotate(-3.01)"/><ellipse class="cls-21" cx="247.25" cy="1076.68" rx="126.37" ry="52.68" transform="translate(-56.12 14.45) rotate(-3.01)"/><ellipse class="cls-22" cx="247.25" cy="1076.68" rx="120" ry="50.02" transform="translate(-56.12 14.45) rotate(-3.01)"/><ellipse class="cls-23" cx="247.25" cy="1076.68" rx="113.62" ry="47.37" transform="translate(-56.12 14.45) rotate(-3.01)"/><ellipse class="cls-24" cx="247.25" cy="1076.68" rx="107.24" ry="44.71" transform="translate(-56.12 14.45) rotate(-3.01)"/><ellipse class="cls-25" cx="247.25" cy="1076.68" rx="100.87" ry="42.05" transform="translate(-56.12 14.45) rotate(-3.01)"/><ellipse class="cls-26" cx="247.25" cy="1076.68" rx="94.49" ry="39.39" transform="translate(-56.12 14.45) rotate(-3.01)"/><ellipse class="cls-27" cx="247.25" cy="1076.68" rx="88.12" ry="36.74" transform="translate(-56.12 14.45) rotate(-3.01)"/><ellipse class="cls-28" cx="247.25" cy="1076.68" rx="81.74" ry="34.08" transform="translate(-56.12 14.45) rotate(-3.01)"/></g><path class="cls-29" d="M1450.41,677.9l294.81,190.78c20.83,15.74,16.69,72.18-.38,91.94l-619.2,716.54a46.89,46.89,0,0,1-69.52,1.59L790.21,1398c-13.51-14.25-18.94-58.88-5.94-73.6l589-638.78A57,57,0,0,1,1450.41,677.9Z"/><path class="cls-30" d="M1450.54,675.73l294.81,190.78c20.83,15.74,16.69,72.18-.38,91.93L1125.77,1675a46.88,46.88,0,0,1-69.52,1.58L790.33,1395.86c-13.5-14.25-18.93-58.88-5.93-73.6l589-638.78A57,57,0,0,1,1450.54,675.73Z"/><path class="cls-31" d="M1451.68,643.69l287.48,217.17a45.15,45.15,0,0,1,6.95,65.55L1126.91,1643a46.89,46.89,0,0,1-69.52,1.59L791.48,1363.83a37.91,37.91,0,0,1-.9-51.18l584-661.21A57,57,0,0,1,1451.68,643.69Z"/><path class="cls-32" d="M1732.16,914.35l-301.09,348.42-216,249.93L1113,1630.89a28.41,28.41,0,0,1-42.18,1L804.86,1351.14a19.37,19.37,0,0,1-.45-26.27l584-661.2a38.53,38.53,0,0,1,52.16-5.26l79.34,60a8.66,8.66,0,0,1,.85,13.12l-9.23,9a11.34,11.34,0,0,0,.83,16.94l66.32,53.27a15.57,15.57,0,0,0,20.26-.66l9.24-8.5a16.12,16.12,0,0,1,20.58-1l99.29,75a26.71,26.71,0,0,1,4.11,38.77Z"/><path class="cls-33" d="M1757,894a44.89,44.89,0,0,1-11,30.37l-619.21,716.54a46.87,46.87,0,0,1-69.51,1.59L791.39,1361.76a37.81,37.81,0,0,1-10.3-23.5,37.85,37.85,0,0,0,10.39,25.57l265.91,280.71a46.89,46.89,0,0,0,69.52-1.59l619.2-716.54A45,45,0,0,0,1757,894Z"/><path class="cls-34" d="M1581.38,791.19l-47.09-35.85a4.29,4.29,0,0,1-.43-6.55h0a5.72,5.72,0,0,1,7.37-.6L1588.32,784a4.28,4.28,0,0,1,.42,6.55h0A5.7,5.7,0,0,1,1581.38,791.19Z"/><g class="cls-1"><ellipse class="cls-2" cx="1130.21" cy="1092.36" rx="81.73" ry="196.04" transform="translate(-338.37 532.09) rotate(-23.14)"/><ellipse class="cls-3" cx="1130.21" cy="1092.36" rx="79.62" ry="190.99" transform="translate(-338.37 532.09) rotate(-23.14)"/><ellipse class="cls-4" cx="1130.21" cy="1092.36" rx="77.52" ry="185.94" transform="translate(-338.37 532.09) rotate(-23.14)"/><ellipse class="cls-5" cx="1130.21" cy="1092.36" rx="75.41" ry="180.89" transform="translate(-338.37 532.09) rotate(-23.14)"/><ellipse class="cls-6" cx="1130.21" cy="1092.36" rx="73.31" ry="175.84" transform="translate(-338.37 532.09) rotate(-23.14)"/><ellipse class="cls-7" cx="1130.21" cy="1092.36" rx="71.2" ry="170.79" transform="translate(-338.37 532.09) rotate(-23.14)"/><ellipse class="cls-8" cx="1130.21" cy="1092.36" rx="69.1" ry="165.74" transform="translate(-338.37 532.09) rotate(-23.14)"/><ellipse class="cls-9" cx="1130.21" cy="1092.36" rx="66.99" ry="160.69" transform="translate(-338.37 532.09) rotate(-23.14)"/><ellipse class="cls-10" cx="1130.21" cy="1092.36" rx="64.89" ry="155.64" transform="translate(-338.37 532.09) rotate(-23.14)"/><ellipse class="cls-11" cx="1130.21" cy="1092.36" rx="62.78" ry="150.59" transform="matrix(0.92, -0.39, 0.39, 0.92, -338.37, 532.09)"/><ellipse class="cls-12" cx="1130.21" cy="1092.36" rx="60.68" ry="145.54" transform="translate(-338.37 532.09) rotate(-23.14)"/><ellipse class="cls-13" cx="1130.21" cy="1092.36" rx="58.57" ry="140.49" transform="translate(-338.37 532.09) rotate(-23.14)"/><ellipse class="cls-14" cx="1130.21" cy="1092.36" rx="56.47" ry="135.44" transform="translate(-338.37 532.09) rotate(-23.14)"/><ellipse class="cls-15" cx="1130.21" cy="1092.36" rx="54.36" ry="130.39" transform="translate(-338.37 532.09) rotate(-23.14)"/><ellipse class="cls-16" cx="1130.21" cy="1092.36" rx="52.26" ry="125.34" transform="translate(-338.37 532.09) rotate(-23.14)"/><ellipse class="cls-17" cx="1130.21" cy="1092.36" rx="50.15" ry="120.29" transform="translate(-338.37 532.09) rotate(-23.14)"/><ellipse class="cls-18" cx="1130.21" cy="1092.36" rx="48.04" ry="115.24" transform="translate(-338.37 532.09) rotate(-23.14)"/><ellipse class="cls-19" cx="1130.21" cy="1092.36" rx="45.94" ry="110.19" transform="translate(-338.37 532.09) rotate(-23.14)"/><ellipse class="cls-20" cx="1130.21" cy="1092.36" rx="43.83" ry="105.14" transform="translate(-338.37 532.09) rotate(-23.14)"/><ellipse class="cls-21" cx="1130.21" cy="1092.36" rx="41.73" ry="100.09" transform="translate(-338.37 532.09) rotate(-23.14)"/><ellipse class="cls-22" cx="1130.21" cy="1092.36" rx="39.62" ry="95.04" transform="translate(-338.37 532.09) rotate(-23.14)"/><ellipse class="cls-23" cx="1130.21" cy="1092.36" rx="37.52" ry="89.99" transform="translate(-338.37 532.08) rotate(-23.14)"/><ellipse class="cls-24" cx="1130.21" cy="1092.36" rx="35.41" ry="84.94" transform="translate(-338.37 532.08) rotate(-23.14)"/><ellipse class="cls-25" cx="1130.21" cy="1092.36" rx="33.31" ry="79.9" transform="translate(-338.36 532.08) rotate(-23.14)"/><ellipse class="cls-26" cx="1130.21" cy="1092.36" rx="31.2" ry="74.85" transform="matrix(0.92, -0.39, 0.39, 0.92, -338.36, 532.08)"/><ellipse class="cls-27" cx="1130.21" cy="1092.36" rx="29.1" ry="69.8" transform="translate(-338.36 532.08) rotate(-23.14)"/><ellipse class="cls-28" cx="1130.21" cy="1092.36" rx="26.99" ry="64.75" transform="translate(-338.36 532.08) rotate(-23.14)"/></g><polygon class="cls-35" points="1457.92 1231.21 1241.95 1481.14 1137.2 1159.34 1137.11 1159.1 1397.24 1045.12 1457.92 1231.21"/><path class="cls-36" d="M1397.77,1049.21c1.47,18.78-8.21,41.77-29.74,65.25-46.16,50.35-129.22,83.9-185.55,74.88-20.23-3.24-34.22-11.51-41.76-23.14-13.43-20.75-6.2-52.11,23.39-84.39,46.14-50.36,129.22-83.9,185.52-74.88C1379.67,1011.74,1396,1027.71,1397.77,1049.21Z"/><path class="cls-37" d="M1115.44,1060.91l213.81-93.69,27.54,74.87,0,0a34.21,34.21,0,0,1,2.69,10.9c1.21,15.43-6.75,34.32-24.44,53.63-37.94,41.38-106.2,68.95-152.5,61.53-16.62-2.66-28.12-9.46-34.32-19a31.62,31.62,0,0,1-2.88-5.61h0c-.26-.64-.5-1.3-.71-2Z"/><path class="cls-38" d="M1329.68,970.59c1.21,15.43-6.75,34.33-24.44,53.63-37.94,41.38-106.21,69-152.5,61.54-16.63-2.67-28.13-9.47-34.33-19-11-17.06-5.09-42.83,19.23-69.36,37.92-41.39,106.2-69,152.48-61.54C1314.81,939.79,1328.26,952.91,1329.68,970.59Z"/><path class="cls-39" d="M1305.4,926.87l-5.49-72.22a177.91,177.91,0,0,1,5-57.5c5.9-23.13,12.22-55.31,6.06-69-10.12-22.5-52.87-119.24-63-119.24S1227.78,655,1227.78,655s-79.88-37.12-96.75-28.12-121.49,288.28-118.12,300,61.87,62.28,92.25,87,48.37,56.91,48.37,56.91,86.62,1.59,130.49-45.66S1305.4,926.87,1305.4,926.87Z"/><path class="cls-40" d="M1248,608.92l-59-12.34a17.49,17.49,0,0,0-19.14,9.14l-10.08,19.65,62.93,13.71,6.29,10.71S1241.28,611.6,1248,608.92Z"/><path class="cls-41" d="M1235.5,637.72l68.38-226.17,75.74,28v0a35.1,35.1,0,0,1,10.16,5.09c12.68,9.21,22,27.76,25.23,54.06,6.93,56.41-16.71,127.08-52.84,157.85-13,11-25.77,15.44-37.2,13.93a33,33,0,0,1-6.21-1.46h0c-.67-.23-1.32-.48-2-.75Z"/><path class="cls-42" d="M1306.75,413.43c12.68,9.21,22,27.76,25.23,54.06,6.93,56.41-16.71,127.08-52.84,157.85-13,11-25.77,15.44-37.2,13.93-20.38-2.71-36.32-24.22-40.76-60.38-7-56.39,16.71-127.08,52.82-157.84C1273.27,404.64,1292.22,402.91,1306.75,413.43Z"/><path class="cls-43" d="M1155.27,626.13l77-254.79,85.32,31.54v0a39.33,39.33,0,0,1,11.45,5.74c14.28,10.37,24.77,31.27,28.42,60.9,7.8,63.54-18.83,143.15-59.53,177.82-14.62,12.45-29,17.39-41.9,15.69a37.31,37.31,0,0,1-7-1.65h0c-.75-.26-1.49-.54-2.23-.84Z"/><path class="cls-44" d="M1235.54,373.46c14.27,10.38,24.77,31.27,28.41,60.9,7.81,63.54-18.82,143.16-59.52,177.82-14.62,12.45-29,17.39-41.91,15.69-23-3-40.91-27.28-45.92-68-7.82-63.52,18.83-143.16,59.51-177.8C1197.82,363.56,1219.16,361.61,1235.54,373.46Z"/><path class="cls-45" d="M991.43,290.53a112.78,112.78,0,0,0,55,45.68l166.52,60.48h0a29.51,29.51,0,0,1,12.19,5.25c11,8,19.07,24.06,21.87,46.87,6,48.9-14.49,110.17-45.81,136.85-10.61,9-21.07,12.88-30.54,12.19l-.08.35-1.6-.46h0a28.44,28.44,0,0,1-7.61-2.17l-163.9-46.53a89.87,89.87,0,0,0-66.8,7.13L852,598.07l98-374.43Z"/><ellipse class="cls-46" cx="769.83" cy="374.88" rx="375.46" ry="196.38" transform="translate(223.2 1033.96) rotate(-76.29)"/><ellipse class="cls-47" cx="751.17" cy="367.8" rx="375.46" ry="196.38" transform="translate(215.85 1010.42) rotate(-76.29)"/><path class="cls-48" d="M714,65.75c-106.81,91-176.78,299.93-156.26,466.76s123.75,228.3,230.56,137.34c33.24-28.32,62.92-68.06,87.41-114.43,45.44-86,73-194.65,72.41-295.21a488.35,488.35,0,0,0-3.56-57.12C924.07,36.25,820.85-25.22,714,65.75Zm12.33,419-.12-.07L791.66,257.2c12.77,9.28,22.16,28,25.42,54.47,7,56.83-16.84,128.05-53.24,159.05C750.76,481.86,737.87,486.27,726.35,484.76Z"/><path class="cls-49" d="M791.66,257.2c12.77,9.28,22.16,28,25.42,54.47,7,56.83-16.84,128.05-53.24,159.05-13.08,11.14-26,15.55-37.49,14-20.53-2.74-36.59-24.41-41.07-60.85-7-56.82,16.84-128,53.22-159C757.92,248.34,777,246.6,791.66,257.2Z"/><path class="cls-50" d="M792.05,255.87l-.39,1.33c12.77,9.28,22.16,28,25.42,54.47,7,56.83-16.84,128.05-53.24,159.05-13.08,11.14-26,15.55-37.49,14l149.38,70.66c45.44-86,73-194.65,72.41-295.21Z"/><path class="cls-51" d="M1131,626.92,997.29,973.28l97.3-6.88L1201.21,648S1138.69,617.06,1131,626.92Z"/><polygon class="cls-52" points="1094.59 966.4 1151.03 996.89 1081.44 1006.72 997.29 973.28 1094.59 966.4"/><polygon class="cls-53" points="1151.03 996.89 1250.69 652.66 1222.73 639.08 1094.59 966.4 1151.03 996.89"/><path class="cls-54" d="M1099.25,612.18s-38.83-7-50.33,26.9,6.6,47.4,6.6,47.4l145.54,18.63,21.67-66Z"/><path class="cls-55" d="M1049.74,685.74s-36,9.34-40.92,41.85,6.73,44.42,6.73,44.42l160.33,14.29,25.18-81.19Z"/><path class="cls-56" d="M1012.83,855.9s-26.48-14.29-19-44.74S1015.55,772,1015.55,772l160.33,14.29L1151,855.9Z"/><path class="cls-57" d="M1012.83,855.9s-19.06,7.89-20.35,35.5,18.83,37,44.87,37h94.27L1151,855.9Z"/><path class="cls-58" d="M1222.73,639.08l45.43,77.28s11.4,14.25,3.89,30.95S1245.89,764,1245.89,764l-44.83-58.89Z"/><path class="cls-59" d="M1175.88,786.3l49.82,41.4s14,1.58,23.82-20.7-3.63-43-3.63-43l-44.83-58.89Z"/><path class="cls-60" d="M1151,855.9l56,36.24s14.5,2.83,23.82-18.12-5.18-46.32-5.18-46.32l-49.82-41.4Z"/><path class="cls-61" d="M1131.62,928.38l48,27.74s31.07-4.22,38.84-27.74-11.39-36.24-11.39-36.24l-56-36.24Z"/><path class="cls-62" d="M1812.14,1245.78c19.24-62.18,3.28-132.84-46.57-179.82-68.65-64.69-175.54-60-238.77,10.53s-58.86,180.1,9.79,244.79a165.65,165.65,0,0,0,189.84,27.27,168.92,168.92,0,0,0,48.93-37.83A173.67,173.67,0,0,0,1812.14,1245.78Zm-232.51,27.51c-42.85-40.37-45.58-108.76-6.11-152.78s106.17-46.94,149-6.56c31.11,29.32,41.08,73.42,29.07,112.23a108.8,108.8,0,0,1-23,40.52,105.52,105.52,0,0,1-30.54,23.61A103.37,103.37,0,0,1,1579.63,1273.29Z"/><path class="cls-63" d="M1726.43,1348.55a165.65,165.65,0,0,1-189.84-27.27l-9.95-17.21,53-30.78a103.37,103.37,0,0,0,118.48,17Z"/><path class="cls-64" d="M1775.36,1310.72a168.92,168.92,0,0,1-48.93,37.83l-28.32-58.24a105.52,105.52,0,0,0,30.54-23.61,108.8,108.8,0,0,0,23-40.52l49.28,1.19,11.25,18.41A173.67,173.67,0,0,1,1775.36,1310.72Z"/><path class="cls-65" d="M1800.89,1227.37c19.24-62.18,3.28-132.84-46.57-179.82-68.65-64.69-175.54-60-238.77,10.53s-58.86,180.09,9.79,244.79a165.65,165.65,0,0,0,189.84,27.27,169.23,169.23,0,0,0,48.93-37.83A173.88,173.88,0,0,0,1800.89,1227.37Zm-232.51,27.51c-42.85-40.38-45.59-108.77-6.11-152.78s106.17-46.94,149-6.57c31.12,29.33,41.08,73.43,29.07,112.24a108.71,108.71,0,0,1-22.95,40.52,105.6,105.6,0,0,1-30.55,23.61A103.36,103.36,0,0,1,1568.38,1254.88Z"/><path class="cls-66" d="M1715.18,1330.14a165.65,165.65,0,0,1-189.84-27.27l43-48a103.36,103.36,0,0,0,118.47,17Z"/><path class="cls-67" d="M1764.11,1292.31a169.23,169.23,0,0,1-48.93,37.83l-28.33-58.24a105.6,105.6,0,0,0,30.55-23.61,108.71,108.71,0,0,0,22.95-40.52l60.54,19.6A173.88,173.88,0,0,1,1764.11,1292.31Z"/><path class="cls-68" d="M1985.08,880.68c48.23-56.26,7.85-170-90.2-254.06S1678.25,520,1630,576.28c-38.83,45.3-20.2,127.86,39.7,202.19-19.49,47.59-24.82,63-20.49,105.18,6,58.46,10.55,77.56,10.55,77.56s38.5-78.22,92.42-106.09C1842.77,918.31,1942,930.93,1985.08,880.68Z"/><path class="cls-69" d="M1978.49,857.89c48.23-56.25,7.85-170-90.2-254.06s-216.62-106.59-264.85-50.33c-38.84,45.29-20.21,127.86,39.69,202.19-19.49,47.58-24.82,63-20.49,105.18,6,58.45,10.55,77.55,10.55,77.55s38.51-78.22,92.42-106.09C1836.18,895.52,1935.41,908.15,1978.49,857.89Z"/><circle class="cls-70" cx="1755.08" cy="654.79" r="19.12" transform="matrix(0.52, -0.86, 0.86, 0.52, 286.09, 1817.17)"/><circle class="cls-70" cx="1799.71" cy="698.74" r="19.12" transform="translate(-84.74 279.16) rotate(-8.67)"/><circle class="cls-70" cx="1844.35" cy="742.68" r="19.12" transform="translate(-87.42 272.07) rotate(-8.24)"/><path class="cls-71" d="M364.22,1166.68l32,64.77a8.82,8.82,0,0,0,6.65,4.82l60.43,3c7.24,1,21.17,17.35,15.93,22.45l-51.72,50.42a8.83,8.83,0,0,0-2.54,7.81l12.21,71.19a8.81,8.81,0,0,1-12.79,9.29l-63.94-33.61a8.81,8.81,0,0,0-8.2,0l-63.94,33.61c-6.47,3.41-28.63-6.24-27.39-13.44l26.81-67a8.83,8.83,0,0,0-2.54-7.81l-51.72-50.41a8.82,8.82,0,0,1,4.89-15l71.47-10.39a8.78,8.78,0,0,0,6.64-4.82l20.83-78C340.49,1146.93,361,1160.12,364.22,1166.68Z"/><path class="cls-72" d="M349,1157.52l32,64.77a8.83,8.83,0,0,0,6.64,4.83l71.48,10.38a8.83,8.83,0,0,1,4.89,15L412.28,1303a8.85,8.85,0,0,0-2.53,7.81L422,1382a8.83,8.83,0,0,1-12.8,9.3l-63.93-33.61a8.77,8.77,0,0,0-8.21,0l-63.93,33.61a8.82,8.82,0,0,1-12.8-9.3l12.21-71.19A8.83,8.83,0,0,0,270,1303l-51.72-50.41a8.83,8.83,0,0,1,4.89-15l71.48-10.38a8.85,8.85,0,0,0,6.64-4.83l32-64.77A8.82,8.82,0,0,1,349,1157.52Z"/><path class="cls-73" d="M368.29,860c17.19,21.65,29.33,47.47,20.1,54.61C371,928.08,289.08,956,289.08,956s7.19-108.74,29.38-125.76c-3.71-6.66-7-13.27-9.74-18.93-4.44-9.26-7.19-15.94-7.19-15.94l-.76-15.39s53.54-32.55,66.1-27.95,63.48,24.41,66.56,34.49c.62,2-1.5-1.29-5.28,5.1C416.59,811.07,388.48,845.27,368.29,860Z"/><path class="cls-74" d="M334.24,890.93a137.56,137.56,0,0,1-36.09,59.27,26.72,26.72,0,0,1-20.93,7.4c-5.16-.45-11.3-.33-16,1.7-10,4.3-32.3,17-32.3,17s-34.6-91.12-62.28-97.66c0,0,45-18.07,50.75-36.53s0-15,17.3-37.29,23.56-85.87,25.09-109.33,4.75-36.91,14.87-36.91,26.66-2.31,29.35,27.69-5.31,45.64-5.31,45.64l1.55,36.52,1.32,26.9,0,0a152.64,152.64,0,0,1,10.64,13.59C324.88,827,343.3,860.16,334.24,890.93Z"/><path class="cls-75" d="M392.13,907.39s-30.68,1.39-41.76-3.48S338,885.25,339.85,879.76s7.59-8.5,7.59-8.5a88.33,88.33,0,0,0,18.12,7.14c11.23,3.2,25.67,1.72,25.28,3.28S392.13,907.39,392.13,907.39Z"/><path class="cls-76" d="M398.4,933.94a100.45,100.45,0,0,1-33-1.23c-18-3.7-18.72-12.9-18.15-18.22s6.17-9.42,6.17-9.42l40.2,1.58S405.27,933,398.4,933.94Z"/><path class="cls-77" d="M389.58,882.25s-5.13,8.26-2.94,15.85,3.62,9.29,3.62,9.29,28-10.54,43.83-19.86,15-18.49,12.91-24.07-8.75-7.91-8.75-7.91S426.8,867.93,389.58,882.25Z"/><path class="cls-78" d="M395.05,905.07s-8.2,7.62-6.25,16.69a17.5,17.5,0,0,0,9.6,12.18s39.88-13.1,43.71-23.13-1.77-27.63-1.77-27.63Z"/><path class="cls-79" d="M428.15,791.57c-18.62,12-49,25.51-49,25.51l-40-2.29s23-19.12,29.88-18.84,12.19,2.22,15,1.07,15.4-8.63-1.08-13.63c-7.14-2.17-18.22-7.88-24.65-4.43-5.07,2.7-34,21.91-46.1,30a152.64,152.64,0,0,0-10.64-13.59l0,0-.76-15.39s53.54-32.55,66.1-27.95,63.48,24.41,66.56,34.49C434.05,788.51,431.93,785.18,428.15,791.57Z"/><path class="cls-80" d="M271.33,666.72s13.57-3.19,15.17,8.25,0,24.74,0,24.74l-23.42-4.79S261.48,671,271.33,666.72Z"/><path class="cls-81" d="M385.68,845.71c-10.26,3.39-46.43-13.08-46.43-13.08s-3.14-20.09,4.38-21.58,36.42,1.46,36.42,1.46Z"/><path class="cls-82" d="M389.58,882.25S348,875.5,339.82,865.71,333,831.43,347.66,835,384,845.68,384,845.68Z"/><path class="cls-83" d="M431.85,817.08s12,2.09,12.36,16-6.28,29.3-20.58,34.18c0,0-31.47,15.63-36,14.93s-10.77-26.17-1.13-38.86C386.49,843.37,420.19,832.42,431.85,817.08Z"/><path class="cls-84" d="M431.85,787c.47-10.45,10.63,25.72,0,35s-41,22.52-47.95,22.52-11.51-11.44-11.16-21.64,11.61-14.13,11.61-14.13S431.69,790.37,431.85,787Z"/><path class="cls-85" d="M153.12,855.48l26.7-15c8.84-4.54,21.34-2.43,35.43,7.39,1.63,1.14,3.25,2.38,4.83,3.65.52.4,1,.86,1.53,1.26.69.62,1.4,1.16,2.11,1.81.28.25.58.57.88.85,1.1,1,2.18,2,3.27,3.09.47.49,1,.92,1.48,1.41l.69.76c.67.69,1.34,1.42,2,2.15s1.2,1.27,1.78,1.94l0,0c.27.33.59.74.9,1.08.53.6,1.05,1.21,1.54,1.83l1.35,1.59c.54.66,1.07,1.4,1.63,2.09.37.51.8,1,1.17,1.54l.62.79c1.06,1.44,2.11,2.92,3.14,4.4,0,.06.1.12.13.17.15.23.27.44.42.66.81,1.2,1.62,2.39,2.42,3.63.29.46.55.93.86,1.38s.65,1.07,1,1.61l.94,1.54c.68,1.12,1.31,2.25,1.93,3.37.19.34.4.67.55,1l.2.3c.88,1.64,1.75,3.27,2.57,4.9.11.25.22.5.35.73.29.59.57,1.19.85,1.75.43.93.9,1.83,1.32,2.75.25.55.47,1.11.71,1.66.36.79.71,1.58,1,2.37.23.58.5,1.12.74,1.7s.5,1.39.8,2.08c.41,1.07.81,2.11,1.21,3.18.16.46.35.9.51,1.35s.33,1.12.51,1.66c.55,1.57,1.05,3.1,1.48,4.67.05.14.09.32.14.46.18.55.37,1.09.53,1.65s.24,1,.38,1.52c.22.83.45,1.66.63,2.47.32,1.36.62,2.69.89,4,.17.79.32,1.58.46,2.36.26,1.41.48,2.82.66,4.24.1.66.2,1.32.28,2,.22,2,.41,4.07.49,6.05s.06,3.71,0,5.5c0,.45-.05.91-.07,1.35s-.05,1-.08,1.43-.16.89-.18,1.38c-.14,1.32-.34,2.6-.58,3.81,0,.39-.08.85-.16,1.23s-.22.72-.3,1.1c-.17.7-.36,1.41-.56,2-.12.43-.21.89-.36,1.27s-.34.85-.5,1.3-.38.95-.56,1.41a4.59,4.59,0,0,0-.31.77c-.36.73-.75,1.4-1.15,2.05-.11.23-.22.45-.34.65l-.09.15a22.67,22.67,0,0,1-1.73,2.42q-.14.18-.3.36l-.62.63c-.3.36-.62.73-1,1.07s-.66.55-1,.83l-.66.55c-.15.11-.26.23-.4.34a24.62,24.62,0,0,1-2.26,1.42l-.27.14-26.68,14.93a18.81,18.81,0,0,0,2.91-1.89,8.21,8.21,0,0,0,.66-.54,17.9,17.9,0,0,0,2-1.92l.6-.61a27.54,27.54,0,0,0,2.14-3,5,5,0,0,0,.35-.65c.51-.87,1-1.82,1.43-2.8.2-.48.38-1,.56-1.41.3-.83.59-1.69.86-2.58.22-.65.39-1.35.56-2s.35-1.54.5-2.32c.22-1.24.4-2.51.54-3.83.1-.93.21-1.83.26-2.8,0-.46.06-.91.07-1.36.06-1.78.09-3.59,0-5.5s-.24-4-.49-6c-.07-.64-.18-1.33-.26-2-.2-1.42-.4-2.83-.66-4.25-.13-.77-.31-1.56-.46-2.36-.27-1.34-.57-2.67-.91-4-.18-.82-.39-1.66-.61-2.49-.27-1-.59-2-.87-3.05,0,0,0-.09,0-.12q-.75-2.53-1.62-5.13c-.34-1-.67-2-1-3s-.8-2.12-1.21-3.19c-.5-1.26-1-2.52-1.53-3.75-.33-.81-.68-1.61-1-2.4-.64-1.48-1.34-3-2-4.41-.28-.56-.56-1.16-.85-1.74-1-2-2-4-3.1-6-.17-.31-.38-.64-.55-1-.93-1.67-1.91-3.32-2.89-4.94-.33-.53-.66-1.07-1-1.61-1.05-1.68-2.14-3.37-3.26-5l-.44-.64c-1.24-1.82-2.55-3.6-3.89-5.37-.37-.51-.78-1-1.17-1.54-1-1.26-2-2.49-3-3.69l-1.54-1.83a7.9,7.9,0,0,0-.54-.6c-.72-.83-1.47-1.65-2.21-2.45l-2-2.17c-.73-.73-1.44-1.44-2.19-2.16-1.06-1.07-2.17-2.11-3.25-3.1s-2-1.78-3-2.64c-.5-.42-1-.86-1.49-1.25-1.62-1.28-3.22-2.54-4.85-3.68C174.46,853,162,850.93,153.12,855.48Z"/><path class="cls-86" d="M242.51,960.39c1.4,34-20.47,45.61-48.87,25.8s-52.55-63.48-53.95-97.52,20.5-45.6,48.88-25.8S241.11,926.32,242.51,960.39Z"/><path class="cls-87" d="M65.17,887.23l72.68-39c10.81-5.56,26.11-3,43.34,9,2,1.39,4,2.91,5.91,4.46.63.5,1.23,1,1.86,1.55.85.75,1.72,1.41,2.58,2.2.36.31.72.7,1.09,1,1.34,1.2,2.66,2.49,4,3.78.58.6,1.23,1.13,1.82,1.74.28.3.56.61.83.92.83.85,1.65,1.74,2.47,2.63s1.47,1.55,2.18,2.38c0,0,0,0,.06,0,.33.4.72.9,1.09,1.32.66.73,1.29,1.48,1.89,2.24s1.1,1.28,1.65,2,1.31,1.71,2,2.55c.45.63,1,1.26,1.44,1.89l.75,1c1.3,1.76,2.59,3.56,3.85,5.38,0,.06.11.14.15.21.19.27.33.53.52.8,1,1.46,2,2.93,3,4.44.35.56.67,1.14,1,1.68s.8,1.32,1.21,2l1.14,1.87c.84,1.38,1.6,2.76,2.37,4.14.23.41.49.81.67,1.21.07.13.17.24.24.37,1.08,2,2.15,4,3.15,6,.13.3.26.6.42.89.36.72.7,1.45,1.05,2.14.52,1.13,1.09,2.23,1.61,3.37.3.67.57,1.35.87,2,.43,1,.87,1.94,1.25,2.89.29.72.62,1.38.91,2.09.33.86.62,1.7,1,2.54.51,1.31,1,2.58,1.48,3.9.2.55.43,1.09.63,1.65s.4,1.36.62,2c.67,1.92,1.28,3.79,1.8,5.7.07.18.12.4.18.57.22.67.45,1.33.65,2s.3,1.25.46,1.87c.28,1,.55,2,.78,3,.38,1.66.75,3.28,1.08,4.92.22,1,.4,1.94.57,2.89.31,1.73.58,3.45.8,5.19.12.81.25,1.61.34,2.43.28,2.49.51,5,.6,7.4s.08,4.54,0,6.73c0,.55-.07,1.11-.09,1.65s-.06,1.19-.1,1.75-.19,1.09-.22,1.68c-.17,1.62-.41,3.19-.71,4.66a14.46,14.46,0,0,1-.2,1.51c-.1.47-.26.88-.36,1.35-.21.85-.45,1.72-.69,2.5-.14.53-.26,1.09-.43,1.55s-.42,1.05-.62,1.6-.47,1.16-.69,1.73a6.33,6.33,0,0,0-.37.94c-.44.88-.91,1.71-1.4,2.5-.14.28-.27.55-.42.8l-.12.18a25.64,25.64,0,0,1-2.11,3l-.37.44-.76.77c-.36.44-.76.89-1.17,1.31s-.81.67-1.23,1l-.81.67c-.17.13-.3.28-.48.42a32.09,32.09,0,0,1-2.76,1.73l-.34.17-72.65,39a24.26,24.26,0,0,0,3.55-2.31,10.28,10.28,0,0,0,.81-.67,22.28,22.28,0,0,0,2.43-2.34c.25-.26.51-.52.73-.76a32,32,0,0,0,2.62-3.6,6.58,6.58,0,0,0,.42-.79c.63-1.07,1.2-2.24,1.75-3.43.25-.59.47-1.16.69-1.73.37-1,.72-2.06,1-3.15.27-.8.48-1.65.69-2.5s.43-1.88.61-2.84c.27-1.51.49-3.06.66-4.68.12-1.14.26-2.24.32-3.43.05-.56.07-1.1.08-1.65.08-2.19.11-4.39,0-6.73s-.3-4.92-.6-7.41c-.08-.78-.22-1.61-.31-2.43-.25-1.73-.49-3.46-.81-5.2-.16-.94-.38-1.91-.56-2.88-.33-1.64-.7-3.27-1.11-4.91-.23-1-.48-2-.75-3-.33-1.23-.73-2.47-1.07-3.73a.74.74,0,0,1,0-.14q-.93-3.12-2-6.28c-.43-1.22-.83-2.46-1.28-3.66s-1-2.59-1.48-3.9c-.61-1.54-1.21-3.08-1.87-4.59-.4-1-.84-2-1.27-2.93-.79-1.82-1.64-3.61-2.49-5.39-.34-.69-.68-1.42-1-2.14-1.2-2.43-2.45-4.87-3.78-7.27-.21-.39-.47-.79-.69-1.17-1.13-2.05-2.32-4.07-3.53-6l-1.2-2c-1.28-2.05-2.61-4.12-4-6.14l-.54-.78c-1.52-2.22-3.12-4.4-4.75-6.56-.46-.63-1-1.28-1.44-1.89-1.18-1.54-2.4-3-3.61-4.51l-1.89-2.24a7.82,7.82,0,0,0-.65-.73c-.89-1-1.81-2-2.71-3L126.62,912c-.89-.9-1.76-1.77-2.68-2.65-1.3-1.3-2.65-2.58-4-3.79s-2.46-2.18-3.69-3.23c-.6-.51-1.23-1-1.81-1.53-2-1.57-3.94-3.1-5.94-4.5C91.28,884.25,76,881.67,65.17,887.23Z"/><path class="cls-88" d="M174.51,1015.55c1.71,41.63-25,55.79-59.78,31.55s-64.26-77.64-66-119.27,25.07-55.77,59.78-31.56S172.79,973.87,174.51,1015.55Z"/><path class="cls-89" d="M442.57,1572.18c.17,2.17.43,4.31.76,6.43,0,2.15.09,4.3.26,6.47s.42,4.3.76,6.42c0,2.15.08,4.3.25,6.47,5.34,67.73,92.21,116.14,194,108.12s180-69.43,174.71-137.16c-.17-2.16-.42-4.31-.76-6.43,0-2.14-.08-4.3-.25-6.46s-.43-4.31-.76-6.43c0-2.15-.09-4.3-.26-6.46s-.42-4.31-.76-6.43c0-2.15-.08-4.3-.25-6.47-5.34-67.73-92.21-116.14-194-108.12s-180,69.43-174.71,137.16c.17,2.16.42,4.31.76,6.43Q442.32,1568.94,442.57,1572.18Zm37.54,3.53c9.93-47,68-86.4,141-92.15s136.52,24.1,153.68,69c-9.93,47-68,86.4-141,92.15S497.27,1620.56,480.11,1575.71Z"/><path class="cls-90" d="M441.56,1559.29c5.33,67.74,92.2,116.15,194,108.13s180-69.43,174.71-137.17-92.21-116.14-194-108.12S436.22,1491.56,441.56,1559.29Zm34.21-2.69c-4.35-55.17,59.36-105.18,142.29-111.72s153.68,32.9,158,88.07-59.37,105.18-142.3,111.71S480.11,1611.77,475.77,1556.6Z"/><g class="cls-91"><path class="cls-92" d="M822.35,1745.11l-1.51.39c-.55.16-1.11.34-1.66.53-.38.12-.76.24-1.14.38l-1,.42c-.49.19-1,.39-1.47.61l-.84.38c-.55.26-1.1.53-1.64.81l-.67.34c-.74.4-1.48.82-2.21,1.26l-.25.16c-.66.4-1.3.82-1.94,1.26l-.6.41c-.6.42-1.19.85-1.78,1.3l-.34.25c-.68.53-1.35,1.08-2,1.64-.2.16-.38.33-.57.5q-.7.62-1.38,1.26l-.72.7c-.38.37-.74.75-1.1,1.13s-.61.64-.9,1-.54.62-.81.93c-.46.54-.9,1.08-1.33,1.63l-.78,1c-.2.27-.39.54-.58.82-.3.44-.6.89-.89,1.35-.17.27-.34.54-.5.81-.3.49-.57,1-.83,1.48-.13.24-.26.47-.38.71-.37.73-.72,1.47-1,2.21s-.54,1.41-.76,2.09c-.05.18-.11.36-.16.54-.11.38-.19.75-.28,1.12-.13.53-.23,1.06-.31,1.57-.06.33-.11.66-.14,1s-.06.6-.07.9,0,.77,0,1.15c0,.22,0,.44,0,.65a11.94,11.94,0,0,0,.16,1.37c0,.11,0,.22,0,.32a12.58,12.58,0,0,0,.42,1.55l.13.36c.15.39.32.77.5,1.13a3.84,3.84,0,0,0,.18.35,9.47,9.47,0,0,0,.85,1.31l-80.81-104.62a.76.76,0,0,1-.08-.11,8.3,8.3,0,0,1-.67-1c0-.07-.07-.14-.11-.2s-.11-.23-.17-.35-.19-.34-.27-.53a6.19,6.19,0,0,1-.23-.6c0-.12-.1-.24-.14-.36s0-.13-.07-.2a12.41,12.41,0,0,1-.33-1.27.22.22,0,0,0,0-.08,3.11,3.11,0,0,1,0-.32c-.06-.33-.12-.66-.15-1,0-.12,0-.24,0-.36s0-.43,0-.65,0-.4,0-.6,0-.37,0-.55,0-.6.06-.9,0-.32,0-.49.08-.33.1-.5c.08-.51.19-1,.32-1.57,0-.19.06-.37.11-.56s.11-.37.17-.56.1-.36.16-.54c.22-.68.46-1.38.75-2.09s.65-1.48,1-2.21c.12-.24.26-.47.38-.71.27-.5.54-1,.83-1.48l.51-.81c.29-.46.58-.91.89-1.35.19-.28.38-.55.58-.82s.23-.34.36-.51l.42-.52c.43-.55.87-1.09,1.33-1.63.14-.17.27-.35.42-.52s.26-.27.39-.41c.29-.33.59-.65.89-1s.39-.43.59-.63l.52-.5c.23-.23.47-.47.72-.7l.5-.48c.29-.27.58-.52.88-.78l.56-.5.24-.21c.54-.46,1.09-.9,1.65-1.34l.11-.09.35-.26,1.2-.9.58-.39.6-.41.51-.36c.47-.31,1-.6,1.42-.9l.26-.16.06,0c.6-.36,1.2-.71,1.81-1,.11-.06.23-.11.34-.18l.67-.34c.3-.16.6-.32.91-.47l.72-.34.85-.38c.17-.08.34-.17.52-.24s.63-.25.94-.37l1.06-.42.37-.14c.25-.09.51-.16.76-.24.56-.19,1.12-.37,1.67-.53l.46-.14c.35-.1.7-.17,1-.25l.75-.18c.79-.16,1.57-.31,2.35-.41,6.73-.89,11.79.85,14.54,4.39L840,1748.91c-2.74-3.54-7.8-5.28-14.54-4.39-.78.1-1.56.25-2.35.41Z"/><path class="cls-93" d="M791.46,1770.78c-5.22,12.71,1.54,21.57,15.1,19.78s28.78-13.55,34-26.26-1.56-21.57-15.11-19.78S796.67,1758.06,791.46,1770.78Z"/></g><g class="cls-91"><path class="cls-94" d="M906.58,1840.59c-.85.2-1.69.42-2.54.66s-1.87.57-2.81.88c-.64.21-1.27.41-1.91.65s-1.19.46-1.78.7c-.82.33-1.65.66-2.47,1l-1.42.65c-.92.43-1.84.88-2.75,1.35l-1.13.59c-1.25.67-2.5,1.37-3.73,2.12l-.42.27c-1.11.67-2.19,1.38-3.27,2.11l-1,.69c-1,.71-2,1.44-3,2.19l-.58.43q-1.72,1.33-3.37,2.76c-.33.27-.64.56-.95.84-.79.69-1.57,1.4-2.33,2.12l-1.22,1.19c-.63.62-1.24,1.26-1.85,1.9s-1,1.07-1.51,1.62-.92,1.05-1.37,1.58c-.77.91-1.51,1.82-2.23,2.74-.45.58-.89,1.15-1.32,1.74s-.65.91-1,1.37c-.52.75-1,1.51-1.5,2.27-.29.46-.58.91-.85,1.37-.5.83-1,1.66-1.4,2.5-.21.39-.44.79-.64,1.19-.63,1.23-1.21,2.47-1.72,3.72s-.9,2.38-1.27,3.53l-.27.9c-.19.64-.32,1.26-.47,1.89-.22.9-.4,1.78-.53,2.65-.09.55-.18,1.11-.24,1.66s-.09,1-.11,1.51c0,.66,0,1.31,0,2,0,.37,0,.73,0,1.09a21.64,21.64,0,0,0,.27,2.32c0,.17,0,.35.07.52a19.74,19.74,0,0,0,.7,2.62c.07.21.15.4.23.61a15.42,15.42,0,0,0,.84,1.9l.29.58a17.1,17.1,0,0,0,1.44,2.21l-95.34-125.85-.14-.18a16.91,16.91,0,0,1-1.12-1.68c-.07-.11-.12-.23-.18-.34l-.3-.58c-.15-.3-.32-.59-.45-.89s-.26-.68-.38-1-.16-.41-.23-.62l-.13-.33a20.94,20.94,0,0,1-.55-2.14c0-.05,0-.1,0-.14s0-.35-.07-.53c-.1-.56-.2-1.12-.25-1.71,0-.19,0-.4,0-.6,0-.36,0-.73,0-1.1s0-.67,0-1,0-.62.07-.92c0-.5.06-1,.11-1.52,0-.27,0-.53.07-.81s.12-.57.16-.85c.14-.86.32-1.75.54-2.65.07-.32.1-.61.18-.94s.2-.63.29-.94l.27-.9c.37-1.16.78-2.33,1.27-3.53s1.09-2.49,1.72-3.73c.2-.4.42-.79.64-1.19.44-.84.9-1.67,1.4-2.5.27-.45.56-.91.85-1.36.48-.76,1-1.52,1.5-2.27l1-1.38c.21-.28.4-.57.61-.85s.48-.58.71-.88c.72-.93,1.46-1.84,2.23-2.75.25-.28.46-.58.72-.87s.43-.46.64-.7c.5-.55,1-1.09,1.52-1.63.33-.35.65-.72,1-1.07s.58-.55.87-.83l1.21-1.18c.29-.27.55-.55.84-.82l1.49-1.31c.31-.28.62-.56.95-.84l.39-.34c.91-.78,1.84-1.54,2.79-2.27l.19-.14.58-.44c.67-.51,1.34-1,2-1.52l1-.67,1-.68.87-.61c.79-.52,1.59-1,2.39-1.51.15-.08.29-.18.43-.27l.11-.07c1-.6,2-1.19,3.05-1.75l.57-.3,1.13-.58c.51-.27,1-.54,1.53-.8l1.22-.56,1.42-.65.87-.4c.53-.23,1.07-.41,1.6-.63s1.18-.48,1.78-.7c.21-.07.41-.16.61-.24.44-.15.87-.26,1.3-.4.94-.32,1.87-.62,2.81-.89.26-.07.51-.17.77-.24.59-.16,1.18-.28,1.77-.41l1.26-.3c1.33-.28,2.65-.53,4-.7,11.34-1.49,19.86,1.43,24.49,7.39L936.29,1847c-4.63-6-13.15-8.88-24.49-7.38-1.31.17-2.63.41-4,.69Z"/><path class="cls-95" d="M854.54,1883.82c-8.78,21.41,2.59,36.34,25.44,33.32s48.48-22.82,57.26-44.23-2.62-36.32-25.44-33.31S863.33,1862.4,854.54,1883.82Z"/></g><path class="cls-96" d="M1656,1807.6l-310.42,13.81,5.07-318.81a29.23,29.23,0,0,1,21.59,8.85L1649,1790.93A25,25,0,0,1,1656,1807.6Z"/><path class="cls-97" d="M1345.54,1821.41l4.38-275.78,115.49-137.12c6.73-8,17.82-8.32,25.17-.74L1737.72,1663a13.22,13.22,0,0,1,.45,17.47l-115.62,128.66Z"/><path class="cls-98" d="M1650.65,1685.61l-180.29-185.15a8,8,0,0,1-.94-9.45h0a4.63,4.63,0,0,1,7.52-.75l180.3,185.15a8,8,0,0,1,.94,9.45h0A4.64,4.64,0,0,1,1650.65,1685.61Z"/><path class="cls-98" d="M1628,1710l-180.29-185.15a8,8,0,0,1-1-9.45h0a4.64,4.64,0,0,1,7.53-.75l180.3,185.15a8,8,0,0,1,.94,9.45h0A4.64,4.64,0,0,1,1628,1710Z"/><path class="cls-98" d="M1605.41,1734.45l-180.3-185.15a8,8,0,0,1-.94-9.45h0a4.64,4.64,0,0,1,7.53-.75L1612,1724.24a8,8,0,0,1,.94,9.45h0A4.63,4.63,0,0,1,1605.41,1734.45Z"/><path class="cls-98" d="M1582.79,1758.86l-180.3-185.14a8,8,0,0,1-.94-9.45h0a4.63,4.63,0,0,1,7.53-.75l180.29,185.14a8,8,0,0,1,1,9.45h0A4.63,4.63,0,0,1,1582.79,1758.86Z"/><path class="cls-98" d="M1560.17,1783.28l-180.3-185.14a8,8,0,0,1-.94-9.45h0a4.63,4.63,0,0,1,7.53-.75l180.29,185.14a8,8,0,0,1,.94,9.45h0A4.62,4.62,0,0,1,1560.17,1783.28Z"/><path class="cls-98" d="M1537.54,1807.7l-180.29-185.14a8,8,0,0,1-.94-9.45h0a4.62,4.62,0,0,1,7.52-.75l180.3,185.14a8,8,0,0,1,.94,9.45h0A4.64,4.64,0,0,1,1537.54,1807.7Z"/><path class="cls-98" d="M1514.92,1832.12,1334.62,1647a8,8,0,0,1-.94-9.44h0a4.63,4.63,0,0,1,7.53-.76l180.3,185.15a8,8,0,0,1,.94,9.45h0A4.64,4.64,0,0,1,1514.92,1832.12Z"/><path class="cls-99" d="M1650.37,1824.45l-203.28,237.68a20.92,20.92,0,0,1-11.45,7c-6.83,1.51-14.21-.71-19.75-6.67l-275.22-296.68a34,34,0,0,1-8.71-23.19,32.49,32.49,0,0,1,8.14-21.91l190.22-208.44a28.5,28.5,0,0,1,20.29-9.69L1347,1726.92l-1.5,94.49,77.17-3.43L1656,1807.6A24.54,24.54,0,0,1,1650.37,1824.45Z"/><path class="cls-100" d="M1435.64,2069.18c-6.83,1.51-14.21-.71-19.75-6.67l-275.22-296.68a34,34,0,0,1-8.71-23.19L1347,1726.92l35-2.56c19.58-1.43,36.66,16.11,37.83,38.84l2.82,54.78Z"/><g class="cls-1"><ellipse class="cls-2" cx="906.15" cy="1355.76" rx="196.04" ry="81.73" transform="translate(-561.76 645.53) rotate(-30.42)"/><ellipse class="cls-3" cx="906.15" cy="1355.76" rx="190.99" ry="79.62" transform="translate(-561.76 645.53) rotate(-30.42)"/><ellipse class="cls-4" cx="906.15" cy="1355.76" rx="185.94" ry="77.52" transform="translate(-561.76 645.53) rotate(-30.42)"/><ellipse class="cls-5" cx="906.15" cy="1355.76" rx="180.89" ry="75.41" transform="matrix(0.86, -0.51, 0.51, 0.86, -561.76, 645.53)"/><ellipse class="cls-6" cx="906.15" cy="1355.76" rx="175.84" ry="73.31" transform="translate(-561.76 645.53) rotate(-30.42)"/><ellipse class="cls-7" cx="906.15" cy="1355.76" rx="170.79" ry="71.2" transform="translate(-561.76 645.53) rotate(-30.42)"/><ellipse class="cls-8" cx="906.15" cy="1355.76" rx="165.74" ry="69.1" transform="translate(-561.76 645.53) rotate(-30.42)"/><ellipse class="cls-9" cx="906.15" cy="1355.76" rx="160.69" ry="66.99" transform="translate(-561.76 645.53) rotate(-30.42)"/><ellipse class="cls-10" cx="906.15" cy="1355.76" rx="155.64" ry="64.89" transform="translate(-561.76 645.53) rotate(-30.42)"/><ellipse class="cls-11" cx="906.15" cy="1355.76" rx="150.59" ry="62.78" transform="translate(-561.76 645.53) rotate(-30.42)"/><ellipse class="cls-12" cx="906.15" cy="1355.76" rx="145.54" ry="60.68" transform="translate(-561.76 645.53) rotate(-30.42)"/><ellipse class="cls-13" cx="906.15" cy="1355.76" rx="140.49" ry="58.57" transform="translate(-561.76 645.53) rotate(-30.42)"/><ellipse class="cls-14" cx="906.15" cy="1355.76" rx="135.44" ry="56.47" transform="translate(-561.76 645.53) rotate(-30.42)"/><ellipse class="cls-15" cx="906.15" cy="1355.76" rx="130.39" ry="54.36" transform="translate(-561.76 645.53) rotate(-30.42)"/><ellipse class="cls-16" cx="906.15" cy="1355.76" rx="125.34" ry="52.26" transform="translate(-561.76 645.53) rotate(-30.42)"/><ellipse class="cls-17" cx="906.15" cy="1355.76" rx="120.29" ry="50.15" transform="translate(-561.76 645.53) rotate(-30.42)"/><ellipse class="cls-18" cx="906.15" cy="1355.76" rx="115.24" ry="48.04" transform="translate(-561.76 645.52) rotate(-30.42)"/><ellipse class="cls-19" cx="906.15" cy="1355.76" rx="110.19" ry="45.94" transform="translate(-561.76 645.52) rotate(-30.42)"/><ellipse class="cls-20" cx="906.15" cy="1355.76" rx="105.14" ry="43.83" transform="translate(-561.76 645.52) rotate(-30.42)"/><ellipse class="cls-21" cx="906.15" cy="1355.76" rx="100.09" ry="41.73" transform="translate(-561.76 645.52) rotate(-30.42)"/><ellipse class="cls-22" cx="906.15" cy="1355.76" rx="95.04" ry="39.62" transform="translate(-561.76 645.52) rotate(-30.42)"/><ellipse class="cls-23" cx="906.15" cy="1355.76" rx="89.99" ry="37.52" transform="translate(-561.76 645.52) rotate(-30.42)"/><ellipse class="cls-24" cx="906.15" cy="1355.76" rx="84.95" ry="35.41" transform="translate(-561.76 645.52) rotate(-30.42)"/><ellipse class="cls-25" cx="906.15" cy="1355.76" rx="79.9" ry="33.31" transform="translate(-561.76 645.52) rotate(-30.42)"/><ellipse class="cls-26" cx="906.15" cy="1355.76" rx="74.85" ry="31.2" transform="translate(-561.76 645.52) rotate(-30.42)"/><ellipse class="cls-27" cx="906.15" cy="1355.76" rx="69.8" ry="29.1" transform="translate(-561.76 645.52) rotate(-30.42)"/><ellipse class="cls-28" cx="906.15" cy="1355.76" rx="64.75" ry="26.99" transform="translate(-561.76 645.52) rotate(-30.42)"/></g><ellipse class="cls-101" cx="745.29" cy="1137.19" rx="261.91" ry="249.44" transform="translate(-601.92 953.7) rotate(-49)"/><ellipse class="cls-102" cx="723.53" cy="1118.82" rx="261.91" ry="249.44" transform="translate(-595.54 930.95) rotate(-49)"/><ellipse class="cls-103" cx="723.53" cy="1118.82" rx="211.23" ry="201.17" transform="translate(-595.54 930.94) rotate(-49)"/><ellipse class="cls-104" cx="723.53" cy="1118.82" rx="163.67" ry="155.88" transform="translate(-595.54 930.94) rotate(-49)"/><ellipse class="cls-105" cx="723.53" cy="1118.82" rx="107.74" ry="102.61" transform="translate(-595.54 930.94) rotate(-49)"/><ellipse class="cls-106" cx="723.53" cy="1118.82" rx="64" ry="60.96" transform="translate(-595.54 930.94) rotate(-49)"/><path class="cls-107" d="M629,914.36l77.63,224.53c31.55,11.85,38.16-16.76,38.16-16.76L667.14,897.6Z"/><polygon class="cls-108" points="652.45 931.44 712.93 871.52 662.12 708.86 607.38 799.82 652.45 931.44"/><polygon class="cls-109" points="607.38 799.82 514.91 745.79 576.41 898.86 652.45 931.44 607.38 799.82"/></g></g></svg>