<svg xmlns="http://www.w3.org/2000/svg" xmlns:xlink="http://www.w3.org/1999/xlink" viewBox="0 0 2525.02 1989.58"><defs><style>.cls-1{mask:url(#mask);filter:url(#luminosity-noclip-6);}.cls-10,.cls-2,.cls-4,.cls-6,.cls-8{mix-blend-mode:multiply;}.cls-2{fill:url(#linear-gradient);}.cls-3{mask:url(#mask-2);filter:url(#luminosity-noclip-7);}.cls-4{fill:url(#linear-gradient-2);}.cls-5{mask:url(#mask-3);filter:url(#luminosity-noclip-8);}.cls-6{fill:url(#linear-gradient-3);}.cls-7{mask:url(#mask-4);filter:url(#luminosity-noclip-9);}.cls-8{fill:url(#linear-gradient-4);}.cls-9{mask:url(#mask-5);filter:url(#luminosity-noclip-10);}.cls-10{fill:url(#linear-gradient-5);}.cls-11{isolation:isolate;}.cls-12{fill:#aa7322;}.cls-13{fill:#ffd097;}.cls-14{fill:#d3993c;}.cls-15{opacity:0.67;}.cls-16,.cls-17{fill:#fff;}.cls-17{opacity:0.5;}.cls-18{mask:url(#mask-6);}.cls-19,.cls-21,.cls-23,.cls-25,.cls-27{opacity:0.26;}.cls-19{fill:url(#linear-gradient-6);}.cls-20{mask:url(#mask-7);}.cls-21{fill:url(#linear-gradient-7);}.cls-22{mask:url(#mask-8);}.cls-23{fill:url(#linear-gradient-8);}.cls-24{mask:url(#mask-9);}.cls-25{fill:url(#linear-gradient-9);}.cls-26{mask:url(#mask-10);}.cls-27{fill:url(#linear-gradient-10);}.cls-28{fill:#efae52;}.cls-29{fill:url(#linear-gradient-11);}.cls-30{fill:url(#linear-gradient-12);}.cls-31{fill:url(#linear-gradient-13);}.cls-32{fill:url(#linear-gradient-14);}.cls-33{fill:url(#linear-gradient-15);}.cls-34{fill:url(#linear-gradient-16);}.cls-35{fill:url(#linear-gradient-17);}.cls-36{fill:url(#linear-gradient-18);}.cls-37{fill:url(#linear-gradient-19);}.cls-38{fill:url(#linear-gradient-20);}.cls-39{fill:url(#linear-gradient-21);}.cls-40{fill:url(#linear-gradient-22);}.cls-41{fill:url(#linear-gradient-23);}.cls-42{fill:url(#linear-gradient-24);}.cls-43{fill:url(#linear-gradient-25);}.cls-44{fill:url(#linear-gradient-26);}.cls-45{fill:url(#linear-gradient-27);}.cls-46{fill:url(#linear-gradient-28);}.cls-47{fill:url(#linear-gradient-29);}.cls-48{fill:url(#linear-gradient-30);}.cls-49{fill:url(#linear-gradient-31);}.cls-50{fill:url(#linear-gradient-32);}.cls-51{fill:url(#linear-gradient-33);}.cls-52{fill:url(#linear-gradient-34);}.cls-53{fill:url(#linear-gradient-35);}.cls-54{fill:url(#linear-gradient-36);}.cls-55{fill:url(#linear-gradient-37);}.cls-56{fill:url(#linear-gradient-38);}.cls-57{fill:url(#linear-gradient-39);}.cls-58{fill:url(#linear-gradient-40);}.cls-59{fill:url(#linear-gradient-41);}.cls-60{fill:url(#linear-gradient-42);}.cls-61{fill:url(#linear-gradient-43);}.cls-62{fill:url(#linear-gradient-44);}.cls-63{fill:url(#linear-gradient-45);}.cls-64{fill:url(#linear-gradient-46);}.cls-65{fill:url(#linear-gradient-47);}.cls-66{fill:url(#linear-gradient-48);}.cls-67{fill:url(#linear-gradient-49);}.cls-68{fill:url(#linear-gradient-50);}.cls-69{fill:url(#linear-gradient-51);}.cls-70{fill:url(#linear-gradient-52);}.cls-71{fill:url(#linear-gradient-53);}.cls-72{fill:url(#linear-gradient-54);}.cls-73{fill:url(#linear-gradient-55);}.cls-74{fill:url(#linear-gradient-56);}.cls-75{fill:url(#linear-gradient-57);}.cls-76{fill:url(#linear-gradient-58);}.cls-77{fill:url(#linear-gradient-59);}.cls-78{fill:url(#linear-gradient-60);}.cls-79{fill:url(#linear-gradient-61);}.cls-80{fill:url(#linear-gradient-62);}.cls-81{fill:url(#linear-gradient-63);}.cls-82{fill:url(#linear-gradient-64);}.cls-83{fill:url(#linear-gradient-65);}.cls-84{fill:url(#linear-gradient-66);}.cls-85{fill:url(#linear-gradient-67);}.cls-86{fill:url(#linear-gradient-68);}.cls-87{fill:url(#linear-gradient-69);}.cls-88{fill:url(#linear-gradient-70);}.cls-89{fill:url(#linear-gradient-71);}.cls-90{fill:url(#linear-gradient-72);}.cls-91{fill:url(#linear-gradient-73);}.cls-92{fill:url(#linear-gradient-74);}.cls-93{fill:url(#linear-gradient-75);}.cls-94{fill:url(#linear-gradient-76);}.cls-95{fill:url(#linear-gradient-77);}.cls-96{fill:url(#linear-gradient-78);}.cls-97{fill:url(#linear-gradient-79);}.cls-98{fill:url(#linear-gradient-80);}.cls-99{fill:url(#linear-gradient-81);}.cls-100{fill:url(#linear-gradient-82);}.cls-101{fill:url(#linear-gradient-83);}.cls-102{fill:url(#linear-gradient-84);}.cls-103{fill:url(#linear-gradient-85);}.cls-104{fill:url(#linear-gradient-86);}.cls-105{fill:url(#linear-gradient-87);}.cls-106{fill:url(#linear-gradient-88);}.cls-107{fill:url(#linear-gradient-89);}.cls-108{fill:url(#linear-gradient-90);}.cls-109{fill:url(#linear-gradient-91);}.cls-110{fill:url(#linear-gradient-92);}.cls-111{fill:url(#linear-gradient-93);}.cls-112{fill:url(#linear-gradient-94);}.cls-113{fill:url(#linear-gradient-95);}.cls-114{fill:url(#linear-gradient-96);}.cls-115{fill:url(#linear-gradient-97);}.cls-116{fill:url(#linear-gradient-98);}.cls-117{fill:url(#linear-gradient-99);}.cls-118{fill:url(#linear-gradient-100);}.cls-119{fill:url(#linear-gradient-101);}.cls-120{fill:url(#linear-gradient-102);}.cls-121{fill:url(#linear-gradient-103);}.cls-122{fill:url(#linear-gradient-104);}.cls-123{fill:url(#linear-gradient-105);}.cls-124{fill:url(#linear-gradient-106);}.cls-125{fill:url(#linear-gradient-107);}.cls-126{fill:#fcfcfc;}.cls-127{fill:url(#linear-gradient-108);}.cls-128{fill:url(#linear-gradient-109);}.cls-129{fill:url(#linear-gradient-110);}.cls-130{fill:url(#linear-gradient-111);}.cls-131{fill:#c6c2c4;}.cls-132{fill:#52d792;}.cls-133{fill:url(#linear-gradient-112);}.cls-134{fill:url(#linear-gradient-113);}.cls-135{fill:url(#linear-gradient-114);}.cls-136{fill:url(#linear-gradient-115);}.cls-137{fill:url(#linear-gradient-116);}.cls-138{fill:url(#linear-gradient-117);}.cls-139{fill:url(#linear-gradient-118);}.cls-140{fill:url(#linear-gradient-119);}.cls-141{fill:url(#linear-gradient-120);}.cls-142{fill:url(#linear-gradient-121);}.cls-143{fill:url(#linear-gradient-122);}.cls-144{fill:url(#linear-gradient-123);}.cls-145{fill:url(#linear-gradient-124);}.cls-146{fill:url(#linear-gradient-125);}.cls-147{fill:url(#linear-gradient-126);}.cls-148{fill:url(#linear-gradient-127);}.cls-149{fill:#dcdcdc;}.cls-150{fill:url(#linear-gradient-128);}.cls-151{fill:url(#linear-gradient-129);}.cls-152{fill:url(#linear-gradient-130);}.cls-153{fill:url(#linear-gradient-131);}.cls-154{fill:url(#linear-gradient-132);}.cls-155{fill:url(#linear-gradient-133);}.cls-156{fill:url(#linear-gradient-134);}.cls-157{fill:url(#linear-gradient-135);}.cls-158{fill:url(#linear-gradient-136);}.cls-159{fill:url(#linear-gradient-137);}.cls-160{fill:url(#linear-gradient-138);}.cls-161{fill:url(#linear-gradient-139);}.cls-162{fill:url(#linear-gradient-140);}.cls-163{fill:url(#linear-gradient-141);}.cls-164{fill:url(#linear-gradient-142);}.cls-165{fill:url(#linear-gradient-143);}.cls-166{fill:url(#linear-gradient-144);}.cls-167{fill:url(#linear-gradient-145);}.cls-168{fill:url(#linear-gradient-146);}.cls-169{fill:url(#linear-gradient-147);}.cls-170{fill:url(#linear-gradient-148);}.cls-171{fill:url(#linear-gradient-149);}.cls-172{fill:url(#linear-gradient-150);}.cls-173{fill:url(#linear-gradient-151);}.cls-174{fill:url(#linear-gradient-152);}.cls-175{fill:url(#linear-gradient-153);}.cls-176{fill:url(#linear-gradient-154);}.cls-177{fill:url(#linear-gradient-155);}.cls-178{fill:url(#linear-gradient-156);}.cls-179{fill:url(#linear-gradient-157);}.cls-180{fill:url(#linear-gradient-158);}.cls-181{fill:url(#linear-gradient-159);}.cls-182{fill:url(#linear-gradient-160);}.cls-183{fill:url(#linear-gradient-161);}.cls-184{fill:url(#linear-gradient-162);}.cls-185{fill:url(#linear-gradient-163);}.cls-186{fill:url(#linear-gradient-164);}.cls-187{fill:url(#linear-gradient-165);}.cls-188{fill:url(#linear-gradient-166);}.cls-189{fill:url(#linear-gradient-167);}.cls-190{fill:url(#linear-gradient-168);}.cls-191{fill:url(#linear-gradient-169);}.cls-192{fill:url(#linear-gradient-170);}.cls-193{fill:url(#linear-gradient-171);}.cls-194{fill:url(#linear-gradient-172);}.cls-195{fill:url(#linear-gradient-173);}.cls-196{filter:url(#luminosity-noclip-5);}.cls-197{filter:url(#luminosity-noclip-4);}.cls-198{filter:url(#luminosity-noclip-3);}.cls-199{filter:url(#luminosity-noclip-2);}.cls-200{filter:url(#luminosity-noclip);}</style><filter id="luminosity-noclip" x="304.24" y="-9186.79" width="932.07" height="32766" filterUnits="userSpaceOnUse" color-interpolation-filters="sRGB"><feFlood flood-color="#fff" result="bg"/><feBlend in="SourceGraphic" in2="bg"/></filter><mask id="mask" x="304.24" y="-9186.79" width="932.07" height="32766" maskUnits="userSpaceOnUse"><g class="cls-200"/></mask><linearGradient id="linear-gradient" x1="768.02" y1="950.6" x2="983.78" y2="1146.96" gradientUnits="userSpaceOnUse"><stop offset="0" stop-color="#fff"/><stop offset="1"/></linearGradient><filter id="luminosity-noclip-2" x="722.64" y="-9186.79" width="932.07" height="32766" filterUnits="userSpaceOnUse" color-interpolation-filters="sRGB"><feFlood flood-color="#fff" result="bg"/><feBlend in="SourceGraphic" in2="bg"/></filter><mask id="mask-2" x="722.64" y="-9186.79" width="932.07" height="32766" maskUnits="userSpaceOnUse"><g class="cls-199"/></mask><linearGradient id="linear-gradient-2" x1="1186.42" y1="1716.06" x2="1402.18" y2="1912.43" xlink:href="#linear-gradient"/><filter id="luminosity-noclip-3" x="178.18" y="-9186.79" width="560.81" height="32766" filterUnits="userSpaceOnUse" color-interpolation-filters="sRGB"><feFlood flood-color="#fff" result="bg"/><feBlend in="SourceGraphic" in2="bg"/></filter><mask id="mask-3" x="178.18" y="-9186.79" width="560.81" height="32766" maskUnits="userSpaceOnUse"><g class="cls-198"/></mask><linearGradient id="linear-gradient-3" x1="457.23" y1="683.36" x2="587.05" y2="801.5" xlink:href="#linear-gradient"/><filter id="luminosity-noclip-4" x="1261.27" y="-9186.79" width="1141.02" height="32766" filterUnits="userSpaceOnUse" color-interpolation-filters="sRGB"><feFlood flood-color="#fff" result="bg"/><feBlend in="SourceGraphic" in2="bg"/></filter><mask id="mask-4" x="1261.27" y="-9186.79" width="1141.02" height="32766" maskUnits="userSpaceOnUse"><g class="cls-197"/></mask><linearGradient id="linear-gradient-4" x1="1829.03" y1="1326.34" x2="2093.16" y2="1566.72" xlink:href="#linear-gradient"/><filter id="luminosity-noclip-5" x="763.29" y="-9186.79" width="932.07" height="32766" filterUnits="userSpaceOnUse" color-interpolation-filters="sRGB"><feFlood flood-color="#fff" result="bg"/><feBlend in="SourceGraphic" in2="bg"/></filter><mask id="mask-5" x="763.29" y="-9186.79" width="932.07" height="32766" maskUnits="userSpaceOnUse"><g class="cls-196"/></mask><linearGradient id="linear-gradient-5" x1="763.29" y1="698.82" x2="1695.36" y2="698.82" xlink:href="#linear-gradient"/><filter id="luminosity-noclip-6" x="304.24" y="843.78" width="932.07" height="380.34" filterUnits="userSpaceOnUse" color-interpolation-filters="sRGB"><feFlood flood-color="#fff" result="bg"/><feBlend in="SourceGraphic" in2="bg"/></filter><mask id="mask-6" x="304.24" y="843.78" width="932.07" height="380.34" maskUnits="userSpaceOnUse"><g class="cls-1"><polygon class="cls-2" points="321.88 924.63 994.96 843.78 1236.31 970.55 803.74 1224.12 304.24 934.75 321.88 924.63"/></g></mask><linearGradient id="linear-gradient-6" x1="768.02" y1="950.6" x2="983.78" y2="1146.96" gradientUnits="userSpaceOnUse"><stop offset="0" stop-color="#303030"/><stop offset="1" stop-color="#231a1a"/></linearGradient><filter id="luminosity-noclip-7" x="722.64" y="1609.24" width="932.07" height="380.34" filterUnits="userSpaceOnUse" color-interpolation-filters="sRGB"><feFlood flood-color="#fff" result="bg"/><feBlend in="SourceGraphic" in2="bg"/></filter><mask id="mask-7" x="722.64" y="1609.24" width="932.07" height="380.34" maskUnits="userSpaceOnUse"><g class="cls-3"><polygon class="cls-4" points="740.28 1690.09 1413.36 1609.24 1654.71 1736.01 1222.14 1989.58 722.64 1700.21 740.28 1690.09"/></g></mask><linearGradient id="linear-gradient-7" x1="1186.42" y1="1716.06" x2="1402.18" y2="1912.43" xlink:href="#linear-gradient-6"/><filter id="luminosity-noclip-8" x="178.18" y="582.6" width="560.81" height="265.33" filterUnits="userSpaceOnUse" color-interpolation-filters="sRGB"><feFlood flood-color="#fff" result="bg"/><feBlend in="SourceGraphic" in2="bg"/></filter><mask id="mask-8" x="178.18" y="582.6" width="560.81" height="265.33" maskUnits="userSpaceOnUse"><g class="cls-5"><polygon class="cls-6" points="188.8 667.73 524.3 582.6 738.99 695.36 478.72 847.92 178.18 673.82 188.8 667.73"/></g></mask><linearGradient id="linear-gradient-8" x1="457.23" y1="683.36" x2="587.05" y2="801.5" xlink:href="#linear-gradient-6"/><filter id="luminosity-noclip-9" x="1261.27" y="1195.57" width="1141.02" height="465.6" filterUnits="userSpaceOnUse" color-interpolation-filters="sRGB"><feFlood flood-color="#fff" result="bg"/><feBlend in="SourceGraphic" in2="bg"/></filter><mask id="mask-9" x="1261.27" y="1195.57" width="1141.02" height="465.6" maskUnits="userSpaceOnUse"><g class="cls-7"><polygon class="cls-8" points="1282.87 1294.55 2106.84 1195.57 2402.3 1350.76 1872.76 1661.17 1261.27 1306.93 1282.87 1294.55"/></g></mask><linearGradient id="linear-gradient-9" x1="1829.03" y1="1326.34" x2="2093.16" y2="1566.72" xlink:href="#linear-gradient-6"/><filter id="luminosity-noclip-10" x="763.29" y="508.65" width="932.07" height="380.34" filterUnits="userSpaceOnUse" color-interpolation-filters="sRGB"><feFlood flood-color="#fff" result="bg"/><feBlend in="SourceGraphic" in2="bg"/></filter><mask id="mask-10" x="763.29" y="508.65" width="932.07" height="380.34" maskUnits="userSpaceOnUse"><g class="cls-9"><polygon class="cls-10" points="780.93 589.5 1454.01 508.65 1695.36 635.42 1262.79 888.99 763.29 599.62 780.93 589.5"/></g></mask><linearGradient id="linear-gradient-10" x1="763.29" y1="698.82" x2="1695.36" y2="698.82" xlink:href="#linear-gradient-6"/><linearGradient id="linear-gradient-11" x1="1958.67" y1="1229.58" x2="1297.01" y2="1214.96" gradientUnits="userSpaceOnUse"><stop offset="0" stop-color="#565656"/><stop offset="0.19" stop-color="#909090"/><stop offset="0.29" stop-color="#fefefe"/><stop offset="0.49" stop-color="#818081"/><stop offset="1" stop-color="#595758"/></linearGradient><linearGradient id="linear-gradient-12" x1="1958.67" y1="1227.64" x2="1297.01" y2="1213.01" gradientUnits="userSpaceOnUse"><stop offset="0" stop-color="#fcfcfc"/><stop offset="1" stop-color="#dcdcdc"/></linearGradient><linearGradient id="linear-gradient-13" x1="1510.72" y1="830.02" x2="1689.6" y2="1474" xlink:href="#linear-gradient-12"/><linearGradient id="linear-gradient-14" x1="1631.28" y1="853.19" x2="1765.74" y2="1337.27" gradientUnits="userSpaceOnUse"><stop offset="0" stop-color="#303030"/><stop offset="1" stop-color="#4c4a4b"/></linearGradient><linearGradient id="linear-gradient-15" x1="1423.97" y1="1175.42" x2="1472.92" y2="1351.64" xlink:href="#linear-gradient-14"/><linearGradient id="linear-gradient-16" x1="1843.15" y1="626.12" x2="2064.58" y2="1043.6" xlink:href="#linear-gradient-11"/><linearGradient id="linear-gradient-17" x1="2136.67" y1="1063.09" x2="1606.58" y2="400.48" xlink:href="#linear-gradient-14"/><linearGradient id="linear-gradient-18" x1="1903.84" y1="406.91" x2="1827.09" y2="870.91" gradientUnits="userSpaceOnUse"><stop offset="0" stop-color="#82fb7c"/><stop offset="1" stop-color="#0ba2b3"/></linearGradient><linearGradient id="linear-gradient-19" x1="1584.15" y1="940.23" x2="1545.55" y2="939.38" gradientUnits="userSpaceOnUse"><stop offset="0" stop-color="#4a4a4a"/><stop offset="1" stop-color="#a8a8a8"/></linearGradient><linearGradient id="linear-gradient-20" x1="1557.86" y1="913.07" x2="1568.29" y2="950.63" xlink:href="#linear-gradient-12"/><linearGradient id="linear-gradient-21" x1="1641.11" y1="973.4" x2="1602.51" y2="972.54" xlink:href="#linear-gradient-19"/><linearGradient id="linear-gradient-22" x1="1614.82" y1="946.23" x2="1625.25" y2="983.79" xlink:href="#linear-gradient-12"/><linearGradient id="linear-gradient-23" x1="1698.07" y1="1006.56" x2="1659.47" y2="1005.71" xlink:href="#linear-gradient-19"/><linearGradient id="linear-gradient-24" x1="1671.78" y1="979.4" x2="1682.21" y2="1016.96" xlink:href="#linear-gradient-12"/><linearGradient id="linear-gradient-25" x1="1755.03" y1="1039.73" x2="1716.43" y2="1038.88" xlink:href="#linear-gradient-19"/><linearGradient id="linear-gradient-26" x1="1728.74" y1="1012.57" x2="1739.17" y2="1050.12" xlink:href="#linear-gradient-12"/><linearGradient id="linear-gradient-27" x1="1811.99" y1="1072.89" x2="1773.39" y2="1072.04" xlink:href="#linear-gradient-19"/><linearGradient id="linear-gradient-28" x1="1785.7" y1="1045.73" x2="1796.13" y2="1083.29" xlink:href="#linear-gradient-12"/><linearGradient id="linear-gradient-29" x1="1868.95" y1="1106.06" x2="1830.35" y2="1105.21" xlink:href="#linear-gradient-19"/><linearGradient id="linear-gradient-30" x1="1842.65" y1="1078.9" x2="1853.09" y2="1116.45" xlink:href="#linear-gradient-12"/><linearGradient id="linear-gradient-31" x1="1925.91" y1="1139.23" x2="1887.31" y2="1138.37" xlink:href="#linear-gradient-19"/><linearGradient id="linear-gradient-32" x1="1899.61" y1="1112.06" x2="1910.05" y2="1149.62" xlink:href="#linear-gradient-12"/><linearGradient id="linear-gradient-33" x1="1982.87" y1="1172.39" x2="1944.27" y2="1171.54" xlink:href="#linear-gradient-19"/><linearGradient id="linear-gradient-34" x1="1956.57" y1="1145.23" x2="1967.01" y2="1182.78" xlink:href="#linear-gradient-12"/><linearGradient id="linear-gradient-35" x1="2039.83" y1="1205.56" x2="2001.23" y2="1204.7" xlink:href="#linear-gradient-19"/><linearGradient id="linear-gradient-36" x1="2013.53" y1="1178.39" x2="2023.97" y2="1215.95" xlink:href="#linear-gradient-12"/><linearGradient id="linear-gradient-37" x1="1544.17" y1="963.44" x2="1505.57" y2="962.59" xlink:href="#linear-gradient-19"/><linearGradient id="linear-gradient-38" x1="1517.87" y1="936.28" x2="1528.31" y2="973.83" xlink:href="#linear-gradient-12"/><linearGradient id="linear-gradient-39" x1="1601.13" y1="996.6" x2="1562.53" y2="995.75" xlink:href="#linear-gradient-19"/><linearGradient id="linear-gradient-40" x1="1574.83" y1="969.44" x2="1585.27" y2="1007" xlink:href="#linear-gradient-12"/><linearGradient id="linear-gradient-41" x1="1658.09" y1="1029.77" x2="1619.49" y2="1028.92" xlink:href="#linear-gradient-19"/><linearGradient id="linear-gradient-42" x1="1631.79" y1="1002.61" x2="1642.23" y2="1040.16" xlink:href="#linear-gradient-12"/><linearGradient id="linear-gradient-43" x1="1715.05" y1="1062.94" x2="1676.45" y2="1062.08" xlink:href="#linear-gradient-19"/><linearGradient id="linear-gradient-44" x1="1688.75" y1="1035.77" x2="1699.19" y2="1073.33" xlink:href="#linear-gradient-12"/><linearGradient id="linear-gradient-45" x1="1772.01" y1="1096.1" x2="1733.41" y2="1095.25" xlink:href="#linear-gradient-19"/><linearGradient id="linear-gradient-46" x1="1745.71" y1="1068.94" x2="1756.14" y2="1106.49" xlink:href="#linear-gradient-12"/><linearGradient id="linear-gradient-47" x1="1828.97" y1="1129.27" x2="1790.37" y2="1128.41" xlink:href="#linear-gradient-19"/><linearGradient id="linear-gradient-48" x1="1802.67" y1="1102.1" x2="1813.1" y2="1139.66" xlink:href="#linear-gradient-12"/><linearGradient id="linear-gradient-49" x1="1885.93" y1="1162.43" x2="1847.33" y2="1161.58" xlink:href="#linear-gradient-19"/><linearGradient id="linear-gradient-50" x1="1859.63" y1="1135.27" x2="1870.06" y2="1172.83" xlink:href="#linear-gradient-12"/><linearGradient id="linear-gradient-51" x1="1942.89" y1="1195.6" x2="1904.29" y2="1194.74" xlink:href="#linear-gradient-19"/><linearGradient id="linear-gradient-52" x1="1916.59" y1="1168.43" x2="1927.02" y2="1205.99" xlink:href="#linear-gradient-12"/><linearGradient id="linear-gradient-53" x1="1999.85" y1="1228.76" x2="1961.25" y2="1227.91" xlink:href="#linear-gradient-19"/><linearGradient id="linear-gradient-54" x1="1973.55" y1="1201.6" x2="1983.98" y2="1239.16" xlink:href="#linear-gradient-12"/><linearGradient id="linear-gradient-55" x1="1504.18" y1="986.64" x2="1465.59" y2="985.79" xlink:href="#linear-gradient-19"/><linearGradient id="linear-gradient-56" x1="1477.89" y1="959.48" x2="1488.32" y2="997.04" xlink:href="#linear-gradient-12"/><linearGradient id="linear-gradient-57" x1="1561.14" y1="1019.81" x2="1522.55" y2="1018.96" xlink:href="#linear-gradient-19"/><linearGradient id="linear-gradient-58" x1="1534.85" y1="992.65" x2="1545.28" y2="1030.2" xlink:href="#linear-gradient-12"/><linearGradient id="linear-gradient-59" x1="1618.1" y1="1052.98" x2="1579.51" y2="1052.12" xlink:href="#linear-gradient-19"/><linearGradient id="linear-gradient-60" x1="1591.81" y1="1025.81" x2="1602.24" y2="1063.37" xlink:href="#linear-gradient-12"/><linearGradient id="linear-gradient-61" x1="1675.06" y1="1086.14" x2="1636.47" y2="1085.29" xlink:href="#linear-gradient-19"/><linearGradient id="linear-gradient-62" x1="1648.77" y1="1058.98" x2="1659.2" y2="1096.54" xlink:href="#linear-gradient-12"/><linearGradient id="linear-gradient-63" x1="1732.02" y1="1119.31" x2="1693.43" y2="1118.45" xlink:href="#linear-gradient-19"/><linearGradient id="linear-gradient-64" x1="1705.73" y1="1092.14" x2="1716.16" y2="1129.7" xlink:href="#linear-gradient-12"/><linearGradient id="linear-gradient-65" x1="1788.98" y1="1152.47" x2="1750.39" y2="1151.62" xlink:href="#linear-gradient-19"/><linearGradient id="linear-gradient-66" x1="1762.69" y1="1125.31" x2="1773.12" y2="1162.87" xlink:href="#linear-gradient-12"/><linearGradient id="linear-gradient-67" x1="1845.94" y1="1185.64" x2="1807.35" y2="1184.79" xlink:href="#linear-gradient-19"/><linearGradient id="linear-gradient-68" x1="1819.65" y1="1158.48" x2="1830.08" y2="1196.03" xlink:href="#linear-gradient-12"/><linearGradient id="linear-gradient-69" x1="1902.9" y1="1218.8" x2="1864.31" y2="1217.95" xlink:href="#linear-gradient-19"/><linearGradient id="linear-gradient-70" x1="1876.61" y1="1191.64" x2="1887.04" y2="1229.2" xlink:href="#linear-gradient-12"/><linearGradient id="linear-gradient-71" x1="1959.86" y1="1251.97" x2="1921.27" y2="1251.12" xlink:href="#linear-gradient-19"/><linearGradient id="linear-gradient-72" x1="1933.57" y1="1224.81" x2="1944" y2="1262.36" xlink:href="#linear-gradient-12"/><linearGradient id="linear-gradient-73" x1="1464.2" y1="1009.85" x2="1425.61" y2="1009" xlink:href="#linear-gradient-19"/><linearGradient id="linear-gradient-74" x1="1437.91" y1="982.69" x2="1448.34" y2="1020.25" xlink:href="#linear-gradient-12"/><linearGradient id="linear-gradient-75" x1="1521.16" y1="1043.02" x2="1482.57" y2="1042.16" xlink:href="#linear-gradient-19"/><linearGradient id="linear-gradient-76" x1="1494.87" y1="1015.85" x2="1505.3" y2="1053.41" xlink:href="#linear-gradient-12"/><linearGradient id="linear-gradient-77" x1="1578.12" y1="1076.18" x2="1539.53" y2="1075.33" xlink:href="#linear-gradient-19"/><linearGradient id="linear-gradient-78" x1="1551.83" y1="1049.02" x2="1562.26" y2="1086.58" xlink:href="#linear-gradient-12"/><linearGradient id="linear-gradient-79" x1="1635.08" y1="1109.35" x2="1596.49" y2="1108.5" xlink:href="#linear-gradient-19"/><linearGradient id="linear-gradient-80" x1="1608.79" y1="1082.19" x2="1619.22" y2="1119.74" xlink:href="#linear-gradient-12"/><linearGradient id="linear-gradient-81" x1="1692.04" y1="1142.51" x2="1653.44" y2="1141.66" xlink:href="#linear-gradient-19"/><linearGradient id="linear-gradient-82" x1="1665.75" y1="1115.35" x2="1676.18" y2="1152.91" xlink:href="#linear-gradient-12"/><linearGradient id="linear-gradient-83" x1="1749" y1="1175.68" x2="1710.4" y2="1174.83" xlink:href="#linear-gradient-19"/><linearGradient id="linear-gradient-84" x1="1722.71" y1="1148.52" x2="1733.14" y2="1186.07" xlink:href="#linear-gradient-12"/><linearGradient id="linear-gradient-85" x1="1805.96" y1="1208.85" x2="1767.36" y2="1207.99" xlink:href="#linear-gradient-19"/><linearGradient id="linear-gradient-86" x1="1779.67" y1="1181.68" x2="1790.1" y2="1219.24" xlink:href="#linear-gradient-12"/><linearGradient id="linear-gradient-87" x1="1862.92" y1="1242.01" x2="1824.32" y2="1241.16" xlink:href="#linear-gradient-19"/><linearGradient id="linear-gradient-88" x1="1836.63" y1="1214.85" x2="1847.06" y2="1252.4" xlink:href="#linear-gradient-12"/><linearGradient id="linear-gradient-89" x1="1919.88" y1="1275.18" x2="1881.28" y2="1274.32" xlink:href="#linear-gradient-19"/><linearGradient id="linear-gradient-90" x1="1893.59" y1="1248.01" x2="1904.02" y2="1285.57" xlink:href="#linear-gradient-12"/><linearGradient id="linear-gradient-91" x1="1424.22" y1="1033.06" x2="1385.62" y2="1032.21" xlink:href="#linear-gradient-19"/><linearGradient id="linear-gradient-92" x1="1397.93" y1="1005.9" x2="1408.36" y2="1043.45" xlink:href="#linear-gradient-12"/><linearGradient id="linear-gradient-93" x1="1481.18" y1="1066.22" x2="1442.58" y2="1065.37" xlink:href="#linear-gradient-19"/><linearGradient id="linear-gradient-94" x1="1454.89" y1="1039.06" x2="1465.32" y2="1076.62" xlink:href="#linear-gradient-12"/><linearGradient id="linear-gradient-95" x1="1630.25" y1="1133.15" x2="1524.81" y2="1130.82" xlink:href="#linear-gradient-19"/><linearGradient id="linear-gradient-96" x1="1555.55" y1="1058.39" x2="1589.9" y2="1182.04" xlink:href="#linear-gradient-12"/><linearGradient id="linear-gradient-97" x1="1709.02" y1="1198.89" x2="1670.42" y2="1198.03" xlink:href="#linear-gradient-19"/><linearGradient id="linear-gradient-98" x1="1682.72" y1="1171.72" x2="1693.16" y2="1209.28" xlink:href="#linear-gradient-12"/><linearGradient id="linear-gradient-99" x1="1765.98" y1="1232.05" x2="1727.38" y2="1231.2" xlink:href="#linear-gradient-19"/><linearGradient id="linear-gradient-100" x1="1739.68" y1="1204.89" x2="1750.12" y2="1242.45" xlink:href="#linear-gradient-12"/><linearGradient id="linear-gradient-101" x1="1822.94" y1="1265.22" x2="1784.34" y2="1264.36" xlink:href="#linear-gradient-19"/><linearGradient id="linear-gradient-102" x1="1796.64" y1="1238.05" x2="1807.08" y2="1275.61" xlink:href="#linear-gradient-12"/><linearGradient id="linear-gradient-103" x1="1879.9" y1="1298.38" x2="1841.3" y2="1297.53" xlink:href="#linear-gradient-19"/><linearGradient id="linear-gradient-104" x1="1853.6" y1="1271.22" x2="1864.04" y2="1308.78" xlink:href="#linear-gradient-12"/><linearGradient id="linear-gradient-105" x1="1679.8" y1="868.9" x2="1509.22" y2="360.79" gradientUnits="userSpaceOnUse"><stop offset="0" stop-color="#fe7f0a"/><stop offset="1" stop-color="#ffb538"/></linearGradient><linearGradient id="linear-gradient-106" x1="1491" y1="2690.73" x2="1674.82" y2="3352.49" gradientTransform="matrix(1, 0.57, 0, 1, 0, -3317.03)" xlink:href="#linear-gradient-105"/><linearGradient id="linear-gradient-107" x1="1559.12" y1="2809.56" x2="1617.65" y2="3020.26" gradientTransform="matrix(1, 0.57, 0, 1, 0, -3317.03)" xlink:href="#linear-gradient-18"/><linearGradient id="linear-gradient-108" x1="735.71" y1="900.17" x2="489.96" y2="875.74" xlink:href="#linear-gradient-14"/><linearGradient id="linear-gradient-109" x1="735.71" y1="898.61" x2="489.96" y2="874.17" xlink:href="#linear-gradient-11"/><linearGradient id="linear-gradient-110" x1="319.63" y1="875" x2="1036.28" y2="875" xlink:href="#linear-gradient-14"/><linearGradient id="linear-gradient-111" x1="334.7" y1="875" x2="1021.21" y2="875" xlink:href="#linear-gradient-12"/><linearGradient id="linear-gradient-112" x1="61.44" y1="1073.48" x2="47.39" y2="1360.14" xlink:href="#linear-gradient-18"/><linearGradient id="linear-gradient-113" y1="1092.34" x2="226.69" y2="1092.34" gradientUnits="userSpaceOnUse"><stop offset="0" stop-color="#82fb7c"/><stop offset="1" stop-color="#44cd99"/></linearGradient><linearGradient id="linear-gradient-114" x1="112.07" y1="1184.35" x2="226.69" y2="1184.35" gradientUnits="userSpaceOnUse"><stop offset="0" stop-color="#393839"/><stop offset="1" stop-color="#0ba2b3"/></linearGradient><linearGradient id="linear-gradient-115" x1="225.42" y1="1081.52" x2="211.37" y2="1368.18" xlink:href="#linear-gradient-18"/><linearGradient id="linear-gradient-116" x1="161.32" y1="1125.71" x2="388" y2="1125.71" xlink:href="#linear-gradient-113"/><linearGradient id="linear-gradient-117" x1="273.39" y1="1246.72" x2="388" y2="1246.72" xlink:href="#linear-gradient-114"/><linearGradient id="linear-gradient-118" x1="387.96" y1="1089.49" x2="373.91" y2="1376.15" xlink:href="#linear-gradient-18"/><linearGradient id="linear-gradient-119" x1="322.63" y1="1100.36" x2="549.32" y2="1100.36" xlink:href="#linear-gradient-113"/><linearGradient id="linear-gradient-120" x1="434.7" y1="1279.74" x2="549.32" y2="1279.74" xlink:href="#linear-gradient-114"/><linearGradient id="linear-gradient-121" x1="555.2" y1="1097.68" x2="541.15" y2="1384.35" xlink:href="#linear-gradient-18"/><linearGradient id="linear-gradient-122" x1="483.95" y1="1267.17" x2="710.63" y2="1267.17" xlink:href="#linear-gradient-113"/><linearGradient id="linear-gradient-123" x1="596.02" y1="1408.83" x2="710.63" y2="1408.83" xlink:href="#linear-gradient-114"/><linearGradient id="linear-gradient-124" x1="2139.52" y1="1452.93" x2="2470.52" y2="1452.93" xlink:href="#linear-gradient-12"/><linearGradient id="linear-gradient-125" x1="2085.04" y1="1563.96" x2="2525.02" y2="1563.96" xlink:href="#linear-gradient-19"/><linearGradient id="linear-gradient-126" x1="2085.2" y1="1471" x2="2525.02" y2="1471" gradientUnits="userSpaceOnUse"><stop offset="0" stop-color="#303030"/><stop offset="1" stop-color="#818181"/></linearGradient><linearGradient id="linear-gradient-127" x1="1051.14" y1="-3722.8" x2="1115.46" y2="-3722.8" gradientTransform="translate(5808.36 488.24) rotate(-123.18)" gradientUnits="userSpaceOnUse"><stop offset="0" stop-color="#fff"/><stop offset="1" stop-color="#dcdcdc"/></linearGradient><linearGradient id="linear-gradient-128" x1="1035.49" y1="-3872.36" x2="1131.1" y2="-3872.36" gradientTransform="translate(5808.36 488.24) rotate(-123.18)" gradientUnits="userSpaceOnUse"><stop offset="0" stop-color="#777"/><stop offset="1" stop-color="#464646"/></linearGradient><linearGradient id="linear-gradient-129" x1="10546.9" y1="1634.15" x2="10098.33" y2="1624.24" gradientTransform="matrix(-1, 0, 0, 1, 11397.59, 0)" xlink:href="#linear-gradient-11"/><linearGradient id="linear-gradient-130" x1="10546.9" y1="1632.39" x2="10098.33" y2="1622.48" gradientTransform="matrix(-1, 0, 0, 1, 11397.59, 0)" xlink:href="#linear-gradient-12"/><linearGradient id="linear-gradient-131" x1="10242.53" y1="1351.75" x2="10364.92" y2="1792.35" gradientTransform="matrix(-1, 0, 0, 1, 11397.59, 0)" xlink:href="#linear-gradient-12"/><linearGradient id="linear-gradient-132" x1="859.27" y1="1620.12" x2="814.83" y2="1619.14" xlink:href="#linear-gradient-19"/><linearGradient id="linear-gradient-133" x1="829" y1="1588.84" x2="841.01" y2="1632.08" xlink:href="#linear-gradient-19"/><linearGradient id="linear-gradient-134" x1="924.86" y1="1658.3" x2="880.42" y2="1657.32" xlink:href="#linear-gradient-19"/><linearGradient id="linear-gradient-135" x1="894.58" y1="1627.03" x2="906.59" y2="1670.27" xlink:href="#linear-gradient-19"/><linearGradient id="linear-gradient-136" x1="990.44" y1="1696.49" x2="946" y2="1695.51" xlink:href="#linear-gradient-19"/><linearGradient id="linear-gradient-137" x1="960.16" y1="1665.22" x2="972.18" y2="1708.46" xlink:href="#linear-gradient-19"/><linearGradient id="linear-gradient-138" x1="1056.02" y1="1734.68" x2="1011.58" y2="1733.69" xlink:href="#linear-gradient-19"/><linearGradient id="linear-gradient-139" x1="1025.75" y1="1703.4" x2="1037.76" y2="1746.64" xlink:href="#linear-gradient-19"/><linearGradient id="linear-gradient-140" x1="907.82" y1="1592.65" x2="863.38" y2="1591.67" xlink:href="#linear-gradient-19"/><linearGradient id="linear-gradient-141" x1="877.55" y1="1561.37" x2="889.56" y2="1604.62" xlink:href="#linear-gradient-19"/><linearGradient id="linear-gradient-142" x1="973.41" y1="1630.84" x2="928.97" y2="1629.85" xlink:href="#linear-gradient-19"/><linearGradient id="linear-gradient-143" x1="943.13" y1="1599.56" x2="955.14" y2="1642.8" xlink:href="#linear-gradient-19"/><linearGradient id="linear-gradient-144" x1="1038.99" y1="1669.02" x2="994.55" y2="1668.04" xlink:href="#linear-gradient-19"/><linearGradient id="linear-gradient-145" x1="1008.71" y1="1637.75" x2="1020.73" y2="1680.99" xlink:href="#linear-gradient-19"/><linearGradient id="linear-gradient-146" x1="1104.57" y1="1707.21" x2="1060.13" y2="1706.23" xlink:href="#linear-gradient-19"/><linearGradient id="linear-gradient-147" x1="1074.3" y1="1675.93" x2="1086.31" y2="1719.18" xlink:href="#linear-gradient-19"/><linearGradient id="linear-gradient-148" x1="956.37" y1="1565.18" x2="911.93" y2="1564.2" xlink:href="#linear-gradient-19"/><linearGradient id="linear-gradient-149" x1="926.1" y1="1533.91" x2="938.11" y2="1577.15" xlink:href="#linear-gradient-19"/><linearGradient id="linear-gradient-150" x1="1021.95" y1="1603.37" x2="977.51" y2="1602.38" xlink:href="#linear-gradient-19"/><linearGradient id="linear-gradient-151" x1="991.68" y1="1572.09" x2="1003.69" y2="1615.33" xlink:href="#linear-gradient-19"/><linearGradient id="linear-gradient-152" x1="1087.54" y1="1641.55" x2="1043.1" y2="1640.57" xlink:href="#linear-gradient-19"/><linearGradient id="linear-gradient-153" x1="1057.26" y1="1610.28" x2="1069.27" y2="1653.52" xlink:href="#linear-gradient-19"/><linearGradient id="linear-gradient-154" x1="1153.12" y1="1679.74" x2="1108.68" y2="1678.76" xlink:href="#linear-gradient-19"/><linearGradient id="linear-gradient-155" x1="1122.85" y1="1648.46" x2="1134.86" y2="1691.71" xlink:href="#linear-gradient-19"/><linearGradient id="linear-gradient-156" x1="1004.92" y1="1537.71" x2="960.48" y2="1536.73" xlink:href="#linear-gradient-19"/><linearGradient id="linear-gradient-157" x1="974.65" y1="1506.44" x2="986.66" y2="1549.68" xlink:href="#linear-gradient-19"/><linearGradient id="linear-gradient-158" x1="1070.5" y1="1575.9" x2="1026.06" y2="1574.92" xlink:href="#linear-gradient-19"/><linearGradient id="linear-gradient-159" x1="1040.23" y1="1544.62" x2="1052.24" y2="1587.87" xlink:href="#linear-gradient-19"/><linearGradient id="linear-gradient-160" x1="1136.09" y1="1614.08" x2="1091.65" y2="1613.1" xlink:href="#linear-gradient-19"/><linearGradient id="linear-gradient-161" x1="1105.81" y1="1582.81" x2="1117.82" y2="1626.05" xlink:href="#linear-gradient-19"/><linearGradient id="linear-gradient-162" x1="1201.67" y1="1652.27" x2="1157.23" y2="1651.29" xlink:href="#linear-gradient-19"/><linearGradient id="linear-gradient-163" x1="1171.39" y1="1621" x2="1183.41" y2="1664.24" xlink:href="#linear-gradient-19"/><linearGradient id="linear-gradient-164" x1="1053.47" y1="1510.24" x2="1009.03" y2="1509.26" xlink:href="#linear-gradient-19"/><linearGradient id="linear-gradient-165" x1="1023.19" y1="1478.97" x2="1035.21" y2="1522.21" xlink:href="#linear-gradient-19"/><linearGradient id="linear-gradient-166" x1="1119.05" y1="1548.43" x2="1074.61" y2="1547.45" xlink:href="#linear-gradient-19"/><linearGradient id="linear-gradient-167" x1="1088.78" y1="1517.15" x2="1100.79" y2="1560.4" xlink:href="#linear-gradient-19"/><linearGradient id="linear-gradient-168" x1="1184.64" y1="1586.62" x2="1140.2" y2="1585.63" xlink:href="#linear-gradient-19"/><linearGradient id="linear-gradient-169" x1="1154.36" y1="1555.34" x2="1166.37" y2="1598.58" xlink:href="#linear-gradient-19"/><linearGradient id="linear-gradient-170" x1="1250.22" y1="1624.8" x2="1205.78" y2="1623.82" xlink:href="#linear-gradient-19"/><linearGradient id="linear-gradient-171" x1="1219.94" y1="1593.53" x2="1231.96" y2="1636.77" xlink:href="#linear-gradient-19"/><linearGradient id="linear-gradient-172" x1="1215.56" y1="1386.42" x2="1270.3" y2="1583.51" xlink:href="#linear-gradient-14"/><linearGradient id="linear-gradient-173" x1="1218.32" y1="1405.11" x2="1276.82" y2="1615.71" xlink:href="#linear-gradient-105"/></defs><g id="Livello_2" data-name="Livello 2"><g id="Layer_4" data-name="Layer 4"><g class="cls-11"><polygon class="cls-12" points="741.42 540.63 563.54 434.67 563.54 248.57 741.42 354.52 741.42 540.63"/><polygon class="cls-13" points="741.42 354.52 563.54 248.57 745.46 144.55 923.33 250.51 741.42 354.52"/><polygon class="cls-14" points="923.33 250.51 923.33 436.61 741.42 540.63 741.42 354.52 923.33 250.51"/></g><g class="cls-15"><polygon class="cls-16" points="670.92 313.5 634.04 291.53 815.95 187.52 852.84 209.49 670.92 313.5"/></g><polygon class="cls-17" points="634.04 345.82 670.92 367.79 670.92 313.5 634.04 291.53 634.04 345.82"/><polygon class="cls-17" points="914.57 323.84 877.69 345.82 877.69 291.53 914.57 269.56 914.57 323.84"/><path class="cls-16" d="M908.45,291.2,883.8,305.68c-.87.51-1.59.22-1.59-.66h0a3.36,3.36,0,0,1,1.59-2.52L908.45,288c.88-.52,1.6-.22,1.6.65h0A3.36,3.36,0,0,1,908.45,291.2Z"/><path class="cls-16" d="M908.45,302,883.8,316.52c-.87.51-1.59.22-1.59-.66h0a3.36,3.36,0,0,1,1.59-2.52l24.65-14.48c.88-.52,1.6-.22,1.6.65h0A3.36,3.36,0,0,1,908.45,302Z"/><path class="cls-16" d="M908.45,312.88,883.8,327.36c-.87.51-1.59.22-1.59-.66h0a3.36,3.36,0,0,1,1.59-2.52l24.65-14.49c.88-.51,1.6-.21,1.6.66h0A3.36,3.36,0,0,1,908.45,312.88Z"/><g class="cls-18"><polygon class="cls-19" points="321.88 924.63 994.96 843.78 1236.31 970.55 803.74 1224.12 304.24 934.75 321.88 924.63"/></g><g class="cls-20"><polygon class="cls-21" points="740.28 1690.09 1413.36 1609.24 1654.71 1736.01 1222.14 1989.58 722.64 1700.21 740.28 1690.09"/></g><g class="cls-22"><polygon class="cls-23" points="188.8 667.73 524.3 582.6 738.99 695.36 478.72 847.92 178.18 673.82 188.8 667.73"/></g><g class="cls-24"><polygon class="cls-25" points="1282.87 1294.55 2106.84 1195.57 2402.3 1350.76 1872.76 1661.17 1261.27 1306.93 1282.87 1294.55"/></g><g class="cls-26"><polygon class="cls-27" points="780.93 589.5 1454.01 508.65 1695.36 635.42 1262.79 888.99 763.29 599.62 780.93 589.5"/></g><g class="cls-11"><polygon class="cls-28" points="1157.53 584.61 979.66 478.66 979.66 292.55 1157.53 398.51 1157.53 584.61"/><polygon class="cls-13" points="1157.53 398.51 979.66 292.55 1161.57 188.54 1339.44 294.5 1157.53 398.51"/><polygon class="cls-14" points="1339.44 294.5 1339.44 480.6 1157.53 584.61 1157.53 398.51 1339.44 294.5"/></g><g class="cls-15"><polygon class="cls-16" points="1087.04 357.49 1050.15 335.52 1232.06 231.51 1268.95 253.48 1087.04 357.49"/></g><polygon class="cls-17" points="1050.15 389.8 1087.04 411.78 1087.04 357.49 1050.15 335.52 1050.15 389.8"/><polygon class="cls-17" points="1330.68 367.83 1293.8 389.8 1293.8 335.52 1330.68 313.55 1330.68 367.83"/><path class="cls-16" d="M1324.57,335.19l-24.66,14.48c-.87.51-1.59.22-1.59-.66h0a3.36,3.36,0,0,1,1.59-2.52L1324.57,332c.87-.51,1.59-.21,1.59.66h0A3.38,3.38,0,0,1,1324.57,335.19Z"/><path class="cls-16" d="M1324.57,346l-24.66,14.49c-.87.51-1.59.21-1.59-.66h0a3.38,3.38,0,0,1,1.59-2.53l24.66-14.48c.87-.51,1.59-.22,1.59.66h0A3.36,3.36,0,0,1,1324.57,346Z"/><path class="cls-16" d="M1324.57,356.86l-24.66,14.48c-.87.52-1.59.22-1.59-.65h0a3.38,3.38,0,0,1,1.59-2.53l24.66-14.48c.87-.51,1.59-.22,1.59.66h0A3.36,3.36,0,0,1,1324.57,356.86Z"/><g class="cls-11"><polygon class="cls-12" points="973.68 690.73 795.8 584.77 795.8 398.67 973.68 504.63 973.68 690.73"/><polygon class="cls-13" points="973.68 504.63 795.8 398.67 977.72 294.66 1155.59 400.62 973.68 504.63"/><polygon class="cls-14" points="1155.59 400.62 1155.59 586.72 973.68 690.73 973.68 504.63 1155.59 400.62"/></g><g class="cls-15"><polygon class="cls-16" points="903.18 463.61 866.3 441.63 1048.21 337.62 1085.1 359.6 903.18 463.61"/></g><polygon class="cls-17" points="866.3 495.92 903.18 517.89 903.18 463.61 866.3 441.63 866.3 495.92"/><polygon class="cls-17" points="1146.83 473.95 1109.94 495.92 1109.94 441.63 1146.83 419.66 1146.83 473.95"/><path class="cls-16" d="M1140.71,441.3l-24.65,14.48c-.87.52-1.59.22-1.59-.65h0a3.38,3.38,0,0,1,1.59-2.53l24.65-14.48c.88-.51,1.59-.22,1.59.66h0A3.33,3.33,0,0,1,1140.71,441.3Z"/><path class="cls-16" d="M1140.71,452.14l-24.65,14.48c-.87.52-1.59.22-1.59-.65h0a3.36,3.36,0,0,1,1.59-2.53L1140.71,449c.88-.51,1.59-.22,1.59.66h0A3.33,3.33,0,0,1,1140.71,452.14Z"/><path class="cls-16" d="M1140.71,463l-24.65,14.48c-.87.51-1.59.22-1.59-.66h0a3.36,3.36,0,0,1,1.59-2.52l24.65-14.48c.88-.52,1.59-.22,1.59.65h0A3.33,3.33,0,0,1,1140.71,463Z"/><g class="cls-11"><polygon class="cls-28" points="1338.39 692.65 1160.52 586.69 1160.52 400.59 1338.39 506.55 1338.39 692.65"/><polygon class="cls-13" points="1338.39 506.55 1160.52 400.59 1342.43 296.58 1520.31 402.54 1338.39 506.55"/><polygon class="cls-14" points="1520.31 402.54 1520.31 588.64 1338.39 692.65 1338.39 506.55 1520.31 402.54"/></g><g class="cls-15"><polygon class="cls-16" points="1267.9 465.53 1231.01 443.56 1412.93 339.54 1449.81 361.52 1267.9 465.53"/></g><polygon class="cls-17" points="1231.01 497.84 1267.9 519.81 1267.9 465.53 1231.01 443.56 1231.01 497.84"/><polygon class="cls-17" points="1511.55 475.87 1474.66 497.84 1474.66 443.56 1511.55 421.58 1511.55 475.87"/><path class="cls-16" d="M1505.43,443.22l-24.65,14.48c-.88.52-1.59.22-1.59-.65h0a3.35,3.35,0,0,1,1.59-2.53L1505.43,440c.87-.51,1.59-.22,1.59.66h0A3.36,3.36,0,0,1,1505.43,443.22Z"/><path class="cls-16" d="M1505.43,454.06l-24.65,14.48c-.88.52-1.59.22-1.59-.65h0a3.35,3.35,0,0,1,1.59-2.53l24.65-14.48c.87-.51,1.59-.22,1.59.66h0A3.36,3.36,0,0,1,1505.43,454.06Z"/><path class="cls-16" d="M1505.43,464.9l-24.65,14.48c-.88.51-1.59.22-1.59-.66h0a3.33,3.33,0,0,1,1.59-2.52l24.65-14.48c.87-.52,1.59-.22,1.59.65h0A3.36,3.36,0,0,1,1505.43,464.9Z"/><g class="cls-11"><polygon class="cls-12" points="1157.53 396.07 979.66 290.11 979.66 104.01 1157.53 209.97 1157.53 396.07"/><polygon class="cls-13" points="1157.53 209.97 979.66 104.01 1161.57 0 1339.44 105.96 1157.53 209.97"/><polygon class="cls-14" points="1339.44 105.96 1339.44 292.06 1157.53 396.07 1157.53 209.97 1339.44 105.96"/></g><g class="cls-15"><polygon class="cls-16" points="1087.04 168.95 1050.15 146.98 1232.06 42.97 1268.95 64.94 1087.04 168.95"/></g><polygon class="cls-17" points="1050.15 201.26 1087.04 223.23 1087.04 168.95 1050.15 146.98 1050.15 201.26"/><polygon class="cls-17" points="1330.68 179.29 1293.8 201.26 1293.8 146.98 1330.68 125 1330.68 179.29"/><path class="cls-16" d="M1324.57,146.64l-24.66,14.49c-.87.51-1.59.21-1.59-.66h0a3.38,3.38,0,0,1,1.59-2.53l24.66-14.48c.87-.51,1.59-.22,1.59.66h0A3.36,3.36,0,0,1,1324.57,146.64Z"/><path class="cls-16" d="M1324.57,157.48,1299.91,172c-.87.52-1.59.22-1.59-.65h0a3.38,3.38,0,0,1,1.59-2.53l24.66-14.48c.87-.51,1.59-.22,1.59.66h0A3.36,3.36,0,0,1,1324.57,157.48Z"/><path class="cls-16" d="M1324.57,168.32l-24.66,14.48c-.87.52-1.59.22-1.59-.65h0a3.38,3.38,0,0,1,1.59-2.53l24.66-14.48c.87-.51,1.59-.22,1.59.66h0A3.36,3.36,0,0,1,1324.57,168.32Z"/><g class="cls-11"><polygon class="cls-12" points="1338.39 504.11 1160.52 398.15 1160.52 212.05 1338.39 318.01 1338.39 504.11"/><polygon class="cls-13" points="1338.39 318.01 1160.52 212.05 1342.43 108.04 1520.31 214 1338.39 318.01"/><polygon class="cls-14" points="1520.31 214 1520.31 400.1 1338.39 504.11 1338.39 318.01 1520.31 214"/></g><g class="cls-15"><polygon class="cls-16" points="1267.9 276.99 1231.01 255.01 1412.93 151 1449.81 172.97 1267.9 276.99"/></g><polygon class="cls-17" points="1231.01 309.3 1267.9 331.27 1267.9 276.99 1231.01 255.01 1231.01 309.3"/><polygon class="cls-17" points="1511.55 287.32 1474.66 309.3 1474.66 255.01 1511.55 233.04 1511.55 287.32"/><path class="cls-16" d="M1505.43,254.68l-24.65,14.48c-.88.52-1.59.22-1.59-.65h0a3.35,3.35,0,0,1,1.59-2.53l24.65-14.48c.87-.51,1.59-.22,1.59.66h0A3.36,3.36,0,0,1,1505.43,254.68Z"/><path class="cls-16" d="M1505.43,265.52,1480.78,280c-.88.51-1.59.22-1.59-.66h0a3.33,3.33,0,0,1,1.59-2.52l24.65-14.48c.87-.52,1.59-.22,1.59.65h0A3.36,3.36,0,0,1,1505.43,265.52Z"/><path class="cls-16" d="M1505.43,276.36l-24.65,14.48c-.88.51-1.59.22-1.59-.66h0a3.33,3.33,0,0,1,1.59-2.52l24.65-14.48c.87-.52,1.59-.22,1.59.65h0A3.38,3.38,0,0,1,1505.43,276.36Z"/><g class="cls-11"><polygon class="cls-12" points="1154.54 798.77 976.67 692.81 976.67 506.71 1154.54 612.66 1154.54 798.77"/><polygon class="cls-13" points="1154.54 612.66 976.67 506.71 1158.58 402.69 1336.45 508.65 1154.54 612.66"/><polygon class="cls-14" points="1336.45 508.65 1336.45 694.75 1154.54 798.77 1154.54 612.66 1336.45 508.65"/></g><g class="cls-15"><polygon class="cls-16" points="1084.05 571.64 1047.16 549.67 1229.08 445.66 1265.96 467.63 1084.05 571.64"/></g><polygon class="cls-17" points="1047.16 603.96 1084.05 625.93 1084.05 571.64 1047.16 549.67 1047.16 603.96"/><polygon class="cls-17" points="1327.69 581.98 1290.81 603.96 1290.81 549.67 1327.69 527.7 1327.69 581.98"/><path class="cls-16" d="M1321.58,549.34l-24.66,14.48c-.87.51-1.59.22-1.59-.66h0a3.36,3.36,0,0,1,1.59-2.52l24.66-14.48c.87-.52,1.59-.22,1.59.65h0A3.38,3.38,0,0,1,1321.58,549.34Z"/><path class="cls-16" d="M1321.58,560.18l-24.66,14.48c-.87.51-1.59.22-1.59-.66h0a3.36,3.36,0,0,1,1.59-2.52L1321.58,557c.87-.52,1.59-.22,1.59.65h0A3.38,3.38,0,0,1,1321.58,560.18Z"/><path class="cls-16" d="M1321.58,571l-24.66,14.48c-.87.51-1.59.22-1.59-.66h0a3.36,3.36,0,0,1,1.59-2.52l24.66-14.49c.87-.51,1.59-.21,1.59.66h0A3.38,3.38,0,0,1,1321.58,571Z"/><g class="cls-11"><polygon class="cls-12" points="1097.25 579.13 919.38 473.17 919.38 287.07 1097.25 393.03 1097.25 579.13"/><polygon class="cls-13" points="1097.25 393.03 919.38 287.07 1101.29 183.06 1279.16 289.01 1097.25 393.03"/><polygon class="cls-14" points="1279.16 289.01 1279.16 475.12 1097.25 579.13 1097.25 393.03 1279.16 289.01"/></g><g class="cls-15"><polygon class="cls-16" points="1026.76 352.01 989.87 330.03 1171.79 226.02 1208.67 247.99 1026.76 352.01"/></g><polygon class="cls-17" points="989.87 384.32 1026.76 406.29 1026.76 352.01 989.87 330.03 989.87 384.32"/><polygon class="cls-17" points="1270.4 362.34 1233.52 384.32 1233.52 330.03 1270.4 308.06 1270.4 362.34"/><path class="cls-16" d="M1264.29,329.7l-24.66,14.48c-.87.51-1.59.22-1.59-.66h0a3.36,3.36,0,0,1,1.59-2.52l24.66-14.48c.87-.52,1.59-.22,1.59.65h0A3.36,3.36,0,0,1,1264.29,329.7Z"/><path class="cls-16" d="M1264.29,340.54,1239.63,355c-.87.51-1.59.22-1.59-.66h0a3.36,3.36,0,0,1,1.59-2.52l24.66-14.48c.87-.52,1.59-.22,1.59.65h0A3.38,3.38,0,0,1,1264.29,340.54Z"/><path class="cls-16" d="M1264.29,351.38l-24.66,14.48c-.87.51-1.59.22-1.59-.66h0a3.36,3.36,0,0,1,1.59-2.52l24.66-14.48c.87-.52,1.59-.22,1.59.65h0A3.38,3.38,0,0,1,1264.29,351.38Z"/><path class="cls-29" d="M1057.68,1194,1670.25,1550a61.77,61.77,0,0,0,62.61-.32l427.39-254.32c15.48-9.21,23.1-64.46,7.52-73.51l-634-331.1a40,40,0,0,0-40.51.21l-442.14,224.63C1034.49,1125.47,1040.94,1184.3,1057.68,1194Z"/><path class="cls-30" d="M1057.68,1192.09,1670.25,1548a61.75,61.75,0,0,0,62.61-.32l427.39-254.32c15.48-9.21,23.1-64.46,7.52-73.51l-634-331.1a40,40,0,0,0-40.51.21l-442.14,224.63C1034.49,1123.52,1040.94,1182.36,1057.68,1192.09Z"/><path class="cls-31" d="M1057.68,1152.1,1670.25,1508a61.75,61.75,0,0,0,62.61-.32l427.39-254.32a23.61,23.61,0,0,0-.21-40.71l-626.26-363.9a40,40,0,0,0-40.51.21l-435.82,259.33A25.4,25.4,0,0,0,1057.68,1152.1Z"/><path class="cls-32" d="M1331.35,1049.85,1828.59,1338a57.21,57.21,0,0,0,58-.3l192.65-112.89a21.88,21.88,0,0,0-.19-37.73l-509.93-295.5a37,37,0,0,0-37.53.2l-200.46,117.54A23.53,23.53,0,0,0,1331.35,1049.85Z"/><path class="cls-33" d="M1314.78,1247l181,104.89a20.82,20.82,0,0,0,21.12-.11l70.13-41.1A8,8,0,0,0,1587,1297l-185.63-107.58a13.51,13.51,0,0,0-13.67.07l-73,42.79A8.57,8.57,0,0,0,1314.78,1247Z"/><path class="cls-34" d="M2201.14,545.76,1574.37,190.17a32,32,0,0,0-47.74,27.8v576a52.47,52.47,0,0,0,26.56,45.61l641.89,364.16a26.74,26.74,0,0,0,39.93-23.26V603.91A66.86,66.86,0,0,0,2201.14,545.76Z"/><path class="cls-35" d="M2173.75,558.4,1547,202.81a32,32,0,0,0-47.74,27.8v576a52.47,52.47,0,0,0,26.56,45.61l641.89,364.16a26.74,26.74,0,0,0,39.93-23.25V616.56A66.88,66.88,0,0,0,2173.75,558.4Z"/><path class="cls-36" d="M2180.84,1194.47a1.2,1.2,0,0,1-.62-.22L1538.34,830.09a27.06,27.06,0,0,1-13.69-23.51v-576a6.63,6.63,0,0,1,6.6-6.6,6.31,6.31,0,0,1,3.19.9L2161.21,580.5a41.52,41.52,0,0,1,21,36.06V1193.1a1,1,0,0,1-.32.9A1.69,1.69,0,0,1,2180.84,1194.47Z"/><path class="cls-37" d="M1531.43,938.15l35.73,20.76a3.59,3.59,0,0,0,3.65,0l24.93-14.83c.9-.54,1.66-6.9.76-7.43l-37.3-16.16a2.3,2.3,0,0,0-2.36,0l-25.47,9.95C1530.4,931,1530.46,937.59,1531.43,938.15Z"/><path class="cls-38" d="M1531.43,931.85l35.73,20.76a3.59,3.59,0,0,0,3.65,0l24.93-14.83a1.38,1.38,0,0,0,0-2.38l-36.52-21.22a2.34,2.34,0,0,0-2.36,0l-25.42,15.13A1.48,1.48,0,0,0,1531.43,931.85Z"/><path class="cls-39" d="M1588.39,971.32l35.73,20.76a3.59,3.59,0,0,0,3.65,0l24.93-14.83c.9-.54,1.66-6.9.76-7.43l-37.3-16.17a2.34,2.34,0,0,0-2.36,0l-25.47,10C1587.36,964.18,1587.42,970.75,1588.39,971.32Z"/><path class="cls-40" d="M1588.39,965l35.73,20.76a3.61,3.61,0,0,0,3.65,0l24.93-14.84a1.37,1.37,0,0,0,0-2.37l-36.52-21.22a2.32,2.32,0,0,0-2.36,0l-25.42,15.12A1.49,1.49,0,0,0,1588.39,965Z"/><path class="cls-41" d="M1645.35,1004.49l35.73,20.75a3.59,3.59,0,0,0,3.65,0l24.93-14.83c.9-.53,1.66-6.9.76-7.43l-37.3-16.16a2.32,2.32,0,0,0-2.36,0l-25.47,10C1644.32,997.34,1644.38,1003.92,1645.35,1004.49Z"/><path class="cls-42" d="M1645.35,998.18l35.73,20.76a3.59,3.59,0,0,0,3.65,0l24.93-14.83a1.37,1.37,0,0,0,0-2.37l-36.52-21.23a2.32,2.32,0,0,0-2.36,0l-25.42,15.12A1.48,1.48,0,0,0,1645.35,998.18Z"/><path class="cls-43" d="M1702.31,1037.65l35.73,20.76a3.59,3.59,0,0,0,3.65,0l24.93-14.83c.9-.54,1.66-6.9.76-7.43l-37.3-16.17a2.34,2.34,0,0,0-2.36,0l-25.47,10C1701.28,1030.51,1701.34,1037.08,1702.31,1037.65Z"/><path class="cls-44" d="M1702.31,1031.35l35.73,20.76a3.61,3.61,0,0,0,3.65,0l24.93-14.83a1.38,1.38,0,0,0,0-2.38l-36.52-21.22a2.32,2.32,0,0,0-2.36,0l-25.42,15.13A1.48,1.48,0,0,0,1702.31,1031.35Z"/><path class="cls-45" d="M1759.27,1070.82l35.73,20.76a3.64,3.64,0,0,0,3.65,0l24.93-14.84c.9-.53,1.66-6.9.76-7.43l-37.3-16.16a2.32,2.32,0,0,0-2.36,0l-25.47,10C1758.24,1063.67,1758.3,1070.25,1759.27,1070.82Z"/><path class="cls-46" d="M1759.27,1064.51l35.73,20.76a3.59,3.59,0,0,0,3.65,0l24.93-14.83a1.37,1.37,0,0,0,0-2.37L1787,1046.83a2.3,2.3,0,0,0-2.36,0L1759.26,1062A1.48,1.48,0,0,0,1759.27,1064.51Z"/><path class="cls-47" d="M1816.23,1104l35.73,20.76a3.59,3.59,0,0,0,3.65,0l24.93-14.83c.9-.54,1.66-6.9.76-7.43l-37.3-16.17a2.32,2.32,0,0,0-2.36,0l-25.47,10C1815.2,1096.84,1815.26,1103.42,1816.23,1104Z"/><path class="cls-48" d="M1816.23,1097.68l35.73,20.76a3.59,3.59,0,0,0,3.65,0l24.93-14.83a1.38,1.38,0,0,0,0-2.38L1844,1080a2.34,2.34,0,0,0-2.36,0l-25.42,15.13A1.48,1.48,0,0,0,1816.23,1097.68Z"/><path class="cls-49" d="M1873.19,1137.15l35.73,20.76a3.61,3.61,0,0,0,3.65,0l24.93-14.83c.9-.54,1.66-6.91.76-7.43l-37.3-16.17a2.32,2.32,0,0,0-2.36,0l-25.47,10C1872.16,1130,1872.22,1136.58,1873.19,1137.15Z"/><path class="cls-50" d="M1873.19,1130.85l35.73,20.75a3.59,3.59,0,0,0,3.65,0l24.93-14.83a1.37,1.37,0,0,0,0-2.37L1901,1113.16a2.32,2.32,0,0,0-2.36,0l-25.42,15.12A1.49,1.49,0,0,0,1873.19,1130.85Z"/><path class="cls-51" d="M1930.15,1170.31l35.73,20.76a3.59,3.59,0,0,0,3.65,0l24.92-14.83c.91-.54,1.67-6.9.77-7.43l-37.3-16.17a2.32,2.32,0,0,0-2.36,0l-25.47,9.95C1929.12,1163.17,1929.18,1169.75,1930.15,1170.31Z"/><path class="cls-52" d="M1930.15,1164l35.73,20.76a3.59,3.59,0,0,0,3.65,0l24.92-14.83a1.38,1.38,0,0,0,0-2.38l-36.52-21.22a2.34,2.34,0,0,0-2.36,0l-25.42,15.13A1.48,1.48,0,0,0,1930.15,1164Z"/><path class="cls-53" d="M1987.11,1203.48l35.73,20.76a3.61,3.61,0,0,0,3.65,0l24.92-14.83c.91-.54,1.67-6.91.76-7.43l-37.29-16.17a2.34,2.34,0,0,0-2.36,0l-25.47,10C1986.08,1196.34,1986.14,1202.91,1987.11,1203.48Z"/><path class="cls-54" d="M1987.11,1197.18l35.73,20.76a3.64,3.64,0,0,0,3.65,0l24.92-14.84a1.37,1.37,0,0,0,0-2.37l-36.52-21.22a2.32,2.32,0,0,0-2.36,0l-25.42,15.12A1.49,1.49,0,0,0,1987.11,1197.18Z"/><path class="cls-55" d="M1491.45,961.36l35.73,20.76a3.59,3.59,0,0,0,3.65,0l24.92-14.83c.91-.54,1.67-6.9.76-7.43l-37.29-16.17a2.34,2.34,0,0,0-2.36,0l-25.47,10C1490.42,954.22,1490.48,960.79,1491.45,961.36Z"/><path class="cls-56" d="M1491.45,955.06l35.73,20.76a3.61,3.61,0,0,0,3.65,0L1555.75,961a1.38,1.38,0,0,0,0-2.38l-36.52-21.22a2.32,2.32,0,0,0-2.36,0l-25.42,15.13A1.48,1.48,0,0,0,1491.45,955.06Z"/><path class="cls-57" d="M1548.41,994.53l35.73,20.75a3.61,3.61,0,0,0,3.65,0l24.92-14.84c.91-.53,1.67-6.9.76-7.43l-37.29-16.16a2.32,2.32,0,0,0-2.36,0l-25.47,10C1547.38,987.38,1547.44,994,1548.41,994.53Z"/><path class="cls-58" d="M1548.41,988.22l35.73,20.76a3.59,3.59,0,0,0,3.65,0l24.92-14.83a1.37,1.37,0,0,0,0-2.37l-36.52-21.23a2.32,2.32,0,0,0-2.36,0l-25.42,15.12A1.48,1.48,0,0,0,1548.41,988.22Z"/><path class="cls-59" d="M1605.37,1027.69l35.73,20.76a3.59,3.59,0,0,0,3.65,0l24.92-14.83c.91-.54,1.67-6.9.76-7.43L1633.14,1010a2.34,2.34,0,0,0-2.37,0l-25.46,10C1604.34,1020.55,1604.4,1027.12,1605.37,1027.69Z"/><path class="cls-60" d="M1605.37,1021.39l35.73,20.76a3.61,3.61,0,0,0,3.65,0l24.92-14.83a1.38,1.38,0,0,0,0-2.38l-36.52-21.22a2.36,2.36,0,0,0-2.37,0l-25.41,15.13A1.48,1.48,0,0,0,1605.37,1021.39Z"/><path class="cls-61" d="M1662.33,1060.86l35.73,20.76a3.61,3.61,0,0,0,3.65,0l24.92-14.83c.91-.54,1.67-6.91.76-7.43l-37.29-16.17a2.34,2.34,0,0,0-2.37,0l-25.46,10C1661.3,1053.72,1661.36,1060.29,1662.33,1060.86Z"/><path class="cls-62" d="M1662.33,1054.56l35.73,20.75a3.59,3.59,0,0,0,3.65,0l24.92-14.83a1.37,1.37,0,0,0,0-2.37l-36.52-21.22a2.34,2.34,0,0,0-2.37,0L1662.32,1052A1.49,1.49,0,0,0,1662.33,1054.56Z"/><path class="cls-63" d="M1719.29,1094l35.73,20.76a3.59,3.59,0,0,0,3.65,0l24.92-14.83c.91-.54,1.67-6.9.76-7.43l-37.29-16.17a2.34,2.34,0,0,0-2.37,0l-25.46,10C1718.26,1086.88,1718.31,1093.46,1719.29,1094Z"/><path class="cls-64" d="M1719.29,1087.72l35.73,20.76a3.59,3.59,0,0,0,3.65,0l24.92-14.83a1.38,1.38,0,0,0,0-2.38L1747.06,1070a2.36,2.36,0,0,0-2.37,0l-25.41,15.13A1.48,1.48,0,0,0,1719.29,1087.72Z"/><path class="cls-65" d="M1776.25,1127.19,1812,1148a3.61,3.61,0,0,0,3.65,0l24.92-14.83c.91-.54,1.67-6.91.76-7.43L1804,1109.5a2.36,2.36,0,0,0-2.37,0l-25.46,10C1775.22,1120.05,1775.27,1126.62,1776.25,1127.19Z"/><path class="cls-66" d="M1776.25,1120.89l35.73,20.75a3.61,3.61,0,0,0,3.65,0l24.92-14.84a1.37,1.37,0,0,0,0-2.37L1804,1103.2a2.34,2.34,0,0,0-2.37,0l-25.41,15.12A1.49,1.49,0,0,0,1776.25,1120.89Z"/><path class="cls-67" d="M1833.21,1160.35l35.73,20.76a3.59,3.59,0,0,0,3.65,0l24.92-14.83c.91-.53,1.67-6.9.76-7.43L1861,1142.67a2.34,2.34,0,0,0-2.37,0l-25.46,10C1832.18,1153.21,1832.23,1159.79,1833.21,1160.35Z"/><path class="cls-68" d="M1833.21,1154.05l35.73,20.76a3.59,3.59,0,0,0,3.65,0l24.92-14.83a1.37,1.37,0,0,0,0-2.37L1861,1136.36a2.34,2.34,0,0,0-2.37,0l-25.41,15.12A1.48,1.48,0,0,0,1833.21,1154.05Z"/><path class="cls-69" d="M1890.17,1193.52l35.73,20.76a3.59,3.59,0,0,0,3.65,0l24.92-14.83c.91-.54,1.67-6.9.76-7.43l-37.29-16.17a2.36,2.36,0,0,0-2.37,0l-25.46,10C1889.14,1186.38,1889.19,1193,1890.17,1193.52Z"/><path class="cls-70" d="M1890.17,1187.22,1925.9,1208a3.61,3.61,0,0,0,3.65,0l24.92-14.83a1.38,1.38,0,0,0,0-2.38l-36.52-21.22a2.34,2.34,0,0,0-2.37,0l-25.41,15.13A1.48,1.48,0,0,0,1890.17,1187.22Z"/><path class="cls-71" d="M1947.13,1226.69l35.73,20.75a3.61,3.61,0,0,0,3.65,0l24.92-14.84c.9-.53,1.67-6.9.76-7.43L1974.9,1209a2.34,2.34,0,0,0-2.37,0l-25.46,10C1946.1,1219.54,1946.15,1226.12,1947.13,1226.69Z"/><path class="cls-72" d="M1947.13,1220.38l35.73,20.76a3.59,3.59,0,0,0,3.65,0l24.92-14.83a1.37,1.37,0,0,0,0-2.37l-36.52-21.23a2.34,2.34,0,0,0-2.37,0l-25.41,15.12A1.48,1.48,0,0,0,1947.13,1220.38Z"/><path class="cls-73" d="M1451.47,984.57l35.72,20.76a3.63,3.63,0,0,0,3.66,0l24.92-14.83c.9-.54,1.67-6.91.76-7.43l-37.29-16.17a2.34,2.34,0,0,0-2.37,0l-25.46,10C1450.44,977.43,1450.49,984,1451.47,984.57Z"/><path class="cls-74" d="M1451.47,978.27,1487.19,999a3.61,3.61,0,0,0,3.66,0l24.92-14.83a1.37,1.37,0,0,0,0-2.37l-36.52-21.22a2.34,2.34,0,0,0-2.37,0l-25.41,15.12A1.49,1.49,0,0,0,1451.47,978.27Z"/><path class="cls-75" d="M1508.43,1017.73l35.72,20.76a3.61,3.61,0,0,0,3.66,0l24.92-14.83c.9-.54,1.67-6.9.76-7.43L1536.2,1000a2.34,2.34,0,0,0-2.37,0l-25.46,10C1507.4,1010.59,1507.45,1017.17,1508.43,1017.73Z"/><path class="cls-76" d="M1508.43,1011.43l35.72,20.76a3.61,3.61,0,0,0,3.66,0l24.92-14.83a1.38,1.38,0,0,0,0-2.38l-36.52-21.22a2.36,2.36,0,0,0-2.37,0l-25.41,15.13A1.48,1.48,0,0,0,1508.43,1011.43Z"/><path class="cls-77" d="M1565.39,1050.9l35.72,20.76a3.63,3.63,0,0,0,3.66,0l24.92-14.83c.9-.54,1.67-6.91.76-7.43l-37.3-16.17a2.32,2.32,0,0,0-2.36,0l-25.46,10C1564.36,1043.76,1564.41,1050.33,1565.39,1050.9Z"/><path class="cls-78" d="M1565.39,1044.6l35.72,20.75a3.63,3.63,0,0,0,3.66,0l24.92-14.84a1.37,1.37,0,0,0,0-2.37l-36.53-21.22a2.32,2.32,0,0,0-2.36,0L1565.38,1042A1.49,1.49,0,0,0,1565.39,1044.6Z"/><path class="cls-79" d="M1622.35,1084.06l35.72,20.76a3.61,3.61,0,0,0,3.66,0l24.92-14.83c.9-.54,1.67-6.9.76-7.43l-37.3-16.16a2.32,2.32,0,0,0-2.36,0l-25.46,10C1621.32,1076.92,1621.37,1083.5,1622.35,1084.06Z"/><path class="cls-80" d="M1622.35,1077.76l35.72,20.76a3.61,3.61,0,0,0,3.66,0l24.92-14.83a1.37,1.37,0,0,0,0-2.37l-36.53-21.23a2.32,2.32,0,0,0-2.36,0l-25.41,15.12A1.48,1.48,0,0,0,1622.35,1077.76Z"/><path class="cls-81" d="M1679.31,1117.23,1715,1138a3.61,3.61,0,0,0,3.66,0l24.92-14.83c.9-.54,1.67-6.9.76-7.43l-37.3-16.17a2.34,2.34,0,0,0-2.36,0l-25.46,10C1678.28,1110.09,1678.33,1116.66,1679.31,1117.23Z"/><path class="cls-82" d="M1679.31,1110.93l35.72,20.76a3.63,3.63,0,0,0,3.66,0l24.92-14.83a1.38,1.38,0,0,0,0-2.38l-36.53-21.22a2.32,2.32,0,0,0-2.36,0l-25.41,15.12A1.49,1.49,0,0,0,1679.31,1110.93Z"/><path class="cls-83" d="M1736.27,1150.4l35.72,20.75a3.61,3.61,0,0,0,3.65,0l24.93-14.84c.9-.53,1.67-6.9.76-7.43l-37.3-16.16a2.32,2.32,0,0,0-2.36,0l-25.46,10C1735.24,1143.25,1735.29,1149.83,1736.27,1150.4Z"/><path class="cls-84" d="M1736.27,1144.09l35.72,20.76a3.59,3.59,0,0,0,3.65,0l24.93-14.83a1.37,1.37,0,0,0,0-2.37L1764,1126.4a2.32,2.32,0,0,0-2.36,0l-25.41,15.12A1.47,1.47,0,0,0,1736.27,1144.09Z"/><path class="cls-85" d="M1793.23,1183.56l35.72,20.76a3.59,3.59,0,0,0,3.65,0l24.93-14.83c.9-.54,1.67-6.9.76-7.43l-37.3-16.17a2.34,2.34,0,0,0-2.36,0l-25.46,10C1792.2,1176.42,1792.25,1183,1793.23,1183.56Z"/><path class="cls-86" d="M1793.23,1177.26,1829,1198a3.61,3.61,0,0,0,3.65,0l24.93-14.83a1.38,1.38,0,0,0,0-2.38L1821,1159.57a2.32,2.32,0,0,0-2.36,0l-25.41,15.13A1.47,1.47,0,0,0,1793.23,1177.26Z"/><path class="cls-87" d="M1850.19,1216.73l35.72,20.76a3.64,3.64,0,0,0,3.65,0l24.93-14.84c.9-.53,1.67-6.9.76-7.43L1878,1199a2.32,2.32,0,0,0-2.36,0l-25.46,10C1849.16,1209.59,1849.21,1216.16,1850.19,1216.73Z"/><path class="cls-88" d="M1850.19,1210.42l35.72,20.76a3.59,3.59,0,0,0,3.65,0l24.93-14.83a1.37,1.37,0,0,0,0-2.37L1878,1192.74a2.32,2.32,0,0,0-2.36,0l-25.41,15.12A1.47,1.47,0,0,0,1850.19,1210.42Z"/><path class="cls-89" d="M1907.15,1249.89l35.72,20.76a3.59,3.59,0,0,0,3.65,0l24.93-14.83c.9-.54,1.67-6.9.76-7.43l-37.3-16.17a2.32,2.32,0,0,0-2.36,0l-25.46,10C1906.12,1242.75,1906.17,1249.33,1907.15,1249.89Z"/><path class="cls-90" d="M1907.15,1243.59l35.72,20.76a3.59,3.59,0,0,0,3.65,0l24.93-14.83a1.38,1.38,0,0,0,0-2.38l-36.53-21.22a2.34,2.34,0,0,0-2.36,0L1907.13,1241A1.48,1.48,0,0,0,1907.15,1243.59Z"/><path class="cls-91" d="M1411.49,1007.77l35.72,20.76a3.59,3.59,0,0,0,3.65,0l24.93-14.83c.9-.54,1.67-6.9.76-7.43l-37.3-16.16a2.3,2.3,0,0,0-2.36,0l-25.46,9.95C1410.46,1000.63,1410.51,1007.21,1411.49,1007.77Z"/><path class="cls-92" d="M1411.49,1001.47l35.72,20.76a3.59,3.59,0,0,0,3.65,0l24.93-14.83a1.39,1.39,0,0,0,0-2.38l-36.53-21.22a2.34,2.34,0,0,0-2.36,0l-25.42,15.13A1.48,1.48,0,0,0,1411.49,1001.47Z"/><path class="cls-93" d="M1468.45,1040.94l35.72,20.76a3.59,3.59,0,0,0,3.65,0l24.93-14.83c.9-.54,1.67-6.9.76-7.43l-37.3-16.17a2.34,2.34,0,0,0-2.36,0l-25.46,10C1467.42,1033.8,1467.47,1040.37,1468.45,1040.94Z"/><path class="cls-94" d="M1468.45,1034.64l35.72,20.76a3.61,3.61,0,0,0,3.65,0l24.93-14.84a1.38,1.38,0,0,0,0-2.37L1496.21,1017a2.32,2.32,0,0,0-2.36,0l-25.42,15.12A1.49,1.49,0,0,0,1468.45,1034.64Z"/><path class="cls-95" d="M1525.41,1074.11l35.72,20.75a3.59,3.59,0,0,0,3.65,0l24.93-14.83c.9-.53,1.67-6.9.76-7.43l-37.3-16.16a2.32,2.32,0,0,0-2.36,0l-25.46,10C1524.38,1067,1524.43,1073.54,1525.41,1074.11Z"/><path class="cls-96" d="M1525.41,1067.8l35.72,20.76a3.59,3.59,0,0,0,3.65,0l24.93-14.83a1.38,1.38,0,0,0,0-2.37l-36.53-21.23a2.32,2.32,0,0,0-2.36,0l-25.42,15.12A1.48,1.48,0,0,0,1525.41,1067.8Z"/><path class="cls-97" d="M1582.37,1107.27l35.72,20.76a3.59,3.59,0,0,0,3.65,0l24.93-14.83c.9-.54,1.67-6.9.76-7.43l-37.3-16.17a2.34,2.34,0,0,0-2.36,0l-25.46,10C1581.34,1100.13,1581.39,1106.7,1582.37,1107.27Z"/><path class="cls-98" d="M1582.37,1101l35.72,20.76a3.61,3.61,0,0,0,3.65,0l24.93-14.83a1.39,1.39,0,0,0,0-2.38l-36.53-21.22a2.32,2.32,0,0,0-2.36,0l-25.42,15.13A1.48,1.48,0,0,0,1582.37,1101Z"/><path class="cls-99" d="M1639.33,1140.44l35.72,20.76a3.64,3.64,0,0,0,3.65,0l24.93-14.84c.9-.53,1.67-6.9.76-7.43l-37.3-16.16a2.32,2.32,0,0,0-2.36,0l-25.46,10C1638.3,1133.29,1638.35,1139.87,1639.33,1140.44Z"/><path class="cls-100" d="M1639.33,1134.13l35.72,20.76a3.59,3.59,0,0,0,3.65,0l24.93-14.83a1.38,1.38,0,0,0,0-2.37l-36.53-21.22a2.3,2.3,0,0,0-2.36,0l-25.42,15.12A1.48,1.48,0,0,0,1639.33,1134.13Z"/><path class="cls-101" d="M1696.29,1173.6l35.72,20.76a3.59,3.59,0,0,0,3.65,0l24.93-14.83c.9-.54,1.67-6.9.76-7.43l-37.3-16.17a2.32,2.32,0,0,0-2.36,0l-25.46,10C1695.26,1166.46,1695.31,1173,1696.29,1173.6Z"/><path class="cls-102" d="M1696.29,1167.3l35.72,20.76a3.59,3.59,0,0,0,3.65,0l24.93-14.83a1.39,1.39,0,0,0,0-2.38l-36.53-21.22a2.34,2.34,0,0,0-2.36,0l-25.42,15.13A1.48,1.48,0,0,0,1696.29,1167.3Z"/><path class="cls-103" d="M1753.25,1206.77l35.72,20.76a3.61,3.61,0,0,0,3.65,0l24.93-14.83c.9-.54,1.67-6.91.76-7.43l-37.3-16.17a2.32,2.32,0,0,0-2.36,0l-25.46,10C1752.22,1199.63,1752.27,1206.2,1753.25,1206.77Z"/><path class="cls-104" d="M1753.25,1200.47l35.72,20.75a3.59,3.59,0,0,0,3.65,0l24.93-14.83a1.38,1.38,0,0,0,0-2.37L1781,1182.78a2.32,2.32,0,0,0-2.36,0l-25.42,15.12A1.49,1.49,0,0,0,1753.25,1200.47Z"/><path class="cls-105" d="M1810.21,1239.93l35.72,20.76a3.59,3.59,0,0,0,3.65,0l24.93-14.83c.9-.54,1.67-6.9.76-7.43l-37.3-16.17a2.32,2.32,0,0,0-2.36,0l-25.46,10C1809.17,1232.79,1809.23,1239.37,1810.21,1239.93Z"/><path class="cls-106" d="M1810.21,1233.63l35.72,20.76a3.59,3.59,0,0,0,3.65,0l24.93-14.83a1.38,1.38,0,0,0,0-2.38L1838,1215.94a2.34,2.34,0,0,0-2.36,0l-25.42,15.13A1.48,1.48,0,0,0,1810.21,1233.63Z"/><path class="cls-107" d="M1867.17,1273.1l35.72,20.76a3.61,3.61,0,0,0,3.65,0l24.93-14.83c.9-.54,1.67-6.91.76-7.43l-37.3-16.17a2.34,2.34,0,0,0-2.36,0l-25.46,10C1866.13,1266,1866.19,1272.53,1867.17,1273.1Z"/><path class="cls-108" d="M1867.17,1266.8l35.72,20.76a3.64,3.64,0,0,0,3.65,0l24.93-14.84a1.37,1.37,0,0,0,0-2.37l-36.52-21.22a2.32,2.32,0,0,0-2.36,0l-25.42,15.12A1.49,1.49,0,0,0,1867.17,1266.8Z"/><path class="cls-109" d="M1371.5,1031l35.73,20.76a3.59,3.59,0,0,0,3.65,0l24.93-14.83c.9-.54,1.66-6.9.76-7.43l-37.3-16.17a2.34,2.34,0,0,0-2.36,0l-25.47,10C1370.47,1023.84,1370.53,1030.41,1371.5,1031Z"/><path class="cls-110" d="M1371.5,1024.68l35.73,20.76a3.61,3.61,0,0,0,3.65,0l24.93-14.83a1.38,1.38,0,0,0,0-2.38L1399.27,1007a2.32,2.32,0,0,0-2.36,0l-25.42,15.13A1.48,1.48,0,0,0,1371.5,1024.68Z"/><path class="cls-111" d="M1428.46,1064.15l35.73,20.75a3.61,3.61,0,0,0,3.65,0l24.93-14.84c.9-.53,1.66-6.9.76-7.43l-37.3-16.16a2.32,2.32,0,0,0-2.36,0l-25.47,10C1427.43,1057,1427.49,1063.58,1428.46,1064.15Z"/><path class="cls-112" d="M1428.46,1057.84l35.73,20.76a3.59,3.59,0,0,0,3.65,0l24.93-14.83a1.37,1.37,0,0,0,0-2.37l-36.52-21.23a2.32,2.32,0,0,0-2.36,0l-25.42,15.12A1.48,1.48,0,0,0,1428.46,1057.84Z"/><path class="cls-113" d="M1485.42,1097.31,1634.57,1184a3.59,3.59,0,0,0,3.65,0l24.93-14.83c.9-.54,1.67-6.9.76-7.43l-150.72-82.12a2.32,2.32,0,0,0-2.36,0l-25.47,9.95C1484.39,1090.17,1484.45,1096.74,1485.42,1097.31Z"/><path class="cls-114" d="M1485.42,1091l149.15,86.71a3.59,3.59,0,0,0,3.65,0l24.93-14.83a1.38,1.38,0,0,0,0-2.38l-150-87.17a2.34,2.34,0,0,0-2.36,0l-25.42,15.13A1.48,1.48,0,0,0,1485.42,1091Z"/><path class="cls-115" d="M1656.3,1196.81l35.73,20.76a3.61,3.61,0,0,0,3.65,0l24.92-14.83c.91-.54,1.67-6.91.77-7.43l-37.3-16.17a2.34,2.34,0,0,0-2.36,0l-25.47,10C1655.27,1189.67,1655.33,1196.24,1656.3,1196.81Z"/><path class="cls-116" d="M1656.3,1190.51l35.73,20.75a3.61,3.61,0,0,0,3.65,0l24.92-14.84a1.37,1.37,0,0,0,0-2.37l-36.52-21.22a2.32,2.32,0,0,0-2.36,0L1656.29,1188A1.49,1.49,0,0,0,1656.3,1190.51Z"/><path class="cls-117" d="M1713.26,1230l35.73,20.76a3.59,3.59,0,0,0,3.65,0l24.92-14.83c.91-.53,1.67-6.9.76-7.43L1741,1212.29a2.32,2.32,0,0,0-2.36,0l-25.47,10C1712.23,1222.83,1712.29,1229.41,1713.26,1230Z"/><path class="cls-118" d="M1713.26,1223.67l35.73,20.76a3.59,3.59,0,0,0,3.65,0l24.92-14.83a1.37,1.37,0,0,0,0-2.37L1741,1206a2.32,2.32,0,0,0-2.36,0l-25.42,15.12A1.48,1.48,0,0,0,1713.26,1223.67Z"/><path class="cls-119" d="M1770.22,1263.14,1806,1283.9a3.59,3.59,0,0,0,3.65,0l24.92-14.83c.91-.54,1.67-6.9.76-7.43L1798,1245.45a2.34,2.34,0,0,0-2.36,0l-25.47,10C1769.19,1256,1769.25,1262.57,1770.22,1263.14Z"/><path class="cls-120" d="M1770.22,1256.84,1806,1277.6a3.61,3.61,0,0,0,3.65,0l24.92-14.83a1.38,1.38,0,0,0,0-2.38L1798,1239.15a2.32,2.32,0,0,0-2.36,0l-25.42,15.13A1.48,1.48,0,0,0,1770.22,1256.84Z"/><path class="cls-121" d="M1827.18,1296.31l35.73,20.75a3.61,3.61,0,0,0,3.65,0l24.92-14.84c.91-.53,1.67-6.9.76-7.43L1855,1278.62a2.32,2.32,0,0,0-2.36,0l-25.47,10C1826.15,1289.16,1826.21,1295.74,1827.18,1296.31Z"/><path class="cls-122" d="M1827.18,1290l35.73,20.76a3.59,3.59,0,0,0,3.65,0l24.92-14.83a1.37,1.37,0,0,0,0-2.37L1855,1272.31a2.32,2.32,0,0,0-2.36,0l-25.42,15.12A1.48,1.48,0,0,0,1827.18,1290Z"/><path class="cls-123" d="M1754.49,1050.66,1447.05,875.49c-32.61-18.58-59-60.07-59-92.68V241.68c0-32.61,26.43-44,59-25.41l307.44,175.18c32.6,18.58,59,60.07,59,92.68v541.13C1813.53,1057.87,1787.09,1069.24,1754.49,1050.66Z"/><path class="cls-124" d="M1744.66,1057.21,1437.22,882c-32.6-18.58-59-60.07-59-92.68V248.22c0-32.6,26.44-44,59-25.4L1744.66,398c32.61,18.58,59,60.07,59,92.68v541.13C1803.7,1064.42,1777.27,1075.79,1744.66,1057.21Z"/><path class="cls-125" d="M1705.81,579.05c0,41.59-22.09,65.43-55.2,66.73-17.39.69-37.82-4.85-59.66-17.29s-42.29-30.2-59.68-50.7c-33.11-39-55.21-88.06-55.21-129.65,0-63.44,51.43-85.57,114.89-49.41S1705.81,515.61,1705.81,579.05Z"/><path class="cls-126" d="M1642.39,552.64v76.79c-15,.6-32.61-4.18-51.44-14.91s-36.47-26-51.46-43.72V494c0-13.2,10.79-17.84,24-10.32l12.13,6.91c-9.83-11-16.49-25.27-16.49-37.29,0-17.57,14.23-23.72,31.83-13.69s31.83,32.39,31.83,50c0,12-6.68,18.67-16.52,18.48L1618.4,515C1631.59,522.5,1642.39,539.44,1642.39,552.64Z"/><path class="cls-126" d="M1706.06,772.51,1475.83,641.33c-5.76-3.28-10.47-10.68-10.47-16.43h0c0-5.76,4.71-7.78,10.47-4.5l230.23,131.18c5.75,3.28,10.46,10.67,10.46,16.43h0C1716.52,773.76,1711.81,775.79,1706.06,772.51Z"/><path class="cls-126" d="M1706.06,834.05,1475.83,702.87c-5.76-3.28-10.47-10.67-10.47-16.43h0c0-5.75,4.71-7.78,10.47-4.5l230.23,131.18c5.75,3.28,10.46,10.67,10.46,16.43h0C1716.52,835.3,1711.81,837.33,1706.06,834.05Z"/><path class="cls-126" d="M1706.06,895.6,1475.83,764.41c-5.76-3.28-10.47-10.67-10.47-16.42h0c0-5.76,4.71-7.79,10.47-4.51l230.23,131.19c5.75,3.27,10.46,10.67,10.46,16.42h0C1716.52,896.85,1711.81,898.87,1706.06,895.6Z"/><path class="cls-126" d="M1706.06,957.14,1475.83,826c-5.76-3.28-10.47-10.67-10.47-16.43h0c0-5.76,4.71-7.78,10.47-4.5l230.23,131.18c5.75,3.28,10.46,10.67,10.46,16.43h0C1716.52,958.39,1711.81,960.42,1706.06,957.14Z"/><path class="cls-127" d="M621.54,1102,327.45,926.84c-10.54-6.27-13.4-37.39-2.75-43.48L697.13,687.94a44.44,44.44,0,0,1,44.79.4l289.23,155.21c12.87,7.67,8.28,40.8-4.73,48.24L658.14,1102.36A36.3,36.3,0,0,1,621.54,1102Z"/><path class="cls-128" d="M621.54,1100.47,327.45,925.28c-10.54-6.27-13.4-37.4-2.75-43.48L697.13,686.38a44.44,44.44,0,0,1,44.79.4L1031.15,842c12.87,7.66,8.28,40.8-4.73,48.23L658.14,1100.8A36.33,36.33,0,0,1,621.54,1100.47Z"/><path class="cls-129" d="M621.54,1082.42,327.45,907.23a16,16,0,0,1,.25-27.67L697.13,668.33a44.44,44.44,0,0,1,44.79.4l284.81,169.66a19.55,19.55,0,0,1-.31,33.78L658.14,1082.74A36.3,36.3,0,0,1,621.54,1082.42Z"/><path class="cls-130" d="M640.12,1072.46a21.22,21.22,0,0,1-10.87-3L335.16,894.29a.81.81,0,0,1-.46-.83.83.83,0,0,1,.48-.82L704.61,681.41a29.34,29.34,0,0,1,29.59.27L1019,851.33a4.5,4.5,0,0,1-.07,7.76L650.66,1069.66A21.2,21.2,0,0,1,640.12,1072.46Z"/><path class="cls-131" d="M887,889.69l-142.5-84.17c-2.18-1.29-2.05-3.52.29-5h0a8.7,8.7,0,0,1,8.19-.29l142.5,84.17c2.18,1.29,2,3.52-.28,5h0A8.72,8.72,0,0,1,887,889.69Z"/><path class="cls-131" d="M882.87,831.35l-142.5-84.17c-2.17-1.29-2-3.52.29-5h0a8.7,8.7,0,0,1,8.19-.29l142.5,84.17c2.18,1.29,2,3.52-.28,5h0A8.72,8.72,0,0,1,882.87,831.35Z"/><path class="cls-131" d="M865.59,902.93,706.67,809.05c-2.18-1.28-2-3.52.28-5h0a8.78,8.78,0,0,1,8.2-.29l158.92,93.88c2.18,1.28,2,3.52-.28,5h0A8.78,8.78,0,0,1,865.59,902.93Z"/><path class="cls-131" d="M813.14,897.82,685.28,822.29c-2.18-1.29-2-3.52.28-5h0a8.72,8.72,0,0,1,8.2-.29l127.86,75.53c2.18,1.28,2,3.52-.28,5h0A8.78,8.78,0,0,1,813.14,897.82Z"/><path class="cls-132" d="M641.31,803.48l-33.1-19.55c-7.49-4.43-7.06-12,1-17l25.56-15.82c8-5,20.62-5.41,28.11-1L696,769.66c7.49,4.43,7,12-1,17L669.41,802.5C661.38,807.47,648.8,807.91,641.31,803.48Z"/><polygon class="cls-16" points="641.49 760.76 634.9 784.52 677.76 786.64 680.35 779.01 648.26 777.41 652.63 761.27 641.49 760.76"/><path class="cls-131" d="M805.83,939.92l-142.5-84.18c-2.18-1.28-2.05-3.51.28-5h0a8.78,8.78,0,0,1,8.2-.29l142.5,84.18c2.18,1.28,2.05,3.51-.28,5h0A8.78,8.78,0,0,1,805.83,939.92Z"/><path class="cls-131" d="M784.44,953.15,625.51,859.28c-2.17-1.29-2-3.52.29-5h0A8.72,8.72,0,0,1,634,854L792.92,947.9c2.18,1.29,2.05,3.52-.28,5h0A8.75,8.75,0,0,1,784.44,953.15Z"/><path class="cls-131" d="M732,948,604.13,872.52c-2.18-1.29-2-3.52.28-5h0a8.75,8.75,0,0,1,8.2-.28l127.86,75.52c2.18,1.29,2,3.52-.28,5h0A8.75,8.75,0,0,1,732,948Z"/><path class="cls-132" d="M560.16,853.71l-33.11-19.56c-7.49-4.42-7-12,1-17l25.56-15.82c8-5,20.61-5.41,28.1-1l33.11,19.55c7.49,4.43,7.05,12-1,17l-25.56,15.82C580.23,857.69,567.65,858.13,560.16,853.71Z"/><polygon class="cls-16" points="560.34 810.99 553.75 834.74 596.61 836.87 599.2 829.24 567.11 827.63 571.47 811.49 560.34 810.99"/><path class="cls-131" d="M724.68,990.14,582.18,906c-2.18-1.29-2-3.52.28-5h0a8.72,8.72,0,0,1,8.2-.29l142.5,84.17c2.17,1.29,2.05,3.52-.29,5h0A8.7,8.7,0,0,1,724.68,990.14Z"/><path class="cls-131" d="M703.29,1003.38,544.36,909.5c-2.17-1.28-2.05-3.51.29-5h0a8.76,8.76,0,0,1,8.19-.29l158.93,93.88c2.18,1.29,2.05,3.52-.29,5h0A8.7,8.7,0,0,1,703.29,1003.38Z"/><path class="cls-131" d="M650.84,998.27,523,922.74c-2.17-1.28-2-3.52.29-5h0a8.78,8.78,0,0,1,8.2-.29L659.32,993c2.18,1.29,2,3.52-.28,5h0A8.72,8.72,0,0,1,650.84,998.27Z"/><path class="cls-132" d="M479,903.93,445.9,884.38c-7.49-4.42-7-12,1-17l25.56-15.82c8-5,20.61-5.41,28.1-1l33.11,19.56c7.49,4.42,7.05,12-1,17L507.11,903C499.08,907.92,486.5,908.36,479,903.93Z"/><polygon class="cls-16" points="479.18 861.22 472.6 884.97 515.46 887.09 518.04 879.46 485.95 877.86 490.32 861.72 479.18 861.22"/><g class="cls-11"><polygon class="cls-12" points="366.69 772.88 188.82 666.92 188.82 480.82 366.69 586.77 366.69 772.88"/><polygon class="cls-13" points="366.69 586.77 188.82 480.82 370.73 376.8 548.61 482.76 366.69 586.77"/><polygon class="cls-14" points="548.61 482.76 548.61 668.86 366.69 772.88 366.69 586.77 548.61 482.76"/></g><g class="cls-15"><polygon class="cls-16" points="296.2 545.75 259.31 523.78 441.23 419.77 478.11 441.74 296.2 545.75"/></g><polygon class="cls-17" points="259.31 578.07 296.2 600.04 296.2 545.75 259.31 523.78 259.31 578.07"/><polygon class="cls-17" points="539.85 556.09 502.96 578.07 502.96 523.78 539.85 501.81 539.85 556.09"/><path class="cls-16" d="M533.73,523.45l-24.65,14.48c-.88.51-1.59.22-1.59-.66h0a3.33,3.33,0,0,1,1.59-2.52l24.65-14.48c.87-.52,1.59-.22,1.59.65h0A3.38,3.38,0,0,1,533.73,523.45Z"/><path class="cls-16" d="M533.73,534.29l-24.65,14.48c-.88.51-1.59.22-1.59-.66h0a3.33,3.33,0,0,1,1.59-2.52l24.65-14.48c.87-.52,1.59-.22,1.59.65h0A3.38,3.38,0,0,1,533.73,534.29Z"/><path class="cls-16" d="M533.73,545.13l-24.65,14.48c-.88.51-1.59.22-1.59-.66h0a3.33,3.33,0,0,1,1.59-2.52l24.65-14.49c.87-.51,1.59-.21,1.59.66h0A3.38,3.38,0,0,1,533.73,545.13Z"/><g class="cls-11"><polygon class="cls-133" points="112.07 1275.73 0 1208.97 0 1091.72 112.07 1158.49 112.07 1275.73"/><polygon class="cls-134" points="112.07 1158.49 0 1091.72 114.62 1026.2 226.69 1092.96 112.07 1158.49"/><polygon class="cls-135" points="226.69 1092.96 226.69 1210.21 112.07 1275.73 112.07 1158.49 226.69 1092.96"/></g><g class="cls-11"><polygon class="cls-136" points="273.39 1367.12 161.31 1300.36 161.31 1125.1 273.38 1191.86 273.39 1367.12"/><polygon class="cls-137" points="273.38 1191.86 161.31 1125.1 275.93 1059.57 388 1126.33 273.38 1191.86"/><polygon class="cls-138" points="388 1126.33 388 1301.59 273.39 1367.12 273.38 1191.86 388 1126.33"/></g><g class="cls-11"><polygon class="cls-139" points="434.7 1458.5 322.63 1391.74 322.63 1099.74 434.7 1166.5 434.7 1458.5"/><polygon class="cls-140" points="434.7 1166.5 322.63 1099.74 437.25 1034.21 549.32 1100.97 434.7 1166.5"/><polygon class="cls-141" points="549.32 1100.97 549.32 1392.98 434.7 1458.5 434.7 1166.5 549.32 1100.97"/></g><g class="cls-11"><polygon class="cls-142" points="596.02 1549.88 483.95 1483.12 483.94 1266.55 596.01 1333.31 596.02 1549.88"/><polygon class="cls-143" points="596.01 1333.31 483.94 1266.55 598.56 1201.02 710.63 1267.79 596.01 1333.31"/><polygon class="cls-144" points="710.63 1267.79 710.63 1484.36 596.02 1549.88 596.01 1333.31 710.63 1267.79"/></g><path class="cls-145" d="M2139.82,1524.3c.07-.73.18-1.45.28-2.17s.23-1.65.39-2.48.29-1.46.45-2.19.37-1.61.59-2.41.42-1.46.64-2.19.51-1.59.79-2.39.53-1.43.81-2.14.68-1.67,1.06-2.5.63-1.4,1-2.09.84-1.66,1.28-2.49c.36-.67.73-1.33,1.12-2,.57-1,1.18-2,1.81-2.93.38-.59.75-1.18,1.16-1.77.73-1.08,1.53-2.14,2.33-3.2.35-.47.68-.93,1-1.39,1.34-1.69,2.78-3.36,4.29-5,.39-.42.81-.84,1.22-1.26q1.78-1.89,3.75-3.73c.59-.56,1.18-1.12,1.8-1.68.78-.7,1.58-1.39,2.39-2.08s1.5-1.27,2.27-1.9,1.72-1.36,2.6-2,1.62-1.23,2.45-1.84,1.86-1.32,2.81-2,1.73-1.2,2.63-1.78,2-1.28,3-1.91c1.26-.78,2.51-1.57,3.83-2.34,2.47-1.44,5-2.8,7.61-4.12.74-.39,1.5-.76,2.26-1.13,2-1,4.05-2,6.12-2.88l2.11-1c2.7-1.17,5.44-2.3,8.24-3.36l1.5-.55c2.37-.88,4.76-1.71,7.18-2.52,1-.32,2-.65,3-1,1.33-.42,2.68-.83,4-1.23,1.14-.34,2.28-.67,3.43-1,1.36-.38,2.73-.75,4.11-1.1,1.16-.3,2.32-.6,3.49-.88,1.39-.34,2.8-.66,4.2-1,1.17-.26,2.34-.53,3.51-.77,1.44-.3,2.89-.58,4.33-.85,1.11-.21,2.22-.43,3.33-.62,3.1-.55,6.21-1.06,9.35-1.5l1.36-.17c2.73-.37,5.46-.69,8.21-1l3.18-.31c1.76-.16,3.53-.31,5.3-.44l3.36-.23c1.85-.12,3.71-.21,5.56-.28,1.05-.05,2.09-.1,3.14-.13,1.61,0,3.22-.07,4.83-.1,1.13,0,2.26,0,3.38,0,1.73,0,3.47,0,5.2,0,1,0,2,0,3,0,1.59,0,3.18.12,4.76.19,1.1,0,2.19.07,3.29.13,1.7.1,3.4.23,5.1.35,1,.07,1.94.12,2.91.2,2,.17,4,.37,6,.58.67.07,1.33.12,2,.2,2.64.29,5.28.63,7.9,1l1.1.17q3.47.49,6.9,1.09c.92.15,1.83.34,2.76.51,1.71.32,3.43.63,5.13,1,.89.18,1.76.38,2.64.57,1.86.41,3.73.82,5.58,1.27,1,.24,2,.5,3.05.76q2.53.65,5,1.33l2.82.81c2.63.77,5.25,1.58,7.82,2.43l1.38.44q4.44,1.51,8.74,3.2l1.81.73c3.74,1.5,7.41,3.08,11,4.77.36.17.71.36,1.06.53,3.73,1.81,7.37,3.7,10.87,5.72,32.62,18.83,48.91,43.55,48.84,68.22l.17-59.17c.06-24.67-16.23-49.39-48.84-68.22-3.51-2-7.15-3.92-10.87-5.72l-1.06-.53c-3.57-1.69-7.23-3.27-11-4.77-.33-.13-.64-.29-1-.42s-.56-.2-.84-.31q-4.3-1.68-8.74-3.2l-1.38-.44c-2.58-.86-5.19-1.66-7.82-2.43-.44-.13-.86-.28-1.3-.4s-1-.27-1.53-.41q-2.49-.69-5-1.32c-1-.26-2-.53-3.08-.78-1.85-.44-3.71-.85-5.57-1.26-.7-.15-1.38-.32-2.08-.46l-.56-.11c-1.69-.35-3.39-.66-5.1-1l-2.81-.53c-2.22-.38-4.47-.73-6.72-1.06l-1.2-.19h0c-2.65-.38-5.28-.71-7.92-1-.68-.08-1.36-.13-2-.2-2-.21-4-.41-5.93-.58H2328c-1-.08-1.93-.13-2.9-.2-1.65-.12-3.3-.25-5-.34-1.12-.06-2.25-.09-3.38-.14-1.55-.06-3.11-.14-4.66-.18h-.4c-.89,0-1.79,0-2.69,0-1.71,0-3.42-.06-5.13,0-1.14,0-2.28,0-3.41,0-1.61,0-3.21,0-4.81.1h-.9c-.75,0-1.49.09-2.24.12-1.86.07-3.71.16-5.56.28l-3.36.23c-1.77.13-3.54.28-5.31.44-.62.06-1.25.09-1.87.16l-1.29.15c-2.75.29-5.5.61-8.23,1l-1.35.17c-3.14.44-6.25.95-9.35,1.49-.29.06-.58.09-.87.14-.84.15-1.66.34-2.48.49-1.44.28-2.88.55-4.3.85-1.18.24-2.35.51-3.52.77-1.41.31-2.82.63-4.21,1-1.17.28-2.32.58-3.48.88-1.38.35-2.75.72-4.11,1.09-1.16.33-2.3.65-3.44,1q-2,.6-4,1.23c-.59.18-1.18.34-1.76.53-.42.14-.82.3-1.24.43q-3.63,1.2-7.17,2.52c-.5.19-1,.36-1.5.55-2.8,1.06-5.55,2.19-8.25,3.36l-2.09.94c-2.08.93-4.12,1.9-6.14,2.89-.75.37-1.51.74-2.25,1.12-2.59,1.33-5.14,2.69-7.61,4.13l-2,1.2c-.63.37-1.2.76-1.81,1.14-1,.63-2,1.26-3,1.91s-1.77,1.18-2.64,1.78-1.88,1.31-2.79,2-1.66,1.23-2.47,1.85-1.74,1.34-2.58,2-1.54,1.26-2.28,1.9-1.62,1.38-2.39,2.08c-.32.29-.67.57-1,.86s-.54.55-.83.82q-2,1.85-3.75,3.73c-.4.42-.82.84-1.21,1.26-1.51,1.65-2.95,3.32-4.29,5-.06.07-.13.14-.18.21-.31.39-.57.79-.87,1.18-.8,1.06-1.59,2.12-2.33,3.19-.4.6-.77,1.19-1.15,1.78-.63,1-1.24,1.95-1.81,2.93-.16.27-.35.53-.5.8s-.4.81-.62,1.21c-.45.82-.88,1.65-1.28,2.48s-.66,1.39-1,2.09-.72,1.66-1,2.5c-.15.38-.33.75-.48,1.13s-.21.67-.33,1c-.28.8-.55,1.6-.79,2.4s-.45,1.45-.64,2.18-.41,1.61-.59,2.41c-.1.44-.23.87-.32,1.31s-.08.58-.14.88c-.15.82-.27,1.65-.39,2.48s-.2,1.44-.27,2.17-.13,1.66-.18,2.5c0,.48-.09,1-.1,1.46s0,1,0,1.45l-.17,59.17c0-1,.07-1.94.12-2.91S2139.74,1525.13,2139.82,1524.3Z"/><path class="cls-146" d="M2524.85,1475.49c-.06,1.11-.13,2.22-.24,3.33s-.23,1.92-.37,2.88-.31,2.2-.51,3.3-.39,1.93-.61,2.9-.49,2.14-.78,3.21-.55,1.94-.85,2.91-.68,2.12-1.06,3.18-.69,1.9-1.07,2.84c-.44,1.11-.91,2.22-1.4,3.33-.42.93-.85,1.86-1.3,2.78-.54,1.11-1.11,2.21-1.7,3.3-.48.89-1,1.78-1.49,2.66-.76,1.31-1.57,2.61-2.41,3.9-.51.79-1,1.58-1.53,2.36-1,1.43-2,2.84-3.1,4.25-.51.66-1,1.34-1.5,2l-.75.91q-1.72,2.12-3.58,4.2l-1,1.15c-1.47,1.6-3,3.2-4.59,4.77-.29.29-.6.57-.89.85-1.22,1.18-2.48,2.34-3.77,3.5-1,.93-2.09,1.85-3.17,2.77s-2,1.69-3,2.53-2.28,1.8-3.45,2.69-2.15,1.64-3.27,2.45-2.46,1.75-3.72,2.62-2.31,1.59-3.51,2.37-2.64,1.69-4,2.53c-1.68,1-3.34,2.1-5.1,3.11-3.28,1.92-6.67,3.73-10.11,5.49-1,.51-2,1-3,1.49q-4,2-8.15,3.84c-.93.42-1.85.85-2.79,1.26q-5.39,2.34-11,4.47c-.66.25-1.33.48-2,.72q-4.7,1.76-9.53,3.35c-1.32.43-2.65.87-4,1.29q-2.67.84-5.36,1.63c-1.51.44-3,.88-4.55,1.3-1.82.51-3.64,1-5.48,1.46q-2.29.6-4.62,1.17c-1.86.45-3.73.87-5.6,1.29-1.55.35-3.11.7-4.67,1-1.9.4-3.82.77-5.75,1.13-1.47.28-2.94.57-4.43.83q-6.18,1.1-12.44,2l-1.75.22q-5.46.74-11,1.31c-1.39.15-2.79.28-4.18.41-2.36.22-4.72.41-7.08.59l-4.46.31q-3.69.22-7.39.37c-1.39.06-2.78.13-4.17.17-2.15.07-4.29.1-6.44.13l-4.48.06c-2.29,0-4.58,0-6.88-.07-1.35,0-2.71,0-4.06-.06-2.09,0-4.18-.15-6.27-.24-1.47-.07-3-.11-4.42-.19-2.26-.12-4.5-.29-6.75-.45-1.3-.1-2.61-.17-3.91-.28-2.68-.22-5.36-.49-8-.77l-2.55-.25c-3.52-.4-7-.84-10.51-1.34-.55-.07-1.1-.17-1.65-.25-3-.44-6-.9-9-1.42-1.23-.21-2.46-.46-3.69-.69-2.27-.42-4.55-.83-6.8-1.29l-3.54-.77c-2.47-.54-4.94-1.09-7.38-1.67-1.37-.33-2.72-.68-4.08-1-2.24-.57-4.46-1.15-6.67-1.76l-3.75-1.07c-3.51-1-7-2.1-10.4-3.24-.61-.2-1.23-.38-1.83-.59-3.94-1.33-7.81-2.76-11.63-4.25-1.55-.6-3.09-1.23-4.62-1.86-1.22-.5-2.45-1-3.66-1.51-1.72-.75-3.42-1.52-5.12-2.29-1.1-.51-2.22-1-3.32-1.52-1.85-.88-3.67-1.8-5.48-2.72-.9-.46-1.83-.9-2.72-1.37q-4-2.1-7.92-4.35c-43.36-25-65-57.88-64.92-90.69l-.16,59.17c-.1,32.81,21.56,65.67,64.91,90.7q3.89,2.24,7.92,4.34c.9.47,1.82.91,2.73,1.37,1.81.92,3.62,1.84,5.47,2.72,1.09.52,2.21,1,3.32,1.51,1.7.78,3.4,1.56,5.13,2.3,1.2.51,2.42,1,3.64,1.51s2.33,1,3.51,1.46c.37.14.76.26,1.13.41,3.82,1.49,7.68,2.91,11.62,4.24.6.21,1.22.39,1.83.59,3.42,1.14,6.89,2.21,10.4,3.24.58.16,1.14.37,1.73.53s1.35.35,2,.54c2.21.61,4.43,1.19,6.67,1.76,1.36.35,2.71.7,4.08,1,2.45.59,4.91,1.13,7.39,1.67.93.2,1.84.43,2.77.62l.76.15c2.24.46,4.5.87,6.76,1.29,1.25.23,2.49.48,3.74.69,2.94.51,5.89,1,8.85,1.4.57.08,1.13.18,1.7.27h.08q5.24.74,10.5,1.33l2.55.25c2.67.28,5.35.55,8,.78h.2c1.23.11,2.47.17,3.7.26,2.25.16,4.5.33,6.75.45,1.47.09,2.94.12,4.42.19,2.09.09,4.18.19,6.27.24l.52,0c1.19,0,2.38,0,3.57,0,2.28,0,4.56.07,6.84.07l4.53-.06c2.13,0,4.26-.06,6.39-.13l1.2,0c1,0,2-.11,3-.15,2.47-.11,4.93-.22,7.38-.37l4.47-.31c2.36-.18,4.71-.37,7.06-.59.82-.08,1.66-.12,2.48-.21.58,0,1.15-.14,1.72-.2q5.5-.57,10.95-1.31l1.78-.22q6.25-.88,12.44-2c.38-.06.78-.11,1.16-.18,1.1-.2,2.18-.44,3.27-.65,1.92-.36,3.84-.73,5.75-1.13,1.56-.32,3.11-.67,4.66-1,1.87-.42,3.74-.84,5.6-1.29l4.62-1.16c1.84-.48,3.67-1,5.49-1.47,1.52-.42,3-.86,4.54-1.3,1.8-.53,3.58-1.07,5.36-1.63.78-.25,1.57-.47,2.34-.72.56-.18,1.09-.39,1.64-.57q4.83-1.6,9.54-3.35c.66-.25,1.34-.47,2-.72,3.72-1.42,7.37-2.92,11-4.47l2.77-1.25q4.16-1.86,8.17-3.85c1-.49,2-1,3-1.49,3.43-1.76,6.83-3.57,10.12-5.48l2.68-1.59c.83-.5,1.6-1,2.41-1.53,1.35-.84,2.69-1.67,4-2.53s2.35-1.58,3.51-2.37,2.5-1.74,3.71-2.62,2.2-1.63,3.28-2.45,2.32-1.79,3.44-2.7,2-1.67,3-2.52,2.14-1.84,3.17-2.77c.43-.38.89-.76,1.31-1.14.85-.78,1.65-1.57,2.46-2.36.29-.28.6-.56.89-.85,1.59-1.57,3.12-3.17,4.59-4.78.35-.37.68-.76,1-1.14,1.24-1.39,2.43-2.78,3.58-4.19l.76-.92c.11-.15.23-.29.34-.43.41-.52.75-1,1.15-1.57,1.07-1.41,2.12-2.82,3.1-4.24.54-.79,1-1.58,1.54-2.37.83-1.29,1.65-2.59,2.4-3.89.21-.36.46-.71.66-1.07.3-.53.54-1.07.83-1.6.59-1.1,1.16-2.19,1.7-3.3.45-.92.88-1.85,1.3-2.78.49-1.11,1-2.22,1.4-3.33.2-.5.44-1,.63-1.49s.29-.9.45-1.35q.55-1.59,1.05-3.18c.3-1,.59-1.94.85-2.91s.54-2.13.78-3.2c.13-.58.31-1.16.42-1.74.08-.39.12-.78.19-1.18.2-1.09.36-2.19.52-3.29s.26-1.92.36-2.89.18-2.21.24-3.32c0-.64.12-1.29.14-1.94s0-1.29,0-1.93l.17-59.17C2525,1472.91,2524.92,1474.2,2524.85,1475.49Z"/><path class="cls-147" d="M2460.1,1380.93c86.16,49.74,86.61,130.39,1,180.14s-224.83,49.75-311,0-86.61-130.39-1-180.13S2374,1331.19,2460.1,1380.93Zm-271.58,157.83c64.81,37.42,169.55,37.41,233.92,0s64-98.08-.76-135.5-169.53-37.42-233.92,0-64.05,98.08.76,135.5"/><g class="cls-11"><path class="cls-148" d="M2022,1631l.42-.23.38-.19.45-.2.4-.16.46-.16.42-.13.48-.12.43-.1c.17,0,.34-.07.52-.09l.44-.07.54,0,.45,0c.22,0,.44,0,.67,0h.41c.25,0,.51,0,.77,0l.34,0c.41,0,.84.09,1.27.16l.33.07,1,.21.46.12.59.16.55.17.61.21.56.2.62.25.57.24.63.28c.26.12.52.24.79.38.72.36,1.43.76,2.14,1.19l.55.34c.63.39,1.25.8,1.86,1.24l.25.17q1,.77,2.07,1.62l.32.26c.65.55,1.29,1.12,1.91,1.71l.29.27c.62.6,1.24,1.22,1.84,1.86l.37.41c.5.55,1,1.11,1.48,1.69l.42.5c.55.68,1.09,1.36,1.61,2.07l.29.39c.53.73,1,1.47,1.54,2.23l.15.22c.36.57.71,1.15,1.05,1.73s.56.93.82,1.41.48.87.71,1.31.5,1,.73,1.44c.31.64.63,1.29.91,1.94l.06.14c.36.83.69,1.67,1,2.5l.15.4c.29.79.54,1.59.78,2.38.07.23.13.46.2.69.18.67.35,1.33.51,2,0,.19.09.39.13.58.13.61.23,1.22.33,1.83.05.3.11.59.15.89.12.89.21,1.77.26,2.65.41,7.31-1.88,12.59-5.9,15.2l105.57-69c4-2.62,6.31-7.9,5.9-15.21-.05-.87-.14-1.76-.26-2.65,0-.29-.1-.59-.15-.88-.08-.52-.16-1-.27-1.57a2,2,0,0,0-.06-.26c0-.2-.09-.39-.13-.58q-.23-1-.51-2c-.07-.22-.13-.45-.2-.68s-.08-.3-.13-.46c-.2-.64-.42-1.28-.65-1.92l-.15-.4c-.11-.31-.22-.62-.35-.93-.2-.53-.42-1-.64-1.57a1,1,0,0,1-.07-.15q-.27-.63-.57-1.26c-.1-.22-.23-.45-.34-.67-.23-.49-.48-1-.73-1.44-.12-.23-.22-.47-.34-.69l-.37-.63q-.39-.71-.81-1.41c-.15-.23-.27-.47-.42-.71l-.64-1-.15-.23c-.33-.5-.67-1-1-1.5-.17-.25-.35-.48-.52-.72l-.29-.4c-.44-.59-.88-1.17-1.34-1.74l-.27-.32-.42-.5c-.49-.58-1-1.14-1.48-1.69l-.37-.41-.18-.2c-.54-.57-1.1-1.12-1.66-1.66l-.29-.27c-.62-.6-1.26-1.17-1.91-1.72l-.32-.26-.42-.35q-.81-.66-1.65-1.26l-.25-.17c-.61-.44-1.23-.85-1.86-1.24l-.55-.34c-.71-.43-1.42-.83-2.14-1.2l-.41-.2-.38-.17-.63-.29-.57-.24-.62-.24-.56-.21-.61-.2-.55-.17-.59-.17-.24-.07-.22,0-1-.22-.33-.06c-.43-.07-.86-.13-1.27-.16h-.06l-.28,0-.77,0h-1.26l-.27,0-.54.06-.44.06-.52.1-.23,0-.2,0-.48.13-.42.13-.46.16-.24.09-.16.07-.45.2-.38.18-.42.24-.25.14-.24.15-105.57,69Z"/><ellipse class="cls-149" cx="2039.05" cy="1658.22" rx="18.62" ry="32.15" transform="translate(-574.24 1378.74) rotate(-33.01)"/></g><g class="cls-11"><path class="cls-150" d="M1859.08,1718.81l.63-.35.57-.28.66-.3.61-.23c.22-.09.44-.17.67-.24l.63-.19.71-.19.64-.14c.25-.06.51-.1.77-.14l.66-.1.81-.08.66,0c.33,0,.66,0,1,0h.61l1.15.06.5,0c.62.05,1.25.14,1.89.24l.49.1c.5.09,1,.19,1.5.31l.69.17.88.25.82.25.9.31.84.3.92.37.85.35.93.43c.39.18.78.36,1.17.56,1.07.53,2.13,1.14,3.19,1.77.27.16.55.33.82.51.93.58,1.85,1.19,2.77,1.84l.36.25c1.05.76,2.07,1.57,3.08,2.4l.47.39c1,.82,1.92,1.66,2.85,2.55l.43.41q1.38,1.34,2.73,2.76l.54.6c.75.82,1.49,1.66,2.21,2.52l.63.74c.82,1,1.61,2,2.39,3.07l.43.59c.79,1.08,1.56,2.18,2.29,3.31.08.11.14.22.22.33.54.84,1.06,1.7,1.57,2.56.42.7.83,1.4,1.22,2.11s.71,1.29,1,1.94.74,1.43,1.09,2.15c.46,1,.93,1.91,1.35,2.88l.09.21c.54,1.23,1,2.48,1.49,3.72.07.2.15.39.22.59.42,1.18.81,2.36,1.16,3.55l.29,1c.28,1,.53,2,.76,3,.06.28.14.57.2.86.19.91.34,1.82.49,2.72.07.44.16.88.22,1.32.18,1.33.32,2.64.39,3.94.6,10.87-2.8,18.72-8.78,22.6l157-102.62c6-3.88,9.39-11.73,8.78-22.6-.07-1.3-.2-2.61-.38-3.94-.06-.44-.16-.88-.23-1.32-.12-.77-.23-1.54-.39-2.32,0-.14-.07-.27-.09-.4l-.21-.86c-.22-1-.47-2-.75-3l-.29-1c-.07-.23-.13-.46-.2-.69-.3-1-.62-1.91-1-2.86-.07-.2-.14-.39-.22-.59-.17-.46-.33-.93-.51-1.39-.31-.78-.63-1.55-1-2.33l-.1-.22c-.27-.62-.55-1.24-.84-1.87-.16-.33-.34-.67-.51-1-.35-.72-.71-1.43-1.08-2.15-.18-.33-.33-.68-.52-1s-.36-.61-.53-.92c-.4-.71-.8-1.41-1.22-2.1-.21-.35-.4-.71-.61-1.06-.32-.51-.64-1-1-1.51l-.21-.33c-.5-.76-1-1.51-1.52-2.24-.25-.36-.52-.71-.78-1.07l-.42-.59c-.65-.87-1.31-1.74-2-2.59-.13-.16-.27-.31-.4-.48s-.42-.49-.62-.74c-.72-.86-1.46-1.7-2.21-2.52l-.55-.6c-.09-.1-.17-.2-.26-.29-.81-.85-1.63-1.67-2.47-2.47l-.42-.41c-.94-.89-1.89-1.73-2.85-2.55l-.47-.39-.63-.53c-.81-.65-1.63-1.27-2.45-1.87l-.37-.25c-.91-.65-1.83-1.26-2.76-1.84-.28-.18-.55-.35-.83-.51-1-.63-2.11-1.24-3.18-1.77l-.61-.3c-.19-.1-.38-.17-.57-.26l-.93-.43-.85-.35-.92-.37-.83-.3-.9-.31-.82-.25-.88-.25-.36-.1-.33-.07c-.51-.12-1-.22-1.5-.31l-.49-.1c-.64-.1-1.27-.19-1.89-.24l-.08,0-.43,0-1.14-.06h-.61c-.34,0-.67,0-1,0h-.27l-.39,0-.8.08-.66.1c-.26,0-.52.08-.77.14s-.24,0-.35.06l-.3.08-.7.19-.63.19c-.23.07-.46.15-.68.24l-.37.13-.23.1-.66.3-.57.28c-.22.11-.43.23-.63.35l-.37.2-.36.23-157,102.62C1858.59,1719.09,1858.84,1719,1859.08,1718.81Z"/><ellipse class="cls-149" cx="1884.4" cy="1759.33" rx="27.69" ry="47.81" transform="matrix(0.84, -0.54, 0.54, 0.84, -654.3, 1310.8)"/></g><path class="cls-151" d="M1457.6,1609l-417,238.82a55.7,55.7,0,0,1-56.47-.29L717.65,1690c-14-8.31-20.83-58.13-6.78-66.3l436.31-216.42a36.05,36.05,0,0,1,36.54.19l279.78,130.68C1478.51,1547.12,1472.7,1600.19,1457.6,1609Z"/><path class="cls-152" d="M1457.6,1607.21l-417,238.82a55.72,55.72,0,0,1-56.47-.3L717.65,1688.28c-14-8.3-20.83-58.13-6.78-66.29l436.31-216.42a36,36,0,0,1,36.54.19l279.78,130.67C1478.51,1545.36,1472.7,1598.43,1457.6,1607.21Z"/><path class="cls-153" d="M1457.6,1571.14l-417,238.82a55.72,55.72,0,0,1-56.47-.29L717.65,1652.22a21.3,21.3,0,0,1,.19-36.72l429.34-246a36.05,36.05,0,0,1,36.54.19l274.08,162A22.9,22.9,0,0,1,1457.6,1571.14Z"/><path class="cls-154" d="M798.58,1617.73l41.13,23.9a4.15,4.15,0,0,0,4.2,0l28.7-17.07c1-.62,1.92-8,.88-8.56l-42.94-18.61a2.68,2.68,0,0,0-2.72,0l-29.32,11.47C797.39,1609.5,797.45,1617.07,798.58,1617.73Z"/><path class="cls-155" d="M798.58,1610.47l41.13,23.9a4.13,4.13,0,0,0,4.2,0l28.7-17.08a1.58,1.58,0,0,0,0-2.73l-42.05-24.44a2.68,2.68,0,0,0-2.72,0l-29.27,17.41A1.71,1.71,0,0,0,798.58,1610.47Z"/><path class="cls-156" d="M864.16,1655.91l41.13,23.9a4.15,4.15,0,0,0,4.21,0l28.7-17.08c1-.61,1.92-7.94.87-8.55l-42.94-18.61a2.68,2.68,0,0,0-2.72,0L864.09,1647C863,1647.69,863,1655.26,864.16,1655.91Z"/><path class="cls-157" d="M864.16,1648.66l41.13,23.9a4.17,4.17,0,0,0,4.21,0l28.7-17.07a1.59,1.59,0,0,0,0-2.74l-42-24.43a2.68,2.68,0,0,0-2.72,0l-29.26,17.42A1.71,1.71,0,0,0,864.16,1648.66Z"/><path class="cls-158" d="M929.74,1694.1l41.14,23.9a4.13,4.13,0,0,0,4.2,0l28.7-17.08c1-.62,1.92-8,.87-8.55l-42.94-18.62a2.68,2.68,0,0,0-2.72,0l-29.32,11.46C928.56,1685.88,928.62,1693.45,929.74,1694.1Z"/><path class="cls-159" d="M929.74,1686.84l41.14,23.9a4.13,4.13,0,0,0,4.2,0l28.7-17.08a1.58,1.58,0,0,0,0-2.73l-42.06-24.44a2.7,2.7,0,0,0-2.72,0l-29.26,17.41A1.71,1.71,0,0,0,929.74,1686.84Z"/><path class="cls-160" d="M995.33,1732.29l41.13,23.9a4.15,4.15,0,0,0,4.2,0l28.7-17.07c1-.62,1.92-7.95.88-8.56l-42.94-18.61a2.68,2.68,0,0,0-2.72,0l-29.32,11.47C994.14,1724.06,994.2,1731.63,995.33,1732.29Z"/><path class="cls-161" d="M995.33,1725l41.13,23.9a4.13,4.13,0,0,0,4.2,0l28.7-17.08a1.58,1.58,0,0,0,0-2.73l-42-24.44a2.68,2.68,0,0,0-2.72,0l-29.27,17.41A1.7,1.7,0,0,0,995.33,1725Z"/><path class="cls-162" d="M847.13,1590.26l41.13,23.9a4.15,4.15,0,0,0,4.2,0l28.7-17.08c1-.62,1.92-8,.88-8.56l-42.94-18.61a2.7,2.7,0,0,0-2.72,0l-29.32,11.47C845.94,1582,846,1589.6,847.13,1590.26Z"/><path class="cls-163" d="M847.13,1583l41.13,23.9a4.13,4.13,0,0,0,4.2,0l28.7-17.08a1.58,1.58,0,0,0,0-2.73l-42-24.44a2.68,2.68,0,0,0-2.72,0l-29.27,17.41A1.7,1.7,0,0,0,847.13,1583Z"/><path class="cls-164" d="M912.71,1628.44l41.13,23.9a4.15,4.15,0,0,0,4.21,0l28.7-17.07c1-.62,1.92-8,.87-8.56l-42.94-18.61a2.68,2.68,0,0,0-2.72,0l-29.32,11.47C911.52,1620.22,911.59,1627.79,912.71,1628.44Z"/><path class="cls-165" d="M912.71,1621.19l41.13,23.9a4.17,4.17,0,0,0,4.21,0l28.7-17.08a1.59,1.59,0,0,0,0-2.74l-42.05-24.43a2.7,2.7,0,0,0-2.72,0l-29.27,17.42A1.71,1.71,0,0,0,912.71,1621.19Z"/><path class="cls-166" d="M978.29,1666.63l41.14,23.9a4.13,4.13,0,0,0,4.2,0l28.7-17.08c1-.62,1.92-8,.87-8.55l-42.94-18.62a2.68,2.68,0,0,0-2.72,0l-29.32,11.46C977.11,1658.41,977.17,1666,978.29,1666.63Z"/><path class="cls-167" d="M978.29,1659.37l41.14,23.9a4.13,4.13,0,0,0,4.2,0l28.7-17.07a1.59,1.59,0,0,0,0-2.74l-42-24.43a2.68,2.68,0,0,0-2.72,0l-29.26,17.41A1.71,1.71,0,0,0,978.29,1659.37Z"/><path class="cls-168" d="M1043.88,1704.82l41.13,23.9a4.15,4.15,0,0,0,4.2,0l28.7-17.08c1-.62,1.92-7.95.88-8.56l-43-18.61a2.7,2.7,0,0,0-2.72,0l-29.31,11.47C1042.69,1696.59,1042.75,1704.16,1043.88,1704.82Z"/><path class="cls-169" d="M1043.88,1697.56l41.13,23.9a4.13,4.13,0,0,0,4.2,0l28.7-17.08a1.58,1.58,0,0,0,0-2.73l-42.06-24.44a2.68,2.68,0,0,0-2.72,0l-29.26,17.41A1.7,1.7,0,0,0,1043.88,1697.56Z"/><path class="cls-170" d="M895.68,1562.79l41.13,23.9a4.13,4.13,0,0,0,4.2,0l28.7-17.08c1-.62,1.92-7.95.88-8.55l-42.94-18.62a2.7,2.7,0,0,0-2.73,0l-29.31,11.46C894.49,1554.57,894.55,1562.14,895.68,1562.79Z"/><path class="cls-171" d="M895.68,1555.53l41.13,23.9a4.13,4.13,0,0,0,4.2,0l28.7-17.08a1.58,1.58,0,0,0,0-2.73l-42.05-24.44a2.72,2.72,0,0,0-2.73,0l-29.26,17.41A1.7,1.7,0,0,0,895.68,1555.53Z"/><path class="cls-172" d="M961.26,1601l41.13,23.9a4.17,4.17,0,0,0,4.21,0l28.69-17.07c1-.62,1.93-8,.88-8.56l-42.94-18.61a2.68,2.68,0,0,0-2.72,0l-29.32,11.47C960.07,1592.75,960.13,1600.32,961.26,1601Z"/><path class="cls-173" d="M961.26,1593.72l41.13,23.9a4.15,4.15,0,0,0,4.21,0l28.69-17.08a1.58,1.58,0,0,0,0-2.73l-42-24.44a2.68,2.68,0,0,0-2.72,0l-29.27,17.41A1.71,1.71,0,0,0,961.26,1593.72Z"/><path class="cls-174" d="M1026.84,1639.16l41.14,23.9a4.13,4.13,0,0,0,4.2,0l28.7-17.08c1-.62,1.92-7.94.87-8.55l-42.94-18.62a2.7,2.7,0,0,0-2.72,0l-29.32,11.46C1025.65,1630.94,1025.72,1638.51,1026.84,1639.16Z"/><path class="cls-175" d="M1026.84,1631.9l41.14,23.91a4.15,4.15,0,0,0,4.2,0l28.7-17.07a1.59,1.59,0,0,0,0-2.74l-42-24.43a2.68,2.68,0,0,0-2.72,0L1026.83,1629A1.7,1.7,0,0,0,1026.84,1631.9Z"/><path class="cls-176" d="M1092.42,1677.35l41.14,23.9a4.13,4.13,0,0,0,4.2,0l28.7-17.08c1-.62,1.92-8,.88-8.56L1124.39,1657a2.68,2.68,0,0,0-2.72,0l-29.31,11.46C1091.24,1669.12,1091.3,1676.69,1092.42,1677.35Z"/><path class="cls-177" d="M1092.42,1670.09l41.14,23.9a4.13,4.13,0,0,0,4.2,0l28.7-17.08a1.58,1.58,0,0,0,0-2.73l-42.06-24.44a2.7,2.7,0,0,0-2.72,0l-29.26,17.41A1.71,1.71,0,0,0,1092.42,1670.09Z"/><path class="cls-178" d="M944.23,1535.32l41.13,23.9a4.13,4.13,0,0,0,4.2,0l28.7-17.08c1-.62,1.92-7.95.88-8.55L976.19,1515a2.68,2.68,0,0,0-2.72,0l-29.31,11.46C943,1527.1,943.1,1534.67,944.23,1535.32Z"/><path class="cls-179" d="M944.23,1528.06l41.13,23.9a4.13,4.13,0,0,0,4.2,0l28.7-17.08a1.58,1.58,0,0,0,0-2.73l-42.06-24.43a2.68,2.68,0,0,0-2.72,0l-29.26,17.41A1.7,1.7,0,0,0,944.23,1528.06Z"/><path class="cls-180" d="M1009.81,1573.51l41.13,23.9a4.17,4.17,0,0,0,4.21,0l28.69-17.08c1-.62,1.92-8,.88-8.56l-42.94-18.61a2.7,2.7,0,0,0-2.72,0l-29.32,11.47C1008.62,1565.28,1008.68,1572.85,1009.81,1573.51Z"/><path class="cls-181" d="M1009.81,1566.25l41.13,23.9a4.15,4.15,0,0,0,4.21,0l28.69-17.08a1.58,1.58,0,0,0,0-2.73l-42-24.44a2.68,2.68,0,0,0-2.72,0l-29.27,17.41A1.71,1.71,0,0,0,1009.81,1566.25Z"/><path class="cls-182" d="M1075.39,1611.69l41.13,23.9a4.15,4.15,0,0,0,4.21,0l28.7-17.08c1-.61,1.92-7.94.87-8.55l-42.94-18.61a2.68,2.68,0,0,0-2.72,0l-29.32,11.46C1074.2,1603.47,1074.27,1611,1075.39,1611.69Z"/><path class="cls-183" d="M1075.39,1604.44l41.13,23.9a4.2,4.2,0,0,0,4.21,0l28.7-17.08a1.59,1.59,0,0,0,0-2.74l-42.05-24.43a2.7,2.7,0,0,0-2.72,0l-29.26,17.42A1.71,1.71,0,0,0,1075.39,1604.44Z"/><path class="cls-184" d="M1141,1649.88l41.14,23.9a4.13,4.13,0,0,0,4.2,0l28.7-17.08c1-.62,1.92-8,.87-8.55l-42.94-18.62a2.68,2.68,0,0,0-2.72,0L1140.9,1641C1139.79,1641.66,1139.85,1649.23,1141,1649.88Z"/><path class="cls-185" d="M1141,1642.62l41.14,23.9a4.13,4.13,0,0,0,4.2,0l28.7-17.08a1.58,1.58,0,0,0,0-2.73l-42.06-24.43a2.68,2.68,0,0,0-2.72,0L1141,1639.68A1.71,1.71,0,0,0,1141,1642.62Z"/><path class="cls-186" d="M992.77,1507.85l41.14,23.9a4.13,4.13,0,0,0,4.2,0l28.7-17.08c1-.62,1.92-7.94.88-8.55l-43-18.62a2.68,2.68,0,0,0-2.72,0L992.7,1499C991.59,1499.63,991.65,1507.2,992.77,1507.85Z"/><path class="cls-187" d="M992.77,1500.59l41.14,23.91a4.15,4.15,0,0,0,4.2,0l28.7-17.07a1.59,1.59,0,0,0,0-2.74l-42.06-24.43a2.68,2.68,0,0,0-2.72,0l-29.26,17.42A1.7,1.7,0,0,0,992.77,1500.59Z"/><path class="cls-188" d="M1058.36,1546l41.13,23.9a4.15,4.15,0,0,0,4.2,0l28.7-17.08c1-.62,1.92-7.95.88-8.56l-42.94-18.61a2.7,2.7,0,0,0-2.72,0l-29.32,11.47C1057.17,1537.81,1057.23,1545.38,1058.36,1546Z"/><path class="cls-189" d="M1058.36,1538.78l41.13,23.9a4.13,4.13,0,0,0,4.2,0l28.7-17.08a1.58,1.58,0,0,0,0-2.73l-42.05-24.44a2.68,2.68,0,0,0-2.72,0l-29.27,17.41A1.7,1.7,0,0,0,1058.36,1538.78Z"/><path class="cls-190" d="M1123.94,1584.22l41.13,23.91a4.17,4.17,0,0,0,4.21,0L1198,1591c1-.62,1.92-8,.87-8.56l-42.94-18.61a2.68,2.68,0,0,0-2.72,0l-29.32,11.47C1122.75,1576,1122.82,1583.57,1123.94,1584.22Z"/><path class="cls-191" d="M1123.94,1577l41.13,23.9a4.17,4.17,0,0,0,4.21,0l28.7-17.08a1.58,1.58,0,0,0,0-2.73l-42-24.44a2.7,2.7,0,0,0-2.72,0L1123.92,1574A1.71,1.71,0,0,0,1123.94,1577Z"/><path class="cls-192" d="M1189.52,1622.41l41.14,23.9a4.13,4.13,0,0,0,4.2,0l28.7-17.08c1-.62,1.92-7.94.87-8.55L1221.49,1602a2.68,2.68,0,0,0-2.72,0l-29.32,11.46C1188.34,1614.19,1188.4,1621.76,1189.52,1622.41Z"/><path class="cls-193" d="M1189.52,1615.15l41.14,23.91a4.15,4.15,0,0,0,4.2,0l28.7-17.07a1.59,1.59,0,0,0,0-2.74l-42-24.43a2.68,2.68,0,0,0-2.72,0l-29.26,17.41A1.71,1.71,0,0,0,1189.52,1615.15Z"/><path class="cls-194" d="M1407.78,1559.14l-2.79,1.63-238.46-137.48a12.12,12.12,0,0,0-12.31.07l-63.86,37.45-1.9-1.12a7.71,7.71,0,0,1-.06-13.32l65.82-38.59a12.12,12.12,0,0,1,12.31-.07l241.18,139A7.18,7.18,0,0,1,1407.78,1559.14Z"/><path class="cls-195" d="M1405,1560.77l-60.46,35.46a18.9,18.9,0,0,1-19,.09l-235.12-135.51,63.86-37.45a12.12,12.12,0,0,1,12.31-.07Z"/></g></g></svg>