<svg xmlns="http://www.w3.org/2000/svg" xmlns:xlink="http://www.w3.org/1999/xlink" viewBox="0 0 2503.92 2206.68"><defs><style>.cls-1{fill:url(#linear-gradient);}.cls-2{fill:url(#linear-gradient-2);}.cls-3{fill:url(#linear-gradient-3);}.cls-4{fill:#fbfcff;}.cls-27,.cls-4{stroke:#757575;stroke-width:4.67px;}.cls-12,.cls-26,.cls-27,.cls-4,.cls-75,.cls-76{stroke-linecap:round;stroke-linejoin:round;}.cls-5{fill:#fff;opacity:0.53;}.cls-6{fill:url(#linear-gradient-4);}.cls-7{fill:url(#linear-gradient-5);}.cls-8{fill:url(#linear-gradient-6);}.cls-9{fill:url(#linear-gradient-7);}.cls-10{fill:url(#linear-gradient-8);}.cls-11{fill:url(#linear-gradient-9);}.cls-12{fill:#29174c;stroke-width:6.58px;opacity:0.15;}.cls-12,.cls-26{stroke:#29174c;}.cls-13{fill:url(#linear-gradient-10);}.cls-14{fill:url(#linear-gradient-11);}.cls-15{fill:url(#linear-gradient-12);}.cls-16{fill:url(#linear-gradient-13);}.cls-17{fill:url(#linear-gradient-14);}.cls-18{fill:url(#linear-gradient-15);}.cls-19{fill:url(#linear-gradient-16);}.cls-20{fill:url(#linear-gradient-17);}.cls-21{fill:url(#linear-gradient-18);}.cls-22{fill:url(#linear-gradient-19);}.cls-23{fill:url(#linear-gradient-20);}.cls-24{fill:url(#linear-gradient-21);}.cls-25{fill:url(#linear-gradient-22);}.cls-26,.cls-27{fill:none;}.cls-26{stroke-width:9.45px;}.cls-28{fill:url(#linear-gradient-23);}.cls-29{fill:url(#linear-gradient-24);}.cls-30{fill:url(#linear-gradient-25);}.cls-31{fill:url(#linear-gradient-26);}.cls-32{fill:url(#linear-gradient-27);}.cls-33{fill:url(#linear-gradient-28);}.cls-34{fill:#965917;}.cls-35{fill:url(#linear-gradient-29);}.cls-36{fill:url(#linear-gradient-30);}.cls-37{fill:url(#linear-gradient-31);}.cls-38{fill:url(#linear-gradient-32);}.cls-39{fill:url(#linear-gradient-33);}.cls-40{fill:url(#linear-gradient-34);}.cls-41{fill:url(#linear-gradient-35);}.cls-42{fill:url(#linear-gradient-36);}.cls-43{fill:url(#linear-gradient-37);}.cls-44{fill:url(#linear-gradient-38);}.cls-45{fill:url(#linear-gradient-39);}.cls-46{fill:url(#linear-gradient-40);}.cls-47{fill:url(#linear-gradient-41);}.cls-48{fill:url(#linear-gradient-42);}.cls-49{fill:url(#linear-gradient-43);}.cls-50{fill:url(#linear-gradient-44);}.cls-51{fill:url(#linear-gradient-45);}.cls-52{fill:url(#linear-gradient-46);}.cls-53{fill:url(#linear-gradient-47);}.cls-54{fill:url(#linear-gradient-48);}.cls-55{fill:url(#linear-gradient-49);}.cls-56{fill:url(#linear-gradient-50);}.cls-57{fill:url(#linear-gradient-51);}.cls-58{fill:url(#linear-gradient-52);}.cls-59{fill:url(#linear-gradient-53);}.cls-60{fill:url(#linear-gradient-54);}.cls-61{fill:url(#linear-gradient-55);}.cls-62{fill:url(#linear-gradient-56);}.cls-63{fill:url(#linear-gradient-57);}.cls-64{fill:url(#linear-gradient-58);}.cls-65{fill:url(#linear-gradient-59);}.cls-66{fill:url(#linear-gradient-60);}.cls-67{fill:url(#linear-gradient-61);}.cls-68{fill:url(#linear-gradient-62);}.cls-69{fill:url(#linear-gradient-63);}.cls-70{fill:url(#linear-gradient-64);}.cls-71{fill:url(#linear-gradient-65);}.cls-72{fill:url(#linear-gradient-66);}.cls-73{fill:url(#linear-gradient-67);}.cls-74{fill:url(#linear-gradient-68);}.cls-75{fill:#fffeff;stroke:#9e9e9e;}.cls-75,.cls-76{stroke-width:6.87px;}.cls-76{fill:#999899;stroke:#fff;}.cls-77{fill:url(#linear-gradient-69);}.cls-78{fill:url(#linear-gradient-70);}.cls-79{fill:url(#linear-gradient-71);}.cls-80{fill:#bfbfbf;}.cls-81{fill:url(#linear-gradient-72);}.cls-82{fill:url(#linear-gradient-73);}.cls-83{fill:url(#linear-gradient-74);}.cls-84{fill:url(#linear-gradient-75);}.cls-85{fill:url(#linear-gradient-76);}</style><linearGradient id="linear-gradient" x1="1205.15" y1="1009.91" x2="1583.66" y2="1009.91" gradientUnits="userSpaceOnUse"><stop offset="0" stop-color="#ffc878"/><stop offset="1" stop-color="#d29335"/></linearGradient><linearGradient id="linear-gradient-2" x1="1583.66" y1="1009.91" x2="1962.16" y2="1009.91" gradientUnits="userSpaceOnUse"><stop offset="0" stop-color="#c4791e"/><stop offset="1" stop-color="#dc9f44"/></linearGradient><linearGradient id="linear-gradient-3" x1="1205.15" y1="682.12" x2="1962.16" y2="682.12" gradientUnits="userSpaceOnUse"><stop offset="0" stop-color="#ffc878"/><stop offset="1" stop-color="#ffe0b8"/></linearGradient><linearGradient id="linear-gradient-4" x1="1588.38" y1="1238.73" x2="1966.89" y2="1238.73" xlink:href="#linear-gradient"/><linearGradient id="linear-gradient-5" x1="1966.89" y1="1238.73" x2="2345.4" y2="1238.73" xlink:href="#linear-gradient-2"/><linearGradient id="linear-gradient-6" x1="1786.66" y1="945.87" x2="2151.83" y2="875.12" xlink:href="#linear-gradient-3"/><linearGradient id="linear-gradient-7" x1="497.26" y1="1012.11" x2="673.62" y2="1416.04" xlink:href="#linear-gradient"/><linearGradient id="linear-gradient-8" x1="812.11" y1="1299.78" x2="1190.62" y2="1299.78" xlink:href="#linear-gradient-2"/><linearGradient id="linear-gradient-9" x1="433.6" y1="972" x2="1190.62" y2="972" xlink:href="#linear-gradient-3"/><linearGradient id="linear-gradient-10" x1="1103.94" y1="1356.01" x2="1482.45" y2="1356.01" xlink:href="#linear-gradient"/><linearGradient id="linear-gradient-11" x1="1482.45" y1="1356.01" x2="1860.96" y2="1356.01" xlink:href="#linear-gradient-2"/><linearGradient id="linear-gradient-12" x1="1103.94" y1="1028.23" x2="1860.96" y2="1028.23" xlink:href="#linear-gradient-3"/><linearGradient id="linear-gradient-13" x1="827.4" y1="1245.5" x2="946.87" y2="1726.23" xlink:href="#linear-gradient"/><linearGradient id="linear-gradient-14" x1="1098.73" y1="1575.76" x2="1477.24" y2="1575.76" xlink:href="#linear-gradient-2"/><linearGradient id="linear-gradient-15" x1="720.22" y1="1247.97" x2="1477.24" y2="1247.97" xlink:href="#linear-gradient-3"/><linearGradient id="linear-gradient-16" x1="1256.57" y1="1412.69" x2="1328.48" y2="1412.69" xlink:href="#linear-gradient-2"/><linearGradient id="linear-gradient-17" x1="1636.58" y1="1552.31" x2="2015.08" y2="1552.31" xlink:href="#linear-gradient"/><linearGradient id="linear-gradient-18" x1="1900.44" y1="1809.34" x2="2282.64" y2="1486.08" xlink:href="#linear-gradient-2"/><linearGradient id="linear-gradient-19" x1="1636.58" y1="1224.53" x2="2393.59" y2="1224.53" xlink:href="#linear-gradient-3"/><linearGradient id="linear-gradient-20" x1="443.29" y1="997.95" x2="767.57" y2="790.3" xlink:href="#linear-gradient"/><linearGradient id="linear-gradient-21" x1="815.99" y1="880.48" x2="1194.5" y2="880.48" xlink:href="#linear-gradient-2"/><linearGradient id="linear-gradient-22" x1="437.49" y1="552.7" x2="1194.47" y2="552.7" xlink:href="#linear-gradient-2"/><linearGradient id="linear-gradient-23" x1="815.99" y1="740.84" x2="1271.78" y2="740.84" xlink:href="#linear-gradient-3"/><linearGradient id="linear-gradient-24" x1="363.41" y1="725.39" x2="815.99" y2="725.39" xlink:href="#linear-gradient-3"/><linearGradient id="linear-gradient-25" x1="815.99" y1="431.06" x2="1328.57" y2="431.06" xlink:href="#linear-gradient-3"/><linearGradient id="linear-gradient-26" x1="305.1" y1="431.06" x2="817.68" y2="431.06" xlink:href="#linear-gradient-3"/><linearGradient id="linear-gradient-27" x1="817.69" y1="552.7" x2="1194.47" y2="552.7" xlink:href="#linear-gradient-3"/><linearGradient id="linear-gradient-28" x1="817.69" y1="626.14" x2="1068.97" y2="626.14" xlink:href="#linear-gradient"/><linearGradient id="linear-gradient-29" x1="563.06" y1="626.14" x2="1068.97" y2="626.14" xlink:href="#linear-gradient-3"/><linearGradient id="linear-gradient-30" x1="967.1" y1="808.76" x2="1106.48" y2="1374.83" xlink:href="#linear-gradient"/><linearGradient id="linear-gradient-31" x1="1227.85" y1="1099.13" x2="1606.36" y2="1099.13" xlink:href="#linear-gradient-2"/><linearGradient id="linear-gradient-32" x1="1266.17" y1="889.71" x2="1163.47" y2="572.47" xlink:href="#linear-gradient-3"/><linearGradient id="linear-gradient-33" x1="1342.95" y1="1346.22" x2="1493.71" y2="1949.27" xlink:href="#linear-gradient"/><linearGradient id="linear-gradient-34" x1="1792.23" y1="1850.66" x2="1919.63" y2="1588.25" xlink:href="#linear-gradient-2"/><linearGradient id="linear-gradient-35" x1="1261" y1="1447.64" x2="2018.01" y2="1447.64" xlink:href="#linear-gradient-3"/><linearGradient id="linear-gradient-36" x1="1270.56" y1="1432.74" x2="1589.15" y2="1216.55" xlink:href="#linear-gradient"/><linearGradient id="linear-gradient-37" x1="1643.2" y1="1308.3" x2="2021.71" y2="1308.3" xlink:href="#linear-gradient-2"/><linearGradient id="linear-gradient-38" x1="1264.7" y1="980.51" x2="2021.68" y2="980.51" xlink:href="#linear-gradient-2"/><linearGradient id="linear-gradient-39" x1="1643.2" y1="1168.66" x2="2098.98" y2="1168.66" xlink:href="#linear-gradient-3"/><linearGradient id="linear-gradient-40" x1="1190.62" y1="1153.2" x2="1643.2" y2="1153.2" xlink:href="#linear-gradient-3"/><linearGradient id="linear-gradient-41" x1="1974.67" y1="970.1" x2="1808.06" y2="723.61" xlink:href="#linear-gradient-3"/><linearGradient id="linear-gradient-42" x1="1132.31" y1="858.87" x2="1644.89" y2="858.87" xlink:href="#linear-gradient-3"/><linearGradient id="linear-gradient-43" x1="1644.9" y1="980.51" x2="2021.68" y2="980.51" xlink:href="#linear-gradient-3"/><linearGradient id="linear-gradient-44" x1="1644.9" y1="1053.95" x2="1896.18" y2="1053.95" xlink:href="#linear-gradient"/><linearGradient id="linear-gradient-45" x1="1390.27" y1="1053.95" x2="1896.18" y2="1053.95" xlink:href="#linear-gradient-3"/><linearGradient id="linear-gradient-46" x1="1838.87" y1="700.94" x2="1838.87" y2="1002.43" gradientUnits="userSpaceOnUse"><stop offset="0" stop-color="#149648"/><stop offset="0.99" stop-color="#5ed91a"/></linearGradient><linearGradient id="linear-gradient-47" x1="1731.23" y1="664.9" x2="1861.31" y2="664.9" xlink:href="#linear-gradient-46"/><linearGradient id="linear-gradient-48" x1="1773.04" y1="1012.76" x2="1774.19" y2="534.12" xlink:href="#linear-gradient-46"/><linearGradient id="linear-gradient-49" x1="1773.83" y1="617.61" x2="1910.14" y2="617.61" xlink:href="#linear-gradient-46"/><linearGradient id="linear-gradient-50" x1="1435.95" y1="754.63" x2="1539.63" y2="754.63" gradientUnits="userSpaceOnUse"><stop offset="0" stop-color="#f58220"/><stop offset="1" stop-color="#fff200"/></linearGradient><linearGradient id="linear-gradient-51" x1="1588.47" y1="815.82" x2="1588.47" y2="488.84" xlink:href="#linear-gradient-50"/><linearGradient id="linear-gradient-52" x1="1475.12" y1="487.56" x2="1611.67" y2="487.56" xlink:href="#linear-gradient-50"/><linearGradient id="linear-gradient-53" x1="1533.46" y1="413.77" x2="1518.88" y2="849.87" xlink:href="#linear-gradient-50"/><linearGradient id="linear-gradient-54" x1="1565.27" y1="834.8" x2="1650.86" y2="834.8" xlink:href="#linear-gradient-50"/><linearGradient id="linear-gradient-55" x1="1520.2" y1="885.09" x2="1650.86" y2="885.09" xlink:href="#linear-gradient-50"/><linearGradient id="linear-gradient-56" x1="1087.95" y1="252.69" x2="1087.95" y2="554.17" xlink:href="#linear-gradient-46"/><linearGradient id="linear-gradient-57" x1="980.31" y1="216.64" x2="1110.39" y2="216.64" xlink:href="#linear-gradient-46"/><linearGradient id="linear-gradient-58" x1="1022.12" y1="564.51" x2="1023.27" y2="85.87" xlink:href="#linear-gradient-46"/><linearGradient id="linear-gradient-59" x1="1022.91" y1="169.35" x2="1159.22" y2="169.35" xlink:href="#linear-gradient-46"/><linearGradient id="linear-gradient-60" x1="685.03" y1="306.37" x2="788.71" y2="306.37" xlink:href="#linear-gradient-50"/><linearGradient id="linear-gradient-61" x1="837.55" y1="367.56" x2="837.55" y2="40.58" xlink:href="#linear-gradient-50"/><linearGradient id="linear-gradient-62" x1="724.2" y1="39.3" x2="860.75" y2="39.3" xlink:href="#linear-gradient-50"/><linearGradient id="linear-gradient-63" x1="782.54" y1="-34.49" x2="767.96" y2="401.61" xlink:href="#linear-gradient-50"/><linearGradient id="linear-gradient-64" x1="814.35" y1="386.54" x2="899.94" y2="386.54" xlink:href="#linear-gradient-50"/><linearGradient id="linear-gradient-65" x1="769.28" y1="436.83" x2="899.94" y2="436.83" xlink:href="#linear-gradient-50"/><linearGradient id="linear-gradient-66" x1="303.3" y1="1152.84" x2="936.9" y2="1152.84" gradientTransform="matrix(-1, 0, 0, 1, 1030.13, 0)" xlink:href="#linear-gradient-50"/><linearGradient id="linear-gradient-67" x1="795.54" y1="1560.92" x2="445.9" y2="1254.51" gradientTransform="matrix(-1, 0, 0, 1, 1030.13, 0)" xlink:href="#linear-gradient-50"/><linearGradient id="linear-gradient-68" x1="375.56" y1="1742.09" x2="170.72" y2="1223.54" gradientTransform="matrix(-1, 0, 0, 1, 1030.13, 0)" xlink:href="#linear-gradient-50"/><linearGradient id="linear-gradient-69" x1="396.53" y1="1318.5" x2="1030.13" y2="1318.5" gradientTransform="matrix(-1, 0, 0, 1, 1030.13, 0)" gradientUnits="userSpaceOnUse"><stop offset="0" stop-color="#fff"/><stop offset="1" stop-color="#bababa"/></linearGradient><linearGradient id="linear-gradient-70" x1="670.41" y1="1281.71" x2="782.72" y2="1913.91" xlink:href="#linear-gradient-69"/><linearGradient id="linear-gradient-71" x1="413.46" y1="1804.25" x2="367.39" y2="1429.23" xlink:href="#linear-gradient-69"/><linearGradient id="linear-gradient-72" x1="570.64" y1="1592.88" x2="632.94" y2="1592.88" gradientTransform="matrix(-1, 0, 0, 1, 1030.13, 0)" xlink:href="#linear-gradient"/><linearGradient id="linear-gradient-73" x1="371.79" y1="1719.02" x2="589.92" y2="1719.02" gradientTransform="matrix(-1, 0, 0, 1, 1030.13, 0)" xlink:href="#linear-gradient-3"/><linearGradient id="linear-gradient-74" x1="371.79" y1="1930.68" x2="397.22" y2="1930.68" gradientTransform="matrix(-1, 0, 0, 1, 1030.13, 0)" xlink:href="#linear-gradient"/><linearGradient id="linear-gradient-75" x1="633.62" y1="1566.42" x2="740.29" y2="1878.03" gradientTransform="matrix(-1, 0, 0, 1, 1030.13, 0)" xlink:href="#linear-gradient"/><linearGradient id="linear-gradient-76" x1="613.65" y1="1424.07" x2="971.76" y2="1424.07" gradientTransform="matrix(-1, 0, 0, 1, 1030.13, 0)" xlink:href="#linear-gradient-3"/></defs><g id="Livello_2" data-name="Livello 2"><g id="Layer_4" data-name="Layer 4"><polygon class="cls-1" points="1205.15 1116.3 1583.65 1337.69 1583.65 903.52 1205.15 682.12 1205.15 1116.3"/><polygon class="cls-2" points="1962.16 1116.3 1583.65 1337.69 1583.65 903.52 1962.16 682.12 1962.16 1116.3"/><polygon class="cls-3" points="1962.16 682.12 1583.65 903.52 1205.15 682.12 1583.65 460.73 1962.16 682.12"/><polygon class="cls-4" points="1535.46 914.15 1432.26 853.78 1432.26 967.13 1535.46 1027.5 1535.46 914.15"/><polygon class="cls-4" points="1554.49 1182.25 1240.99 998.88 1240.99 1112.23 1554.49 1295.6 1554.49 1182.25"/><polygon class="cls-5" points="1741.5 1131.26 1813.4 1089.2 1813.4 1202.56 1741.5 1244.61 1741.5 1131.26"/><line class="cls-4" x1="1518.59" y1="932.1" x2="1447.79" y2="890.69"/><line class="cls-4" x1="1518.59" y1="952.8" x2="1447.79" y2="911.39"/><line class="cls-4" x1="1518.59" y1="973.51" x2="1447.79" y2="932.1"/><line class="cls-4" x1="1496.45" y1="981.26" x2="1447.79" y2="952.8"/><line class="cls-4" x1="1329.06" y1="1050.4" x2="1329.06" y2="1161.81"/><line class="cls-4" x1="1457.17" y1="1126.65" x2="1457.17" y2="1238.06"/><line class="cls-4" x1="1554.49" y1="1210.87" x2="1240.99" y2="1027.5"/><polygon class="cls-5" points="1813.4 769.14 1741.5 811.19 1362.99 589.8 1434.89 547.74 1813.4 769.14"/><polygon class="cls-5" points="1741.5 811.19 1813.4 769.14 1813.4 882.49 1741.5 924.54 1741.5 811.19"/><polygon class="cls-6" points="1588.38 1345.12 1966.89 1566.52 1966.89 1132.34 1588.38 910.95 1588.38 1345.12"/><polygon class="cls-7" points="2345.4 1345.12 1966.89 1566.52 1966.89 1132.34 2345.4 910.95 2345.4 1345.12"/><polygon class="cls-8" points="2345.4 910.95 1966.89 1132.34 1588.38 910.95 1966.89 689.56 2345.4 910.95"/><polygon class="cls-4" points="1918.7 1142.97 1815.49 1082.61 1815.49 1195.96 1918.7 1256.33 1918.7 1142.97"/><polygon class="cls-4" points="1937.72 1411.08 1624.22 1227.71 1624.22 1341.06 1937.72 1524.43 1937.72 1411.08"/><polygon class="cls-5" points="2124.73 1360.09 2196.64 1318.03 2196.64 1431.38 2124.73 1473.44 2124.73 1360.09"/><line class="cls-4" x1="1901.82" y1="1160.93" x2="1831.02" y2="1119.52"/><line class="cls-4" x1="1901.82" y1="1181.63" x2="1831.02" y2="1140.22"/><line class="cls-4" x1="1901.82" y1="1202.34" x2="1831.02" y2="1160.93"/><line class="cls-4" x1="1879.68" y1="1210.09" x2="1831.02" y2="1181.63"/><line class="cls-4" x1="1712.29" y1="1279.22" x2="1712.29" y2="1390.63"/><line class="cls-4" x1="1840.41" y1="1355.48" x2="1840.41" y2="1466.89"/><line class="cls-4" x1="1937.72" y1="1439.69" x2="1624.23" y2="1256.32"/><polygon class="cls-5" points="2196.64 997.96 2124.73 1040.02 1746.22 818.63 1818.13 776.57 2196.64 997.96"/><polygon class="cls-5" points="2124.73 1040.02 2196.64 997.96 2196.64 1111.31 2124.73 1153.37 2124.73 1040.02"/><polygon class="cls-9" points="433.6 1406.17 812.11 1627.56 812.11 1193.39 433.6 972 433.6 1406.17"/><polygon class="cls-10" points="1190.62 1406.17 812.11 1627.56 812.11 1193.39 1190.62 972 1190.62 1406.17"/><polygon class="cls-11" points="1190.62 972 812.11 1193.39 433.6 972 812.11 750.6 1190.62 972"/><polygon class="cls-4" points="763.92 1204.02 660.71 1143.65 660.71 1257.01 763.92 1317.37 763.92 1204.02"/><polygon class="cls-4" points="782.95 1472.12 469.45 1288.76 469.45 1402.11 782.95 1585.47 782.95 1472.12"/><polygon class="cls-5" points="969.95 1421.13 1041.86 1379.08 1041.86 1492.43 969.95 1534.48 969.95 1421.13"/><line class="cls-4" x1="747.04" y1="1221.97" x2="676.25" y2="1180.56"/><line class="cls-4" x1="747.04" y1="1242.68" x2="676.25" y2="1201.27"/><line class="cls-4" x1="747.04" y1="1263.38" x2="676.25" y2="1221.97"/><line class="cls-4" x1="724.9" y1="1271.14" x2="676.25" y2="1242.68"/><line class="cls-4" x1="557.52" y1="1340.27" x2="557.52" y2="1451.68"/><line class="cls-4" x1="685.63" y1="1416.52" x2="685.63" y2="1527.94"/><line class="cls-4" x1="782.95" y1="1500.74" x2="469.45" y2="1317.37"/><polygon class="cls-5" points="1041.86 1059.01 969.95 1101.07 591.44 879.67 663.35 837.62 1041.86 1059.01"/><polygon class="cls-5" points="969.95 1101.07 1041.86 1059.01 1041.86 1172.36 969.95 1214.42 969.95 1101.07"/><polygon class="cls-12" points="724.95 1679.44 1582.43 2203.39 2500.63 1675.56 2113.03 1435.31 724.95 1679.44"/><polygon class="cls-13" points="1103.94 1462.4 1482.45 1683.8 1482.45 1249.63 1103.94 1028.23 1103.94 1462.4"/><polygon class="cls-14" points="1860.96 1462.4 1482.45 1683.8 1482.45 1249.63 1860.96 1028.23 1860.96 1462.4"/><polygon class="cls-15" points="1860.96 1028.23 1482.45 1249.63 1103.94 1028.23 1482.45 806.84 1860.96 1028.23"/><polygon class="cls-4" points="1434.26 1260.26 1331.05 1199.89 1331.05 1313.24 1434.26 1373.61 1434.26 1260.26"/><polygon class="cls-4" points="1453.28 1528.36 1139.78 1344.99 1139.78 1458.34 1453.28 1641.71 1453.28 1528.36"/><polygon class="cls-5" points="1640.29 1477.37 1712.19 1435.31 1712.19 1548.66 1640.29 1590.72 1640.29 1477.37"/><line class="cls-4" x1="1417.38" y1="1278.21" x2="1346.58" y2="1236.8"/><line class="cls-4" x1="1417.38" y1="1298.91" x2="1346.58" y2="1257.5"/><line class="cls-4" x1="1417.38" y1="1319.62" x2="1346.58" y2="1278.21"/><line class="cls-4" x1="1395.24" y1="1327.37" x2="1346.58" y2="1298.91"/><line class="cls-4" x1="1227.85" y1="1396.5" x2="1227.85" y2="1507.92"/><line class="cls-4" x1="1355.97" y1="1472.76" x2="1355.97" y2="1584.17"/><line class="cls-4" x1="1453.28" y1="1556.97" x2="1139.78" y2="1373.61"/><polygon class="cls-5" points="1712.19 1115.24 1640.29 1157.3 1261.78 935.91 1333.69 893.85 1712.19 1115.24"/><polygon class="cls-5" points="1640.29 1157.3 1712.19 1115.24 1712.19 1228.6 1640.29 1270.65 1640.29 1157.3"/><polygon class="cls-16" points="720.22 1682.14 1098.73 1903.54 1098.73 1469.37 720.22 1247.97 720.22 1682.14"/><polygon class="cls-17" points="1477.24 1682.14 1098.73 1903.54 1098.73 1469.37 1477.24 1247.97 1477.24 1682.14"/><polygon class="cls-18" points="1477.24 1247.97 1098.73 1469.37 720.22 1247.97 1098.73 1026.58 1477.24 1247.97"/><polygon class="cls-4" points="1050.54 1480 947.33 1419.63 947.33 1532.98 1050.54 1593.35 1050.54 1480"/><polygon class="cls-4" points="1069.56 1748.1 756.07 1564.73 756.07 1678.08 1069.56 1861.45 1069.56 1748.1"/><polygon class="cls-5" points="1256.57 1697.11 1328.48 1655.05 1328.48 1768.4 1256.57 1810.46 1256.57 1697.11"/><line class="cls-4" x1="1033.66" y1="1497.95" x2="962.86" y2="1456.54"/><line class="cls-4" x1="1033.66" y1="1518.65" x2="962.86" y2="1477.24"/><line class="cls-4" x1="1033.66" y1="1539.36" x2="962.86" y2="1497.95"/><line class="cls-4" x1="1011.52" y1="1547.11" x2="962.86" y2="1518.65"/><line class="cls-4" x1="844.13" y1="1616.24" x2="844.13" y2="1727.66"/><line class="cls-4" x1="972.25" y1="1692.5" x2="972.25" y2="1803.91"/><line class="cls-4" x1="1069.56" y1="1776.72" x2="756.06" y2="1593.35"/><polygon class="cls-5" points="1328.48 1334.99 1256.57 1377.04 878.06 1155.65 949.97 1113.59 1328.48 1334.99"/><polygon class="cls-19" points="1256.57 1377.04 1328.48 1334.99 1328.48 1448.34 1256.57 1490.39 1256.57 1377.04"/><polygon class="cls-20" points="1636.58 1658.7 2015.09 1880.09 2015.09 1445.92 1636.58 1224.53 1636.58 1658.7"/><polygon class="cls-21" points="2393.59 1658.7 2015.09 1880.09 2015.09 1445.92 2393.59 1224.53 2393.59 1658.7"/><polygon class="cls-22" points="2393.59 1224.53 2015.09 1445.92 1636.58 1224.53 2015.09 1003.13 2393.59 1224.53"/><polygon class="cls-4" points="1966.89 1456.55 1863.69 1396.18 1863.69 1509.54 1966.89 1569.9 1966.89 1456.55"/><polygon class="cls-4" points="1985.92 1724.65 1672.42 1541.29 1672.42 1654.64 1985.92 1838 1985.92 1724.65"/><polygon class="cls-5" points="2172.93 1673.66 2244.83 1631.61 2244.83 1744.96 2172.93 1787.01 2172.93 1673.66"/><line class="cls-4" x1="1950.02" y1="1474.5" x2="1879.22" y2="1433.09"/><line class="cls-4" x1="1950.02" y1="1495.2" x2="1879.22" y2="1453.8"/><line class="cls-4" x1="1950.02" y1="1515.91" x2="1879.22" y2="1474.5"/><line class="cls-4" x1="1927.88" y1="1523.67" x2="1879.22" y2="1495.2"/><line class="cls-4" x1="1760.49" y1="1592.8" x2="1760.49" y2="1704.21"/><line class="cls-4" x1="1888.6" y1="1669.05" x2="1888.6" y2="1780.46"/><line class="cls-4" x1="1985.92" y1="1753.27" x2="1672.42" y2="1569.9"/><polygon class="cls-5" points="2244.83 1311.54 2172.93 1353.6 1794.42 1132.2 1866.32 1090.14 2244.83 1311.54"/><polygon class="cls-5" points="2172.93 1353.6 2244.83 1311.54 2244.83 1424.89 2172.93 1466.95 2172.93 1353.6"/><polygon class="cls-23" points="437.48 986.87 815.99 1208.27 815.99 774.09 437.48 552.7 437.48 986.87"/><polygon class="cls-24" points="1194.5 986.87 815.99 1208.27 815.99 774.09 1194.5 552.7 1194.5 986.87"/><polygon class="cls-25" points="1194.47 552.7 1068.97 626.14 816.02 774.1 563.06 626.14 437.49 552.7 816.02 331.3 1194.47 552.7"/><polygon class="cls-4" points="767.79 784.73 664.59 724.36 664.59 837.71 767.79 898.08 767.79 784.73"/><polygon class="cls-4" points="786.82 1052.83 473.32 869.46 473.32 982.81 786.82 1166.18 786.82 1052.83"/><line class="cls-26" x1="750.92" y1="802.68" x2="680.12" y2="761.27"/><line class="cls-26" x1="750.92" y1="823.38" x2="680.12" y2="781.97"/><line class="cls-26" x1="750.92" y1="844.09" x2="680.12" y2="802.68"/><line class="cls-26" x1="728.78" y1="851.84" x2="680.12" y2="823.38"/><line class="cls-27" x1="561.39" y1="920.97" x2="561.39" y2="1032.39"/><line class="cls-27" x1="689.51" y1="997.23" x2="689.51" y2="1108.64"/><line class="cls-27" x1="786.82" y1="1081.44" x2="473.32" y2="898.08"/><polygon class="cls-5" points="973.83 1001.84 1045.73 959.78 1045.73 1073.13 973.83 1115.19 973.83 1001.84"/><polygon class="cls-28" points="893.27 928.98 815.99 774.09 1194.5 552.7 1271.78 707.59 893.27 928.98"/><polygon class="cls-29" points="363.41 676.68 437.48 552.7 815.99 774.09 741.92 898.08 363.41 676.68"/><polygon class="cls-30" points="1194.5 552.7 1328.57 530.8 950.06 309.41 815.99 331.31 1194.5 552.7"/><polygon class="cls-31" points="439.18 552.7 305.1 530.8 683.61 309.41 817.68 331.31 439.18 552.7"/><polygon class="cls-32" points="1194.47 552.7 817.69 774.1 817.69 773.15 1068.97 626.14 817.69 479.12 817.69 331.3 1194.47 552.7"/><polygon class="cls-33" points="1068.97 626.14 817.69 773.15 817.69 479.12 1068.97 626.14"/><path class="cls-34" d="M891.92,933.51a4.69,4.69,0,0,1-2.88-2.42L820.71,794.15v36.59L886.58,953.3l303.19-170.83V761l-294.12,172A4.69,4.69,0,0,1,891.92,933.51Z"/><polygon class="cls-35" points="1068.97 626.14 817.69 773.15 816.02 774.1 563.06 626.14 816.02 478.17 817.69 479.12 1068.97 626.14"/><polygon class="cls-5" points="983.49 676.14 917.55 714.71 664.59 566.75 730.53 528.18 983.49 676.14"/><polygon class="cls-36" points="849.34 1205.52 1227.85 1426.91 1227.85 992.74 849.34 771.35 849.34 1205.52"/><polygon class="cls-37" points="1606.36 1205.52 1227.85 1426.91 1227.85 992.74 1606.36 771.35 1606.36 1205.52"/><polygon class="cls-38" points="1606.36 771.35 1227.85 992.74 849.34 771.35 1227.85 549.95 1606.36 771.35"/><polygon class="cls-4" points="1179.66 1003.37 1076.45 943 1076.45 1056.36 1179.66 1116.72 1179.66 1003.37"/><polygon class="cls-4" points="1198.69 1271.47 885.19 1088.11 885.19 1201.46 1198.69 1384.82 1198.69 1271.47"/><polygon class="cls-5" points="1385.69 1220.48 1457.6 1178.43 1457.6 1291.78 1385.69 1333.84 1385.69 1220.48"/><line class="cls-4" x1="1162.78" y1="1021.32" x2="1091.99" y2="979.91"/><line class="cls-4" x1="1162.78" y1="1042.03" x2="1091.99" y2="1000.62"/><line class="cls-4" x1="1162.78" y1="1062.73" x2="1091.99" y2="1021.32"/><line class="cls-4" x1="1140.65" y1="1070.49" x2="1091.99" y2="1042.03"/><line class="cls-4" x1="973.26" y1="1139.62" x2="973.26" y2="1251.03"/><line class="cls-4" x1="1101.37" y1="1215.87" x2="1101.37" y2="1327.29"/><line class="cls-4" x1="1198.69" y1="1300.09" x2="885.19" y2="1116.72"/><polygon class="cls-5" points="1457.6 858.36 1385.69 900.42 1007.18 679.02 1079.09 636.97 1457.6 858.36"/><polygon class="cls-5" points="1385.69 900.42 1457.6 858.36 1457.6 971.71 1385.69 1013.77 1385.69 900.42"/><polygon class="cls-39" points="1261 1881.82 1639.51 2103.21 1639.51 1669.04 1261 1447.64 1261 1881.82"/><polygon class="cls-40" points="2018.02 1881.82 1639.51 2103.21 1639.51 1669.04 2018.02 1447.64 2018.02 1881.82"/><polygon class="cls-41" points="2018.02 1447.64 1639.51 1669.04 1261 1447.64 1639.51 1226.25 2018.02 1447.64"/><polygon class="cls-4" points="1591.31 1679.67 1488.11 1619.3 1488.11 1732.65 1591.31 1793.02 1591.31 1679.67"/><polygon class="cls-4" points="1610.34 1947.77 1296.84 1764.4 1296.84 1877.76 1610.34 2061.12 1610.34 1947.77"/><polygon class="cls-5" points="1797.35 1896.78 1869.25 1854.72 1869.25 1968.08 1797.35 2010.13 1797.35 1896.78"/><line class="cls-4" x1="1574.44" y1="1697.62" x2="1503.64" y2="1656.21"/><line class="cls-4" x1="1574.44" y1="1718.32" x2="1503.64" y2="1676.91"/><line class="cls-4" x1="1574.44" y1="1739.03" x2="1503.64" y2="1697.62"/><line class="cls-4" x1="1552.3" y1="1746.78" x2="1503.64" y2="1718.32"/><line class="cls-4" x1="1384.91" y1="1815.92" x2="1384.91" y2="1927.33"/><line class="cls-4" x1="1513.03" y1="1892.17" x2="1513.03" y2="2003.58"/><line class="cls-4" x1="1610.34" y1="1976.39" x2="1296.84" y2="1793.02"/><polygon class="cls-5" points="1869.25 1534.66 1797.35 1576.71 1418.84 1355.32 1490.74 1313.26 1869.25 1534.66"/><polygon class="cls-5" points="1797.35 1576.71 1869.25 1534.66 1869.25 1648.01 1797.35 1690.07 1797.35 1576.71"/><polygon class="cls-42" points="1264.69 1414.69 1643.2 1636.08 1643.2 1201.91 1264.69 980.52 1264.69 1414.69"/><polygon class="cls-43" points="2021.71 1414.69 1643.2 1636.08 1643.2 1201.91 2021.71 980.52 2021.71 1414.69"/><polygon class="cls-44" points="2021.68 980.51 1896.18 1053.95 1643.22 1201.92 1390.27 1053.95 1264.7 980.51 1643.22 759.11 2021.68 980.51"/><polygon class="cls-4" points="1595 1212.54 1491.8 1152.17 1491.8 1265.53 1595 1325.89 1595 1212.54"/><polygon class="cls-4" points="1614.03 1480.64 1300.53 1297.28 1300.53 1410.63 1614.03 1593.99 1614.03 1480.64"/><line class="cls-26" x1="1578.13" y1="1230.49" x2="1507.33" y2="1189.08"/><line class="cls-26" x1="1578.13" y1="1251.2" x2="1507.33" y2="1209.79"/><line class="cls-26" x1="1578.13" y1="1271.9" x2="1507.33" y2="1230.49"/><line class="cls-26" x1="1555.99" y1="1279.66" x2="1507.33" y2="1251.2"/><line class="cls-27" x1="1388.6" y1="1348.79" x2="1388.6" y2="1460.2"/><line class="cls-27" x1="1516.72" y1="1425.04" x2="1516.72" y2="1536.46"/><line class="cls-27" x1="1614.03" y1="1509.26" x2="1300.53" y2="1325.89"/><polygon class="cls-5" points="1801.04 1429.65 1872.94 1387.6 1872.94 1500.95 1801.04 1543.01 1801.04 1429.65"/><polygon class="cls-45" points="1720.47 1356.8 1643.2 1201.91 2021.71 980.52 2098.98 1135.4 1720.47 1356.8"/><polygon class="cls-46" points="1190.62 1104.5 1264.69 980.52 1643.2 1201.91 1569.13 1325.89 1190.62 1104.5"/><polygon class="cls-47" points="2021.71 980.52 2155.78 958.62 1777.27 737.22 1643.2 759.12 2021.71 980.52"/><polygon class="cls-48" points="1266.38 980.52 1132.31 958.62 1510.82 737.22 1644.89 759.12 1266.38 980.52"/><polygon class="cls-49" points="2021.68 980.51 1644.9 1201.92 1644.9 1200.97 1896.18 1053.95 1644.9 906.93 1644.9 759.11 2021.68 980.51"/><polygon class="cls-50" points="1896.18 1053.95 1644.9 1200.97 1644.9 906.93 1896.18 1053.95"/><path class="cls-34" d="M1719.13,1361.32a4.67,4.67,0,0,1-2.88-2.41L1647.92,1222v36.58l65.87,122.56L2017,1210.28v-21.44l-294.12,172A4.69,4.69,0,0,1,1719.13,1361.32Z"/><polygon class="cls-51" points="1896.18 1053.95 1644.9 1200.97 1643.22 1201.92 1390.27 1053.95 1643.22 905.99 1644.9 906.93 1896.18 1053.95"/><polygon class="cls-5" points="1810.7 1103.95 1744.76 1142.53 1491.8 994.56 1557.74 955.99 1810.7 1103.95"/><polygon class="cls-52" points="1861.31 675.58 1816.42 701.38 1816.42 1027.94 1861.31 1002.14 1861.31 675.58"/><polygon class="cls-53" points="1776.12 628.42 1731.23 654.22 1816.42 701.38 1861.31 675.58 1776.12 628.42"/><polygon class="cls-54" points="1871.48 735.44 1773.83 521.39 1676.17 634.19 1731.23 662.73 1731.23 980.78 1816.42 1027.94 1816.42 706.9 1871.48 735.44"/><polygon class="cls-55" points="1910.14 713.82 1812.49 499.77 1773.83 521.39 1871.48 735.44 1910.14 713.82"/><polygon class="cls-56" points="1475.13 783.17 1539.63 747.76 1500.44 726.08 1435.94 761.5 1475.13 783.17"/><polygon class="cls-57" points="1611.67 499.77 1565.27 526.85 1565.27 838.33 1611.67 811.25 1611.67 499.77"/><polygon class="cls-58" points="1521.52 448.26 1475.12 475.34 1565.27 526.85 1611.67 499.77 1521.52 448.26"/><polygon class="cls-59" points="1565.27 836.68 1565.27 526.86 1475.12 475.34 1475.12 784 1435.94 761.1 1520.2 934.72 1604.45 859.58 1565.27 836.68"/><polygon class="cls-60" points="1604.45 858.35 1650.86 832.92 1611.67 811.25 1565.27 836.68 1604.45 858.35"/><polygon class="cls-61" points="1650.86 835.46 1566.6 911.82 1520.2 934.72 1604.45 858.35 1650.86 835.46"/><polygon class="cls-62" points="1110.39 227.32 1065.5 253.12 1065.5 579.68 1110.39 553.88 1110.39 227.32"/><polygon class="cls-63" points="1025.2 180.16 980.31 205.96 1065.5 253.12 1110.39 227.32 1025.2 180.16"/><polygon class="cls-64" points="1120.56 287.18 1022.91 73.13 925.25 185.93 980.31 214.47 980.31 532.52 1065.5 579.68 1065.5 258.64 1120.56 287.18"/><polygon class="cls-65" points="1159.22 265.56 1061.57 51.51 1022.91 73.13 1120.56 287.18 1159.22 265.56"/><polygon class="cls-66" points="724.21 334.92 788.71 299.5 749.52 277.83 685.03 313.24 724.21 334.92"/><polygon class="cls-67" points="860.75 51.51 814.35 78.6 814.35 390.08 860.75 362.99 860.75 51.51"/><polygon class="cls-68" points="770.61 0 724.2 27.08 814.35 78.6 860.75 51.51 770.61 0"/><polygon class="cls-69" points="814.35 388.42 814.35 78.6 724.2 27.08 724.2 335.74 685.03 312.84 769.28 486.46 853.53 411.32 814.35 388.42"/><polygon class="cls-70" points="853.53 410.1 899.94 384.67 860.75 362.99 814.35 388.42 853.53 410.1"/><polygon class="cls-71" points="899.94 387.2 815.68 463.56 769.28 486.46 853.53 410.1 899.94 387.2"/><polygon class="cls-72" points="726.83 1322.08 706 1335.39 93.23 983.61 114.05 970.29 726.83 1322.08"/><polygon class="cls-73" points="706 1335.39 706 1849.01 93.23 1497.21 93.23 983.61 706 1335.39"/><polygon class="cls-74" points="726.83 1322.08 726.83 1835.69 706 1849.01 706 1335.39 726.83 1322.08"/><line class="cls-75" x1="448.25" y1="1282.27" x2="650.3" y2="1396.86"/><line class="cls-75" x1="448.25" y1="1314.17" x2="650.3" y2="1428.75"/><line class="cls-75" x1="448.25" y1="1346.06" x2="650.3" y2="1460.64"/><line class="cls-75" x1="448.25" y1="1377.95" x2="650.3" y2="1492.53"/><line class="cls-76" x1="284.28" y1="1161.61" x2="391.47" y2="1222.4"/><line class="cls-76" x1="284.28" y1="1194.71" x2="391.47" y2="1255.5"/><line class="cls-76" x1="284.28" y1="1227.81" x2="391.47" y2="1288.6"/><line class="cls-76" x1="284.28" y1="1260.91" x2="391.47" y2="1321.7"/><line class="cls-76" x1="146.16" y1="1215.68" x2="391.47" y2="1354.8"/><line class="cls-76" x1="146.16" y1="1248.78" x2="391.47" y2="1387.9"/><line class="cls-76" x1="146.16" y1="1281.88" x2="391.47" y2="1421"/><polygon class="cls-77" points="633.6 1487.74 612.77 1501.05 0 1149.27 20.82 1135.95 633.6 1487.74"/><polygon class="cls-78" points="612.77 1501.05 612.77 2014.66 0 1662.87 0 1149.27 612.77 1501.05"/><polygon class="cls-79" points="633.6 1487.74 633.6 2001.35 612.77 2014.66 612.77 1501.05 633.6 1487.74"/><polygon class="cls-80" points="31.56 1206.43 276.87 1345.55 276.87 1533.23 31.56 1394.11 31.56 1206.43"/><line class="cls-75" x1="366.23" y1="1408.2" x2="582.36" y2="1532.28"/><line class="cls-75" x1="322.82" y1="1417.52" x2="582.36" y2="1566.52"/><line class="cls-75" x1="322.82" y1="1451.75" x2="582.36" y2="1600.75"/><line class="cls-75" x1="322.82" y1="1485.99" x2="582.36" y2="1634.99"/><line class="cls-75" x1="322.82" y1="1520.23" x2="582.36" y2="1669.23"/><line class="cls-75" x1="322.82" y1="1554.46" x2="549.28" y2="1684.47"/><line class="cls-75" x1="74.97" y1="1474.96" x2="575.29" y2="1763.71"/><line class="cls-75" x1="31.56" y1="1484.27" x2="575.29" y2="1797.94"/><line class="cls-75" x1="31.56" y1="1518.51" x2="575.29" y2="1832.18"/><line class="cls-75" x1="31.56" y1="1552.75" x2="575.29" y2="1866.42"/><line class="cls-75" x1="31.56" y1="1586.98" x2="575.29" y2="1900.65"/><line class="cls-75" x1="31.56" y1="1621.22" x2="542.21" y2="1915.9"/><polygon class="cls-81" points="459.49 1658.34 440.21 1672.34 397.19 1527.42 416.48 1513.43 459.49 1658.34"/><polygon class="cls-82" points="658.34 1765.88 639.06 1779.7 440.21 1672.34 459.49 1658.34 658.34 1765.88"/><polygon class="cls-83" points="658.34 1765.88 652.2 2081.65 632.91 2095.48 633.42 2070.55 639.06 1779.7 658.34 1765.88"/><polygon class="cls-84" points="639.06 1779.7 633.42 2070.55 632.91 2095.48 53.77 1754.95 58.38 1334.54 77.32 1345.3 397.19 1527.42 440.21 1672.34 639.06 1779.7"/><polygon class="cls-85" points="416.48 1513.43 397.19 1527.42 77.32 1345.3 58.38 1334.54 77.66 1320.72 416.48 1513.43"/></g></g></svg>