<svg xmlns="http://www.w3.org/2000/svg" xmlns:xlink="http://www.w3.org/1999/xlink" viewBox="0 0 2509.27 1934.62"><defs><style>.cls-1{mask:url(#mask);filter:url(#luminosity-noclip-4);}.cls-2,.cls-4,.cls-6{mix-blend-mode:multiply;}.cls-2{fill:url(#linear-gradient);}.cls-3{mask:url(#mask-2);filter:url(#luminosity-noclip-5);}.cls-4{fill:url(#linear-gradient-2);}.cls-5{mask:url(#mask-3);filter:url(#luminosity-noclip-6);}.cls-6{fill:url(#linear-gradient-3);}.cls-7{mask:url(#mask-4);}.cls-10,.cls-12,.cls-19,.cls-8{opacity:0.26;}.cls-8{fill:url(#linear-gradient-4);}.cls-9{mask:url(#mask-5);}.cls-10{fill:url(#linear-gradient-5);}.cls-11{mask:url(#mask-6);}.cls-12{fill:url(#linear-gradient-6);}.cls-13{isolation:isolate;}.cls-14{fill:#c18c4d;}.cls-15{fill:#efc49a;}.cls-16{fill:#9b6b2c;}.cls-17{fill:#d3a479;}.cls-18{fill:#775124;}.cls-19{fill:url(#linear-gradient-7);}.cls-20{fill:#efae52;}.cls-21{fill:#ffd097;}.cls-22{fill:#d3993c;}.cls-23{opacity:0.67;}.cls-24,.cls-25{fill:#fff;}.cls-25{opacity:0.5;}.cls-26{fill:#aa7322;}.cls-27{fill:url(#linear-gradient-8);}.cls-28{fill:url(#linear-gradient-9);}.cls-29{fill:url(#linear-gradient-10);}.cls-30{fill:url(#linear-gradient-11);}.cls-31{fill:url(#linear-gradient-12);}.cls-32{fill:url(#linear-gradient-13);}.cls-33{fill:#c7c9c7;}.cls-34{fill:url(#linear-gradient-14);}.cls-35{fill:url(#linear-gradient-15);}.cls-36{fill:url(#linear-gradient-16);}.cls-37{fill:url(#linear-gradient-17);}.cls-38{fill:url(#linear-gradient-18);}.cls-39{fill:url(#linear-gradient-19);}.cls-40{fill:url(#linear-gradient-20);}.cls-41{fill:url(#linear-gradient-21);}.cls-42{fill:url(#linear-gradient-22);}.cls-43{fill:url(#linear-gradient-23);}.cls-44{fill:url(#linear-gradient-24);}.cls-45{fill:url(#linear-gradient-25);}.cls-46{fill:url(#linear-gradient-26);}.cls-47{fill:url(#linear-gradient-27);}.cls-48{fill:url(#linear-gradient-28);}.cls-49{fill:url(#linear-gradient-29);}.cls-50,.cls-51{fill:none;stroke-miterlimit:10;stroke-width:9px;}.cls-50{stroke:#a2a3a2;}.cls-51{stroke:#c6c6c6;}.cls-52{fill:url(#linear-gradient-30);}.cls-53{fill:url(#linear-gradient-31);}.cls-54{fill:url(#linear-gradient-32);}.cls-55{fill:url(#linear-gradient-33);}.cls-56{fill:url(#linear-gradient-34);}.cls-57{fill:url(#linear-gradient-35);}.cls-58{fill:url(#linear-gradient-36);}.cls-59{fill:url(#linear-gradient-37);}.cls-60{fill:url(#linear-gradient-38);}.cls-61{fill:url(#linear-gradient-39);}.cls-62{filter:url(#luminosity-noclip-3);}.cls-63{filter:url(#luminosity-noclip-2);}.cls-64{filter:url(#luminosity-noclip);}</style><filter id="luminosity-noclip" x="19.76" y="-9148.05" width="518.86" height="32766" filterUnits="userSpaceOnUse" color-interpolation-filters="sRGB"><feFlood flood-color="#fff" result="bg"/><feBlend in="SourceGraphic" in2="bg"/></filter><mask id="mask" x="19.76" y="-9148.05" width="518.86" height="32766" maskUnits="userSpaceOnUse"><g class="cls-64"/></mask><linearGradient id="linear-gradient" x1="204.42" y1="1785.65" x2="401.33" y2="1937.2" gradientUnits="userSpaceOnUse"><stop offset="0" stop-color="#fff"/><stop offset="1" stop-color="#1a1a1a"/></linearGradient><filter id="luminosity-noclip-2" x="391.26" y="-9148.05" width="977.17" height="32766" filterUnits="userSpaceOnUse" color-interpolation-filters="sRGB"><feFlood flood-color="#fff" result="bg"/><feBlend in="SourceGraphic" in2="bg"/></filter><mask id="mask-2" x="391.26" y="-9148.05" width="977.17" height="32766" maskUnits="userSpaceOnUse"><g class="cls-63"/></mask><linearGradient id="linear-gradient-2" x1="751.27" y1="1382.7" x2="1089.87" y2="1643.31" xlink:href="#linear-gradient"/><filter id="luminosity-noclip-3" x="700.05" y="-9148.05" width="1809.22" height="32766" filterUnits="userSpaceOnUse" color-interpolation-filters="sRGB"><feFlood flood-color="#fff" result="bg"/><feBlend in="SourceGraphic" in2="bg"/></filter><mask id="mask-3" x="700.05" y="-9148.05" width="1809.22" height="32766" maskUnits="userSpaceOnUse"><g class="cls-62"/></mask><linearGradient id="linear-gradient-3" x1="1345.35" y1="684.21" x2="2028.23" y2="1209.78" xlink:href="#linear-gradient"/><filter id="luminosity-noclip-4" x="19.76" y="1751.77" width="518.86" height="182.85" filterUnits="userSpaceOnUse" color-interpolation-filters="sRGB"><feFlood flood-color="#fff" result="bg"/><feBlend in="SourceGraphic" in2="bg"/></filter><mask id="mask-4" x="19.76" y="1751.77" width="518.86" height="182.85" maskUnits="userSpaceOnUse"><g class="cls-1"><ellipse class="cls-2" cx="279.19" cy="1843.2" rx="259.43" ry="91.43"/></g></mask><linearGradient id="linear-gradient-4" x1="204.42" y1="1785.65" x2="401.33" y2="1937.2" gradientUnits="userSpaceOnUse"><stop offset="0" stop-color="#303030"/><stop offset="1" stop-color="#231a1a"/></linearGradient><filter id="luminosity-noclip-5" x="391.26" y="1201.91" width="977.17" height="459.72" filterUnits="userSpaceOnUse" color-interpolation-filters="sRGB"><feFlood flood-color="#fff" result="bg"/><feBlend in="SourceGraphic" in2="bg"/></filter><mask id="mask-5" x="391.26" y="1201.91" width="977.17" height="459.72" maskUnits="userSpaceOnUse"><g class="cls-3"><polygon class="cls-4" points="951.41 1201.91 1368.43 1447.55 1101.2 1633.58 682.42 1661.63 391.26 1515.78 951.41 1201.91"/></g></mask><linearGradient id="linear-gradient-5" x1="751.27" y1="1382.7" x2="1089.87" y2="1643.31" xlink:href="#linear-gradient-4"/><filter id="luminosity-noclip-6" x="700.05" y="674.24" width="1809.22" height="694.48" filterUnits="userSpaceOnUse" color-interpolation-filters="sRGB"><feFlood flood-color="#fff" result="bg"/><feBlend in="SourceGraphic" in2="bg"/></filter><mask id="mask-6" x="700.05" y="674.24" width="1809.22" height="694.48" maskUnits="userSpaceOnUse"><g class="cls-5"><polygon class="cls-6" points="731.97 822.32 2092.25 674.24 2250.55 752.66 2509.27 919.88 1764.86 1368.72 1477.93 1311.09 700.05 847.69 731.97 822.32"/></g></mask><linearGradient id="linear-gradient-6" x1="1345.35" y1="684.21" x2="2028.23" y2="1209.78" xlink:href="#linear-gradient-4"/><linearGradient id="linear-gradient-7" x1="13483.8" y1="826.68" x2="14586.4" y2="826.68" gradientTransform="matrix(-1, 0, 0, 1, 15476.58, 0)" xlink:href="#linear-gradient-4"/><linearGradient id="linear-gradient-8" x1="1158.32" y1="804.68" x2="1061.1" y2="412.3" gradientUnits="userSpaceOnUse"><stop offset="0" stop-color="#303030"/><stop offset="1" stop-color="#4c4a4b"/></linearGradient><linearGradient id="linear-gradient-9" x1="941.95" y1="561.49" x2="1234.55" y2="561.49" xlink:href="#linear-gradient-8"/><linearGradient id="linear-gradient-10" x1="1035.32" y1="259.94" x2="1066.24" y2="259.94" gradientUnits="userSpaceOnUse"><stop offset="0" stop-color="#a0570e"/><stop offset="1" stop-color="#f79c45"/></linearGradient><linearGradient id="linear-gradient-11" x1="1063.94" y1="275.78" x2="1093.57" y2="275.78" xlink:href="#linear-gradient-10"/><linearGradient id="linear-gradient-12" x1="1062.38" y1="295.01" x2="1129.22" y2="295.01" xlink:href="#linear-gradient-10"/><linearGradient id="linear-gradient-13" x1="1031.6" y1="297.74" x2="1119.84" y2="297.74" gradientUnits="userSpaceOnUse"><stop offset="0" stop-color="#f9bf1e"/><stop offset="1" stop-color="#f79c45"/></linearGradient><linearGradient id="linear-gradient-14" x1="1399.87" y1="4228.3" x2="1443.38" y2="4228.3" gradientTransform="matrix(1, 0.57, 0, 1.04, -423.81, -4779.77)" gradientUnits="userSpaceOnUse"><stop offset="0" stop-color="#82fb7c"/><stop offset="1" stop-color="#0ba2b3"/></linearGradient><linearGradient id="linear-gradient-15" x1="1399.86" y1="4304.84" x2="1443.38" y2="4304.84" xlink:href="#linear-gradient-14"/><linearGradient id="linear-gradient-16" x1="1399.86" y1="4381.39" x2="1443.37" y2="4381.39" xlink:href="#linear-gradient-14"/><linearGradient id="linear-gradient-17" x1="1399.86" y1="4457.94" x2="1443.37" y2="4457.94" xlink:href="#linear-gradient-14"/><linearGradient id="linear-gradient-18" x1="991.68" y1="1410.26" x2="1071.65" y2="1410.26" gradientUnits="userSpaceOnUse"><stop offset="0" stop-color="#303030"/><stop offset="1" stop-color="#727272"/></linearGradient><linearGradient id="linear-gradient-19" x1="1012.08" y1="1417.4" x2="1081.82" y2="1417.4" xlink:href="#linear-gradient-8"/><linearGradient id="linear-gradient-20" x1="1027.63" y1="1417.46" x2="1071.02" y2="1417.46" gradientUnits="userSpaceOnUse"><stop offset="0" stop-color="#303030"/><stop offset="1" stop-color="#3c3c3c"/></linearGradient><linearGradient id="linear-gradient-21" x1="1045.7" y1="1382.46" x2="1042.03" y2="1440.48" gradientUnits="userSpaceOnUse"><stop offset="0" stop-color="#3f3f3f"/><stop offset="1" stop-color="#727272"/></linearGradient><linearGradient id="linear-gradient-22" x1="1035.28" y1="1414.22" x2="1055.88" y2="1414.22" xlink:href="#linear-gradient-4"/><linearGradient id="linear-gradient-23" x1="1040.53" y1="1416.05" x2="1058.5" y2="1416.05" xlink:href="#linear-gradient-21"/><linearGradient id="linear-gradient-24" x1="687.06" y1="1571.98" x2="767.02" y2="1571.98" xlink:href="#linear-gradient-18"/><linearGradient id="linear-gradient-25" x1="707.45" y1="1579.12" x2="777.19" y2="1579.12" xlink:href="#linear-gradient-8"/><linearGradient id="linear-gradient-26" x1="723" y1="1579.19" x2="766.39" y2="1579.19" xlink:href="#linear-gradient-20"/><linearGradient id="linear-gradient-27" x1="741.07" y1="1544.18" x2="737.4" y2="1602.21" xlink:href="#linear-gradient-21"/><linearGradient id="linear-gradient-28" x1="730.65" y1="1575.94" x2="751.25" y2="1575.94" xlink:href="#linear-gradient-4"/><linearGradient id="linear-gradient-29" x1="735.9" y1="1577.78" x2="753.87" y2="1577.78" xlink:href="#linear-gradient-21"/><linearGradient id="linear-gradient-30" x1="12100.53" y1="1788.11" x2="11988.33" y2="1795.09" gradientTransform="matrix(-1, 0, 0, 1, 12173.64, 0)" xlink:href="#linear-gradient-8"/><linearGradient id="linear-gradient-31" x1="11935.81" y1="1862.85" x2="11793.42" y2="1871.71" gradientTransform="matrix(-1, 0, 0, 1, 12173.64, 0)" xlink:href="#linear-gradient-8"/><linearGradient id="linear-gradient-32" x1="11969.84" y1="1539.27" x2="12122.68" y2="1539.27" gradientTransform="matrix(-1, 0, 0, 1, 12173.64, 0)" xlink:href="#linear-gradient-8"/><linearGradient id="linear-gradient-33" x1="12166.88" y1="971.6" x2="12094.06" y2="987.62" gradientTransform="matrix(-1, 0, 0, 1, 12173.64, 0)" xlink:href="#linear-gradient-13"/><linearGradient id="linear-gradient-34" x1="11948.8" y1="905.47" x2="11921.3" y2="725.36" gradientTransform="matrix(-1, 0, 0, 1, 12173.64, 0)" gradientUnits="userSpaceOnUse"><stop offset="0" stop-color="#de8b8b"/><stop offset="1" stop-color="#ffc5c5"/></linearGradient><linearGradient id="linear-gradient-35" x1="11955.22" y1="824.16" x2="11933.86" y2="684.28" gradientTransform="matrix(-1, 0, 0, 1, 12173.64, 0)" xlink:href="#linear-gradient-8"/><linearGradient id="linear-gradient-36" x1="12092.14" y1="1112.86" x2="11829.49" y2="1129.19" gradientTransform="matrix(-1, 0, 0, 1, 12173.64, 0)" xlink:href="#linear-gradient-13"/><linearGradient id="linear-gradient-37" x1="11753.81" y1="1076.83" x2="11803.33" y2="1138.73" gradientTransform="matrix(-1, 0, 0, 1, 12173.64, 0)" xlink:href="#linear-gradient-13"/><linearGradient id="linear-gradient-38" x1="11841.04" y1="1604.52" x2="12016.95" y2="1604.52" gradientTransform="matrix(-1, 0, 0, 1, 12173.64, 0)" xlink:href="#linear-gradient-8"/><linearGradient id="linear-gradient-39" x1="596.82" y1="1092.79" x2="526.81" y2="1097.14" gradientTransform="matrix(1, 0, 0, 1, 0, 0)" xlink:href="#linear-gradient-34"/></defs><g id="Livello_2" data-name="Livello 2"><g id="Layer_4" data-name="Layer 4"><g class="cls-7"><ellipse class="cls-8" cx="279.19" cy="1843.2" rx="259.43" ry="91.43"/></g><g class="cls-9"><polygon class="cls-10" points="951.41 1201.91 1368.43 1447.55 1101.2 1633.58 682.42 1661.63 391.26 1515.78 951.41 1201.91"/></g><g class="cls-11"><polygon class="cls-12" points="731.97 822.32 2092.25 674.24 2250.55 752.66 2509.27 919.88 1764.86 1368.72 1477.93 1311.09 700.05 847.69 731.97 822.32"/></g><g class="cls-13"><polygon class="cls-14" points="1524.7 1282.76 1627.38 1221.88 1627.53 1195.29 1524.85 1256.17 1524.7 1282.76"/><polygon class="cls-15" points="1524.85 1256.17 1627.53 1195.29 834.81 734.85 732.12 795.73 1524.85 1256.17"/><polygon class="cls-16" points="732.12 795.73 731.97 822.32 1524.7 1282.76 1524.85 1256.17 732.12 795.73"/></g><g class="cls-13"><polygon class="cls-14" points="2147.71 927.07 2250.4 866.18 2250.55 839.6 2147.86 900.48 2147.71 927.07"/><polygon class="cls-15" points="2147.86 900.48 2250.55 839.6 1457.82 379.15 1355.13 440.04 2147.86 900.48"/><polygon class="cls-16" points="1355.13 440.04 1354.98 466.63 2147.71 927.07 2147.86 900.48 1355.13 440.04"/></g><g class="cls-13"><polygon class="cls-14" points="1525.73 1261.08 1468.1 1226.78 1467.95 1100.65 1525.58 1134.94 1525.73 1261.08"/><polygon class="cls-17" points="1525.58 1134.94 1467.95 1100.65 2192.92 681.15 2250.55 715.45 1525.58 1134.94"/><polygon class="cls-18" points="2250.55 715.45 2250.7 841.58 1525.73 1261.08 1525.58 1134.94 2250.55 715.45"/></g><g class="cls-13"><polygon class="cls-14" points="1157.74 1046.02 1100.11 1011.72 1099.96 885.59 1157.59 919.88 1157.74 1046.02"/><polygon class="cls-17" points="1157.59 919.88 1099.96 885.59 1824.93 466.09 1882.56 500.39 1157.59 919.88"/><polygon class="cls-18" points="1882.56 500.39 1882.71 626.52 1157.74 1046.02 1157.59 919.88 1882.56 500.39"/></g><g class="cls-13"><polygon class="cls-14" points="789.75 830.96 732.12 796.66 731.97 670.53 789.6 704.82 789.75 830.96"/><polygon class="cls-17" points="789.6 704.82 731.97 670.53 1456.94 251.03 1514.57 285.33 789.6 704.82"/><polygon class="cls-18" points="1514.57 285.33 1514.72 411.46 789.75 830.96 789.6 704.82 1514.57 285.33"/></g><g class="cls-13"><polygon class="cls-14" points="1524.7 1134.94 1627.38 1074.06 1627.53 1047.47 1524.85 1108.35 1524.7 1134.94"/><polygon class="cls-15" points="1524.85 1108.35 1627.53 1047.47 834.81 587.03 732.12 647.91 1524.85 1108.35"/><polygon class="cls-16" points="732.12 647.91 731.97 674.5 1524.7 1134.94 1524.85 1108.35 732.12 647.91"/></g><g class="cls-13"><polygon class="cls-14" points="1682.99 1046.02 1785.68 985.14 1785.83 958.55 1683.14 1019.43 1682.99 1046.02"/><polygon class="cls-15" points="1683.14 1019.43 1785.83 958.55 993.1 498.11 890.41 558.99 1683.14 1019.43"/><polygon class="cls-16" points="890.41 558.99 890.26 585.58 1682.99 1046.02 1683.14 1019.43 890.41 558.99"/></g><g class="cls-13"><polygon class="cls-14" points="1841.28 957.09 1943.97 896.21 1944.12 869.62 1841.43 930.5 1841.28 957.09"/><polygon class="cls-15" points="1841.43 930.5 1944.12 869.62 1151.39 409.18 1048.71 470.06 1841.43 930.5"/><polygon class="cls-16" points="1048.71 470.06 1048.56 496.65 1841.28 957.09 1841.43 930.5 1048.71 470.06"/></g><g class="cls-13"><polygon class="cls-14" points="1989.42 868.17 2092.1 807.29 2092.25 780.7 1989.57 841.58 1989.42 868.17"/><polygon class="cls-15" points="1989.57 841.58 2092.25 780.7 1299.53 320.26 1196.84 381.14 1989.57 841.58"/><polygon class="cls-16" points="1196.84 381.14 1196.69 407.73 1989.42 868.17 1989.57 841.58 1196.84 381.14"/></g><g class="cls-13"><polygon class="cls-14" points="2147.71 779.25 2250.4 718.36 2250.55 691.77 2147.86 752.66 2147.71 779.25"/><polygon class="cls-15" points="2147.86 752.66 2250.55 691.77 1457.82 231.33 1355.13 292.22 2147.86 752.66"/><polygon class="cls-16" points="1355.13 292.22 1354.98 318.8 2147.71 779.25 2147.86 752.66 1355.13 292.22"/></g><polygon class="cls-19" points="1971.91 697.36 1175.69 601.72 890.18 751.67 1401.89 1051.64 1992.78 709.33 1971.91 697.36"/><g class="cls-13"><polygon class="cls-20" points="1526.41 691.58 1736.83 566.23 1736.83 346.08 1526.41 471.42 1526.41 691.58"/><polygon class="cls-21" points="1526.41 471.42 1736.83 346.08 1521.63 223.04 1311.21 348.38 1526.41 471.42"/><polygon class="cls-22" points="1311.21 348.38 1311.21 568.53 1526.41 691.58 1526.41 471.42 1311.21 348.38"/></g><g class="cls-23"><polygon class="cls-24" points="1609.8 422.9 1653.44 396.91 1438.24 273.86 1394.61 299.86 1609.8 422.9"/></g><polygon class="cls-25" points="1653.44 461.12 1609.8 487.11 1609.8 422.9 1653.44 396.91 1653.44 461.12"/><polygon class="cls-25" points="1321.58 435.13 1365.21 461.12 1365.21 396.91 1321.58 370.91 1321.58 435.13"/><path class="cls-24" d="M1328.82,396.51,1358,413.64c1,.61,1.88.26,1.88-.77h0a4,4,0,0,0-1.88-3l-29.16-17.13c-1-.61-1.89-.26-1.89.77h0A4,4,0,0,0,1328.82,396.51Z"/><path class="cls-24" d="M1328.82,409.33,1358,426.46c1,.61,1.88.26,1.88-.77h0a4,4,0,0,0-1.88-3l-29.16-17.13c-1-.61-1.89-.26-1.89.78h0A4,4,0,0,0,1328.82,409.33Z"/><path class="cls-24" d="M1328.82,422.15,1358,439.29c1,.6,1.88.25,1.88-.78h0a4,4,0,0,0-1.88-3l-29.16-17.13c-1-.61-1.89-.26-1.89.78h0A4,4,0,0,0,1328.82,422.15Z"/><g class="cls-13"><polygon class="cls-26" points="1743.9 817.11 1954.32 691.76 1954.32 471.61 1743.9 596.96 1743.9 817.11"/><polygon class="cls-21" points="1743.9 596.96 1954.32 471.61 1739.12 348.57 1528.7 473.91 1743.9 596.96"/><polygon class="cls-22" points="1528.7 473.91 1528.7 694.06 1743.9 817.11 1743.9 596.96 1528.7 473.91"/></g><g class="cls-23"><polygon class="cls-24" points="1827.29 548.43 1870.93 522.44 1655.73 399.39 1612.1 425.39 1827.29 548.43"/></g><polygon class="cls-25" points="1870.93 586.65 1827.29 612.64 1827.29 548.43 1870.93 522.44 1870.93 586.65"/><polygon class="cls-25" points="1539.07 560.66 1582.7 586.65 1582.7 522.44 1539.07 496.44 1539.07 560.66"/><path class="cls-24" d="M1546.3,522l29.17,17.13c1,.61,1.88.26,1.88-.77h0a4,4,0,0,0-1.88-3l-29.17-17.13c-1-.61-1.88-.26-1.88.78h0A4,4,0,0,0,1546.3,522Z"/><path class="cls-24" d="M1546.3,534.86,1575.47,552c1,.61,1.88.26,1.88-.77h0a4,4,0,0,0-1.88-3L1546.3,531.1c-1-.61-1.88-.26-1.88.78h0A4,4,0,0,0,1546.3,534.86Z"/><path class="cls-24" d="M1546.3,547.69l29.17,17.13c1,.6,1.88.26,1.88-.78h0a4,4,0,0,0-1.88-3l-29.17-17.13c-1-.61-1.88-.26-1.88.78h0A4,4,0,0,0,1546.3,547.69Z"/><g class="cls-13"><polygon class="cls-20" points="1312.46 819.38 1522.88 694.03 1522.88 473.88 1312.46 599.23 1312.46 819.38"/><polygon class="cls-21" points="1312.46 599.23 1522.88 473.88 1307.68 350.84 1097.26 476.18 1312.46 599.23"/><polygon class="cls-22" points="1097.26 476.18 1097.26 696.34 1312.46 819.38 1312.46 599.23 1097.26 476.18"/></g><g class="cls-23"><polygon class="cls-24" points="1395.85 550.7 1439.49 524.71 1224.29 401.67 1180.65 427.66 1395.85 550.7"/></g><polygon class="cls-25" points="1439.49 588.92 1395.85 614.92 1395.85 550.7 1439.49 524.71 1439.49 588.92"/><polygon class="cls-25" points="1107.63 562.93 1151.26 588.92 1151.26 524.71 1107.63 498.71 1107.63 562.93"/><path class="cls-24" d="M1114.86,524.31,1144,541.44c1,.61,1.89.26,1.89-.77h0a4,4,0,0,0-1.89-3l-29.16-17.13c-1-.61-1.88-.26-1.88.78h0A4,4,0,0,0,1114.86,524.31Z"/><path class="cls-24" d="M1114.86,537.14,1144,554.27c1,.6,1.89.26,1.89-.78h0a4,4,0,0,0-1.89-3l-29.16-17.13c-1-.61-1.88-.26-1.88.78h0A4,4,0,0,0,1114.86,537.14Z"/><path class="cls-24" d="M1114.86,550,1144,567.09c1,.61,1.89.26,1.89-.78h0a4,4,0,0,0-1.89-3l-29.16-17.14c-1-.6-1.88-.25-1.88.78h0A4,4,0,0,0,1114.86,550Z"/><g class="cls-13"><polygon class="cls-26" points="1526.41 468.54 1736.83 343.19 1736.83 123.04 1526.41 248.39 1526.41 468.54"/><polygon class="cls-21" points="1526.41 248.39 1736.83 123.04 1521.63 0 1311.21 125.34 1526.41 248.39"/><polygon class="cls-22" points="1311.21 125.34 1311.21 345.5 1526.41 468.54 1526.41 248.39 1311.21 125.34"/></g><g class="cls-23"><polygon class="cls-24" points="1609.8 199.86 1653.44 173.87 1438.24 50.83 1394.61 76.82 1609.8 199.86"/></g><polygon class="cls-25" points="1653.44 238.08 1609.8 264.08 1609.8 199.86 1653.44 173.87 1653.44 238.08"/><polygon class="cls-25" points="1321.58 212.09 1365.21 238.08 1365.21 173.87 1321.58 147.88 1321.58 212.09"/><path class="cls-24" d="M1328.82,173.47,1358,190.6c1,.61,1.88.26,1.88-.77h0a4,4,0,0,0-1.88-3l-29.16-17.13c-1-.61-1.89-.26-1.89.78h0A4,4,0,0,0,1328.82,173.47Z"/><path class="cls-24" d="M1328.82,186.3,1358,203.43c1,.6,1.88.26,1.88-.78h0a4,4,0,0,0-1.88-3l-29.16-17.13c-1-.61-1.89-.26-1.89.78h0A4,4,0,0,0,1328.82,186.3Z"/><path class="cls-24" d="M1328.82,199.12,1358,216.25c1,.61,1.88.26,1.88-.78h0a4,4,0,0,0-1.88-3l-29.16-17.14c-1-.6-1.89-.25-1.89.78h0A4,4,0,0,0,1328.82,199.12Z"/><g class="cls-13"><polygon class="cls-26" points="1312.46 596.34 1522.88 471 1522.88 250.85 1312.46 376.19 1312.46 596.34"/><polygon class="cls-21" points="1312.46 376.19 1522.88 250.85 1307.68 127.8 1097.26 253.15 1312.46 376.19"/><polygon class="cls-22" points="1097.26 253.15 1097.26 473.3 1312.46 596.34 1312.46 376.19 1097.26 253.15"/></g><g class="cls-23"><polygon class="cls-24" points="1395.85 327.67 1439.49 301.67 1224.29 178.63 1180.65 204.62 1395.85 327.67"/></g><polygon class="cls-25" points="1439.49 365.89 1395.85 391.88 1395.85 327.67 1439.49 301.67 1439.49 365.89"/><polygon class="cls-25" points="1107.63 339.89 1151.26 365.89 1151.26 301.67 1107.63 275.68 1107.63 339.89"/><path class="cls-24" d="M1114.86,301.28,1144,318.41c1,.61,1.89.26,1.89-.78h0a4,4,0,0,0-1.89-3l-29.16-17.13c-1-.6-1.88-.25-1.88.78h0A4,4,0,0,0,1114.86,301.28Z"/><path class="cls-24" d="M1114.86,314.1,1144,331.23c1,.61,1.89.26,1.89-.78h0a4,4,0,0,0-1.89-3l-29.16-17.13c-1-.61-1.88-.26-1.88.77h0A4,4,0,0,0,1114.86,314.1Z"/><path class="cls-24" d="M1114.86,326.92,1144,344.05c1,.61,1.89.26,1.89-.77h0a4,4,0,0,0-1.89-3l-29.16-17.13c-1-.61-1.88-.26-1.88.77h0A4,4,0,0,0,1114.86,326.92Z"/><g class="cls-13"><polygon class="cls-26" points="1529.95 944.91 1740.37 819.57 1740.37 599.41 1529.95 724.76 1529.95 944.91"/><polygon class="cls-21" points="1529.95 724.76 1740.37 599.41 1525.17 476.37 1314.75 601.72 1529.95 724.76"/><polygon class="cls-22" points="1314.75 601.72 1314.75 821.87 1529.95 944.91 1529.95 724.76 1314.75 601.72"/></g><g class="cls-23"><polygon class="cls-24" points="1613.34 676.23 1656.97 650.24 1441.78 527.2 1398.14 553.19 1613.34 676.23"/></g><polygon class="cls-25" points="1656.97 714.46 1613.34 740.45 1613.34 676.23 1656.97 650.24 1656.97 714.46"/><polygon class="cls-25" points="1325.12 688.46 1368.75 714.46 1368.75 650.24 1325.12 624.25 1325.12 688.46"/><path class="cls-24" d="M1332.35,649.84,1361.51,667c1,.6,1.89.25,1.89-.78h0a4,4,0,0,0-1.89-3l-29.16-17.13c-1-.61-1.88-.26-1.88.78h0A4,4,0,0,0,1332.35,649.84Z"/><path class="cls-24" d="M1332.35,662.67l29.16,17.13c1,.61,1.89.26,1.89-.78h0a4,4,0,0,0-1.89-3l-29.16-17.13c-1-.6-1.88-.25-1.88.78h0A4,4,0,0,0,1332.35,662.67Z"/><path class="cls-24" d="M1332.35,675.49l29.16,17.13c1,.61,1.89.26,1.89-.78h0a4,4,0,0,0-1.89-3l-29.16-17.13c-1-.61-1.88-.26-1.88.77h0A4,4,0,0,0,1332.35,675.49Z"/><g class="cls-13"><polygon class="cls-26" points="1597.72 685.09 1808.14 559.74 1808.14 339.59 1597.72 464.93 1597.72 685.09"/><polygon class="cls-21" points="1597.72 464.93 1808.14 339.59 1592.94 216.55 1382.52 341.89 1597.72 464.93"/><polygon class="cls-22" points="1382.52 341.89 1382.52 562.04 1597.72 685.09 1597.72 464.93 1382.52 341.89"/></g><g class="cls-23"><polygon class="cls-24" points="1681.11 416.41 1724.75 390.42 1509.55 267.37 1465.91 293.37 1681.11 416.41"/></g><polygon class="cls-25" points="1724.75 454.63 1681.11 480.62 1681.11 416.41 1724.75 390.42 1724.75 454.63"/><polygon class="cls-25" points="1392.89 428.64 1436.52 454.63 1436.52 390.42 1392.89 364.42 1392.89 428.64"/><path class="cls-24" d="M1400.12,390l29.17,17.13c1,.61,1.88.26,1.88-.77h0a4,4,0,0,0-1.88-3l-29.17-17.13c-1-.61-1.88-.26-1.88.77h0A4,4,0,0,0,1400.12,390Z"/><path class="cls-24" d="M1400.12,402.84,1429.29,420c1,.61,1.88.26,1.88-.77h0a4,4,0,0,0-1.88-3l-29.17-17.13c-1-.61-1.88-.26-1.88.78h0A4,4,0,0,0,1400.12,402.84Z"/><path class="cls-24" d="M1400.12,415.66l29.17,17.14c1,.6,1.88.25,1.88-.78h0a4,4,0,0,0-1.88-3l-29.17-17.13c-1-.61-1.88-.26-1.88.78h0A4,4,0,0,0,1400.12,415.66Z"/><path class="cls-27" d="M950.65,227V729.33a22.38,22.38,0,0,0,11.28,19.43l263.5,150.66a11.91,11.91,0,0,0,17.82-10.34V385a24.68,24.68,0,0,0-12.43-21.43L971.18,215.07A13.72,13.72,0,0,0,950.65,227Z"/><path class="cls-28" d="M942,231.34V733.69a22.4,22.4,0,0,0,11.27,19.44l263.5,150.65a11.92,11.92,0,0,0,17.83-10.34V389.31a24.68,24.68,0,0,0-12.43-21.42L962.48,219.43A13.72,13.72,0,0,0,942,231.34Z"/><path class="cls-24" d="M959.69,741.82a9.38,9.38,0,0,1-4.72-8.13V231.34c0-.67.71-.71.72-.71a.62.62,0,0,1,.32.11l259.64,148.45a11.69,11.69,0,0,1,5.87,10.12V891.53Z"/><path class="cls-29" d="M1053.59,254.42l-.4-.23-.51-.26-.5-.24-.5-.21-.51-.19-.1,0,0,0-.36-.11-.51-.15-.52-.11-.54-.09-.38,0h0l-.15,0-.59,0-.65,0c-.24,0-.48.06-.72.11h0a7.06,7.06,0,0,0-.82.23,5.92,5.92,0,0,0-1,.47l-9.37,5.45a6.1,6.1,0,0,1,1.84-.7h0a7.63,7.63,0,0,1,2.1-.11h.06a10.21,10.21,0,0,1,2.31.5l0,0a14.19,14.19,0,0,1,2.51,1.15l12.66,7.31,9.37-5.45Z"/><path class="cls-30" d="M1091.79,287.78a7.22,7.22,0,0,1-2,.11h0a9.2,9.2,0,0,1-2.19-.48h0a12.91,12.91,0,0,1-2.39-1.1,18.09,18.09,0,0,1-2.36-1.63l-.06-.05a24.28,24.28,0,0,1-2.17-2l0-.05a25.81,25.81,0,0,1-2-2.39h0a29,29,0,0,1-1.72-2.63s0-.08-.07-.13a26.32,26.32,0,0,1-1.4-2.75v0a24.88,24.88,0,0,1-1.07-2.91s0,0,0,0a22.45,22.45,0,0,1-.67-2.93h0a17.89,17.89,0,0,1-.24-2.89,12.67,12.67,0,0,1,.25-2.55.17.17,0,0,1,0-.07,9.49,9.49,0,0,1,.67-2.09.06.06,0,0,0,0,0,7.46,7.46,0,0,1,.9-1.38c.11-.13.21-.28.33-.41a6,6,0,0,1,1.3-1.07l-9.38,5.45a6,6,0,0,0-1.3,1.07l-.33.41c-.14.18-.3.33-.43.53a7.11,7.11,0,0,0-.44.82l0,0v0c-.09.2-.18.4-.26.61l-.21.63c-.05.19-.11.39-.15.6l-.06.26v.07a2.21,2.21,0,0,0,0,.25c0,.19-.06.38-.08.57a5,5,0,0,0-.06.57c0,.18,0,.37,0,.56s0,.37,0,.57v.57l0,.57c0,.2,0,.39,0,.58l.06.59.09.59v0h0c0,.19.07.38.1.57s.08.42.13.62.09.42.14.62.11.42.17.63.09.33.14.49v0l0,.1c.06.21.13.41.2.61l.21.61c.07.19.14.39.22.58s.15.38.23.57l.18.44,0,0,0,.09c.09.19.17.39.26.58l.3.62.37.71.42.75.08.13a1.29,1.29,0,0,0,.09.16c.27.48.57.94.88,1.4s.49.72.75,1.07.34.47.52.69l.46.57c.15.18.3.36.46.53s.3.35.46.51l.09.1,0,0,.35.37.5.5.53.48.52.46.28.23.05,0,.2.17.52.39.52.37.51.34.5.3.12.07.37.21.49.25.48.23.47.2.48.18.09,0h0l.34.11.49.14.49.11.51.08.35,0h.06l.12,0a5.28,5.28,0,0,0,.56,0l.61,0,.68-.1h0a6.39,6.39,0,0,0,.78-.22,6,6,0,0,0,1-.44l9.38-5.45a5.86,5.86,0,0,1-1.75.66Z"/><path class="cls-31" d="M1129.21,311.91l0-.6c0-.21,0-.41,0-.61s0-.41-.07-.61,0-.42-.09-.63v0h0c0-.2-.07-.4-.11-.6s-.08-.43-.13-.65l-.15-.66c0-.22-.11-.44-.17-.66l-.16-.52s0,0,0,0l0-.1c-.06-.22-.13-.43-.2-.65l-.23-.63c-.07-.21-.15-.41-.23-.62s-.16-.4-.24-.6-.13-.32-.2-.47l0,0a.36.36,0,0,0,0-.09l-.27-.61-.32-.66-.39-.75c-.14-.27-.3-.53-.45-.79a.64.64,0,0,0-.08-.14l-.09-.17c-.3-.51-.61-1-.93-1.49s-.51-.75-.78-1.11h0l-.55-.72-.48-.6-.48-.56c-.16-.19-.33-.37-.49-.54l-.09-.1,0,0-.38-.4c-.17-.18-.35-.35-.53-.52l-.55-.51-.55-.48-.28-.23-.06-.05-.22-.18-.55-.42-.54-.38-.53-.35-.53-.33-.12-.07-12.65-7.3c0-.29,0-.57,0-.86s0-.6,0-.91l0-.42,0-.18c0-.11,0-.21,0-.32,0-.31-.06-.62-.1-.93s-.09-.63-.14-.95v0s0,0,0,0l-.15-.89c-.07-.33-.13-.66-.2-1a3.59,3.59,0,0,1-.08-.35l-.06-.21c0-.14-.06-.28-.1-.43-.08-.33-.17-.67-.26-1l-.21-.73a1,1,0,0,1,0-.14l0-.13c-.1-.33-.21-.65-.31-1s-.22-.64-.34-1l-.07-.18,0-.15-.23-.6c-.12-.31-.24-.61-.37-.92l-.28-.66,0-.11a1.12,1.12,0,0,1-.05-.13l-.42-.92-.48-1c0-.06-.06-.11-.08-.16s-.07-.12-.1-.19l-.41-.79c-.17-.33-.36-.65-.54-1-.1-.16-.19-.33-.28-.5l-.11-.19-.52-.83c-.25-.41-.5-.82-.77-1.22l-.12-.19c-.38-.57-.78-1.14-1.19-1.69h0l-.84-1.11-.71-.87v0h0c-.24-.29-.49-.57-.73-.85l-.74-.82-.12-.13a1.59,1.59,0,0,1-.13-.13l-.52-.55-.8-.79-.25-.23-.19-.18-.39-.36-.84-.74-.38-.3-.19-.16-.28-.22c-.27-.22-.55-.43-.83-.64l-.6-.43-.11-.08-.11-.07-.8-.53-.8-.49-.19-.11-.6-.34-.78-.4-.49-.23-.13-.06-.15-.07c-.25-.12-.5-.22-.76-.33l-.76-.28-.13,0-.11,0-.52-.17-.78-.22-.37-.08-.17,0-.24-.05-.83-.14-.5-.05-.17,0h-.17l-.89,0-.38,0h-.61c-.37,0-.73.09-1.09.16h0a1.66,1.66,0,0,0-.21.06,8,8,0,0,0-1.09.3l-.08,0a10.08,10.08,0,0,0-1.45.67l-9.38,5.45a10.2,10.2,0,0,1,1.46-.67A8.92,8.92,0,0,1,1065,254a2,2,0,0,1,.23-.06,9.34,9.34,0,0,1,1.42-.18l.29,0a14.21,14.21,0,0,1,1.45,0l.16,0a15.12,15.12,0,0,1,1.58.24l.16,0a15.52,15.52,0,0,1,1.67.47l.12,0c.59.21,1.19.45,1.8.73l.12,0c.62.29,1.24.61,1.88,1s1.27.77,1.89,1.2l.11.08c.58.4,1.16.84,1.72,1.29l.19.16c.54.44,1.08.92,1.61,1.41l.18.16c.54.51,1.06,1,1.58,1.58l.12.13c.55.58,1.08,1.19,1.6,1.81h0a42.88,42.88,0,0,1,2.87,3.89c.26.39.51.8.76,1.2s.43.68.63,1l.28.5c.33.58.65,1.17.95,1.76l.1.19c.37.73.71,1.46,1,2.19l0,.12c.32.72.61,1.46.89,2.19l0,.13c.27.75.53,1.5.75,2.26a.5.5,0,0,1,0,.13c.22.72.41,1.45.58,2.17,0,.07,0,.14.05.21.17.75.32,1.49.44,2.24v0c.12.75.21,1.49.27,2.23a1.09,1.09,0,0,1,0,.18q.09,1.1.09,2.19l12.66,7.3a18.17,18.17,0,0,1,2.48,1.73l.07.05a24.11,24.11,0,0,1,2.29,2.14l0,0a28.85,28.85,0,0,1,2.11,2.53h0a32,32,0,0,1,1.8,2.77l.08.13a30.51,30.51,0,0,1,1.47,2.91v0a30.84,30.84,0,0,1,1.14,3.07.09.09,0,0,0,0,.05,23.16,23.16,0,0,1,.71,3.08h0a19.85,19.85,0,0,1,.24,3l-.07,23.79,9.38-5.45.07-23.79C1129.22,312.29,1129.21,312.1,1129.21,311.91Z"/><path class="cls-32" d="M1107.38,296.33c6.9,4,12.48,13.66,12.46,21.59l-.07,23.79L1031.6,290.8l.07-23.79c0-7.92,5.64-11.13,12.54-7.15l12.66,7.31c0-12,8.53-16.85,19-10.8S1094.76,277,1094.72,289Zm-31.61-4.59c6.54,3.78,11.86.74,11.88-6.8s-5.27-16.7-11.8-20.47-11.89-.73-11.91,6.78,5.27,16.7,11.83,20.49"/><path class="cls-33" d="M1195.2,519.25l-156-88.85a9.06,9.06,0,0,1-3.91-7.22h0c0-2.75,1.76-4,3.91-2.78l156,88.84a9.1,9.1,0,0,1,3.91,7.23h0C1199.11,519.22,1197.35,520.47,1195.2,519.25Z"/><path class="cls-33" d="M1175,447l-156.05-88.84a9.08,9.08,0,0,1-3.91-7.23h0c0-2.75,1.76-4,3.91-2.77L1175,437a9.07,9.07,0,0,1,3.91,7.23h0C1178.89,447,1177.13,448.21,1175,447Z"/><path class="cls-33" d="M1195.21,541.53l-156-88.84a9.08,9.08,0,0,1-3.91-7.23h0c0-2.75,1.75-4,3.91-2.77l156,88.84a9.1,9.1,0,0,1,3.92,7.23h0C1199.12,541.51,1197.36,542.76,1195.21,541.53Z"/><path class="cls-33" d="M1149.67,537.89,1039.16,475a9.1,9.1,0,0,1-3.91-7.23h0c0-2.75,1.76-4,3.91-2.78l110.51,62.92a9.06,9.06,0,0,1,3.91,7.22h0C1153.58,537.86,1151.82,539.11,1149.67,537.89Z"/><path class="cls-34" d="M1014.46,461.45,983.72,444c-3.53-2-6.39-7.29-6.39-11.8V392.83c0-4.51,2.86-6.54,6.39-4.54l30.73,17.5c3.53,2,6.39,7.3,6.39,11.81v39.32C1020.84,461.43,1018,463.46,1014.46,461.45Z"/><polygon class="cls-24" points="986.26 408.62 994.63 433.11 1015.19 429.47 1011.55 420.54 997.41 423.59 990.98 406.36 986.26 408.62"/><path class="cls-33" d="M1195.22,598.81l-156-88.84a9.06,9.06,0,0,1-3.91-7.22h0c0-2.76,1.76-4,3.91-2.78l156,88.84a9.1,9.1,0,0,1,3.91,7.23h0C1199.13,598.79,1197.37,600,1195.22,598.81Z"/><path class="cls-33" d="M1195.23,621.1l-156-88.84a9.1,9.1,0,0,1-3.91-7.23h0c0-2.75,1.75-4,3.9-2.77l156,88.84a9.06,9.06,0,0,1,3.91,7.22h0C1199.14,621.08,1197.38,622.32,1195.23,621.1Z"/><path class="cls-33" d="M1149.69,617.46l-110.51-62.91a9.1,9.1,0,0,1-3.91-7.23h0c0-2.75,1.76-4,3.91-2.78l110.51,62.92a9.06,9.06,0,0,1,3.91,7.22h0C1153.6,617.43,1151.84,618.68,1149.69,617.46Z"/><path class="cls-35" d="M1014.47,541l-30.73-17.5c-3.53-2-6.39-7.29-6.39-11.8V472.4c0-4.51,2.86-6.54,6.38-4.54l30.74,17.5c3.53,2,6.39,7.3,6.39,11.81v39.32C1020.86,541,1018,543,1014.47,541Z"/><polygon class="cls-24" points="986.28 488.19 994.64 512.67 1015.21 509.04 1011.57 500.11 997.43 503.16 991 485.92 986.28 488.19"/><path class="cls-33" d="M1195.24,678.38l-156-88.84a9.07,9.07,0,0,1-3.91-7.23h0c0-2.75,1.76-4,3.91-2.77l156,88.84a9.08,9.08,0,0,1,3.91,7.23h0C1199.15,678.36,1197.39,679.61,1195.24,678.38Z"/><path class="cls-33" d="M1195.25,700.67l-156-88.84a9.13,9.13,0,0,1-3.92-7.23h0c0-2.75,1.76-4,3.91-2.77l156,88.84a9.06,9.06,0,0,1,3.91,7.22h0C1199.15,700.64,1197.4,701.89,1195.25,700.67Z"/><path class="cls-33" d="M1149.71,697,1039.2,634.11a9.06,9.06,0,0,1-3.91-7.22h0c0-2.75,1.76-4,3.91-2.78L1149.71,687a9.1,9.1,0,0,1,3.91,7.23h0C1153.62,697,1151.86,698.25,1149.71,697Z"/><path class="cls-36" d="M1014.49,620.59l-30.73-17.5c-3.53-2-6.39-7.29-6.39-11.81V552c0-4.52,2.86-6.55,6.38-4.54l30.74,17.5c3.53,2,6.39,7.3,6.39,11.81v39.32C1020.88,620.57,1018,622.6,1014.49,620.59Z"/><polygon class="cls-24" points="986.3 567.75 994.66 592.24 1015.23 588.61 1011.58 579.68 997.45 582.73 991.02 565.49 986.3 567.75"/><path class="cls-33" d="M1195.26,758l-156-88.84a9.08,9.08,0,0,1-3.91-7.23h0c0-2.75,1.76-4,3.91-2.77l156,88.84a9.08,9.08,0,0,1,3.91,7.23h0C1199.17,757.93,1197.41,759.18,1195.26,758Z"/><path class="cls-33" d="M1195.26,780.24l-156-88.84a9.08,9.08,0,0,1-3.92-7.23h0c0-2.75,1.76-4,3.91-2.78l156,88.85a9.06,9.06,0,0,1,3.91,7.22h0C1199.17,780.21,1197.41,781.46,1195.26,780.24Z"/><path class="cls-33" d="M1149.73,776.6l-110.51-62.92a9.06,9.06,0,0,1-3.91-7.22h0c0-2.75,1.76-4,3.91-2.78l110.5,62.91a9.08,9.08,0,0,1,3.92,7.23h0C1153.64,776.57,1151.88,777.82,1149.73,776.6Z"/><path class="cls-37" d="M1014.51,700.16l-30.73-17.5c-3.53-2-6.39-7.29-6.39-11.81V631.54c0-4.52,2.86-6.55,6.38-4.54l30.74,17.5c3.53,2,6.39,7.29,6.39,11.81v39.31C1020.9,700.14,1018,702.17,1014.51,700.16Z"/><polygon class="cls-24" points="986.32 647.32 994.68 671.81 1015.25 668.17 1011.6 659.25 997.47 662.3 991.03 645.06 986.32 647.32"/><path class="cls-38" d="M1071.65,1374.9l-.2-.1-.22-.11c-.42-.23-.84-.44-1.28-.63l-.45-.19-.78-.29-.56-.19-.24-.08-.07,0a1.43,1.43,0,0,0-.28-.07l0,0-.78-.19-.86-.16-.26,0c-.52-.07-1-.13-1.58-.18l-.42,0c-.63,0-1.28,0-1.94,0-.46,0-.92,0-1.4.1s-1,.1-1.46.18l-.84.14c-.45.09-.9.18-1.37.3l-.63.17-.24,0-.89.27h0l-.37.12-.64.2-.38.14-.77.28c-.25.1-.51.19-.77.31-.47.19-.94.39-1.41.62l-.84.39-.63.31-.91.47-1.3.72c-.56.32-1.12.66-1.67,1l-1.65,1.1c-.36.24-.7.51-1.06.76-.73.53-1.47,1.08-2.19,1.65l-1.19,1c-.66.56-1.32,1.13-2,1.72-.39.36-.79.72-1.17,1.1s-1,1-1.49,1.48c-.79.8-1.56,1.63-2.33,2.48q-.66.73-1.32,1.5c-.46.54-.91,1.1-1.36,1.66s-1.06,1.32-1.57,2c-.32.43-.65.87-1,1.32-.59.81-1.16,1.64-1.73,2.47-.22.35-.45.68-.67,1-.38.58-.75,1.17-1.12,1.77s-.75,1.24-1.12,1.87c-.1.17-.18.35-.29.53-.59,1-1.16,2.08-1.7,3.14-.18.35-.36.7-.53,1-.55,1.11-1.09,2.23-1.59,3.36-.06.15-.14.31-.2.45-.28.64-.54,1.27-.8,1.91s-.51,1.28-.75,1.92l-.4,1.14c-.34.93-.65,1.86-.94,2.8-.16.48-.3,1-.44,1.44-.24.82-.46,1.66-.66,2.48-.16.6-.31,1.19-.44,1.78s-.24,1.11-.35,1.66c0,.17-.07.34-.1.5-.09.47-.17.93-.25,1.4,0,.19-.06.4-.08.6-.17,1-.28,2-.37,3-.05.42-.1.83-.12,1.23s-.06.78-.08,1.17-.06,1-.07,1.52,0,.78,0,1.17,0,.73,0,1.09,0,.52,0,.77,0,.23,0,.34c0,.28,0,.54.05.8,0,.5.08,1,.13,1.46s.09.74.14,1.09.11.8.18,1.18c0,.11,0,.23.06.34.06.34.13.69.21,1s.18.82.28,1.22h0c.1.39.21.77.33,1.15s.15.5.24.74.11.34.17.51l.09.25c.08.23.16.44.25.66a22.66,22.66,0,0,0,1.26,2.67,5,5,0,0,0,.34.59,1.06,1.06,0,0,0,.12.2c.16.27.32.53.49.78s.24.35.37.52c0,0,0,0,0,.06.19.27.39.53.59.78l.55.65a17.3,17.3,0,0,0,1.67,1.65l.47.39a2.59,2.59,0,0,0,.42.32c.35.27.71.52,1.09.76l.46.29a2.26,2.26,0,0,1-.26-.16l-20-11.62a17.49,17.49,0,0,1-4.23-3.48c-3.73-4.23-5.92-10.65-6-18.89,0-1.26.06-2.55.16-3.85,0-.4.08-.82.12-1.23.06-.58.09-1.15.17-1.73,0-.26.1-.51.13-.77.14-.92.3-1.85.48-2.77.08-.43.13-.86.22-1.29,0-.21.11-.42.15-.63.13-.59.29-1.18.44-1.77s.24-1.07.39-1.6c.08-.3.19-.6.27-.9.14-.48.29-.95.44-1.43s.23-.81.37-1.22.38-1.06.57-1.58.27-.76.4-1.14c.08-.18.14-.38.21-.57.41-1,.84-2.09,1.28-3.12a1.47,1.47,0,0,0,.06-.14l.21-.45c.36-.82.73-1.63,1.12-2.44.14-.31.32-.62.46-.92s.35-.7.54-1,.32-.66.5-1c.39-.72.79-1.44,1.2-2.15.11-.2.21-.4.33-.59l.11-.19c.57-1,1.18-2,1.8-3,.09-.15.19-.29.29-.43.21-.35.44-.67.68-1,.35-.52.69-1.06,1.05-1.57.21-.31.44-.61.67-.91l1-1.31c.22-.3.45-.62.68-.92s.59-.73.89-1.09c.44-.56.9-1.11,1.35-1.66l.59-.7c.24-.28.5-.53.74-.79.76-.86,1.54-1.68,2.32-2.48.26-.26.49-.54.75-.79s.5-.46.74-.69.78-.74,1.18-1.1c.64-.6,1.31-1.16,2-1.72.39-.34.79-.66,1.19-1,.72-.58,1.46-1.12,2.19-1.65.35-.25.7-.52,1.06-.77,1.09-.75,2.2-1.46,3.32-2.11.75-.43,1.48-.81,2.21-1.18l.63-.31c.55-.27,1.11-.53,1.66-.76l.38-.17c.07,0,.14,0,.2-.08.53-.21,1-.41,1.55-.59l.38-.14c.63-.22,1.26-.41,1.88-.58l.1,0,.17,0a27.94,27.94,0,0,1,2.88-.61h0c.8-.13,1.57-.19,2.34-.24l.27,0h.19a19.4,19.4,0,0,1,2,0h.09a2.3,2.3,0,0,1,.26,0c.53,0,1.06.1,1.57.19a2.4,2.4,0,0,1,.28,0l.2,0c.6.11,1.18.23,1.74.39h0l.07,0a13.71,13.71,0,0,1,1.56.55l.21.07c.09,0,.15.08.24.12.31.13.61.27.91.43l.38.19c.07.05.15.07.22.12a1.18,1.18,0,0,1,.19.11Z"/><path class="cls-39" d="M1081.82,1397.26c.06,22.12-15.51,49.07-34.76,60.19-9.74,5.63-18.57,6.12-24.92,2.36a2.26,2.26,0,0,1-.26-.16,1.13,1.13,0,0,1-.2-.13c-.38-.24-.74-.49-1.09-.76a2.59,2.59,0,0,1-.42-.32c-.16-.12-.31-.25-.47-.39a17.3,17.3,0,0,1-1.67-1.65c-.19-.21-.37-.43-.55-.65s-.4-.51-.59-.78c0,0,0,0,0-.06-.13-.17-.25-.34-.37-.52s-.33-.51-.49-.78a1.06,1.06,0,0,1-.12-.2,5,5,0,0,1-.34-.59,22.66,22.66,0,0,1-1.26-2.67c-.09-.22-.17-.43-.25-.66l-.09-.25c-.06-.17-.12-.33-.17-.51s-.17-.49-.24-.74-.23-.76-.33-1.15h0c-.1-.4-.2-.8-.28-1.22s-.15-.68-.21-1c0-.11,0-.23-.06-.34-.07-.38-.13-.77-.18-1.18s-.1-.72-.14-1.09-.09-1-.13-1.46c0-.26,0-.52-.05-.8,0-.11,0-.23,0-.34s0-.51,0-.77,0-.72,0-1.09,0-.78,0-1.17,0-1,.07-1.52a56.79,56.79,0,0,1,.9-7.43c0-.16.06-.33.1-.5a70.53,70.53,0,0,1,3.23-11.3q.36-1,.75-1.92c.26-.64.52-1.27.8-1.91a83.12,83.12,0,0,1,4.31-8.53c.37-.63.74-1.26,1.12-1.87,5.79-9.45,13.4-17.72,21.79-23,.55-.35,1.11-.69,1.67-1l1.3-.72c.8-.44,1.59-.82,2.38-1.17l.82-.37.59-.25c.26-.12.52-.21.77-.31l.77-.28.38-.14.64-.2.37-.12h0l.89-.27c.3-.08.59-.16.87-.22.47-.12.92-.21,1.37-.3l.84-.14c.5-.08,1-.14,1.46-.18l.93-.07.47,0c.66,0,1.31,0,1.94,0l.42,0a18.13,18.13,0,0,1,1.84.23l.22,0,.64.12.78.19,0,0a5.72,5.72,0,0,1,.59.17l.56.19a10.8,10.8,0,0,1,1.23.48,13.91,13.91,0,0,1,1.5.74c5.54,3.11,9.25,9.39,10.15,18.27C1081.74,1394.41,1081.81,1395.81,1081.82,1397.26Z"/><path class="cls-40" d="M1071,1403.49c0,15.27-10.7,33.88-24,41.55-7.93,4.59-15,4.24-19.39-.06,3.69.52,8-.46,12.68-3.15,13.3-7.67,24-26.29,24-41.56,0-6.13-1.76-10.79-4.71-13.69C1066.43,1387.51,1071,1393.59,1071,1403.49Z"/><path class="cls-41" d="M1064.31,1400.27c0,15.27-10.7,33.89-24,41.56-4.64,2.69-9,3.67-12.68,3.15-3-2.87-4.74-7.56-4.76-13.7,0-15.27,10.7-33.87,24-41.54,4.66-2.69,9-3.68,12.73-3.16C1062.55,1389.48,1064.3,1394.14,1064.31,1400.27Z"/><path class="cls-42" d="M1055.88,1405.11l-.05,0-.06,0-.33-.16-.12-.05-.2-.07-.14,0-.06,0h0l-.07,0h0l-.2-.05-.23,0h-.06l-.41,0h-.61l-.36,0-.38,0-.21,0-.35.08-.17,0-.06,0-.23.07h0l-.1,0-.16.05-.1,0-.2.07-.19.08-.37.16-.22.1-.16.08-.23.12-.34.18-.43.27-.42.28c-.1.06-.18.13-.27.19l-.57.43-.31.25c-.17.15-.34.29-.5.45l-.31.28c-.13.12-.25.25-.38.38l-.6.64-.34.39-.35.42c-.14.17-.27.35-.4.52s-.17.22-.25.34-.3.42-.45.64-.12.17-.17.26-.2.3-.29.46-.2.32-.29.48l-.07.13c-.16.27-.3.54-.44.81-.05.09-.1.18-.14.27-.14.29-.28.58-.41.87a.61.61,0,0,0,0,.12l-.21.49-.19.49c0,.1-.07.2-.1.3s-.17.47-.25.72-.07.24-.11.37-.12.42-.17.64-.08.3-.11.46l-.09.42,0,.13-.06.36a.88.88,0,0,0,0,.16c0,.26-.07.52-.1.78l0,.32c0,.1,0,.2,0,.3s0,.26,0,.39v.58a1.34,1.34,0,0,1,0,.2.28.28,0,0,0,0,.09,1.27,1.27,0,0,0,0,.2l0,.38a2.7,2.7,0,0,0,0,.28c0,.1,0,.2,0,.3s0,.06,0,.09,0,.18,0,.26l.08.32h0c0,.1,0,.2.08.3l.06.19s0,.08,0,.13a.14.14,0,0,0,0,.06l.06.17a5.53,5.53,0,0,0,.33.69,1.19,1.19,0,0,0,.09.15.09.09,0,0,0,0,.05l.12.2.1.14h0l.15.2c0,.06.09.12.14.17a4.36,4.36,0,0,0,.43.43l.12.1.11.08.28.2.12.07-.07,0-5.15-3a4.47,4.47,0,0,1-1.09-.9,7.23,7.23,0,0,1-1.53-4.87c0-.32,0-.65,0-1,0-.1,0-.21,0-.32s0-.29,0-.44a1.38,1.38,0,0,0,0-.2c0-.24.08-.48.13-.71s0-.23,0-.34,0-.1,0-.16l.12-.45c0-.14.06-.28.1-.42s.05-.15.07-.23.07-.24.11-.37.06-.21.1-.31.09-.27.14-.41l.11-.29,0-.15c.1-.27.21-.54.33-.8,0,0,0,0,0,0l.06-.11c.09-.21.19-.42.29-.63s.08-.16.12-.24l.13-.27a2.1,2.1,0,0,0,.13-.26l.31-.55.09-.15,0,0c.14-.26.3-.51.46-.76l.07-.11.18-.27.27-.4a2,2,0,0,1,.17-.23c.08-.12.17-.23.25-.34l.18-.24a3.11,3.11,0,0,1,.23-.28l.35-.43.15-.18.19-.2c.19-.22.39-.44.6-.64l.19-.21.19-.17.3-.29.51-.44.31-.25c.18-.15.37-.29.56-.43l.27-.2c.28-.19.57-.37.86-.54l.57-.31.16-.08.43-.19.1,0,0,0,.4-.16.1,0,.48-.15h.07a7,7,0,0,1,.74-.16h0l.6-.06h.73l.4,0h.13a3.15,3.15,0,0,1,.44.11h0a3.17,3.17,0,0,1,.4.14h0l.06,0,.24.11.1,0,0,0s0,0,0,0Z"/><path class="cls-43" d="M1058.5,1410.87c0,5.69-4,12.64-9,15.5-2.51,1.45-4.78,1.58-6.42.61l-.07,0,0,0-.28-.2-.11-.08-.12-.1a4.36,4.36,0,0,1-.43-.43s-.09-.11-.14-.17l-.15-.2h0l-.1-.14-.12-.2a.09.09,0,0,1,0-.05,1.19,1.19,0,0,1-.09-.15,5.53,5.53,0,0,1-.33-.69l-.06-.17a.14.14,0,0,1,0-.06s0-.09,0-.13l-.06-.19c0-.1-.06-.2-.08-.3h0l-.08-.32c0-.08,0-.17,0-.26s0-.06,0-.09,0-.2,0-.3a2.7,2.7,0,0,1,0-.28l0-.38a1.27,1.27,0,0,1,0-.2.28.28,0,0,1,0-.09,1.34,1.34,0,0,0,0-.2v-.58c0-.13,0-.26,0-.39a14.34,14.34,0,0,1,.23-1.92l0-.13a19,19,0,0,1,.83-2.91l.19-.49.21-.49a22.65,22.65,0,0,1,1.11-2.2c.09-.16.19-.33.29-.48a18.29,18.29,0,0,1,5.61-5.93l.43-.27.34-.18c.2-.11.41-.21.61-.3l.21-.1.16-.06.19-.08.2-.07.1,0,.16-.05.1,0h0l.23-.07.23-.06.35-.08.21,0,.38,0,.24,0h.73a3.55,3.55,0,0,1,.47.06h.06l.17,0,.2.05h0l.15,0,.14,0a1.75,1.75,0,0,1,.32.12l.39.19a5.76,5.76,0,0,1,2.61,4.71C1058.48,1410.13,1058.49,1410.49,1058.5,1410.87Z"/><path class="cls-44" d="M767,1536.63l-.2-.11-.22-.11c-.42-.23-.84-.44-1.28-.63l-.45-.19-.77-.29-.57-.19-.23-.08-.08,0-.28-.07,0,0-.77-.19-.87-.16-.26,0c-.52-.08-1-.14-1.58-.18l-.42,0c-.63,0-1.28,0-1.94,0-.46,0-.92,0-1.39.1s-1,.1-1.47.18l-.84.15c-.45.08-.9.18-1.37.3l-.63.16-.24,0-.89.27h0l-.37.12-.64.21-.38.13-.77.29c-.25.09-.51.19-.76.3-.48.19-.95.39-1.42.62l-.84.39c-.2.11-.41.2-.63.31l-.91.47-1.3.72c-.56.33-1.12.66-1.67,1l-1.65,1.1-1.06.76c-.73.54-1.47,1.08-2.19,1.65l-1.19,1c-.66.56-1.32,1.13-2,1.72-.39.37-.79.73-1.17,1.11s-1,1-1.49,1.47c-.79.8-1.56,1.63-2.33,2.48l-1.32,1.5c-.46.54-.91,1.1-1.36,1.66s-1.06,1.32-1.56,2c-.33.43-.66.87-1,1.32-.59.81-1.16,1.64-1.73,2.48l-.67,1c-.38.59-.75,1.17-1.12,1.77s-.75,1.24-1.12,1.87c-.1.17-.18.35-.29.53-.59,1-1.16,2.09-1.7,3.14-.18.35-.36.7-.53,1-.55,1.11-1.09,2.23-1.58,3.36-.07.15-.15.31-.21.45-.28.64-.54,1.28-.8,1.91s-.51,1.29-.75,1.92c-.14.39-.27.77-.4,1.15-.34.93-.65,1.85-.94,2.79-.16.48-.3,1-.44,1.44-.24.82-.46,1.66-.66,2.48-.16.6-.31,1.19-.44,1.78s-.24,1.11-.35,1.66c0,.17-.07.34-.1.5-.09.47-.17.93-.25,1.4,0,.2-.06.4-.08.6-.17,1-.28,2-.37,3-.05.41-.1.82-.12,1.23s-.06.77-.08,1.16-.06,1-.07,1.52,0,.78,0,1.17,0,.73,0,1.09,0,.52,0,.77,0,.23,0,.34c0,.28,0,.54,0,.8,0,.5.08,1,.13,1.46s.09.74.14,1.1.11.79.18,1.18c0,.11,0,.22.06.33.06.34.13.69.21,1s.18.82.28,1.22h0c.1.39.21.77.33,1.15s.15.51.24.75.11.33.17.5.06.18.09.25c.08.23.16.44.25.66a22.66,22.66,0,0,0,1.26,2.67c.1.2.22.4.34.59a.82.82,0,0,0,.12.2c.16.27.32.53.5.78a6,6,0,0,0,.36.52s0,0,0,.06c.19.27.39.53.59.78s.36.44.55.65a17.3,17.3,0,0,0,1.67,1.65l.47.39a3.39,3.39,0,0,0,.42.33c.35.26.71.51,1.09.75l.47.29a1.75,1.75,0,0,1-.27-.16l-20-11.62a17.49,17.49,0,0,1-4.23-3.48c-3.73-4.23-5.92-10.64-5.94-18.88,0-1.27.06-2.56.15-3.86,0-.4.08-.81.12-1.23s.1-1.15.17-1.73c0-.25.1-.51.13-.77.14-.92.3-1.85.48-2.77.08-.43.13-.86.22-1.29,0-.21.11-.41.15-.63.13-.58.29-1.18.44-1.77s.24-1.07.39-1.6c.09-.29.19-.59.27-.9.14-.48.29-.95.44-1.43s.24-.81.37-1.21.38-1.06.57-1.59l.41-1.13c.07-.19.13-.39.2-.58.41-1.05.84-2.09,1.28-3.12a.84.84,0,0,0,.06-.14l.21-.45c.36-.81.73-1.63,1.12-2.44.14-.31.32-.62.46-.92l.54-1c.17-.33.32-.66.5-1,.39-.72.79-1.43,1.2-2.15.11-.2.21-.39.33-.59l.11-.19c.57-1,1.18-2,1.8-2.95.09-.15.19-.29.29-.43.21-.35.45-.67.68-1,.35-.52.69-1,1.05-1.57.21-.31.44-.6.67-.9.32-.45.64-.88,1-1.32s.45-.62.68-.92.59-.72.89-1.08c.44-.56.9-1.12,1.35-1.66.2-.24.39-.48.59-.71s.5-.52.74-.79c.77-.85,1.54-1.68,2.32-2.48.26-.26.49-.54.75-.79s.5-.46.74-.69.78-.74,1.18-1.1c.64-.59,1.31-1.16,2-1.72.39-.34.79-.66,1.19-1,.72-.58,1.46-1.12,2.19-1.65.35-.25.7-.52,1.06-.77,1.09-.74,2.2-1.46,3.32-2.1.75-.43,1.48-.82,2.21-1.19l.63-.31c.56-.27,1.11-.53,1.67-.76l.37-.17.2-.08c.53-.21,1-.41,1.55-.59l.38-.14c.63-.21,1.26-.41,1.88-.57l.1,0,.17,0a25.6,25.6,0,0,1,2.88-.62h0c.8-.12,1.57-.19,2.34-.23l.27,0h.19a17,17,0,0,1,2,0h.09l.26,0c.53,0,1.06.11,1.57.19a2.4,2.4,0,0,1,.28,0l.2,0c.6.11,1.18.23,1.74.39h0l.07,0a13.71,13.71,0,0,1,1.56.55l.21.07a1.79,1.79,0,0,1,.24.12c.31.13.61.27.91.43l.38.2.23.11.18.11Z"/><path class="cls-45" d="M777.19,1559c.06,22.12-15.51,49.08-34.75,60.19-9.75,5.64-18.58,6.13-24.92,2.36a1.75,1.75,0,0,1-.27-.16.76.76,0,0,1-.2-.13c-.38-.24-.74-.49-1.09-.75a3.39,3.39,0,0,1-.42-.33c-.16-.12-.31-.25-.47-.39a17.3,17.3,0,0,1-1.67-1.65c-.19-.2-.37-.43-.55-.65s-.4-.51-.59-.78c0,0,0,0,0-.06a6,6,0,0,1-.36-.52c-.18-.25-.34-.51-.5-.78a.82.82,0,0,1-.12-.2c-.12-.19-.24-.39-.34-.59a22.66,22.66,0,0,1-1.26-2.67c-.09-.22-.17-.43-.25-.66,0-.07-.06-.16-.09-.25s-.12-.33-.17-.5-.17-.49-.24-.75-.23-.76-.33-1.15h0c-.1-.4-.2-.8-.28-1.22s-.15-.68-.21-1c0-.11,0-.22-.06-.33-.07-.39-.13-.78-.18-1.18s-.1-.73-.14-1.1-.09-1-.13-1.46c0-.26,0-.52,0-.8,0-.11,0-.23,0-.34s0-.51,0-.77,0-.72,0-1.09,0-.77,0-1.17,0-1,.07-1.52a56.79,56.79,0,0,1,.9-7.43c0-.16.06-.33.1-.5a70.53,70.53,0,0,1,3.23-11.3c.24-.63.49-1.28.75-1.92s.52-1.27.8-1.91a84.15,84.15,0,0,1,4.31-8.53c.37-.63.74-1.26,1.12-1.87,5.79-9.45,13.4-17.72,21.79-23,.55-.35,1.11-.68,1.67-1l1.3-.72c.8-.43,1.59-.82,2.38-1.17l.82-.36.6-.26c.25-.11.51-.21.76-.3l.77-.29.38-.13.64-.21.37-.12h0l.89-.27.87-.21c.47-.12.92-.22,1.37-.3l.84-.15c.5-.08,1-.14,1.47-.18l.92-.07.47,0c.66,0,1.31,0,1.94,0l.42,0a18.14,18.14,0,0,1,1.84.22l.22,0,.65.12.77.19h0c.21.06.41.11.6.18l.57.19a11.42,11.42,0,0,1,1.22.48,16.06,16.06,0,0,1,1.5.74c5.54,3.12,9.25,9.4,10.15,18.27C777.11,1556.13,777.18,1557.53,777.19,1559Z"/><path class="cls-46" d="M766.39,1565.21c0,15.27-10.7,33.88-24,41.55-7.93,4.59-15,4.24-19.39,0,3.69.52,8-.47,12.69-3.16,13.29-7.67,24-26.28,24-41.55,0-6.13-1.76-10.8-4.71-13.69C761.8,1549.24,766.35,1555.31,766.39,1565.21Z"/><path class="cls-47" d="M759.68,1562c0,15.27-10.7,33.88-24,41.55-4.65,2.69-9,3.68-12.69,3.16-3-2.88-4.74-7.56-4.76-13.71,0-15.27,10.7-33.86,24-41.54,4.66-2.69,9-3.67,12.73-3.15C757.92,1551.2,759.67,1555.87,759.68,1562Z"/><path class="cls-48" d="M751.25,1566.83l0,0,0,0-.35-.17-.12,0-.2-.07-.14,0-.06,0h0l-.07,0h0l-.2-.05-.23,0h0l-.43,0h-.61l-.36,0-.37,0-.22,0-.35.07-.17,0h-.06l-.23.07h0l-.1,0-.16,0-.1,0-.2.07-.19.08-.37.16-.21.1-.17.08-.23.12-.34.19-.43.26-.42.28-.27.2-.57.42-.3.26c-.18.14-.35.29-.51.44l-.31.28-.38.38-.6.64-.34.39-.35.43c-.14.16-.27.34-.4.51s-.17.23-.25.34-.3.43-.45.64-.12.17-.17.26-.2.3-.29.46l-.29.48-.07.14c-.16.26-.3.53-.44.81,0,.08-.09.17-.14.27-.14.28-.28.57-.41.86a.61.61,0,0,1-.05.12l-.21.49-.19.49c0,.1-.07.2-.1.3s-.17.48-.24.72l-.12.37c-.06.21-.12.43-.17.64s-.08.31-.11.46l-.09.43,0,.12-.06.36a.88.88,0,0,0,0,.16c-.05.26-.07.52-.1.78l0,.32c0,.1,0,.2,0,.3s0,.26,0,.39v.3a2.53,2.53,0,0,0,0,.28v.2a.28.28,0,0,0,0,.09c0,.07,0,.14,0,.2l0,.38a2.36,2.36,0,0,0,0,.28c0,.11,0,.21,0,.31s0,0,0,.08,0,.18.05.27,0,.21.08.31h0c0,.1,0,.2.08.3l.06.19s0,.09,0,.13a.2.2,0,0,0,0,0l.07.18a5.53,5.53,0,0,0,.33.69,1.19,1.19,0,0,0,.09.15s0,0,0,.06l.13.2a1,1,0,0,0,.09.13v0l.15.2.14.16a4.36,4.36,0,0,0,.43.43l.12.1.11.08.28.2.12.07-.07,0-5.15-3a4.47,4.47,0,0,1-1.09-.9,7.22,7.22,0,0,1-1.53-4.86c0-.33,0-.66,0-1,0-.1,0-.21,0-.31s0-.3,0-.45a1.38,1.38,0,0,0,0-.2c0-.24.08-.47.13-.71s0-.22.05-.33a1,1,0,0,0,0-.17l.12-.45c0-.14.06-.28.1-.41s0-.16.07-.24.07-.24.11-.37.06-.2.1-.31.09-.27.14-.41.07-.19.11-.29l0-.15c.1-.27.21-.53.33-.8v0l.06-.13c.09-.21.19-.42.29-.63s.08-.16.12-.24l.13-.27a2.1,2.1,0,0,0,.13-.26l.31-.55.09-.15,0,0c.15-.27.31-.52.47-.77l.07-.11.18-.26.27-.41c.05-.08.11-.15.17-.23s.17-.23.25-.34l.18-.24c.07-.1.15-.18.23-.28l.35-.43.15-.18.19-.2c.19-.22.39-.43.6-.64a1.8,1.8,0,0,1,.19-.2l.19-.18.3-.28.51-.45.31-.25c.18-.15.37-.29.56-.43l.27-.19c.29-.2.57-.38.86-.55l.57-.3.16-.08.43-.2.1,0,0,0,.4-.16.1,0,.48-.15h.05c.27-.07.52-.13.76-.17h0l.6-.06H744a2.73,2.73,0,0,1,.4,0h.07l.06,0,.44.1h0l.4.14h0l.06,0,.26.12.1,0,.05,0,0,0Z"/><path class="cls-49" d="M753.87,1572.59c0,5.7-4,12.64-9,15.51-2.51,1.45-4.78,1.57-6.42.6l-.07,0,0,0-.28-.2-.11-.08-.12-.1a4.36,4.36,0,0,1-.43-.43l-.14-.16-.15-.2v0a1,1,0,0,1-.09-.13l-.13-.2s0,0,0-.06a1.19,1.19,0,0,1-.09-.15,5.53,5.53,0,0,1-.33-.69l-.06-.16a.31.31,0,0,1,0-.07s0-.09,0-.13l-.06-.19c0-.1-.06-.2-.08-.3h0c0-.1-.05-.21-.08-.31s0-.18-.05-.27,0-.06,0-.08,0-.2,0-.31a2.36,2.36,0,0,1,0-.28l0-.38c0-.06,0-.13,0-.2a.28.28,0,0,1,0-.09v-.2a2.53,2.53,0,0,1,0-.28v-.3c0-.13,0-.26,0-.39a14.34,14.34,0,0,1,.23-1.92l0-.12a18.81,18.81,0,0,1,.83-2.92l.19-.49.21-.49a22.65,22.65,0,0,1,1.11-2.2l.29-.48a18.29,18.29,0,0,1,5.61-5.93l.43-.26.34-.19c.2-.11.41-.21.61-.3l.21-.09.16-.07.19-.08.2-.07.1,0,.16,0,.1,0h0l.23-.07.23-.06.35-.07.22,0,.37,0h1a3.55,3.55,0,0,1,.47.06h0l.19,0,.2.05h0l.15,0,.14,0a1.75,1.75,0,0,1,.32.12l.39.19a5.76,5.76,0,0,1,2.61,4.71C753.85,1571.86,753.86,1572.21,753.87,1572.59Z"/><path class="cls-50" d="M670,1591.65l427.47-246.28a12.6,12.6,0,0,0,.13-21.76L866.52,1186.87a34.47,34.47,0,0,0-35-.07L415.86,1430.44"/><g class="cls-13"><polygon class="cls-26" points="862.54 1441.09 1067.81 1318.81 1067.81 1104.04 862.54 1226.32 862.54 1441.09"/><polygon class="cls-21" points="862.54 1226.32 1067.81 1104.04 857.87 984 652.6 1106.28 862.54 1226.32"/><polygon class="cls-22" points="652.6 1106.28 652.6 1321.05 862.54 1441.09 862.54 1226.32 652.6 1106.28"/></g><g class="cls-23"><polygon class="cls-24" points="943.89 1178.98 986.46 1153.62 776.52 1033.59 733.95 1058.94 943.89 1178.98"/></g><polygon class="cls-25" points="986.46 1216.27 943.89 1241.62 943.89 1178.98 986.46 1153.62 986.46 1216.27"/><polygon class="cls-25" points="662.71 1190.91 705.28 1216.27 705.28 1153.62 662.71 1128.26 662.71 1190.91"/><path class="cls-24" d="M669.77,1153.23,698.22,1170c1,.59,1.83.25,1.83-.76h0a3.85,3.85,0,0,0-1.83-2.91l-28.45-16.72c-1-.59-1.84-.25-1.84.76h0A3.86,3.86,0,0,0,669.77,1153.23Z"/><path class="cls-24" d="M669.77,1165.74l28.45,16.72c1,.59,1.83.25,1.83-.76h0a3.88,3.88,0,0,0-1.83-2.92l-28.45-16.71c-1-.59-1.84-.25-1.84.76h0A3.86,3.86,0,0,0,669.77,1165.74Z"/><path class="cls-24" d="M669.77,1178.25,698.22,1195c1,.6,1.83.26,1.83-.75h0a3.88,3.88,0,0,0-1.83-2.92l-28.45-16.71c-1-.59-1.84-.25-1.84.76h0A3.86,3.86,0,0,0,669.77,1178.25Z"/><g class="cls-13"><polygon class="cls-26" points="643.59 1573.19 848.87 1450.91 848.87 1236.14 643.59 1358.42 643.59 1573.19"/><polygon class="cls-21" points="643.59 1358.42 848.87 1236.14 638.93 1116.11 433.65 1238.39 643.59 1358.42"/><polygon class="cls-22" points="433.65 1238.39 433.65 1453.16 643.59 1573.19 643.59 1358.42 433.65 1238.39"/></g><g class="cls-23"><polygon class="cls-24" points="724.94 1311.09 767.51 1285.73 557.58 1165.69 515.01 1191.05 724.94 1311.09"/></g><polygon class="cls-25" points="767.51 1348.37 724.94 1373.73 724.94 1311.09 767.51 1285.73 767.51 1348.37"/><polygon class="cls-25" points="443.76 1323.02 486.33 1348.37 486.33 1285.73 443.76 1260.37 443.76 1323.02"/><path class="cls-24" d="M450.82,1285.34l28.45,16.71c1,.6,1.84.26,1.84-.75h0a3.9,3.9,0,0,0-1.84-2.92l-28.45-16.71c-1-.59-1.83-.25-1.83.76h0A3.85,3.85,0,0,0,450.82,1285.34Z"/><path class="cls-24" d="M450.82,1297.85l28.45,16.71c1,.6,1.84.26,1.84-.75h0a3.9,3.9,0,0,0-1.84-2.92l-28.45-16.71c-1-.59-1.83-.25-1.83.76h0A3.85,3.85,0,0,0,450.82,1297.85Z"/><path class="cls-24" d="M450.82,1310.36l28.45,16.71c1,.59,1.84.25,1.84-.76h0a3.86,3.86,0,0,0-1.84-2.91l-28.45-16.71c-1-.59-1.83-.25-1.83.76h0A3.87,3.87,0,0,0,450.82,1310.36Z"/><g class="cls-13"><polygon class="cls-26" points="643.59 1357.89 848.87 1235.61 848.87 1020.84 643.59 1143.12 643.59 1357.89"/><polygon class="cls-21" points="643.59 1143.12 848.87 1020.84 638.93 900.8 433.65 1023.08 643.59 1143.12"/><polygon class="cls-22" points="433.65 1023.08 433.65 1237.85 643.59 1357.89 643.59 1143.12 433.65 1023.08"/></g><g class="cls-23"><polygon class="cls-24" points="724.94 1095.78 767.51 1070.42 557.58 950.39 515.01 975.75 724.94 1095.78"/></g><polygon class="cls-25" points="767.51 1133.07 724.94 1158.43 724.94 1095.78 767.51 1070.42 767.51 1133.07"/><polygon class="cls-25" points="443.76 1107.71 486.33 1133.07 486.33 1070.42 443.76 1045.06 443.76 1107.71"/><path class="cls-24" d="M450.82,1070l28.45,16.71c1,.59,1.84.25,1.84-.76h0a3.86,3.86,0,0,0-1.84-2.91l-28.45-16.71c-1-.6-1.83-.26-1.83.75h0A3.88,3.88,0,0,0,450.82,1070Z"/><path class="cls-24" d="M450.82,1082.55l28.45,16.71c1,.59,1.84.25,1.84-.76h0a3.86,3.86,0,0,0-1.84-2.91l-28.45-16.72c-1-.59-1.83-.25-1.83.76h0A3.88,3.88,0,0,0,450.82,1082.55Z"/><path class="cls-24" d="M450.82,1095.05l28.45,16.72c1,.59,1.84.25,1.84-.76h0a3.86,3.86,0,0,0-1.84-2.91l-28.45-16.72c-1-.59-1.83-.25-1.83.76h0A3.85,3.85,0,0,0,450.82,1095.05Z"/><line class="cls-51" x1="420.34" y1="1119.55" x2="675.63" y2="1262.08"/><line class="cls-51" x1="420.34" y1="1297.45" x2="675.63" y2="1439.98"/><path class="cls-51" d="M675.63,1578.66V1278.57a51.92,51.92,0,0,0-9.51-30l-91-129a56.85,56.85,0,0,0-18.76-16.88L346,985.32c-8.15-4.54-16.82,5.09-11.44,12.71l73.8,104.57a65.32,65.32,0,0,1,12,37.69v300.43a43.75,43.75,0,0,0,22.42,38.2L649.2,1594.18A17.77,17.77,0,0,0,675.63,1578.66Z"/><line class="cls-51" x1="483.73" y1="1154.94" x2="483.73" y2="1501.01"/><line class="cls-51" x1="582.97" y1="1212.54" x2="582.97" y2="1558.62"/><path class="cls-52" d="M54.67,1776.37s-11.6,26.47-3.71,35.93,37.72,22.56,53,18.92,42.94-34.93,66.22-45.12,26.93-32.74,0-34.2-67.68,9.46-67.68,9.46Z"/><path class="cls-53" d="M290.26,1822.49s39.3,2.91,64,0,43.66,15.28,18.19,36.39-58.22,25.47-82.23,41.48-48,15.28-73.5,0,4.36-74.23,4.36-74.23Z"/><path class="cls-54" d="M80.84,1292.44s-25.67,40.67-22.76,71.76,20.27,83.54,22.76,86.46,0,116.57,0,116.57-25.67,33-28.59,84.52,0,114.63,0,114.63-4.85,13.6,20.4,18.46,40.8-5.83,40.8-5.83,18.48-136,43.24-182.63,47.11-236.09,47.11-236.09Z"/><path class="cls-55" d="M45.43,853.32S19,876.13,11.8,933.78-14.62,1097,20.21,1101.27s73.26-6.56,73.26-6.56Z"/><path class="cls-56" d="M302.28,747.57s6.63,31.75,4,37-8.3,10.6-8.3,10.6,8.89,9.28,8.93,17.89-4.69,43.22-11.89,47.46-22.11,1.58-29.74,6.88-10.68,61.62-10.68,61.62l-98.07-26.5L181,811.79s-8.62-73.55,32.47-96.08S302.28,747.57,302.28,747.57Z"/><path class="cls-57" d="M314.21,733.6C312.9,749.45,304,756.55,298,760.29c-18.59,11.53-8.38,44.14-15.55,46.86s-19.22-28.49-31.14-21.87,12.59,33.8,0,45.06-66.93,7.74-78.2-2.76-26.5-43-25.18-74.77S162.46,715,162.46,715,153.85,683.9,189,677.27,319.51,669.32,314.21,733.6Z"/><path class="cls-58" d="M287.21,906.16S172.73,837.7,153.52,847.31s-19.22,21.62-19.22,21.62-68.45-30-88.87-15.61,24,186.14,32.43,291.83,4.8,132.59,4.8,132.59-23.29,94,92.47,111.2,160.1-45.64,160.1-45.64,18.43-348.27,0-367.49-18.9-28.82-37.86-42S287.21,906.16,287.21,906.16Z"/><path class="cls-59" d="M325.25,980.9c-49,12.38-42.12,55.55-19.21,103s83.82,152.52,99.56,148.92,153.84-97.28,153.84-97.28,8.41-24-16.81-43.23-37.73-10.81-37.73-10.81l-79.32,52.84S371.73,969.15,325.25,980.9Z"/><path class="cls-60" d="M158.36,1385.68s-10.9,45.55,23.1,74.69l34,29.15,8.74,141.83s-9.71,25.75-13.6,87.68,4.86,123.12,4.86,123.12,12.25,19.43,41.58,19.43,40-23.31,40-23.31-1.34-134.06,19.73-206,15-284.86,15-284.86S276.12,1403.28,158.36,1385.68Z"/><path class="cls-61" d="M524.69,1082s6.48-14,17.53-15.9,21.1-.48,21.6,4.35,10.54-6.71,22.1-2.19,41.18,36.43,17.57,43.83-42.71,13.41-42.71,13.41S551.29,1093.71,524.69,1082Z"/></g></g></svg>